<?xml version="1.0" encoding="utf-8"?>
<!-- Generator: Adobe Illustrator 28.0.0, SVG Export Plug-In . SVG Version: 6.00 Build 0)  -->
<svg version="1.1" xmlns="http://www.w3.org/2000/svg" xmlns:xlink="http://www.w3.org/1999/xlink" x="0px" y="0px"
	 viewBox="0 0 500 500" style="enable-background:new 0 0 500 500;" xml:space="preserve">
<g id="Background_Complete">
	<g>
		<rect x="416.78" y="398.49" style="fill:#EBEBEB;" width="33.12" height="0.25"/>
		<rect x="322.53" y="401.21" style="fill:#EBEBEB;" width="8.69" height="0.25"/>
		<rect x="396.59" y="389.21" style="fill:#EBEBEB;" width="19.19" height="0.25"/>
		<rect x="52.46" y="390.89" style="fill:#EBEBEB;" width="43.19" height="0.25"/>
		<rect x="104.56" y="390.89" style="fill:#EBEBEB;" width="6.33" height="0.25"/>
		<rect x="131.47" y="395.11" style="fill:#EBEBEB;" width="93.68" height="0.25"/>
		<path style="fill:#EBEBEB;" d="M237.01,337.8H43.92c-3.15,0-5.71-2.56-5.71-5.71V60.66c0-3.15,2.56-5.71,5.71-5.71h193.1
			c3.15,0,5.71,2.56,5.71,5.71v271.43C242.72,335.24,240.16,337.8,237.01,337.8z M43.92,55.2c-3.01,0-5.46,2.45-5.46,5.46v271.43
			c0,3.01,2.45,5.46,5.46,5.46h193.1c3.01,0,5.46-2.45,5.46-5.46V60.66c0-3.01-2.45-5.46-5.46-5.46H43.92z"/>
		<path style="fill:#EBEBEB;" d="M453.31,337.8h-193.1c-3.15,0-5.71-2.56-5.71-5.71V60.66c0-3.15,2.56-5.71,5.71-5.71h193.1
			c3.15,0,5.71,2.56,5.71,5.71v271.43C459.02,335.24,456.46,337.8,453.31,337.8z M260.21,55.2c-3.01,0-5.46,2.45-5.46,5.46v271.43
			c0,3.01,2.45,5.46,5.46,5.46h193.1c3.01,0,5.46-2.45,5.46-5.46V60.66c0-3.01-2.45-5.46-5.46-5.46H260.21z"/>
		<rect y="382.4" style="fill:#EBEBEB;" width="500" height="0.25"/>
	</g>
	<g>
		<path style="fill:#F0F0F0;" d="M108.47,354.48H71.39c-3.04,0-5.5-2.46-5.5-5.5l0,0c0-3.04,2.46-5.5,5.5-5.5h37.09
			c3.04,0,5.5,2.46,5.5,5.5l0,0C113.98,352.01,111.51,354.48,108.47,354.48z"/>
		<path style="fill:#F0F0F0;" d="M161.83,354.48h-37.09c-3.04,0-5.5-2.46-5.5-5.5l0,0c0-3.04,2.46-5.5,5.5-5.5h37.09
			c3.04,0,5.5,2.46,5.5,5.5l0,0C167.33,352.01,164.87,354.48,161.83,354.48z"/>
		<path style="fill:#F0F0F0;" d="M215.19,354.48H178.1c-3.04,0-5.5-2.46-5.5-5.5l0,0c0-3.04,2.46-5.5,5.5-5.5h37.09
			c3.04,0,5.5,2.46,5.5,5.5l0,0C220.69,352.01,218.23,354.48,215.19,354.48z"/>
		<path style="fill:#F0F0F0;" d="M268.54,354.48h-37.09c-3.04,0-5.5-2.46-5.5-5.5l0,0c0-3.04,2.46-5.5,5.5-5.5h37.09
			c3.04,0,5.5,2.46,5.5,5.5l0,0C274.05,352.01,271.58,354.48,268.54,354.48z"/>
		<path style="fill:#F0F0F0;" d="M321.9,354.48h-37.09c-3.04,0-5.5-2.46-5.5-5.5l0,0c0-3.04,2.46-5.5,5.5-5.5h37.09
			c3.04,0,5.5,2.46,5.5,5.5l0,0C327.4,352.01,324.94,354.48,321.9,354.48z"/>
		<path style="fill:#F0F0F0;" d="M375.26,354.48h-37.09c-3.04,0-5.5-2.46-5.5-5.5l0,0c0-3.04,2.46-5.5,5.5-5.5h37.09
			c3.04,0,5.5,2.46,5.5,5.5l0,0C380.76,352.01,378.3,354.48,375.26,354.48z"/>
		<path style="fill:#F0F0F0;" d="M428.61,354.48h-37.09c-3.04,0-5.5-2.46-5.5-5.5l0,0c0-3.04,2.46-5.5,5.5-5.5h37.09
			c3.04,0,5.5,2.46,5.5,5.5l0,0C434.12,352.01,431.65,354.48,428.61,354.48z"/>
	</g>
	<g>
		<path style="fill:#F5F5F5;stroke:#263238;stroke-miterlimit:10;" d="M357.96,279.69H142.04c-40.89,0-74.04-33.15-74.04-74.04
			v-43.29c0-40.89,33.15-74.04,74.04-74.04h215.93c40.89,0,74.04,33.15,74.04,74.04v43.29C432,246.54,398.85,279.69,357.96,279.69z"
			/>
		<g>
			<path style="fill:#FAFAFA;" d="M88.51,256.77l45.63-168.02c-8.82,0.93-17.18,3.42-24.79,7.18l-36.77,135.4
				C76.12,240.9,81.59,249.53,88.51,256.77z"/>
			<path style="fill:#FAFAFA;" d="M407.62,107.45l-46.76,172.16c39.54-1.53,71.14-34.05,71.14-73.96v-43.29
				C432,140.58,422.59,121,407.62,107.45z"/>
			<path style="fill:#FAFAFA;" d="M376.1,90.57c-5.81-1.46-11.88-2.25-18.14-2.25h-94.64l-51.97,191.36h113.39L376.1,90.57z"/>
			<path style="fill:#FAFAFA;" d="M142.04,279.69h27.98l51.97-191.36H151.3L102.45,268.2C113.9,275.46,127.47,279.69,142.04,279.69z
				"/>
			<path style="fill:#FAFAFA;" d="M395.86,98.76c-2.74-1.64-5.6-3.1-8.56-4.38l-50.33,185.31h9.75L395.86,98.76z"/>
		</g>
		<g>
			<rect x="270.23" y="190.2" style="fill:#F0F0F0;" width="16" height="87.13"/>
			<polygon style="fill:#F0F0F0;" points="222.47,277.33 206.47,277.33 206.47,190.2 222.47,227.32 			"/>
			<rect x="296.48" y="221.41" style="fill:#E0E0E0;" width="10.55" height="57.48"/>
			<rect x="147.22" y="221.41" style="fill:#EBEBEB;" width="10.55" height="57.48"/>
			<rect x="343.82" y="221.41" style="fill:#F5F5F5;" width="10.55" height="57.48"/>
			<polygon style="fill:#EBEBEB;" points="333.09,186.27 333.09,166.32 330.01,166.32 330.01,139.69 321.03,139.69 321.03,166.32 
				317.95,166.32 317.95,186.27 314.48,186.27 314.48,278.88 336.56,278.88 336.56,186.27 			"/>
			<polygon style="fill:#F0F0F0;" points="186.22,162.65 186.22,137.61 182.35,137.61 182.35,104.19 171.09,104.19 171.09,137.61 
				167.22,137.61 167.22,162.65 162.87,162.65 162.87,278.88 190.57,278.88 190.57,162.65 			"/>
			<polygon style="fill:#E6E6E6;" points="370.6,156.26 370.6,166.32 376.76,166.32 376.76,186.27 383.71,186.27 383.71,278.88 
				361.63,278.88 361.63,229.81 361.63,186.27 361.63,177.34 361.63,166.32 361.63,139.69 			"/>
			<polygon style="fill:#E6E6E6;" points="135.22,178.3 135.22,186.55 130.17,186.55 130.17,202.92 124.47,202.92 124.47,278.88 
				142.58,278.88 142.58,238.63 142.58,202.92 142.58,195.6 142.58,186.55 142.58,164.71 			"/>
			<polygon style="fill:#E0E0E0;" points="248.71,138.51 248.71,186.27 244.58,186.27 244.58,138.51 235.61,155.09 235.61,186.27 
				235.61,191.85 235.61,278.88 257.68,278.88 257.68,191.85 257.68,186.27 257.68,155.09 			"/>
		</g>
		<g>
			<path style="fill:#E6E6E6;" d="M357.96,284.19H142.04c-43.31,0-78.54-35.23-78.54-78.54v-43.29c0-43.31,35.23-78.54,78.54-78.54
				h215.93c43.31,0,78.54,35.23,78.54,78.54v43.29C436.5,248.96,401.27,284.19,357.96,284.19z M142.04,92.83
				c-38.34,0-69.54,31.19-69.54,69.54v43.29c0,38.34,31.19,69.54,69.54,69.54h215.93c38.34,0,69.54-31.19,69.54-69.54v-43.29
				c0-38.34-31.19-69.54-69.54-69.54H142.04z"/>
		</g>
	</g>
</g>
<g id="Background_Simple" style="display:none;">
	<g style="display:inline;">
		<path style="fill:#407BFF;" d="M173.17,350.83c-30.05-9.13-106.12-36.79-108.34-109.05c-2.29-74.82,68.4-95.08,141.56-89.1
			c68.32,5.58,62.48-74.33,154.9-66.78c78.25,6.39,115.15,134.23,4.52,226.74C298.65,368.8,207.13,361.14,173.17,350.83z"/>
		<path style="opacity:0.9;fill:#FFFFFF;" d="M173.17,350.83c-30.05-9.13-106.12-36.79-108.34-109.05
			c-2.29-74.82,68.4-95.08,141.56-89.1c68.32,5.58,62.48-74.33,154.9-66.78c78.25,6.39,115.15,134.23,4.52,226.74
			C298.65,368.8,207.13,361.14,173.17,350.83z"/>
	</g>
</g>
<g id="Shadow">
	<ellipse id="_x3C_Path_x3E__1_" style="fill:#F5F5F5;" cx="245.18" cy="412.39" rx="193.89" ry="11.32"/>
</g>
<g id="Robot_Arm_2">
	<g>
		
			<rect x="371.65" y="264.22" transform="matrix(-0.4687 -0.8834 0.8834 -0.4687 317.557 723.0992)" style="fill:#263238;" width="9.18" height="3.65"/>
		<rect x="396.63" y="310.62" style="fill:#263238;" width="5.88" height="10.07"/>
		<rect x="377.61" y="389.17" style="fill:#263238;" width="12.41" height="6.84"/>
		<g>
			<path style="fill:#263238;" d="M415.55,411.59h-63.47l1.47-7.06c1.32-6.34,6.91-10.89,13.38-10.89h33.78
				c6.48,0,12.07,4.55,13.38,10.89L415.55,411.59z"/>
			<path style="opacity:0.4;fill:#FFFFFF;" d="M415.55,411.59h-63.47l1.47-7.06c1.32-6.34,6.91-10.89,13.38-10.89h33.78
				c6.48,0,12.07,4.55,13.38,10.89L415.55,411.59z"/>
		</g>
		<path style="fill:#407BFF;" d="M383.57,390.88l-6.47-1.84c-5.21-1.48-8.11-7.05-6.32-12.17l18.79-53.82
			c1.64-4.71,6.67-7.32,11.47-5.96l0,0c4.8,1.36,7.7,6.23,6.62,11.1l-12.33,55.66C394.18,389.15,388.79,392.37,383.57,390.88z"/>
		<g>
			<path style="fill:#407BFF;" d="M398.3,314.43l4.48-2.21c2.2-1.08,3.03-3.79,1.82-5.93l-21.75-38.4c-1.11-1.97-3.57-2.72-5.6-1.72
				l0,0c-2.03,1-2.92,3.41-2.04,5.49l17.27,40.61C393.44,314.53,396.1,315.52,398.3,314.43z"/>
			<path style="opacity:0.3;fill:#FFFFFF;" d="M398.3,314.43l4.48-2.21c2.2-1.08,3.03-3.79,1.82-5.93l-21.75-38.4
				c-1.11-1.97-3.57-2.72-5.6-1.72l0,0c-2.03,1-2.92,3.41-2.04,5.49l17.27,40.61C393.44,314.53,396.1,315.52,398.3,314.43z"/>
		</g>
		<g>
			<path style="fill:#407BFF;" d="M373.75,265.85l3.05-2.8c0.78-0.71,0.8-1.93,0.06-2.67l-32.64-32.57c-0.7-0.7-1.82-0.72-2.55-0.05
				l0,0c-0.73,0.67-0.8,1.79-0.17,2.55l29.58,35.36C371.76,266.48,372.98,266.56,373.75,265.85z"/>
			<path style="opacity:0.5;fill:#FFFFFF;" d="M373.75,265.85l3.05-2.8c0.78-0.71,0.8-1.93,0.06-2.67l-32.64-32.57
				c-0.7-0.7-1.82-0.72-2.55-0.05l0,0c-0.73,0.67-0.8,1.79-0.17,2.55l29.58,35.36C371.76,266.48,372.98,266.56,373.75,265.85z"/>
		</g>
		<g>
			<g>
				<path style="fill:#263238;" d="M339.78,227.21L339.78,227.21c-0.51-1.7-2.13-2.81-3.89-2.68l-5.28,0.4l-1.79,0.57l-4.45,3.15
					c-0.68,0.48-0.79,1.45-0.24,2.07l0,0l6-2.54l1.17-0.35l4.8-0.34c0.37-0.03,0.71,0.21,0.82,0.56l0,0
					c0.11,0.36-0.05,0.74-0.37,0.92l-4.2,2.36l-1.17,0.35l-6.41,1.18l0,0c-0.12,0.82,0.51,1.56,1.34,1.58l5.77,0.14l1.79-0.57
					l4.35-2.44C339.56,230.72,340.29,228.9,339.78,227.21z"/>
			</g>
		</g>
		<g style="opacity:0.7;">
			<path style="fill:#FFFFFF;" d="M386.98,375.87c-0.64-0.64-1.44-1.13-2.37-1.4c-2.9-0.83-5.93,0.86-6.76,3.76
				c-0.26,0.93-0.27,1.87-0.06,2.75L386.98,375.87z"/>
			<path style="fill:#FFFFFF;" d="M379.24,383.6c0.64,0.64,1.44,1.13,2.37,1.4c2.9,0.83,5.93-0.86,6.76-3.76
				c0.26-0.93,0.27-1.87,0.06-2.75L379.24,383.6z"/>
		</g>
		<g style="opacity:0.7;">
			<path style="fill:#FFFFFF;" d="M394.02,306.7c0.03-0.61,0.22-1.23,0.57-1.78c1.1-1.74,3.4-2.25,5.14-1.14
				c0.56,0.35,0.98,0.83,1.28,1.37L394.02,306.7z"/>
			<path style="fill:#FFFFFF;" d="M401.45,307.12c-0.03,0.61-0.22,1.23-0.57,1.78c-1.1,1.74-3.4,2.25-5.14,1.14
				c-0.56-0.35-0.99-0.83-1.28-1.37L401.45,307.12z"/>
		</g>
		<g style="opacity:0.7;">
			<path style="fill:#FFFFFF;" d="M371.93,258.76c0.36-0.09,0.74-0.1,1.12,0c1.19,0.31,1.91,1.53,1.6,2.72
				c-0.1,0.38-0.29,0.72-0.55,0.98L371.93,258.76z"/>
			<path style="fill:#FFFFFF;" d="M373.06,263.08c-0.36,0.09-0.74,0.1-1.12,0c-1.19-0.31-1.91-1.53-1.6-2.72
				c0.1-0.38,0.29-0.72,0.55-0.98L373.06,263.08z"/>
		</g>
	</g>
</g>
<g id="Robot_Arm_1">
	<g>
		
			<rect x="91.28" y="223.67" transform="matrix(0.7611 -0.6486 0.6486 0.7611 -123.3752 116.9383)" style="fill:#263238;" width="11.59" height="4.61"/>
		<rect x="117.62" y="281.01" style="fill:#263238;" width="7.42" height="12.71"/>
		<rect x="114.73" y="382.97" style="fill:#263238;" width="15.66" height="8.63"/>
		<g>
			<path style="fill:#263238;" d="M162.62,411.27H82.51l1.85-8.91c1.66-8,8.72-13.74,16.89-13.74h42.63
				c8.18,0,15.23,5.74,16.89,13.74L162.62,411.27z"/>
			<path style="opacity:0.4;fill:#FFFFFF;" d="M162.62,411.27H82.51l1.85-8.91c1.66-8,8.72-13.74,16.89-13.74h42.63
				c8.18,0,15.23,5.74,16.89,13.74L162.62,411.27z"/>
		</g>
		<path style="fill:#407BFF;" d="M126.09,384.86h-8.49c-6.84,0-12.27-5.76-11.87-12.59l4.24-71.83c0.37-6.28,5.58-11.19,11.87-11.19
			l0,0c6.29,0,11.5,4.91,11.87,11.19l4.24,71.83C138.36,379.09,132.93,384.86,126.09,384.86z"/>
		<g>
			<path style="fill:#407BFF;" d="M127.54,282.6l-5.39,3.28c-2.64,1.61-6.09,0.66-7.55-2.07l-26.18-49.16
				c-1.34-2.52-0.48-5.65,1.96-7.13v0c2.44-1.48,5.61-0.8,7.23,1.55l31.57,45.89C130.93,277.49,130.18,280.99,127.54,282.6z"/>
			<path style="opacity:0.3;fill:#FFFFFF;" d="M127.54,282.6l-5.39,3.28c-2.64,1.61-6.09,0.66-7.55-2.07l-26.18-49.16
				c-1.34-2.52-0.48-5.65,1.96-7.13v0c2.44-1.48,5.61-0.8,7.23,1.55l31.57,45.89C130.93,277.49,130.18,280.99,127.54,282.6z"/>
		</g>
		<g>
			<path style="fill:#407BFF;" d="M99.56,227.64l-2.84-4.39c-0.72-1.12-0.37-2.61,0.78-3.28l50.21-29.42
				c1.08-0.63,2.46-0.3,3.14,0.74l0,0c0.68,1.05,0.41,2.44-0.6,3.17l-47.37,33.81C101.79,229.05,100.28,228.76,99.56,227.64z"/>
			<path style="opacity:0.5;fill:#FFFFFF;" d="M99.56,227.64l-2.84-4.39c-0.72-1.12-0.37-2.61,0.78-3.28l50.21-29.42
				c1.08-0.63,2.46-0.3,3.14,0.74l0,0c0.68,1.05,0.41,2.44-0.6,3.17l-47.37,33.81C101.79,229.05,100.28,228.76,99.56,227.64z"/>
		</g>
		<g>
			<g>
				<path style="fill:#263238;" d="M152.01,189.81L152.01,189.81c0-2.23,1.55-4.17,3.74-4.65l6.53-1.44l2.37,0.05l6.52,2.19
					c1,0.34,1.48,1.46,1.04,2.42l0,0l-8.18-0.9h-1.54l-5.93,1.33c-0.46,0.1-0.78,0.51-0.78,0.98l0,0c0,0.47,0.33,0.88,0.78,0.98
					l5.93,1.33h1.54l8.18-0.9v0c0.44,0.95-0.05,2.08-1.05,2.4l-6.92,2.26l-2.37-0.05l-6.14-1.38
					C153.56,193.97,152.01,192.04,152.01,189.81z"/>
			</g>
		</g>
		<g style="opacity:0.7;">
			<path style="fill:#FFFFFF;" d="M125.04,365.46c-1-0.56-2.14-0.88-3.36-0.88c-3.81,0-6.9,3.09-6.9,6.9c0,1.22,0.32,2.37,0.88,3.36
				L125.04,365.46z"/>
			<path style="fill:#FFFFFF;" d="M118.31,377.51c1,0.56,2.14,0.88,3.36,0.88c3.81,0,6.9-3.09,6.9-6.9c0-1.22-0.32-2.37-0.88-3.36
				L118.31,377.51z"/>
		</g>
		<g style="opacity:0.7;">
			<path style="fill:#FFFFFF;" d="M122.2,272.8c-0.68-0.38-1.46-0.6-2.29-0.6c-2.6,0-4.7,2.1-4.7,4.7c0,0.83,0.22,1.61,0.6,2.29
				L122.2,272.8z"/>
			<path style="fill:#FFFFFF;" d="M117.62,281.01c0.68,0.38,1.46,0.6,2.29,0.6c2.6,0,4.7-2.1,4.7-4.7c0-0.83-0.22-1.61-0.6-2.29
				L117.62,281.01z"/>
		</g>
		<g style="opacity:0.7;">
			<path style="fill:#FFFFFF;" d="M104.03,219.56c-0.41-0.23-0.87-0.36-1.37-0.36c-1.56,0-2.82,1.26-2.82,2.82
				c0,0.5,0.13,0.97,0.36,1.37L104.03,219.56z"/>
			<path style="fill:#FFFFFF;" d="M101.28,224.48c0.41,0.23,0.87,0.36,1.37,0.36c1.56,0,2.82-1.26,2.82-2.82
				c0-0.5-0.13-0.97-0.36-1.37L101.28,224.48z"/>
		</g>
	</g>
</g>
<g id="Robot">
	<g>
		<g>
			<path style="fill:#407BFF;" d="M223.1,152l-1.74,1.82c-3.28,3.42-5,8.04-4.77,12.78c0,0,0.09,2.15,0.14,2.86
				c0.5,7.02,2.57,28.05,2.57,28.05s-3.98,4.74-3.08,37.04l-4.6,3.9c-0.8,0.68-1.12,1.77-0.83,2.77l0.65,2.21
				c0.02,0.06,0.03,0.12,0.05,0.17l0.54,2.45c0.34,1.52,1.9,2.42,3.38,1.95l5.27-1.65c1.02-0.32,1.75-1.22,1.85-2.28l-0.24-8.25
				l6.04-37.3C228.35,198.53,233.18,157.9,223.1,152z"/>
			<path style="opacity:0.2;" d="M223.1,152l-1.74,1.82c-3.28,3.42-5,8.04-4.77,12.78c0,0,0.09,2.15,0.14,2.86
				c0.5,7.02,2.57,28.05,2.57,28.05s-3.98,4.74-3.08,37.04l-4.6,3.9c-0.8,0.68-1.12,1.77-0.83,2.77l0.65,2.21
				c0.02,0.06,0.03,0.12,0.05,0.17l0.54,2.45c0.34,1.52,1.9,2.42,3.38,1.95l5.27-1.65c1.02-0.32,1.75-1.22,1.85-2.28l-0.24-8.25
				l6.04-37.3C228.35,198.53,233.18,157.9,223.1,152z"/>
		</g>
		<g>
			<g>
				<path style="fill:#407BFF;" d="M219.05,227.35l-1.74,14.15c0,0-0.4,48.02-1.25,64c-1.15,21.55-7.5,85.99-7.5,85.99
					s-4.45,11-7.32,13.57c-1.5,1.34-5.27,2.86-8.6,4.02c-1.33,0.46-1.08,2.42,0.32,2.53c4.89,0.38,11.27,0.64,14.1-0.22
					c2.8-0.85,8.61-4.93,12.35-7.7c2-1.48,2.59-4.21,1.38-6.39l-3.23-5.81c0,0,16.03-50.89,17.5-68.5c0.38-4.5-1.5-18-1.5-18
					l17.18-48.19c0,0,10.89-14.19-1.29-35.17L220.9,224L219.05,227.35z"/>
				<path style="opacity:0.2;fill:#FFFFFF;" d="M219.05,227.35l-1.74,14.15c0,0-0.4,48.02-1.25,64c-1.15,21.55-7.5,85.99-7.5,85.99
					s-4.45,11-7.32,13.57c-1.5,1.34-5.27,2.86-8.6,4.02c-1.33,0.46-1.08,2.42,0.32,2.53c4.89,0.38,11.27,0.64,14.1-0.22
					c2.8-0.85,8.61-4.93,12.35-7.7c2-1.48,2.59-4.21,1.38-6.39l-3.23-5.81c0,0,16.03-50.89,17.5-68.5c0.38-4.5-1.5-18-1.5-18
					l17.18-48.19c0,0,10.89-14.19-1.29-35.17L220.9,224L219.05,227.35z"/>
			</g>
			<ellipse style="opacity:0.7;fill:#FFFFFF;" cx="229.73" cy="304.27" rx="2.09" ry="3.23"/>
			<path style="opacity:0.4;fill:#FFFFFF;" d="M229.65,297.5c-2.81,0-5.13,2.86-5.41,6.53h-8.11c-0.02,0.52-0.05,1.01-0.07,1.47
				c0,0.01,0,0.02,0,0.03h2.83l-7.86,85.22h-2.39c-0.05,0.49-0.07,0.75-0.07,0.75s-0.11,0.28-0.31,0.75h9.72l-0.41-0.74
				c0,0,0.08-0.27,0.24-0.76h-5.26l7.86-85.22h5.32v-0.75c0-3.18,1.77-5.78,3.94-5.78c1.84,0,3.46,1.92,3.85,4.57l0.09,0.64h0.25
				l0.81-2.26C233.81,299.31,231.86,297.5,229.65,297.5z"/>
			<path style="opacity:0.4;fill:#FFFFFF;" d="M209.03,410.54c0.48-0.25,1-0.53,1.54-0.85c0.04-0.8-0.2-1.52-0.72-2.12
				c-1.83-2.09-6.69-2.21-9.1-2.13c-0.71,0.52-1.7,1.05-2.85,1.57l1.58,0c2.04-0.17,7.67-0.23,9.23,1.55
				c0.34,0.39,0.44,0.84,0.32,1.42L209.03,410.54z"/>
			<g style="opacity:0.7;">
				<path style="fill:#FFFFFF;" d="M217.51,395.72c-0.45-0.74-1.09-1.21-1.8-1.21c-1.37,0-2.48,1.72-2.48,3.85
					c0,0.52,0.07,1.01,0.19,1.46L217.51,395.72z"/>
				<path style="fill:#FFFFFF;" d="M214.09,401.26c0.44,0.58,1,0.95,1.62,0.95c1.37,0,2.48-1.72,2.48-3.85
					c0-0.38-0.05-0.74-0.11-1.09L214.09,401.26z"/>
			</g>
		</g>
		<g>
			<g>
				<path style="fill:#407BFF;" d="M264.79,223.38l-3.61-4.38l-32.8,7.4c0,0,1.35,2.65,1.61,3.59c0.76,2.79,0.41,8.76,1.32,11.51
					c0.97,2.96,6.75,10.5,6.75,10.5l19.38,140.56c0,0-4.2,13.59-7.38,16.94c-0.73,0.77-2.33,1.67-4.05,2.49
					c-1.5,0.72-1.06,2.96,0.61,3.04c3.38,0.17,7.16,0.15,8.94-0.53c3.26-1.25,9.29-7.4,12.45-10.79c1.26-1.35,1.58-3.32,0.82-5
					l-3.02-6.71c0,0,6.42-51.84,4.25-69c-0.65-5.11-5.63-19.5-5.63-19.5s1.19-25.01,2.26-39.03c0.23-3.01,0.74-6,1.59-8.9
					C270.03,249.56,272.55,236.01,264.79,223.38z"/>
				<path style="opacity:0.4;fill:#FFFFFF;" d="M264.79,223.38l-3.61-4.38l-32.8,7.4c0,0,1.35,2.65,1.61,3.59
					c0.76,2.79,0.41,8.76,1.32,11.51c0.97,2.96,6.75,10.5,6.75,10.5l19.38,140.56c0,0-4.2,13.59-7.38,16.94
					c-0.73,0.77-2.33,1.67-4.05,2.49c-1.5,0.72-1.06,2.96,0.61,3.04c3.38,0.17,7.16,0.15,8.94-0.53c3.26-1.25,9.29-7.4,12.45-10.79
					c1.26-1.35,1.58-3.32,0.82-5l-3.02-6.71c0,0,6.42-51.84,4.25-69c-0.65-5.11-5.63-19.5-5.63-19.5s1.19-25.01,2.26-39.03
					c0.23-3.01,0.74-6,1.59-8.9C270.03,249.56,272.55,236.01,264.79,223.38z"/>
			</g>
			<g>
				<path style="fill:#263238;" d="M270.06,323c-0.58-4.61-4.7-16.78-5.5-19.11h-0.37c-0.2,3.99-2.35,7.14-4.98,7.14
					c-2.76,0-5-3.47-5-7.75h-4.77l11.07,89.28l5.38-0.38C265.89,392.19,272.23,340.16,270.06,323z"/>
				<path style="opacity:0.4;fill:#FFFFFF;" d="M270.06,323c-0.58-4.61-4.7-16.78-5.5-19.11h-0.37c-0.2,3.99-2.35,7.14-4.98,7.14
					c-2.76,0-5-3.47-5-7.75h-4.77l11.07,89.28l5.38-0.38C265.89,392.19,272.23,340.16,270.06,323z"/>
			</g>
			<g>
				<ellipse style="fill:#263238;" cx="259.22" cy="303.28" rx="5" ry="7.75"/>
				<ellipse style="opacity:0.3;fill:#FFFFFF;" cx="259.22" cy="303.28" rx="5" ry="7.75"/>
			</g>
			<g>
				<ellipse style="fill:#263238;" cx="260.71" cy="238" rx="6.62" ry="10.27"/>
				<ellipse style="opacity:0.3;fill:#FFFFFF;" cx="260.71" cy="238" rx="6.62" ry="10.27"/>
			</g>
			<g>
				<ellipse style="fill:#263238;" cx="265.05" cy="398.36" rx="2.48" ry="3.85"/>
				<ellipse style="opacity:0.5;fill:#FFFFFF;" cx="265.05" cy="398.36" rx="2.48" ry="3.85"/>
			</g>
			<path style="opacity:0.4;fill:#FFFFFF;" d="M258.27,295.67c-2.31,0.69-4.05,3.83-4.05,7.61c0,3.78,1.75,6.92,4.05,7.61
				c2.31-0.69,4.06-3.83,4.06-7.61C262.32,299.5,260.58,296.36,258.27,295.67z"/>
			<path style="opacity:0.4;fill:#FFFFFF;" d="M259.71,227.86c-3.18,0.75-5.62,5-5.62,10.14c0,5.14,2.44,9.39,5.62,10.14
				c3.18-0.75,5.62-5,5.62-10.14C265.34,232.85,262.89,228.61,259.71,227.86z"/>
			<g>
				<path style="fill:#407BFF;" d="M265.05,402.96c-1.81,0-3.23-2.02-3.23-4.6c0-2.58,1.42-4.6,3.23-4.6s3.23,2.02,3.23,4.6
					C268.28,400.94,266.86,402.96,265.05,402.96z M265.05,395.26c-0.82,0-1.73,1.27-1.73,3.1c0,1.83,0.91,3.1,1.73,3.1
					c0.82,0,1.73-1.27,1.73-3.1C266.78,396.53,265.87,395.26,265.05,395.26z"/>
			</g>
			<path style="fill:#407BFF;" d="M261.2,410.47c-0.13-0.67-0.48-1.24-1.03-1.67c-2.19-1.67-7.19-0.76-9.35-0.26
				c-0.26,0.37-0.51,0.7-0.76,0.96c-0.23,0.24-0.55,0.49-0.92,0.75h0.92l0.2-0.03c2.65-0.72,7.43-1.43,9-0.23
				c0.35,0.26,0.51,0.61,0.51,1.08v0.64C260.23,411.31,260.71,410.9,261.2,410.47z"/>
			<path style="fill:#407BFF;" d="M250.29,304.03h3.2c0.25,4.4,2.67,7.75,5.73,7.75c2.87,0,5.18-2.96,5.66-6.98
				c-0.28-0.82-0.44-1.3-0.44-1.3s0.06-1.23,0.16-3.3c-0.73-2.86-2.47-4.93-4.6-5.34l1.45-45.9c3.73-0.55,6.65-5.26,6.65-10.96
				c0-6.08-3.31-11.02-7.38-11.02c-3.99,0-7.24,4.76-7.36,10.67l0.07,1.93c0.48,4.95,3.16,8.86,6.52,9.38l-1.45,45.9
				c-2.7,0.49-4.77,3.63-5,7.68h-8.36v0.75l0.1,0.75h3.55l10.86,87.62l-2.32,0.12l0.06,0.43l0.05,0.36c0,0-0.01,0.05-0.04,0.11
				c-0.01,0.02-0.01,0.04-0.02,0.06c0,0.01-0.01,0.02-0.01,0.03c-0.02,0.05-0.04,0.11-0.06,0.18c0,0.01-0.01,0.02-0.01,0.04
				c-0.02,0.08-0.05,0.16-0.08,0.26c0,0.01,0,0.01-0.01,0.02l8.97-0.45l-0.12-0.28l-0.25-0.55c0,0,0.02-0.12,0.04-0.35
				c0.01-0.09,0.02-0.19,0.04-0.3l-4.74,0.24L250.29,304.03z M254.84,238c0-5.25,2.64-9.52,5.87-9.52c3.24,0,5.88,4.27,5.88,9.52
				c0,5.25-2.64,9.52-5.88,9.52C257.47,247.51,254.84,243.25,254.84,238z M259.21,296.28c2.3,0,4.25,3.21,4.25,7
				c0,3.79-1.95,7-4.25,7c-2.3,0-4.25-3.21-4.25-7C254.96,299.49,256.91,296.28,259.21,296.28z"/>
			<path style="opacity:0.7;fill:#FFFFFF;" d="M259.22,303.28c0,1.71-0.9,3.1-2,3.1c-1.11,0-2-1.39-2-3.1c0-1.71,0.9-3.1,2-3.1
				C258.32,300.18,259.22,301.57,259.22,303.28z"/>
			<path style="opacity:0.7;fill:#FFFFFF;" d="M261.78,238c0,2.63-1.37,4.75-3.07,4.75s-3.07-2.13-3.07-4.75
				c0-2.63,1.37-4.75,3.07-4.75S261.78,235.37,261.78,238z"/>
			<path style="opacity:0.7;fill:#FFFFFF;" d="M265.05,398.36c0,0.86-0.45,1.55-1,1.55c-0.55,0-1-0.69-1-1.55s0.45-1.55,1-1.55
				C264.6,396.81,265.05,397.5,265.05,398.36z"/>
		</g>
		<g>
			<g>
				<g>
					<path style="fill:#263238;" d="M191.21,227.73c-0.62,0-2.94,0-3.56,0c-3.66,0-6.62,4.6-6.62,10.27
						c0,5.67,2.97,10.27,6.62,10.27c0.62,0,2.94,0,3.56,0c3.66,0,6.62-4.6,6.62-10.27C197.83,232.32,194.87,227.73,191.21,227.73z"
						/>
					<path style="opacity:0.6;fill:#FFFFFF;" d="M191.21,227.73c-0.62,0-2.94,0-3.56,0c-3.66,0-6.62,4.6-6.62,10.27
						c0,5.67,2.97,10.27,6.62,10.27c0.62,0,2.94,0,3.56,0c3.66,0,6.62-4.6,6.62-10.27C197.83,232.32,194.87,227.73,191.21,227.73z"
						/>
				</g>
				<ellipse style="opacity:0.2;" cx="191.21" cy="238" rx="6.62" ry="10.27"/>
			</g>
			<g>
				<path style="fill:#263238;" d="M196.64,234.29c-0.22,0-3.6,0-3.82,0c-1.32,0-2.39,1.66-2.39,3.7c0,2.04,1.07,3.7,2.39,3.7
					c0.22,0,3.6,0,3.82,0c1.32,0,2.39-1.66,2.39-3.7C199.02,235.95,197.95,234.29,196.64,234.29z"/>
				<path style="opacity:0.6;fill:#FFFFFF;" d="M196.64,234.29c-0.22,0-3.6,0-3.82,0c-1.32,0-2.39,1.66-2.39,3.7
					c0,2.04,1.07,3.7,2.39,3.7c0.22,0,3.6,0,3.82,0c1.32,0,2.39-1.66,2.39-3.7C199.02,235.95,197.95,234.29,196.64,234.29z"/>
				<path style="opacity:0.2;" d="M199.02,238c0,2.04-1.07,3.7-2.39,3.7c-1.32,0-2.39-1.66-2.39-3.7c0-2.04,1.07-3.7,2.39-3.7
					C197.95,234.29,199.02,235.95,199.02,238z"/>
			</g>
			<g>
				<path style="fill:#263238;" d="M200.87,236.35c-0.1,0-3.6,0-3.7,0c-0.59,0-1.06,0.74-1.06,1.64c0,0.91,0.48,1.64,1.06,1.64
					c0.1,0,3.6,0,3.7,0c0.59,0,1.06-0.74,1.06-1.64C201.93,237.09,201.46,236.35,200.87,236.35z"/>
				<path style="opacity:0.6;fill:#FFFFFF;" d="M200.87,236.35c-0.1,0-3.6,0-3.7,0c-0.59,0-1.06,0.74-1.06,1.64
					c0,0.91,0.48,1.64,1.06,1.64c0.1,0,3.6,0,3.7,0c0.59,0,1.06-0.74,1.06-1.64C201.93,237.09,201.46,236.35,200.87,236.35z"/>
				<path style="opacity:0.2;" d="M201.93,238c0,0.91-0.48,1.64-1.06,1.64c-0.59,0-1.06-0.74-1.06-1.64c0-0.91,0.48-1.64,1.06-1.64
					C201.46,236.35,201.93,237.09,201.93,238z"/>
			</g>
		</g>
		<g>
			<g>
				<path style="fill:#263238;" d="M206.31,297.04c-0.38,0-1.79,0-2.16,0c-2.22,0-4.03,2.79-4.03,6.24c0,3.45,1.8,6.24,4.03,6.24
					c0.38,0,1.79,0,2.16,0c2.22,0,4.03-2.79,4.03-6.24C210.34,299.84,208.54,297.04,206.31,297.04z"/>
				<path style="opacity:0.6;fill:#FFFFFF;" d="M206.31,297.04c-0.38,0-1.79,0-2.16,0c-2.22,0-4.03,2.79-4.03,6.24
					c0,3.45,1.8,6.24,4.03,6.24c0.38,0,1.79,0,2.16,0c2.22,0,4.03-2.79,4.03-6.24C210.34,299.84,208.54,297.04,206.31,297.04z"/>
			</g>
			<path style="opacity:0.2;" d="M210.34,303.28c0,3.45-1.8,6.24-4.03,6.24c-2.22,0-4.03-2.79-4.03-6.24c0-3.45,1.8-6.24,4.03-6.24
				C208.54,297.04,210.34,299.84,210.34,303.28z"/>
			<path style="fill:#263238;" d="M211.61,301.03c-0.14,0-4.19,0-4.32,0c-0.8,0-1.45,1.01-1.45,2.25c0,1.24,0.65,2.25,1.45,2.25
				c0.14,0,4.19,0,4.32,0c0.8,0,1.45-1.01,1.45-2.25C213.06,302.04,212.41,301.03,211.61,301.03z"/>
			<path style="opacity:0.6;fill:#FFFFFF;" d="M211.61,301.03c-0.14,0-4.19,0-4.32,0c-0.8,0-1.45,1.01-1.45,2.25
				c0,1.24,0.65,2.25,1.45,2.25c0.14,0,4.19,0,4.32,0c0.8,0,1.45-1.01,1.45-2.25C213.06,302.04,212.41,301.03,211.61,301.03z"/>
			<path style="opacity:0.2;" d="M213.06,303.28c0,1.24-0.65,2.25-1.45,2.25c-0.8,0-1.45-1.01-1.45-2.25c0-1.24,0.65-2.25,1.45-2.25
				C212.41,301.03,213.06,302.04,213.06,303.28z"/>
		</g>
		<g>
			<g>
				<path style="fill:#263238;" d="M197.55,149.82c-0.38,0-1.79,0-2.16,0c-2.22,0-4.03,2.79-4.03,6.24s1.8,6.24,4.03,6.24
					c0.38,0,1.79,0,2.16,0c2.22,0,4.03-2.79,4.03-6.24S199.77,149.82,197.55,149.82z"/>
				<path style="opacity:0.6;fill:#FFFFFF;" d="M197.55,149.82c-0.38,0-1.79,0-2.16,0c-2.22,0-4.03,2.79-4.03,6.24
					s1.8,6.24,4.03,6.24c0.38,0,1.79,0,2.16,0c2.22,0,4.03-2.79,4.03-6.24S199.77,149.82,197.55,149.82z"/>
			</g>
			<ellipse style="opacity:0.2;" cx="197.55" cy="156.06" rx="4.03" ry="6.24"/>
			<path style="fill:#263238;" d="M202.85,153.81c-0.14,0-4.19,0-4.32,0c-0.8,0-1.45,1.01-1.45,2.25s0.65,2.25,1.45,2.25
				c0.14,0,4.19,0,4.32,0c0.8,0,1.45-1.01,1.45-2.25S203.65,153.81,202.85,153.81z"/>
			<path style="opacity:0.6;fill:#FFFFFF;" d="M202.85,153.81c-0.14,0-4.19,0-4.32,0c-0.8,0-1.45,1.01-1.45,2.25
				s0.65,2.25,1.45,2.25c0.14,0,4.19,0,4.32,0c0.8,0,1.45-1.01,1.45-2.25S203.65,153.81,202.85,153.81z"/>
			<ellipse style="opacity:0.2;" cx="202.85" cy="156.06" rx="1.45" ry="2.25"/>
		</g>
		<g>
			<path style="fill:#407BFF;" d="M189.91,238l-0.43,3.5c0,0-0.39,46.62-1.21,63.28h8.86c0-3.6,2.1-6.53,4.69-6.53l8.41-46.25
				L189.91,238z"/>
			<path style="opacity:0.2;" d="M189.91,238l-0.43,3.5c0,0-0.39,46.62-1.21,63.28h8.86c0-3.6,2.1-6.53,4.69-6.53l8.41-46.25
				L189.91,238z"/>
			<path style="opacity:0.7;fill:#FFFFFF;" d="M191.64,239.19l-1.73-1.19l-0.43,3.5c0,0-0.39,46.62-1.21,63.28h1.88
				c0.83-16.65,1.21-63.28,1.21-63.28L191.64,239.19z"/>
		</g>
		<g>
			<g>
				<path style="fill:#263238;" d="M280.19,396.93c-0.09,0-3.73,0-3.81,0c-0.51,0-0.92,0.64-0.92,1.43c0,0.79,0.41,1.43,0.92,1.43
					c0.09,0,3.73,0,3.81,0c0.51,0,0.92-0.64,0.92-1.43C281.11,397.57,280.7,396.93,280.19,396.93z"/>
				<path style="opacity:0.3;fill:#FFFFFF;" d="M280.19,396.93c-0.09,0-3.73,0-3.81,0c-0.51,0-0.92,0.64-0.92,1.43
					c0,0.79,0.41,1.43,0.92,1.43c0.09,0,3.73,0,3.81,0c0.51,0,0.92-0.64,0.92-1.43C281.11,397.57,280.7,396.93,280.19,396.93z"/>
			</g>
			<g>
				<path style="fill:#263238;" d="M282.84,394.51c-0.23,0-1.1,0-1.33,0c-1.37,0-2.48,1.72-2.48,3.85c0,2.13,1.11,3.85,2.48,3.85
					c0.23,0,1.1,0,1.33,0c1.37,0,2.48-1.72,2.48-3.85C285.33,396.23,284.22,394.51,282.84,394.51z"/>
				<path style="opacity:0.6;fill:#FFFFFF;" d="M282.84,394.51c-0.23,0-1.1,0-1.33,0c-1.37,0-2.48,1.72-2.48,3.85
					c0,2.13,1.11,3.85,2.48,3.85c0.23,0,1.1,0,1.33,0c1.37,0,2.48-1.72,2.48-3.85C285.33,396.23,284.22,394.51,282.84,394.51z"/>
			</g>
			<path style="fill:#407BFF;" d="M285.33,398.36c0,2.13-1.11,3.85-2.48,3.85c-1.37,0-2.48-1.72-2.48-3.85
				c0-2.13,1.11-3.85,2.48-3.85C284.22,394.51,285.33,396.23,285.33,398.36z"/>
		</g>
		<g>
			<path style="fill:#407BFF;" d="M286.81,323c-0.58-4.61-4.7-16.78-5.5-19.11h-0.37c-0.2,3.99-2.35,7.14-4.98,7.14
				c-2.76,0-5-3.47-5-7.75h-4.77l11.07,89.28l5.38-0.38C282.64,392.19,288.98,340.16,286.81,323z"/>
			<path style="opacity:0.4;fill:#FFFFFF;" d="M286.81,323c-0.58-4.61-4.7-16.78-5.5-19.11h-0.37c-0.2,3.99-2.35,7.14-4.98,7.14
				c-2.76,0-5-3.47-5-7.75h-4.77l11.07,89.28l5.38-0.38C282.64,392.19,288.98,340.16,286.81,323z"/>
		</g>
		<g>
			<g>
				<path style="fill:#263238;" d="M281.98,300.41c-0.17,0-7.5,0-7.67,0c-1.02,0-1.85,1.29-1.85,2.87c0,1.59,0.83,2.87,1.85,2.87
					c0.17,0,7.5,0,7.67,0c1.02,0,1.85-1.29,1.85-2.87C283.83,301.7,283,300.41,281.98,300.41z"/>
				<path style="opacity:0.3;fill:#FFFFFF;" d="M281.98,300.41c-0.17,0-7.5,0-7.67,0c-1.02,0-1.85,1.29-1.85,2.87
					c0,1.59,0.83,2.87,1.85,2.87c0.17,0,7.5,0,7.67,0c1.02,0,1.85-1.29,1.85-2.87C283.83,301.7,283,300.41,281.98,300.41z"/>
			</g>
			<g>
				<path style="fill:#263238;" d="M287.33,295.53c-0.47,0-2.22,0-2.69,0c-2.76,0-5,3.47-5,7.75c0,4.28,2.24,7.75,5,7.75
					c0.47,0,2.22,0,2.69,0c2.76,0,5-3.47,5-7.75C292.33,299,290.09,295.53,287.33,295.53z"/>
				<path style="opacity:0.7;fill:#FFFFFF;" d="M287.33,295.53c-0.47,0-2.22,0-2.69,0c-2.76,0-5,3.47-5,7.75
					c0,4.28,2.24,7.75,5,7.75c0.47,0,2.22,0,2.69,0c2.76,0,5-3.47,5-7.75C292.33,299,290.09,295.53,287.33,295.53z"/>
			</g>
			<ellipse style="fill:#407BFF;" cx="287.33" cy="303.28" rx="5" ry="7.75"/>
			<g>
				<path style="fill:#FFFFFF;" d="M288.97,300.76c-0.42-0.66-1-1.07-1.65-1.07c-1.28,0-2.31,1.61-2.31,3.59
					c0,0.45,0.06,0.88,0.16,1.28L288.97,300.76z"/>
				<path style="fill:#FFFFFF;" d="M285.84,306.01c0.4,0.53,0.92,0.86,1.48,0.86c1.28,0,2.31-1.61,2.31-3.59
					c0-0.34-0.04-0.66-0.1-0.97L285.84,306.01z"/>
			</g>
		</g>
		<g>
			<g>
				<path style="fill:#407BFF;" d="M298.66,151.35c-0.34-1.37-1.84-2.09-3.13-1.5c-2.35,1.08-5.69,3.43-7.06,8.35l12.31,36.69
					l2.82-0.48c0-2.89,1.45-5.24,3.25-5.24c0.09,0,0.17,0.01,0.25,0.02h0C305.25,178.29,300.36,158.19,298.66,151.35z
					 M297.32,158.71c-0.62,0.12-1.36-0.96-1.65-2.42c-0.29-1.46-0.02-2.74,0.6-2.87c0.62-0.12,1.36,0.96,1.65,2.42
					C298.21,157.3,297.94,158.58,297.32,158.71z"/>
				<path style="opacity:0.4;fill:#FFFFFF;" d="M298.66,151.35c-0.34-1.37-1.84-2.09-3.13-1.5c-2.35,1.08-5.69,3.43-7.06,8.35
					l12.31,36.69l2.82-0.48c0-2.89,1.45-5.24,3.25-5.24c0.09,0,0.17,0.01,0.25,0.02h0C305.25,178.29,300.36,158.19,298.66,151.35z
					 M297.32,158.71c-0.62,0.12-1.36-0.96-1.65-2.42c-0.29-1.46-0.02-2.74,0.6-2.87c0.62-0.12,1.36,0.96,1.65,2.42
					C298.21,157.3,297.94,158.58,297.32,158.71z"/>
			</g>
			<g>
				<g>
					<path style="fill:#263238;" d="M309.83,192.99c-0.09,0-3.73,0-3.81,0c-0.51,0-0.92,0.64-0.92,1.43c0,0.79,0.41,1.43,0.92,1.43
						c0.09,0,3.73,0,3.81,0c0.51,0,0.92-0.64,0.92-1.43C310.75,193.63,310.34,192.99,309.83,192.99z"/>
					<path style="opacity:0.3;fill:#FFFFFF;" d="M309.83,192.99c-0.09,0-3.73,0-3.81,0c-0.51,0-0.92,0.64-0.92,1.43
						c0,0.79,0.41,1.43,0.92,1.43c0.09,0,3.73,0,3.81,0c0.51,0,0.92-0.64,0.92-1.43C310.75,193.63,310.34,192.99,309.83,192.99z"/>
				</g>
				<path style="fill:#263238;" d="M312.49,190.57c-0.23,0-1.1,0-1.33,0c-1.37,0-2.48,1.72-2.48,3.85c0,2.13,1.11,3.85,2.48,3.85
					c0.23,0,1.1,0,1.33,0c1.37,0,2.48-1.72,2.48-3.85C314.98,192.29,313.86,190.57,312.49,190.57z"/>
				<path style="opacity:0.6;fill:#FFFFFF;" d="M312.49,190.57c-0.23,0-1.1,0-1.33,0c-1.37,0-2.48,1.72-2.48,3.85
					c0,2.13,1.11,3.85,2.48,3.85c0.23,0,1.1,0,1.33,0c1.37,0,2.48-1.72,2.48-3.85C314.98,192.29,313.86,190.57,312.49,190.57z"/>
				<path style="fill:#407BFF;" d="M314.98,194.42c0,2.13-1.11,3.85-2.48,3.85s-2.48-1.72-2.48-3.85c0-2.13,1.11-3.85,2.48-3.85
					S314.98,192.29,314.98,194.42z"/>
			</g>
			<g>
				<g>
					<path style="fill:#263238;" d="M305.38,154.64c-0.09,0-3.73,0-3.81,0c-0.51,0-0.92,0.64-0.92,1.43s0.41,1.43,0.92,1.43
						c0.09,0,3.73,0,3.81,0c0.51,0,0.92-0.64,0.92-1.43S305.89,154.64,305.38,154.64z"/>
					<path style="opacity:0.3;fill:#FFFFFF;" d="M305.38,154.64c-0.09,0-3.73,0-3.81,0c-0.51,0-0.92,0.64-0.92,1.43
						s0.41,1.43,0.92,1.43c0.09,0,3.73,0,3.81,0c0.51,0,0.92-0.64,0.92-1.43S305.89,154.64,305.38,154.64z"/>
				</g>
				<path style="fill:#263238;" d="M308.04,152.21c-0.23,0-1.1,0-1.33,0c-1.37,0-2.48,1.72-2.48,3.85s1.11,3.85,2.48,3.85
					c0.23,0,1.1,0,1.33,0c1.37,0,2.48-1.72,2.48-3.85S309.41,152.21,308.04,152.21z"/>
				<path style="opacity:0.6;fill:#FFFFFF;" d="M308.04,152.21c-0.23,0-1.1,0-1.33,0c-1.37,0-2.48,1.72-2.48,3.85
					s1.11,3.85,2.48,3.85c0.23,0,1.1,0,1.33,0c1.37,0,2.48-1.72,2.48-3.85S309.41,152.21,308.04,152.21z"/>
				<path style="fill:#407BFF;" d="M310.52,156.06c0,2.13-1.11,3.85-2.48,3.85c-1.37,0-2.48-1.72-2.48-3.85s1.11-3.85,2.48-3.85
					C309.41,152.21,310.52,153.94,310.52,156.06z"/>
			</g>
		</g>
		<g>
			<g>
				<path style="fill:#407BFF;" d="M281.89,149.85c-3.41,1.56-8.88,5.8-7.46,16.65l9.88,28.88c0,0-3.51,9.96,0.12,37.62l-5.42,3.22
					c-1.15,0.68-1.83,1.95-1.75,3.29l0.1,1.74l-0.03,2.46c-0.01,0.58,0.13,1.15,0.39,1.67l0.66,1.31c0.87,1.72,2.93,2.44,4.69,1.66
					l3.62-1.63c1-0.45,1.74-1.34,2.01-2.4l2.51-9.94c0,0,3.34-31.17,2.97-39.64c-0.32-7.19-7.1-35.07-9.16-43.38
					C284.68,149.97,283.18,149.26,281.89,149.85z"/>
				<path style="opacity:0.4;fill:#FFFFFF;" d="M281.89,149.85c-3.41,1.56-8.88,5.8-7.46,16.65l9.88,28.88c0,0-3.51,9.96,0.12,37.62
					l-5.42,3.22c-1.15,0.68-1.83,1.95-1.75,3.29l0.1,1.74l-0.03,2.46c-0.01,0.58,0.13,1.15,0.39,1.67l0.66,1.31
					c0.87,1.72,2.93,2.44,4.69,1.66l3.62-1.63c1-0.45,1.74-1.34,2.01-2.4l2.51-9.94c0,0,3.34-31.17,2.97-39.64
					c-0.32-7.19-7.1-35.07-9.16-43.38C284.68,149.97,283.18,149.26,281.89,149.85z"/>
			</g>
			<g>
				<path style="fill:#263238;" d="M285.08,151.35c-0.34-1.37-1.84-2.09-3.13-1.5c-2.35,1.08-5.69,3.43-7.06,8.35l12.31,36.69
					l2.82-0.48c0-2.89,1.45-5.24,3.25-5.24c0.09,0,0.17,0.01,0.25,0.02h0C291.67,178.29,286.77,158.19,285.08,151.35z"/>
				<path style="opacity:0.4;fill:#FFFFFF;" d="M285.08,151.35c-0.34-1.37-1.84-2.09-3.13-1.5c-2.35,1.08-5.69,3.43-7.06,8.35
					l12.31,36.69l2.82-0.48c0-2.89,1.45-5.24,3.25-5.24c0.09,0,0.17,0.01,0.25,0.02h0C291.67,178.29,286.77,158.19,285.08,151.35z"
					/>
			</g>
			<path style="fill:#407BFF;" d="M293.97,198.71l-0.15,0.05c-0.2,0.1-0.4,0.14-0.6,0.14c-1.35,0-2.5-2.06-2.5-4.49
				c0-2.43,1.14-4.49,2.5-4.49c0.05,0,0.11,0,0.26,0.02l0.13,0c-0.08-0.48-0.17-0.99-0.26-1.51c-0.04,0-0.08-0.01-0.13-0.01
				c-2.1,0-3.77,2.3-3.98,5.35l-1.59,0.27L275.56,158l-0.3-1.07c-0.31,0.81-0.56,1.7-0.74,2.67l11.64,34.7l-1.91,0.33l-0.17,0.02
				l0.25,0.73c0,0-0.09,0.25-0.22,0.78l0.35-0.04l4.81-0.82c0.28,2.93,1.91,5.11,3.95,5.11c0.3,0,0.6-0.07,0.9-0.16
				c0.02-0.55,0.04-1.08,0.06-1.58L293.97,198.71z"/>
			<g>
				<g>
					<path style="fill:#263238;" d="M286.42,157.67c0.51,2.54,0.04,4.77-1.05,4.99c-1.08,0.22-2.37-1.67-2.88-4.21
						c-0.51-2.54-0.04-4.77,1.05-4.99C284.63,153.25,285.91,155.13,286.42,157.67z"/>
					<path style="opacity:0.2;fill:#FFFFFF;" d="M286.42,157.67c0.51,2.54,0.04,4.77-1.05,4.99c-1.08,0.22-2.37-1.67-2.88-4.21
						c-0.51-2.54-0.04-4.77,1.05-4.99C284.63,153.25,285.91,155.13,286.42,157.67z"/>
				</g>
				<path style="opacity:0.7;fill:#FFFFFF;" d="M284.17,157.92c0.18,0.92,0.01,1.72-0.38,1.8c-0.39,0.08-0.86-0.6-1.04-1.52
					c-0.18-0.92-0.01-1.72,0.38-1.8C283.52,156.32,283.98,157,284.17,157.92z"/>
			</g>
		</g>
		<g>
			<g>
				<path style="fill:#263238;" d="M286.94,236.29c-0.1,0-2.22,0-2.32,0c-0.61,0-1.1,0.76-1.1,1.71c0,0.94,0.49,1.71,1.1,1.71
					c0.1,0,2.22,0,2.32,0c0.61,0,1.1-0.76,1.1-1.71C288.04,237.05,287.54,236.29,286.94,236.29z"/>
				<path style="opacity:0.3;fill:#FFFFFF;" d="M286.94,236.29c-0.1,0-2.22,0-2.32,0c-0.61,0-1.1,0.76-1.1,1.71
					c0,0.94,0.49,1.71,1.1,1.71c0.1,0,2.22,0,2.32,0c0.61,0,1.1-0.76,1.1-1.71C288.04,237.05,287.54,236.29,286.94,236.29z"/>
			</g>
			<g>
				<path style="fill:#263238;" d="M294.36,234.19c-0.23,0-4.94,0-5.17,0c-1.35,0-2.45,1.7-2.45,3.8c0,2.1,1.1,3.8,2.45,3.8
					c0.23,0,4.94,0,5.17,0c1.35,0,2.45-1.7,2.45-3.8C296.81,235.9,295.71,234.19,294.36,234.19z"/>
				<path style="opacity:0.4;fill:#FFFFFF;" d="M294.36,234.19c-0.23,0-4.94,0-5.17,0c-1.35,0-2.45,1.7-2.45,3.8
					c0,2.1,1.1,3.8,2.45,3.8c0.23,0,4.94,0,5.17,0c1.35,0,2.45-1.7,2.45-3.8C296.81,235.9,295.71,234.19,294.36,234.19z"/>
			</g>
			<g>
				<path style="fill:#263238;" d="M300.45,227.73c-0.62,0-2.94,0-3.56,0c-3.66,0-6.62,4.6-6.62,10.27c0,5.67,2.97,10.27,6.62,10.27
					c0.62,0,2.94,0,3.56,0c3.66,0,6.62-4.6,6.62-10.27C307.07,232.32,304.1,227.73,300.45,227.73z"/>
				<path style="opacity:0.6;fill:#FFFFFF;" d="M300.45,227.73c-0.62,0-2.94,0-3.56,0c-3.66,0-6.62,4.6-6.62,10.27
					c0,5.67,2.97,10.27,6.62,10.27c0.62,0,2.94,0,3.56,0c3.66,0,6.62-4.6,6.62-10.27C307.07,232.32,304.1,227.73,300.45,227.73z"/>
			</g>
			<ellipse style="fill:#407BFF;" cx="300.45" cy="238" rx="6.62" ry="10.27"/>
			<g>
				<path style="fill:#FFFFFF;" d="M302.63,234.66c-0.56-0.87-1.33-1.42-2.18-1.42c-1.69,0-3.07,2.13-3.07,4.75
					c0,0.6,0.08,1.17,0.21,1.7L302.63,234.66z"/>
				<path style="fill:#FFFFFF;" d="M298.48,241.62c0.53,0.7,1.21,1.13,1.97,1.13c1.69,0,3.07-2.13,3.07-4.75
					c0-0.45-0.05-0.87-0.13-1.29L298.48,241.62z"/>
			</g>
		</g>
		<g>
			<path style="fill:#407BFF;" d="M215.82,147.64c-3.37,1.05-6.82,2.47-10.29,4.36l0.5,1.65c0.66,2.16,0.32,4.51-0.99,6.35
				c-2.93,4.12-7.35,12.65-2.85,22.36h1.46l8.45-3.19c0-18.21,7.53-25.07,7.53-25.07c-1.6-0.34-2.74-1.11-3.15-2.38
				c-0.37-1.18-0.06-2.63,0.78-4.07H215.82z"/>
			<path style="opacity:0.7;fill:#FFFFFF;" d="M215.82,147.64c-3.37,1.05-6.82,2.47-10.29,4.36l0.5,1.65
				c0.66,2.16,0.32,4.51-0.99,6.35c-2.93,4.12-7.35,12.65-2.85,22.36h1.46l8.45-3.19c0-18.21,7.53-25.07,7.53-25.07
				c-1.6-0.34-2.74-1.11-3.15-2.38c-0.37-1.18-0.06-2.63,0.78-4.07H215.82z"/>
			<path style="fill:#407BFF;" d="M210.65,179.17c0-18.21,7.53-25.07,7.53-25.07l0,0c-1.6-0.34-2.74-1.11-3.15-2.38
				c-0.37-1.18-0.06-2.63,0.78-4.07c-3.37,1.05-6.82,2.47-10.29,4.36l0.5,1.65c0.66,2.16,0.32,4.51-0.99,6.35
				c-2.93,4.12-7.35,12.65-2.85,22.36L210.65,179.17L210.65,179.17z"/>
		</g>
		<g>
			<g>
				<path style="fill:#407BFF;" d="M253.95,145.13c2.08,2.08-3.7,6.33-8.87,7.97c-5.81,1.84-11.33,1.77-12.32-1.38
					c-0.37-1.18-0.06-2.63,0.79-4.08c0,0,6.16-0.9,6.16-13.35l11.66-8.29C251.37,126,249.48,140.65,253.95,145.13z"/>
				<path style="opacity:0.2;" d="M251.05,129.92c0.12-2.31,0.32-3.92,0.32-3.92l-11.66,8.29c0,1.93-0.15,3.58-0.4,5
					c1.98-0.08,4-0.68,5.92-1.95C248.14,135.43,249.78,133.05,251.05,129.92z"/>
				<g>
					<path style="fill:#407BFF;" d="M234.92,115.95c-0.71,3.56-3.14,6.08-5.44,5.62c-2.3-0.46-3.58-3.71-2.88-7.27
						c0.71-3.56,3.14-6.08,5.44-5.62C234.34,109.13,235.62,112.39,234.92,115.95z"/>
					<g>
						<g>
							<path style="fill:#263238;" d="M261.34,122.37c-0.08-0.02-3.65-0.73-3.74-0.74c-0.5-0.1-1.03,0.45-1.18,1.22
								c-0.15,0.77,0.13,1.48,0.62,1.58c0.08,0.02,3.65,0.73,3.74,0.74c0.5,0.1,1.03-0.45,1.18-1.22
								C262.12,123.18,261.84,122.47,261.34,122.37z"/>
							<path style="opacity:0.3;fill:#FFFFFF;" d="M261.34,122.37c-0.08-0.02-3.65-0.73-3.74-0.74c-0.5-0.1-1.03,0.45-1.18,1.22
								c-0.15,0.77,0.13,1.48,0.62,1.58c0.08,0.02,3.65,0.73,3.74,0.74c0.5,0.1,1.03-0.45,1.18-1.22
								C262.12,123.18,261.84,122.47,261.34,122.37z"/>
						</g>
						<path style="fill:#263238;" d="M264.42,120.51c-0.23-0.05-1.08-0.22-1.31-0.26c-1.35-0.27-2.77,1.21-3.19,3.29
							c-0.41,2.09,0.34,3.99,1.69,4.26c0.23,0.05,1.08,0.22,1.31,0.26c1.35,0.27,2.77-1.21,3.19-3.29
							C266.52,122.69,265.77,120.78,264.42,120.51z"/>
						<path style="opacity:0.6;fill:#FFFFFF;" d="M264.42,120.51c-0.23-0.05-1.08-0.22-1.31-0.26c-1.35-0.27-2.77,1.21-3.19,3.29
							c-0.41,2.09,0.34,3.99,1.69,4.26c0.23,0.05,1.08,0.22,1.31,0.26c1.35,0.27,2.77-1.21,3.19-3.29
							C266.52,122.69,265.77,120.78,264.42,120.51z"/>
						<path style="fill:#407BFF;" d="M266.11,124.77c-0.41,2.09-1.84,3.56-3.19,3.29c-1.35-0.27-2.1-2.18-1.69-4.26
							c0.41-2.09,1.84-3.56,3.19-3.29C265.77,120.78,266.52,122.69,266.11,124.77z"/>
					</g>
					<g>
						<path style="fill:#407BFF;" d="M255.73,115.73c-2.45,8.74-3.45,13.97-8.9,17.54c-8.19,5.39-18.25-1.05-18.45-10.31
							c-0.18-8.4,3.87-21.24,13.29-22.89c6.72-1.21,13.15,3.25,14.36,9.97C256.38,111.93,256.27,113.88,255.73,115.73z"/>
						<path style="opacity:0.4;fill:#FFFFFF;" d="M255.73,115.73c-2.45,8.74-3.45,13.97-8.9,17.54
							c-8.19,5.39-18.25-1.05-18.45-10.31c-0.18-8.4,3.87-21.24,13.29-22.89c6.72-1.21,13.15,3.25,14.36,9.97
							C256.38,111.93,256.27,113.88,255.73,115.73z"/>
					</g>
					<path style="fill:#2E353A;" d="M241.33,115.3c-0.16,0.72-0.66,1.23-1.13,1.12c-0.47-0.11-0.72-0.77-0.57-1.49
						c0.16-0.72,0.66-1.22,1.13-1.11C241.23,113.92,241.48,114.58,241.33,115.3z"/>
					<path style="fill:#2E353A;" d="M233.19,113.54c-0.16,0.71-0.66,1.22-1.13,1.11s-0.72-0.77-0.57-1.48
						c0.16-0.71,0.66-1.23,1.13-1.12C233.09,112.16,233.34,112.82,233.19,113.54z"/>
					<g style="opacity:0.7;">
						<path style="fill:#FFFFFF;" d="M236.62,126.36c-2.24,0.16-3.35-0.05-5.28-0.88c-0.55-0.24-0.75-0.8-0.5-1.2l0,0
							c0.25-0.4,0.8-0.54,1.27-0.34c1.64,0.69,2.6,0.86,4.53,0.69c0.55-0.05,1.05,0.24,1.09,0.72l0,0
							C237.77,125.83,237.26,126.32,236.62,126.36z"/>
					</g>
					<polygon style="fill:#407BFF;" points="235.62,114.47 234.15,121.27 230.84,119.88 					"/>
					<path style="opacity:0.5;fill:#FFFFFF;" d="M248.54,119.55l-20.28-3.69c-0.92-0.17-1.48-1.09-1.21-1.98l1.04-3.45
						c0.25-0.83,1.14-1.3,1.97-1.04l20.49,6.52L248.54,119.55z"/>
					<g>
						<path style="fill:#263238;" d="M241.67,100.07c-3.99,0.7-7.01,3.41-9.16,6.93l10.03,3.33c0.88-0.53,1.85-0.93,2.92-1.12
							c4.28-0.77,8.4,1.58,10.03,5.42l0.44,0.15c0.33-1.56,0.38-3.17,0.1-4.74C254.82,103.32,248.39,98.85,241.67,100.07z"/>
						<path style="opacity:0.4;fill:#FFFFFF;" d="M241.67,100.07c-3.99,0.7-7.01,3.41-9.16,6.93l10.03,3.33
							c0.88-0.53,1.85-0.93,2.92-1.12c4.28-0.77,8.4,1.58,10.03,5.42l0.44,0.15c0.33-1.56,0.38-3.17,0.1-4.74
							C254.82,103.32,248.39,98.85,241.67,100.07z"/>
					</g>
					<g>
						<path style="fill:#407BFF;" d="M241.67,88.53c-3.99,0.7-7.01,3.41-9.16,6.93l10.03,3.33c0.88-0.53,1.85-0.93,2.92-1.12
							c4.28-0.77,8.4,1.58,10.03,5.42l0.44,0.15c0.33-1.56,0.38-3.17,0.1-4.74C254.82,91.78,248.39,87.31,241.67,88.53z"/>
						<path style="opacity:0.4;fill:#FFFFFF;" d="M241.67,88.53c-3.99,0.7-7.01,3.41-9.16,6.93l10.03,3.33
							c0.88-0.53,1.85-0.93,2.92-1.12c4.28-0.77,8.4,1.58,10.03,5.42l0.44,0.15c0.33-1.56,0.38-3.17,0.1-4.74
							C254.82,91.78,248.39,87.31,241.67,88.53z"/>
					</g>
					<g>
						<path style="fill:#407BFF;" d="M256.37,121.44c-0.71,3.56-3.14,6.08-5.44,5.62c-2.3-0.46-3.58-3.71-2.88-7.27
							c0.71-3.56,3.14-6.08,5.44-5.62C255.79,114.62,257.08,117.88,256.37,121.44z"/>
						<path style="fill:#263238;" d="M254.95,121.15c-0.47,2.34-2.07,4-3.58,3.7c-1.51-0.3-2.36-2.45-1.89-4.79
							c0.47-2.34,2.07-4,3.58-3.7C254.57,116.67,255.42,118.81,254.95,121.15z"/>
						<path style="opacity:0.4;fill:#FFFFFF;" d="M252.63,116.34c-1.38,0.05-2.74,1.6-3.16,3.73c-0.42,2.13,0.24,4.08,1.49,4.65
							c1.38-0.05,2.74-1.6,3.16-3.73C254.55,118.86,253.89,116.91,252.63,116.34z"/>
						<path style="opacity:0.7;fill:#FFFFFF;" d="M252.25,120.62c-0.15,0.74-0.66,1.27-1.14,1.17c-0.48-0.1-0.75-0.77-0.6-1.52
							c0.15-0.74,0.66-1.27,1.14-1.17S252.4,119.88,252.25,120.62z"/>
					</g>
				</g>
			</g>
			<g>
				<path style="fill:#407BFF;" d="M271.77,151.26c0.44-1.29-0.24-2.69-1.53-3.12c-6.64-2.23-26.58-7.27-46.98,3.86l0.5,1.65
					c0.66,2.16,0.32,4.51-0.99,6.35c-2.93,4.12-7.35,12.65-2.85,22.36c0,0,1.8,18.47,1.62,24.65c-0.15,5.12-2.51,20.35-2.51,20.35
					s0.99,0.94,6.12,1.12c0.73,3.4,2.52,5.42,5.26,5.42c2.91,0,6-2.28,7.15-6.05c6.55-0.7,15.36-2.05,27.21-4.46
					c0,0-3.3-9.18-4.01-12.34c-0.79-3.5-1.37-10.63-1.22-14.28C259.99,186.16,269.02,159.24,271.77,151.26z"/>
				<g style="opacity:0.6;">
					<path style="fill:#FFFFFF;" d="M221.36,197.91c1.07,4.26,3.53,6.6,6.98,6.6c3.97,0,7.71-3.02,9.24-7.4
						c6.4-0.7,13.89-1.84,22.27-3.37c0.07-0.49,0.14-1,0.23-1.52h-0.16l-0.14,0.01c-8.64,1.59-16.32,2.75-22.84,3.45l-0.49,0.05
						l-0.14,0.47c-1.22,4.01-4.5,6.81-7.96,6.81c-3.61,0-5.06-3.25-5.64-5.98l-0.12-0.57l-0.58-0.02c-0.27-0.01-0.53-0.02-0.82-0.04
						h-0.05c0.04,0.5,0.07,1.01,0.1,1.5C221.26,197.91,221.31,197.91,221.36,197.91z"/>
					<path style="fill:#FFFFFF;" d="M260.22,207.96c-8.97,1.71-16.86,2.93-23.45,3.64l-0.49,0.05l-0.14,0.47
						c-1.1,3.61-4.04,6.12-7.15,6.12c-3.23,0-4.53-2.92-5.05-5.37l-0.12-0.57l-0.58-0.02c-0.76-0.03-1.44-0.07-2.1-0.13
						c-0.05,0.49-0.11,0.98-0.17,1.49h0.02c0.49,0.04,1.03,0.08,1.62,0.11c0.98,3.87,3.24,5.98,6.38,5.98
						c3.62,0,7.02-2.74,8.43-6.71c6.52-0.72,14.26-1.92,23.02-3.59h0.05c-0.08-0.47-0.15-0.97-0.22-1.49L260.22,207.96z"/>
					<path style="fill:#FFFFFF;" d="M262.99,178.42c-0.06,0.01-6.15,0.61-8.15,0.66c-5.8,0.16-22.08-0.49-25.69-0.64
						c0.16-14.44,5.91-22.13,7.72-24.2c2.27,0.24,5.2-0.19,8.23-1.15c5-1.58,10.56-5.61,9.02-7.76c-1.7,1.84-5.03,3.78-8.15,4.77
						c-5.81,1.84-11.33,1.77-12.32-1.38c-0.1-0.3-0.14-0.62-0.15-0.95c-0.79,1.4-1.07,2.8-0.71,3.94c0.34,1.07,1.2,1.77,2.42,2.18
						c-2.39,2.95-7.43,10.81-7.54,24.75l-7.84,2.96h-0.17c0.11,0.25,0.19,0.5,0.31,0.75c0,0,0.03,0.26,0.07,0.72l8.5-3.15
						c1.87,0.08,20.11,0.84,26.37,0.66c1.87-0.05,6.92-0.54,7.98-0.65c0.13-0.5,0.27-1.01,0.41-1.52L262.99,178.42z"/>
				</g>
			</g>
			<g>
				<ellipse style="fill:#407BFF;" cx="265.71" cy="159.13" rx="7.76" ry="12.03"/>
				<ellipse style="opacity:0.4;fill:#FFFFFF;" cx="265.71" cy="159.13" rx="7.76" ry="12.03"/>
				<ellipse style="fill:#263238;" cx="265.71" cy="159.13" rx="6.29" ry="9.76"/>
				<ellipse style="opacity:0.2;fill:#FFFFFF;" cx="265.71" cy="159.13" rx="6.29" ry="9.76"/>
				<path style="opacity:0.4;fill:#FFFFFF;" d="M264.76,149.5c-3.02,0.71-5.34,4.75-5.34,9.63c0,4.89,2.32,8.92,5.34,9.63
					c3.02-0.71,5.34-4.75,5.34-9.63C270.1,154.25,267.78,150.21,264.76,149.5z"/>
				<path style="opacity:0.7;fill:#FFFFFF;" d="M266.92,159.13c0,2.67-1.39,4.83-3.11,4.83c-1.72,0-3.11-2.16-3.11-4.83
					c0-2.67,1.39-4.83,3.11-4.83C265.53,154.31,266.92,156.47,266.92,159.13z"/>
			</g>
		</g>
	</g>
</g>
</svg>
