<?xml version="1.0" encoding="utf-8"?>
<!-- Generator: Adobe Illustrator 27.9.0, SVG Export Plug-In . SVG Version: 6.00 Build 0)  -->
<svg version="1.1" xmlns="http://www.w3.org/2000/svg" xmlns:xlink="http://www.w3.org/1999/xlink" x="0px" y="0px"
	 viewBox="0 0 2560 1440" style="enable-background:new 0 0 2560 1440;" xml:space="preserve">
<style type="text/css">
	.st0{fill:url(#SVGID_1_);}
	.st1{fill:#FFFFFF;}
	.st2{fill:#0F0D0E;}
	.st3{fill:url(#SVGID_00000062914041601743567390000018082168391818052255_);}
	.st4{fill:url(#SVGID_00000088107869438067820570000017562907918606167951_);}
	.st5{clip-path:url(#SVGID_00000114787000922214738100000010479537845138362793_);}
	.st6{fill:url(#SVGID_00000052805970856710015350000011282696563331221410_);}
	.st7{fill:url(#SVGID_00000009589843512278715340000011331893871004133545_);}
	.st8{clip-path:url(#SVGID_00000027582190015186650820000000967592305017800343_);}
	.st9{fill:#7AFF73;}
	.st10{font-family:'DMSans-Medium';}
	.st11{font-size:88.6323px;}
</style>
<g id="BACKGROUND">
	<linearGradient id="SVGID_1_" gradientUnits="userSpaceOnUse" x1="1280" y1="56.9203" x2="1280" y2="1362.4214">
		<stop  offset="0.1966" style="stop-color:#0F0D0E"/>
		<stop  offset="0.3185" style="stop-color:#120C1B"/>
		<stop  offset="0.542" style="stop-color:#1A083C"/>
		<stop  offset="0.8399" style="stop-color:#270371"/>
		<stop  offset="1" style="stop-color:#2E0091"/>
	</linearGradient>
	<rect class="st0" width="2560" height="1440"/>
</g>
<g id="OBJECTS">
	<g>
		<g>
			<g>
				<g>
					<path class="st1" d="M1938.2,1131.6h-102.5c-14.5,0-26.3-11.8-26.3-26.3v-42.8h3.5v42.8c0,12.6,10.2,22.8,22.8,22.8h102.5
						c12.6,0,22.8-10.2,22.8-22.8v-42.8h3.5v42.8C1964.5,1119.8,1952.7,1131.6,1938.2,1131.6z"/>
				</g>
				<g>
					<path class="st1" d="M1938.2,1089.1h-102.5c-14.5,0-26.3-11.8-26.3-26.3s11.8-26.3,26.3-26.3h102.5c14.5,0,26.3,11.8,26.3,26.3
						S1952.7,1089.1,1938.2,1089.1z M1835.8,1040c-12.6,0-22.8,10.2-22.8,22.8s10.2,22.8,22.8,22.8h102.5
						c12.6,0,22.8-10.2,22.8-22.8s-10.2-22.8-22.8-22.8H1835.8z"/>
				</g>
				<path class="st2" d="M1938.2,1050.2c6.9,0,12.6,5.6,12.6,12.6c0,6.9-5.6,12.6-12.6,12.6h-102.5c-6.9,0-12.6-5.6-12.6-12.6
					c0-6.9,5.6-12.6,12.6-12.6H1938.2"/>
			</g>
			
				<linearGradient id="SVGID_00000010306493516082031520000011957298706383004069_" gradientUnits="userSpaceOnUse" x1="1887.0009" y1="1247.9319" x2="1887.0009" y2="49.0615">
				<stop  offset="0" style="stop-color:#FF47E3;stop-opacity:0.8"/>
				<stop  offset="0.1359" style="stop-color:#FB46E2;stop-opacity:0.6754"/>
				<stop  offset="0.2579" style="stop-color:#F142DD;stop-opacity:0.5635"/>
				<stop  offset="0.3747" style="stop-color:#DE3CD6;stop-opacity:0.4563"/>
				<stop  offset="0.4883" style="stop-color:#C433CC;stop-opacity:0.3522"/>
				<stop  offset="0.5996" style="stop-color:#A328BF;stop-opacity:0.2502"/>
				<stop  offset="0.709" style="stop-color:#7A1AAF;stop-opacity:0.1498"/>
				<stop  offset="0.8151" style="stop-color:#4B0A9C;stop-opacity:5.250424e-02"/>
				<stop  offset="0.8723" style="stop-color:#2E0091;stop-opacity:0"/>
			</linearGradient>
			<path style="fill:url(#SVGID_00000010306493516082031520000011957298706383004069_);" d="M2114.7,173.1
				c0,0-161.7,873.3-163.9,887.8c0,7.8-5.6,14.5-12.6,14.5h-102.5c-6.9,0-12.6-6-12.6-14.5c-2.2-14.5-163.9-887.8-163.9-887.8"/>
			<g>
				
					<linearGradient id="SVGID_00000003098546256364616560000001407311192660327339_" gradientUnits="userSpaceOnUse" x1="1887.0006" y1="600.0848" x2="1887.0006" y2="867.6097">
					<stop  offset="0" style="stop-color:#7AFF73"/>
					<stop  offset="0.1422" style="stop-color:#79FB73;stop-opacity:0.8862"/>
					<stop  offset="0.27" style="stop-color:#76F175;stop-opacity:0.784"/>
					<stop  offset="0.3923" style="stop-color:#70DE77;stop-opacity:0.6862"/>
					<stop  offset="0.5112" style="stop-color:#69C47A;stop-opacity:0.591"/>
					<stop  offset="0.6278" style="stop-color:#5FA37E;stop-opacity:0.4978"/>
					<stop  offset="0.7424" style="stop-color:#527A83;stop-opacity:0.4061"/>
					<stop  offset="0.8556" style="stop-color:#444A88;stop-opacity:0.3155"/>
					<stop  offset="0.9649" style="stop-color:#34138F;stop-opacity:0.228"/>
					<stop  offset="1" style="stop-color:#2E0091;stop-opacity:0.2"/>
				</linearGradient>
				<path style="fill:url(#SVGID_00000003098546256364616560000001407311192660327339_);" d="M1976.4,586.2h-178.8
					c-54,0-97.8,43.8-97.8,97.8v0c0,54,43.8,97.8,97.8,97.8h126.5c0,39.7,33.6,72,75,72s75-32.2,75-72V684
					C2074.2,630,2030.4,586.2,1976.4,586.2z"/>
				<g>
					<defs>
						<path id="SVGID_00000106115596711004081940000011711317989856858247_" d="M1976.4,586.2h-178.8c-54,0-97.8,43.8-97.8,97.8v0
							c0,54,43.8,97.8,97.8,97.8h126.5c0,39.7,33.6,72,75,72c41.4,0,75-32.2,75-72V684C2074.2,630,2030.4,586.2,1976.4,586.2z"/>
					</defs>
					<clipPath id="SVGID_00000111160948351407756810000003704263865368396445_">
						<use xlink:href="#SVGID_00000106115596711004081940000011711317989856858247_"  style="overflow:visible;"/>
					</clipPath>
					<g style="clip-path:url(#SVGID_00000111160948351407756810000003704263865368396445_);">
						<g>
							<path class="st1" d="M1805.3,685h-77.1v-3.5h77.1c18.3,0,33.1-14.9,33.1-33.1c0-18.3-14.9-33.1-33.1-33.1h-139.1v-3.5h139.1
								c20.2,0,36.6,16.4,36.6,36.6C1841.9,668.6,1825.5,685,1805.3,685z"/>
						</g>
						<g>
							<path class="st1" d="M1934.4,754.8h-139.1v-3.5h139.1c18.3,0,33.1-14.9,33.1-33.1c0-18.3-14.9-33.1-33.1-33.1h-139.1v-3.5
								h139.1c20.2,0,36.6,16.4,36.6,36.6C1971,738.3,1954.6,754.8,1934.4,754.8z"/>
						</g>
						<g>
							<path class="st1" d="M2003.1,824.5H1864V821h139.1c18.3,0,33.1-14.9,33.1-33.1c0-18.3-14.9-33.1-33.1-33.1v-3.5
								c20.2,0,36.6,16.4,36.6,36.6C2039.7,808.1,2023.3,824.5,2003.1,824.5z"/>
						</g>
						<g>
							<path class="st1" d="M2037.9,685h-30.1c-20.2,0-36.6-16.4-36.6-36.6c0-20.2,16.4-36.6,36.6-36.6h139.1v3.5h-139.1
								c-18.3,0-33.1,14.9-33.1,33.1c0,18.3,14.9,33.1,33.1,33.1h30.1V685z"/>
						</g>
						<g>
							<path class="st1" d="M1902.1,685c-20.2,0-36.6-16.4-36.6-36.6c0-20.2,16.4-36.6,36.6-36.6v3.5c-18.3,0-33.1,14.9-33.1,33.1
								c0,18.3,14.9,33.1,33.1,33.1V685z"/>
						</g>
						<g>
							<path class="st1" d="M1909.7,625.1c-6.4,0-11.6-5.2-11.6-11.6c0-6.4,5.2-11.6,11.6-11.6c6.4,0,11.6,5.2,11.6,11.6
								C1921.2,619.9,1916,625.1,1909.7,625.1z M1909.7,605.4c-4.5,0-8.1,3.6-8.1,8.1c0,4.5,3.6,8.1,8.1,8.1s8.1-3.6,8.1-8.1
								C1917.7,609,1914.1,605.4,1909.7,605.4z"/>
						</g>
						<g>
							<path class="st1" d="M1785.4,764.6c-6.4,0-11.6-5.2-11.6-11.6c0-6.4,5.2-11.6,11.6-11.6c6.4,0,11.6,5.2,11.6,11.6
								C1797,759.4,1791.8,764.6,1785.4,764.6z M1785.4,744.9c-4.5,0-8.1,3.6-8.1,8.1c0,4.5,3.6,8.1,8.1,8.1s8.1-3.6,8.1-8.1
								C1793.5,748.6,1789.9,744.9,1785.4,744.9z"/>
						</g>
						<g>
							<path class="st1" d="M1993.7,764.6c-6.4,0-11.6-5.2-11.6-11.6c0-6.4,5.2-11.6,11.6-11.6c6.4,0,11.6,5.2,11.6,11.6
								C2005.3,759.4,2000.1,764.6,1993.7,764.6z M1993.7,744.9c-4.5,0-8.1,3.6-8.1,8.1c0,4.5,3.6,8.1,8.1,8.1s8.1-3.6,8.1-8.1
								C2001.8,748.6,1998.2,744.9,1993.7,744.9z"/>
						</g>
						<g>
							<path class="st1" d="M2046.6,694.9c-6.4,0-11.6-5.2-11.6-11.6c0-6.4,5.2-11.6,11.6-11.6s11.6,5.2,11.6,11.6
								C2058.2,689.7,2053,694.9,2046.6,694.9z M2046.6,675.2c-4.5,0-8.1,3.6-8.1,8.1c0,4.5,3.6,8.1,8.1,8.1s8.1-3.6,8.1-8.1
								C2054.7,678.8,2051.1,675.2,2046.6,675.2z"/>
						</g>
						<g>
							<path class="st1" d="M1720.9,694.9c-6.4,0-11.6-5.2-11.6-11.6c0-6.4,5.2-11.6,11.6-11.6c6.4,0,11.6,5.2,11.6,11.6
								C1732.5,689.7,1727.3,694.9,1720.9,694.9z M1720.9,675.2c-4.5,0-8.1,3.6-8.1,8.1c0,4.5,3.6,8.1,8.1,8.1s8.1-3.6,8.1-8.1
								C1729,678.8,1725.3,675.2,1720.9,675.2z"/>
						</g>
					</g>
				</g>
			</g>
		</g>
	</g>
	<g>
		<g>
			<g>
				<g>
					<path class="st1" d="M724.2,1131.6H621.8c-14.5,0-26.3-11.8-26.3-26.3v-42.8h3.5v42.8c0,12.6,10.2,22.8,22.8,22.8h102.5
						c12.6,0,22.8-10.2,22.8-22.8v-42.8h3.5v42.8C750.5,1119.8,738.7,1131.6,724.2,1131.6z"/>
				</g>
				<g>
					<path class="st1" d="M724.2,1089.1H621.8c-14.5,0-26.3-11.8-26.3-26.3s11.8-26.3,26.3-26.3h102.5c14.5,0,26.3,11.8,26.3,26.3
						S738.7,1089.1,724.2,1089.1z M621.8,1040c-12.6,0-22.8,10.2-22.8,22.8s10.2,22.8,22.8,22.8h102.5c12.6,0,22.8-10.2,22.8-22.8
						s-10.2-22.8-22.8-22.8H621.8z"/>
				</g>
				<path class="st2" d="M621.8,1050.2h102.5c6.9,0,12.6,5.6,12.6,12.6c0,6.9-5.6,12.6-12.6,12.6H621.8c-6.9,0-12.6-5.6-12.6-12.6
					C609.2,1055.9,614.8,1050.2,621.8,1050.2"/>
			</g>
			
				<linearGradient id="SVGID_00000130631016717007827440000005428791335992125833_" gradientUnits="userSpaceOnUse" x1="3061.1887" y1="1247.9319" x2="3061.1887" y2="49.0615" gradientTransform="matrix(-1 0 0 1 3734.188 0)">
				<stop  offset="0" style="stop-color:#FF47E3;stop-opacity:0.8"/>
				<stop  offset="0.1359" style="stop-color:#FB46E2;stop-opacity:0.6754"/>
				<stop  offset="0.2579" style="stop-color:#F142DD;stop-opacity:0.5635"/>
				<stop  offset="0.3747" style="stop-color:#DE3CD6;stop-opacity:0.4563"/>
				<stop  offset="0.4883" style="stop-color:#C433CC;stop-opacity:0.3522"/>
				<stop  offset="0.5996" style="stop-color:#A328BF;stop-opacity:0.2502"/>
				<stop  offset="0.709" style="stop-color:#7A1AAF;stop-opacity:0.1498"/>
				<stop  offset="0.8151" style="stop-color:#4B0A9C;stop-opacity:5.250424e-02"/>
				<stop  offset="0.8723" style="stop-color:#2E0091;stop-opacity:0"/>
			</linearGradient>
			<path style="fill:url(#SVGID_00000130631016717007827440000005428791335992125833_);" d="M900.7,173.1
				c0,0-161.7,873.3-163.9,887.8c0,8.5-5.6,14.5-12.6,14.5H621.8c-6.9,0-12.6-6.7-12.6-14.5c-2.2-14.5-163.9-887.8-163.9-887.8"/>
			<g>
				
					<linearGradient id="SVGID_00000091738087021681625250000004733645939053301639_" gradientUnits="userSpaceOnUse" x1="3061.1887" y1="600.0848" x2="3061.1887" y2="867.6097" gradientTransform="matrix(-1 0 0 1 3734.188 0)">
					<stop  offset="0" style="stop-color:#7AFF73"/>
					<stop  offset="0.1422" style="stop-color:#79FB73;stop-opacity:0.8862"/>
					<stop  offset="0.27" style="stop-color:#76F175;stop-opacity:0.784"/>
					<stop  offset="0.3923" style="stop-color:#70DE77;stop-opacity:0.6862"/>
					<stop  offset="0.5112" style="stop-color:#69C47A;stop-opacity:0.591"/>
					<stop  offset="0.6278" style="stop-color:#5FA37E;stop-opacity:0.4978"/>
					<stop  offset="0.7424" style="stop-color:#527A83;stop-opacity:0.4061"/>
					<stop  offset="0.8556" style="stop-color:#444A88;stop-opacity:0.3155"/>
					<stop  offset="0.9649" style="stop-color:#34138F;stop-opacity:0.228"/>
					<stop  offset="1" style="stop-color:#2E0091;stop-opacity:0.2"/>
				</linearGradient>
				<path style="fill:url(#SVGID_00000091738087021681625250000004733645939053301639_);" d="M583.6,586.2h178.8
					c54,0,97.8,43.8,97.8,97.8v0c0,54-43.8,97.8-97.8,97.8H635.9c0,39.7-33.6,72-75,72c-41.4,0-75-32.2-75-72V684
					C485.8,630,529.6,586.2,583.6,586.2z"/>
				<g>
					<defs>
						<path id="SVGID_00000064340840483936855980000012196360058070295967_" d="M583.6,586.2h178.8c54,0,97.8,43.8,97.8,97.8v0
							c0,54-43.8,97.8-97.8,97.8H635.9c0,39.7-33.6,72-75,72c-41.4,0-75-32.2-75-72V684C485.8,630,529.6,586.2,583.6,586.2z"/>
					</defs>
					<clipPath id="SVGID_00000066478307846890777790000013110291756971782293_">
						<use xlink:href="#SVGID_00000064340840483936855980000012196360058070295967_"  style="overflow:visible;"/>
					</clipPath>
					<g style="clip-path:url(#SVGID_00000066478307846890777790000013110291756971782293_);">
						<g>
							<path class="st1" d="M831.9,685h-77.1c-20.2,0-36.6-16.4-36.6-36.6c0-20.2,16.4-36.6,36.6-36.6h139.1v3.5H754.7
								c-18.3,0-33.1,14.9-33.1,33.1c0,18.3,14.9,33.1,33.1,33.1h77.1V685z"/>
						</g>
						<g>
							<path class="st1" d="M764.7,754.8H625.6c-20.2,0-36.6-16.4-36.6-36.6c0-20.2,16.4-36.6,36.6-36.6h139.1v3.5H625.6
								c-18.3,0-33.1,14.9-33.1,33.1c0,18.3,14.9,33.1,33.1,33.1h139.1V754.8z"/>
						</g>
						<g>
							<path class="st1" d="M696,824.5H556.9c-20.2,0-36.6-16.4-36.6-36.6c0-20.2,16.4-36.6,36.6-36.6v3.5
								c-18.3,0-33.1,14.9-33.1,33.1c0,18.3,14.9,33.1,33.1,33.1H696V824.5z"/>
						</g>
						<g>
							<path class="st1" d="M552.2,685h-30.1v-3.5h30.1c18.3,0,33.1-14.9,33.1-33.1c0-18.3-14.9-33.1-33.1-33.1H413.1v-3.5h139.1
								c20.2,0,36.6,16.4,36.6,36.6C588.8,668.6,572.4,685,552.2,685z"/>
						</g>
						<g>
							<path class="st1" d="M657.9,685v-3.5c18.3,0,33.1-14.9,33.1-33.1c0-18.3-14.9-33.1-33.1-33.1v-3.5
								c20.2,0,36.6,16.4,36.6,36.6C694.5,668.6,678.1,685,657.9,685z"/>
						</g>
						<g>
							<path class="st1" d="M650.3,625.1c-6.4,0-11.6-5.2-11.6-11.6c0-6.4,5.2-11.6,11.6-11.6c6.4,0,11.6,5.2,11.6,11.6
								C661.9,619.9,656.7,625.1,650.3,625.1z M650.3,605.4c-4.5,0-8.1,3.6-8.1,8.1c0,4.5,3.6,8.1,8.1,8.1c4.5,0,8.1-3.6,8.1-8.1
								C658.4,609,654.8,605.4,650.3,605.4z"/>
						</g>
						<g>
							<path class="st1" d="M774.6,764.6c-6.4,0-11.6-5.2-11.6-11.6c0-6.4,5.2-11.6,11.6-11.6c6.4,0,11.6,5.2,11.6,11.6
								C786.2,759.4,781,764.6,774.6,764.6z M774.6,744.9c-4.5,0-8.1,3.6-8.1,8.1c0,4.5,3.6,8.1,8.1,8.1c4.5,0,8.1-3.6,8.1-8.1
								C782.7,748.6,779,744.9,774.6,744.9z"/>
						</g>
						<g>
							<path class="st1" d="M566.3,764.6c-6.4,0-11.6-5.2-11.6-11.6c0-6.4,5.2-11.6,11.6-11.6c6.4,0,11.6,5.2,11.6,11.6
								C577.8,759.4,572.6,764.6,566.3,764.6z M566.3,744.9c-4.5,0-8.1,3.6-8.1,8.1c0,4.5,3.6,8.1,8.1,8.1s8.1-3.6,8.1-8.1
								C574.3,748.6,570.7,744.9,566.3,744.9z"/>
						</g>
						<g>
							<path class="st1" d="M513.4,694.9c-6.4,0-11.6-5.2-11.6-11.6c0-6.4,5.2-11.6,11.6-11.6c6.4,0,11.6,5.2,11.6,11.6
								C525,689.7,519.8,694.9,513.4,694.9z M513.4,675.2c-4.5,0-8.1,3.6-8.1,8.1c0,4.5,3.6,8.1,8.1,8.1c4.5,0,8.1-3.6,8.1-8.1
								C521.5,678.8,517.8,675.2,513.4,675.2z"/>
						</g>
						<g>
							<path class="st1" d="M839.1,694.9c-6.4,0-11.6-5.2-11.6-11.6c0-6.4,5.2-11.6,11.6-11.6c6.4,0,11.6,5.2,11.6,11.6
								C850.7,689.7,845.5,694.9,839.1,694.9z M839.1,675.2c-4.5,0-8.1,3.6-8.1,8.1c0,4.5,3.6,8.1,8.1,8.1c4.5,0,8.1-3.6,8.1-8.1
								C847.2,678.8,843.6,675.2,839.1,675.2z"/>
						</g>
					</g>
				</g>
			</g>
		</g>
	</g>
	<g>
		<g>
			<path class="st9" d="M2302.1,809.1c-5.9,0-10.7-4.8-10.7-10.7s4.8-10.7,10.7-10.7s10.7,4.8,10.7,10.7S2308,809.1,2302.1,809.1z
				 M2302.1,791.2c-4,0-7.2,3.2-7.2,7.2c0,4,3.2,7.2,7.2,7.2s7.2-3.2,7.2-7.2C2309.3,794.4,2306.1,791.2,2302.1,791.2z"/>
		</g>
		<g>
			<rect x="2310.4" y="840.1" class="st9" width="249.6" height="3.5"/>
		</g>
		<g>
			<path class="st9" d="M2302.1,852.5c-5.9,0-10.7-4.8-10.7-10.7s4.8-10.7,10.7-10.7s10.7,4.8,10.7,10.7S2308,852.5,2302.1,852.5z
				 M2302.1,834.6c-4,0-7.2,3.2-7.2,7.2c0,4,3.2,7.2,7.2,7.2s7.2-3.2,7.2-7.2C2309.3,837.9,2306.1,834.6,2302.1,834.6z"/>
		</g>
		<g>
			<rect x="2310.4" y="883.5" class="st9" width="249.6" height="3.5"/>
		</g>
		<g>
			<path class="st9" d="M2302.1,895.9c-5.9,0-10.7-4.8-10.7-10.7s4.8-10.7,10.7-10.7s10.7,4.8,10.7,10.7S2308,895.9,2302.1,895.9z
				 M2302.1,878c-4,0-7.2,3.2-7.2,7.2s3.2,7.2,7.2,7.2s7.2-3.2,7.2-7.2S2306.1,878,2302.1,878z"/>
		</g>
		<g>
			<rect x="2310.4" y="926.9" class="st9" width="249.6" height="3.5"/>
		</g>
		<g>
			<path class="st9" d="M2302.1,939.3c-5.9,0-10.7-4.8-10.7-10.7s4.8-10.7,10.7-10.7s10.7,4.8,10.7,10.7S2308,939.3,2302.1,939.3z
				 M2302.1,921.5c-4,0-7.2,3.2-7.2,7.2s3.2,7.2,7.2,7.2s7.2-3.2,7.2-7.2S2306.1,921.5,2302.1,921.5z"/>
		</g>
		<g>
			<path class="st9" d="M2398,800.2h-87.7v-3.5h87.7c34.5,0,62.5-28,62.5-62.5v-49.6c0-34.5-28-62.5-62.5-62.5H2216v-3.5H2398
				c36.4,0,66,29.6,66,66v49.6C2464,770.5,2434.4,800.2,2398,800.2z"/>
		</g>
		<g>
			<path class="st9" d="M2463.3,286.6h-143.9c-36.4,0-66-29.6-66-66V76.7h3.5v143.9c0,34.5,28,62.5,62.5,62.5h143.9V286.6z"/>
		</g>
		<g>
			<path class="st9" d="M2424.4,247.6h-130.3l-1.8-1.8V115.6l1.8-1.8h130.3l1.8,1.8v130.3L2424.4,247.6z M2295.8,244.1h126.8V117.4
				h-126.8V244.1z"/>
		</g>
		<g>
			<rect x="2325.4" y="115.6" class="st9" width="3.5" height="56.2"/>
		</g>
		<g>
			<rect x="2389.5" y="155.3" class="st9" width="3.5" height="90.6"/>
		</g>
		<g>
			<rect x="2357.5" y="115.6" class="st9" width="3.5" height="90.6"/>
		</g>
		<g>
			<rect x="2294.1" y="213.4" class="st9" width="56.2" height="3.5"/>
		</g>
		<g>
			<rect x="2400.2" y="144.6" class="st9" width="24.1" height="3.5"/>
		</g>
		<g>
			<rect x="2336.1" y="179" class="st9" width="88.3" height="3.5"/>
		</g>
		<g>
			<path class="st9" d="M2327.2,192.4c-6.4,0-11.6-5.2-11.6-11.6s5.2-11.6,11.6-11.6s11.6,5.2,11.6,11.6S2333.6,192.4,2327.2,192.4z
				 M2327.2,172.7c-4.5,0-8.1,3.6-8.1,8.1c0,4.5,3.6,8.1,8.1,8.1s8.1-3.6,8.1-8.1C2335.3,176.3,2331.6,172.7,2327.2,172.7z"/>
		</g>
		<g>
			<path class="st9" d="M2391.3,157.9c-6.4,0-11.6-5.2-11.6-11.6s5.2-11.6,11.6-11.6c6.4,0,11.6,5.2,11.6,11.6
				S2397.7,157.9,2391.3,157.9z M2391.3,138.3c-4.5,0-8.1,3.6-8.1,8.1c0,4.5,3.6,8.1,8.1,8.1s8.1-3.6,8.1-8.1
				C2399.4,141.9,2395.7,138.3,2391.3,138.3z"/>
		</g>
		<g>
			<path class="st9" d="M2359.2,226.8c-6.4,0-11.6-5.2-11.6-11.6s5.2-11.6,11.6-11.6c6.4,0,11.6,5.2,11.6,11.6
				S2365.6,226.8,2359.2,226.8z M2359.2,207.1c-4.5,0-8.1,3.6-8.1,8.1c0,4.5,3.6,8.1,8.1,8.1s8.1-3.6,8.1-8.1
				C2367.3,210.7,2363.7,207.1,2359.2,207.1z"/>
		</g>
		<g>
			<rect x="1506.7" y="1169" class="st9" width="636" height="3.5"/>
		</g>
		<g>
			<path class="st9" d="M2151,1181.5c-5.9,0-10.7-4.8-10.7-10.7s4.8-10.7,10.7-10.7s10.7,4.8,10.7,10.7S2156.9,1181.5,2151,1181.5z
				 M2151,1163.6c-4,0-7.2,3.2-7.2,7.2s3.2,7.2,7.2,7.2s7.2-3.2,7.2-7.2S2154.9,1163.6,2151,1163.6z"/>
		</g>
		<g>
			<path class="st9" d="M2152.2,1339.6c-93.1,0-168.9-75.8-168.9-168.9s75.8-168.9,168.9-168.9s168.9,75.8,168.9,168.9
				S2245.3,1339.6,2152.2,1339.6z M2152.2,1005.4c-91.2,0-165.4,74.2-165.4,165.4s74.2,165.4,165.4,165.4s165.4-74.2,165.4-165.4
				S2243.4,1005.4,2152.2,1005.4z"/>
		</g>
		<g>
			<path class="st9" d="M2153.5,1301.1v-3.5c69.9,0,126.8-56.9,126.8-126.8s-56.9-126.8-126.8-126.8v-3.5
				c71.8,0,130.3,58.4,130.3,130.3S2225.4,1301.1,2153.5,1301.1z"/>
		</g>
		<g>
			<path class="st9" d="M2150.9,1263.1c-50.9,0-92.3-41.4-92.3-92.3s41.4-92.3,92.3-92.3c50.9,0,92.3,41.4,92.3,92.3
				S2201.8,1263.1,2150.9,1263.1z M2150.9,1082c-49,0-88.8,39.8-88.8,88.8s39.8,88.8,88.8,88.8s88.8-39.8,88.8-88.8
				S2199.9,1082,2150.9,1082z"/>
		</g>
		<g>
			<path class="st9" d="M1493,510.2c-5.9,0-10.7-4.8-10.7-10.7s4.8-10.7,10.7-10.7s10.7,4.8,10.7,10.7S1498.9,510.2,1493,510.2z
				 M1493,492.4c-4,0-7.2,3.2-7.2,7.2c0,4,3.2,7.2,7.2,7.2s7.2-3.2,7.2-7.2C1500.2,495.6,1497,492.4,1493,492.4z"/>
		</g>
		<g>
			<path class="st9" d="M1280,87.8c-5.9,0-10.7-4.8-10.7-10.7s4.8-10.7,10.7-10.7s10.7,4.8,10.7,10.7S1285.9,87.8,1280,87.8z
				 M1280,70c-4,0-7.2,3.2-7.2,7.2c0,4,3.2,7.2,7.2,7.2c4,0,7.2-3.2,7.2-7.2C1287.2,73.2,1284,70,1280,70z"/>
		</g>
		<g>
			<path class="st9" d="M1494.7,491.3h-3.5V141c0-36.4,29.6-66,66-66h906v3.5h-906c-34.5,0-62.5,28-62.5,62.5V491.3z"/>
		</g>
		<g>
			<rect x="2461.5" class="st9" width="3.5" height="841.8"/>
		</g>
		<g>
			<rect x="2461.5" y="991.3" class="st9" width="3.5" height="448.7"/>
		</g>
		<g>
			<path class="st9" d="M1555.5,204.2c-35.5,0-64.4-28.9-64.4-64.4c0-35.5,28.9-64.4,64.4-64.4c35.5,0,64.4,28.9,64.4,64.4
				C1619.9,175.3,1591.1,204.2,1555.5,204.2z M1555.5,78.9c-33.6,0-60.9,27.3-60.9,60.9s27.3,60.9,60.9,60.9s60.9-27.3,60.9-60.9
				S1589.1,78.9,1555.5,78.9z"/>
		</g>
		<g>
			<path class="st9" d="M1659.3,254.3c-6.4,0-11.6-5.2-11.6-11.6c0-6.4,5.2-11.6,11.6-11.6c6.4,0,11.6,5.2,11.6,11.6
				C1670.9,249.1,1665.7,254.3,1659.3,254.3z M1659.3,234.6c-4.5,0-8.1,3.6-8.1,8.1c0,4.5,3.6,8.1,8.1,8.1s8.1-3.6,8.1-8.1
				C1667.4,238.2,1663.8,234.6,1659.3,234.6z"/>
		</g>
		<g>
			
				<rect x="1606.3" y="127.3" transform="matrix(0.7071 -0.7071 0.7071 0.7071 336.204 1192.875)" class="st9" width="3.5" height="126.5"/>
		</g>
		<g>
			<path class="st9" d="M1747.5,1283.5c-6.4,0-11.6-5.2-11.6-11.6s5.2-11.6,11.6-11.6c6.4,0,11.6,5.2,11.6,11.6
				S1753.9,1283.5,1747.5,1283.5z M1747.5,1263.8c-4.5,0-8.1,3.6-8.1,8.1s3.6,8.1,8.1,8.1s8.1-3.6,8.1-8.1
				S1752,1263.8,1747.5,1263.8z"/>
		</g>
		<g>
			<path class="st9" d="M1747.5,1336.3c-35.5,0-64.4-28.9-64.4-64.4s28.9-64.4,64.4-64.4s64.4,28.9,64.4,64.4
				S1783,1336.3,1747.5,1336.3z M1747.5,1211c-33.6,0-60.9,27.3-60.9,60.9s27.3,60.9,60.9,60.9s60.9-27.3,60.9-60.9
				S1781.1,1211,1747.5,1211z"/>
		</g>
		<g>
			<path class="st9" d="M1808.4,1437.4l0-163.9c0-34.5-28-62.5-62.5-62.5H1581v-3.5h164.8c36.4,0,66,29.6,66,66l0,163.9H1808.4z"/>
		</g>
		<g>
			<path class="st9" d="M1497.8,1223.5c-5.9,0-10.7-4.8-10.7-10.7s4.8-10.7,10.7-10.7c5.9,0,10.7,4.8,10.7,10.7
				S1503.6,1223.5,1497.8,1223.5z M1497.8,1205.6c-4,0-7.2,3.2-7.2,7.2s3.2,7.2,7.2,7.2s7.2-3.2,7.2-7.2
				S1501.7,1205.6,1497.8,1205.6z"/>
		</g>
		<g>
			<rect x="1506" y="1253.1" class="st9" width="182.6" height="3.5"/>
		</g>
		<g>
			<path class="st9" d="M1497.8,1265.5c-5.9,0-10.7-4.8-10.7-10.7s4.8-10.7,10.7-10.7c5.9,0,10.7,4.8,10.7,10.7
				S1503.6,1265.5,1497.8,1265.5z M1497.8,1247.6c-4,0-7.2,3.2-7.2,7.2s3.2,7.2,7.2,7.2s7.2-3.2,7.2-7.2
				S1501.7,1247.6,1497.8,1247.6z"/>
		</g>
		<g>
			<rect x="1506.5" y="1295.1" class="st9" width="182.6" height="3.5"/>
		</g>
		<g>
			<path class="st9" d="M1497.8,1307.5c-5.9,0-10.7-4.8-10.7-10.7s4.8-10.7,10.7-10.7c5.9,0,10.7,4.8,10.7,10.7
				S1503.6,1307.5,1497.8,1307.5z M1497.8,1289.7c-4,0-7.2,3.2-7.2,7.2s3.2,7.2,7.2,7.2s7.2-3.2,7.2-7.2
				S1501.7,1289.7,1497.8,1289.7z"/>
		</g>
		<g>
			<rect x="1406" y="1337.1" class="st9" width="757.4" height="3.5"/>
		</g>
		<g>
			<path class="st9" d="M1397.8,1349.5c-5.9,0-10.7-4.8-10.7-10.7s4.8-10.7,10.7-10.7s10.7,4.8,10.7,10.7
				S1403.6,1349.5,1397.8,1349.5z M1397.8,1331.7c-4,0-7.2,3.2-7.2,7.2s3.2,7.2,7.2,7.2s7.2-3.2,7.2-7.2
				S1401.7,1331.7,1397.8,1331.7z"/>
		</g>
		<g>
			<rect x="1506" y="1207.9" class="st9" width="75" height="3.5"/>
		</g>
		<g>
			<path class="st9" d="M2378,562.6c-5.9,0-10.7-4.8-10.7-10.7s4.8-10.7,10.7-10.7s10.7,4.8,10.7,10.7S2383.9,562.6,2378,562.6z
				 M2378,544.7c-4,0-7.2,3.2-7.2,7.2c0,4,3.2,7.2,7.2,7.2s7.2-3.2,7.2-7.2C2385.2,548,2382,544.7,2378,544.7z"/>
		</g>
		<g>
			<rect x="2386.2" y="506.8" class="st9" width="75.8" height="3.5"/>
		</g>
		<g>
			<path class="st9" d="M2378,519.2c-5.9,0-10.7-4.8-10.7-10.7c0-5.9,4.8-10.7,10.7-10.7s10.7,4.8,10.7,10.7
				C2388.7,514.4,2383.9,519.2,2378,519.2z M2378,501.3c-4,0-7.2,3.2-7.2,7.2c0,4,3.2,7.2,7.2,7.2s7.2-3.2,7.2-7.2
				C2385.2,504.6,2382,501.3,2378,501.3z"/>
		</g>
		<g>
			<rect x="2386.2" y="463.3" class="st9" width="75.8" height="3.5"/>
		</g>
		<g>
			<path class="st9" d="M2378,475.8c-5.9,0-10.7-4.8-10.7-10.7s4.8-10.7,10.7-10.7s10.7,4.8,10.7,10.7S2383.9,475.8,2378,475.8z
				 M2378,457.9c-4,0-7.2,3.2-7.2,7.2c0,4,3.2,7.2,7.2,7.2s7.2-3.2,7.2-7.2C2385.2,461.1,2382,457.9,2378,457.9z"/>
		</g>
		<g>
			<rect x="2386.2" y="419.9" class="st9" width="75" height="3.5"/>
		</g>
		<g>
			<path class="st9" d="M2378,432.4c-5.9,0-10.7-4.8-10.7-10.7s4.8-10.7,10.7-10.7s10.7,4.8,10.7,10.7S2383.9,432.4,2378,432.4z
				 M2378,414.5c-4,0-7.2,3.2-7.2,7.2c0,4,3.2,7.2,7.2,7.2s7.2-3.2,7.2-7.2C2385.2,417.7,2382,414.5,2378,414.5z"/>
		</g>
		<g>
			<rect x="2386.2" y="550.2" class="st9" width="75" height="3.5"/>
		</g>
		<g>
			<path class="st9" d="M2369.1,510.6l-239.8,0c-36.4,0-66-29.6-66-66V78.4h-36.1v-3.5h37.8l1.8,1.8v367.9c0,34.5,28,62.5,62.5,62.5
				l239.8,0V510.6z"/>
		</g>
		<g>
			<path class="st9" d="M1555.5,151.4c-6.4,0-11.6-5.2-11.6-11.6s5.2-11.6,11.6-11.6c6.4,0,11.6,5.2,11.6,11.6
				S1561.9,151.4,1555.5,151.4z M1555.5,131.7c-4.5,0-8.1,3.6-8.1,8.1c0,4.5,3.6,8.1,8.1,8.1s8.1-3.6,8.1-8.1
				C1563.6,135.4,1560,131.7,1555.5,131.7z"/>
		</g>
		<g>
			<path class="st9" d="M2206.9,631.8c-6.4,0-11.6-5.2-11.6-11.6c0-6.4,5.2-11.6,11.6-11.6c6.4,0,11.6,5.2,11.6,11.6
				C2218.5,626.6,2213.3,631.8,2206.9,631.8z M2206.9,612.2c-4.5,0-8.1,3.6-8.1,8.1c0,4.5,3.6,8.1,8.1,8.1s8.1-3.6,8.1-8.1
				C2215,615.8,2211.4,612.2,2206.9,612.2z"/>
		</g>
		<g>
			<rect x="1779.3" y="285.2" class="st9" width="285.7" height="3.5"/>
		</g>
		<g>
			<path class="st9" d="M1771,297.6c-5.9,0-10.7-4.8-10.7-10.7s4.8-10.7,10.7-10.7s10.7,4.8,10.7,10.7S1776.9,297.6,1771,297.6z
				 M1771,279.8c-4,0-7.2,3.2-7.2,7.2c0,4,3.2,7.2,7.2,7.2s7.2-3.2,7.2-7.2C1778.2,283,1775,279.8,1771,279.8z"/>
		</g>
		<g>
			<rect x="1779.3" y="328.6" class="st9" width="285.7" height="3.5"/>
		</g>
		<g>
			<path class="st9" d="M1771,341.1c-5.9,0-10.7-4.8-10.7-10.7s4.8-10.7,10.7-10.7s10.7,4.8,10.7,10.7S1776.9,341.1,1771,341.1z
				 M1771,323.2c-4,0-7.2,3.2-7.2,7.2c0,4,3.2,7.2,7.2,7.2s7.2-3.2,7.2-7.2C1778.2,326.4,1775,323.2,1771,323.2z"/>
		</g>
		<g>
			<rect x="1779.3" y="372" class="st9" width="285.7" height="3.5"/>
		</g>
		<g>
			<path class="st9" d="M1771,384.5c-5.9,0-10.7-4.8-10.7-10.7c0-5.9,4.8-10.7,10.7-10.7s10.7,4.8,10.7,10.7
				C1781.7,379.7,1776.9,384.5,1771,384.5z M1771,366.6c-4,0-7.2,3.2-7.2,7.2c0,4,3.2,7.2,7.2,7.2s7.2-3.2,7.2-7.2
				C1778.2,369.8,1775,366.6,1771,366.6z"/>
		</g>
		<g>
			<path class="st9" d="M2065,208.7h-130.3l-1.8-1.8V76.7l1.8-1.8H2065l1.8,1.8V207L2065,208.7z M1936.4,205.2h126.8V78.4h-126.8
				V205.2z"/>
		</g>
		<g>
			<rect x="2008.8" y="108" class="st9" width="56.2" height="3.5"/>
		</g>
		<g>
			<rect x="1934.7" y="172.1" class="st9" width="90.6" height="3.5"/>
		</g>
		<g>
			<rect x="1974.3" y="140.1" class="st9" width="90.6" height="3.5"/>
		</g>
		<g>
			<rect x="1963.7" y="76.7" class="st9" width="3.5" height="56.2"/>
		</g>
		<g>
			<rect x="2032.5" y="182.8" class="st9" width="3.5" height="24.1"/>
		</g>
		<g>
			<rect x="1998.1" y="118.7" class="st9" width="3.5" height="88.3"/>
		</g>
		<g>
			<path class="st9" d="M1999.8,121.4c-6.4,0-11.6-5.2-11.6-11.6c0-6.4,5.2-11.6,11.6-11.6c6.4,0,11.6,5.2,11.6,11.6
				C2011.4,116.2,2006.2,121.4,1999.8,121.4z M1999.8,101.7c-4.5,0-8.1,3.6-8.1,8.1s3.6,8.1,8.1,8.1s8.1-3.6,8.1-8.1
				S2004.3,101.7,1999.8,101.7z"/>
		</g>
		<g>
			<path class="st9" d="M2034.2,185.5c-6.4,0-11.6-5.2-11.6-11.6c0-6.4,5.2-11.6,11.6-11.6c6.4,0,11.6,5.2,11.6,11.6
				C2045.8,180.3,2040.6,185.5,2034.2,185.5z M2034.2,165.8c-4.5,0-8.1,3.6-8.1,8.1c0,4.5,3.6,8.1,8.1,8.1s8.1-3.6,8.1-8.1
				C2042.3,169.4,2038.7,165.8,2034.2,165.8z"/>
		</g>
		<g>
			<path class="st9" d="M1965.4,153.4c-6.4,0-11.6-5.2-11.6-11.6s5.2-11.6,11.6-11.6c6.4,0,11.6,5.2,11.6,11.6
				S1971.8,153.4,1965.4,153.4z M1965.4,133.7c-4.5,0-8.1,3.6-8.1,8.1c0,4.5,3.6,8.1,8.1,8.1s8.1-3.6,8.1-8.1
				C1973.5,137.4,1969.9,133.7,1965.4,133.7z"/>
		</g>
		<g>
			<path class="st9" d="M2400.6,1002.9c-6.4,0-11.6-5.2-11.6-11.6c0-6.4,5.2-11.6,11.6-11.6c6.4,0,11.6,5.2,11.6,11.6
				C2412.2,997.7,2407,1002.9,2400.6,1002.9z M2400.6,983.2c-4.5,0-8.1,3.6-8.1,8.1c0,4.5,3.6,8.1,8.1,8.1s8.1-3.6,8.1-8.1
				C2408.7,986.8,2405.1,983.2,2400.6,983.2z"/>
		</g>
		<g>
			<path class="st9" d="M2400.6,1055.7c-35.5,0-64.4-28.9-64.4-64.4c0-35.5,28.9-64.4,64.4-64.4s64.4,28.9,64.4,64.4
				C2465,1026.8,2436.1,1055.7,2400.6,1055.7z M2400.6,930.4c-33.6,0-60.9,27.3-60.9,60.9c0,33.6,27.3,60.9,60.9,60.9
				s60.9-27.3,60.9-60.9C2461.5,957.7,2434.2,930.4,2400.6,930.4z"/>
		</g>
		<g>
			<rect x="1288.9" y="74.9" class="st9" width="330.5" height="3.5"/>
		</g>
		<g>
			<path class="st9" d="M1497.8,1181.5c-5.9,0-10.7-4.8-10.7-10.7s4.8-10.7,10.7-10.7c5.9,0,10.7,4.8,10.7,10.7
				S1503.6,1181.5,1497.8,1181.5z M1497.8,1163.6c-4,0-7.2,3.2-7.2,7.2s3.2,7.2,7.2,7.2s7.2-3.2,7.2-7.2
				S1501.7,1163.6,1497.8,1163.6z"/>
		</g>
		<g>
			<path class="st9" d="M257.9,809.1c-5.9,0-10.7-4.8-10.7-10.7s4.8-10.7,10.7-10.7s10.7,4.8,10.7,10.7S263.8,809.1,257.9,809.1z
				 M257.9,791.2c-4,0-7.2,3.2-7.2,7.2c0,4,3.2,7.2,7.2,7.2c4,0,7.2-3.2,7.2-7.2C265.1,794.4,261.8,791.2,257.9,791.2z"/>
		</g>
		<g>
			<rect y="840.1" class="st9" width="249.6" height="3.5"/>
		</g>
		<g>
			<path class="st9" d="M257.9,852.5c-5.9,0-10.7-4.8-10.7-10.7s4.8-10.7,10.7-10.7s10.7,4.8,10.7,10.7S263.8,852.5,257.9,852.5z
				 M257.9,834.6c-4,0-7.2,3.2-7.2,7.2c0,4,3.2,7.2,7.2,7.2c4,0,7.2-3.2,7.2-7.2C265.1,837.9,261.8,834.6,257.9,834.6z"/>
		</g>
		<g>
			<rect y="883.5" class="st9" width="249.6" height="3.5"/>
		</g>
		<g>
			<path class="st9" d="M257.9,895.9c-5.9,0-10.7-4.8-10.7-10.7s4.8-10.7,10.7-10.7s10.7,4.8,10.7,10.7S263.8,895.9,257.9,895.9z
				 M257.9,878c-4,0-7.2,3.2-7.2,7.2s3.2,7.2,7.2,7.2c4,0,7.2-3.2,7.2-7.2S261.8,878,257.9,878z"/>
		</g>
		<g>
			<rect y="926.9" class="st9" width="249.6" height="3.5"/>
		</g>
		<g>
			<path class="st9" d="M257.9,939.3c-5.9,0-10.7-4.8-10.7-10.7S252,918,257.9,918s10.7,4.8,10.7,10.7S263.8,939.3,257.9,939.3z
				 M257.9,921.5c-4,0-7.2,3.2-7.2,7.2s3.2,7.2,7.2,7.2c4,0,7.2-3.2,7.2-7.2S261.8,921.5,257.9,921.5z"/>
		</g>
		<g>
			<path class="st9" d="M249.6,800.2H162c-36.4,0-66-29.6-66-66v-49.6c0-36.4,29.6-66,66-66H346v3.5H162c-34.5,0-62.5,28-62.5,62.5
				v49.6c0,34.5,28,62.5,62.5,62.5h87.7V800.2z"/>
		</g>
		<g>
			<path class="st9" d="M240.6,286.6H96.7v-3.5h143.9c34.5,0,62.5-28,62.5-62.5V76.7h3.5v143.9C306.6,257,277,286.6,240.6,286.6z"/>
		</g>
		<g>
			<path class="st9" d="M265.9,247.6H135.6l-1.8-1.8V115.6l1.8-1.8h130.3l1.8,1.8v130.3L265.9,247.6z M137.4,244.1h126.8V117.4
				H137.4V244.1z"/>
		</g>
		<g>
			<rect x="231.1" y="115.6" class="st9" width="3.5" height="56.2"/>
		</g>
		<g>
			<rect x="167" y="155.3" class="st9" width="3.5" height="90.6"/>
		</g>
		<g>
			<rect x="199" y="115.6" class="st9" width="3.5" height="90.6"/>
		</g>
		<g>
			<rect x="209.7" y="213.4" class="st9" width="56.2" height="3.5"/>
		</g>
		<g>
			<rect x="135.6" y="144.6" class="st9" width="24.1" height="3.5"/>
		</g>
		<g>
			<rect x="135.6" y="179" class="st9" width="88.3" height="3.5"/>
		</g>
		<g>
			<path class="st9" d="M232.8,192.4c-6.4,0-11.6-5.2-11.6-11.6s5.2-11.6,11.6-11.6c6.4,0,11.6,5.2,11.6,11.6
				S239.2,192.4,232.8,192.4z M232.8,172.7c-4.5,0-8.1,3.6-8.1,8.1c0,4.5,3.6,8.1,8.1,8.1c4.5,0,8.1-3.6,8.1-8.1
				C240.9,176.3,237.3,172.7,232.8,172.7z"/>
		</g>
		<g>
			<path class="st9" d="M168.7,157.9c-6.4,0-11.6-5.2-11.6-11.6s5.2-11.6,11.6-11.6s11.6,5.2,11.6,11.6S175.1,157.9,168.7,157.9z
				 M168.7,138.3c-4.5,0-8.1,3.6-8.1,8.1c0,4.5,3.6,8.1,8.1,8.1c4.5,0,8.1-3.6,8.1-8.1C176.8,141.9,173.2,138.3,168.7,138.3z"/>
		</g>
		<g>
			<path class="st9" d="M200.8,226.8c-6.4,0-11.6-5.2-11.6-11.6s5.2-11.6,11.6-11.6c6.4,0,11.6,5.2,11.6,11.6
				S207.2,226.8,200.8,226.8z M200.8,207.1c-4.5,0-8.1,3.6-8.1,8.1c0,4.5,3.6,8.1,8.1,8.1c4.5,0,8.1-3.6,8.1-8.1
				C208.9,210.7,205.2,207.1,200.8,207.1z"/>
		</g>
		<g>
			<rect x="417.3" y="1169" class="st9" width="636" height="3.5"/>
		</g>
		<g>
			<path class="st9" d="M409,1181.5c-5.9,0-10.7-4.8-10.7-10.7s4.8-10.7,10.7-10.7c5.9,0,10.7,4.8,10.7,10.7
				S414.9,1181.5,409,1181.5z M409,1163.6c-4,0-7.2,3.2-7.2,7.2s3.2,7.2,7.2,7.2c4,0,7.2-3.2,7.2-7.2S413,1163.6,409,1163.6z"/>
		</g>
		<g>
			<path class="st9" d="M407.8,1339.6c-93.1,0-168.9-75.8-168.9-168.9s75.8-168.9,168.9-168.9s168.9,75.8,168.9,168.9
				S500.9,1339.6,407.8,1339.6z M407.8,1005.4c-91.2,0-165.4,74.2-165.4,165.4s74.2,165.4,165.4,165.4
				c91.2,0,165.4-74.2,165.4-165.4S499,1005.4,407.8,1005.4z"/>
		</g>
		<g>
			<path class="st9" d="M406.5,1301.1c-71.8,0-130.3-58.4-130.3-130.3s58.4-130.3,130.3-130.3v3.5c-69.9,0-126.8,56.9-126.8,126.8
				s56.9,126.8,126.8,126.8V1301.1z"/>
		</g>
		<g>
			<path class="st9" d="M409.1,1263.1c-50.9,0-92.3-41.4-92.3-92.3s41.4-92.3,92.3-92.3c50.9,0,92.3,41.4,92.3,92.3
				S460,1263.1,409.1,1263.1z M409.1,1082c-49,0-88.8,39.8-88.8,88.8s39.8,88.8,88.8,88.8c49,0,88.8-39.8,88.8-88.8
				S458,1082,409.1,1082z"/>
		</g>
		<g>
			<path class="st9" d="M1067,341.1c-5.9,0-10.7-4.8-10.7-10.7s4.8-10.7,10.7-10.7s10.7,4.8,10.7,10.7S1072.9,341.1,1067,341.1z
				 M1067,323.2c-4,0-7.2,3.2-7.2,7.2c0,4,3.2,7.2,7.2,7.2c4,0,7.2-3.2,7.2-7.2C1074.2,326.4,1071,323.2,1067,323.2z"/>
		</g>
		<g>
			<path class="st9" d="M98.5,841.8H95V141c0-36.4,29.6-66,66-66h841.7c36.4,0,66,29.6,66,66v181.2h-3.5V141
				c0-34.5-28-62.5-62.5-62.5H161c-34.5,0-62.5,28-62.5,62.5V841.8z"/>
		</g>
		<g>
			<path class="st9" d="M1004.5,204.2c-35.5,0-64.4-28.9-64.4-64.4c0-35.5,28.9-64.4,64.4-64.4c35.5,0,64.4,28.9,64.4,64.4
				C1068.9,175.3,1040,204.2,1004.5,204.2z M1004.5,78.9c-33.6,0-60.9,27.3-60.9,60.9s27.3,60.9,60.9,60.9
				c33.6,0,60.9-27.3,60.9-60.9S1038,78.9,1004.5,78.9z"/>
		</g>
		<g>
			<path class="st9" d="M900.7,254.3c-6.4,0-11.6-5.2-11.6-11.6c0-6.4,5.2-11.6,11.6-11.6c6.4,0,11.6,5.2,11.6,11.6
				C912.3,249.1,907.1,254.3,900.7,254.3z M900.7,234.6c-4.5,0-8.1,3.6-8.1,8.1c0,4.5,3.6,8.1,8.1,8.1c4.5,0,8.1-3.6,8.1-8.1
				C908.8,238.2,905.1,234.6,900.7,234.6z"/>
		</g>
		<g>
			
				<rect x="888.7" y="188.9" transform="matrix(0.7071 -0.7071 0.7071 0.7071 144.0483 728.9669)" class="st9" width="126.5" height="3.5"/>
		</g>
		<g>
			<path class="st9" d="M812.5,1283.5c-6.4,0-11.6-5.2-11.6-11.6s5.2-11.6,11.6-11.6c6.4,0,11.6,5.2,11.6,11.6
				S818.9,1283.5,812.5,1283.5z M812.5,1263.8c-4.5,0-8.1,3.6-8.1,8.1s3.6,8.1,8.1,8.1c4.5,0,8.1-3.6,8.1-8.1
				S817,1263.8,812.5,1263.8z"/>
		</g>
		<g>
			<path class="st9" d="M812.5,1336.3c-35.5,0-64.4-28.9-64.4-64.4s28.9-64.4,64.4-64.4c35.5,0,64.4,28.9,64.4,64.4
				S848,1336.3,812.5,1336.3z M812.5,1211c-33.6,0-60.9,27.3-60.9,60.9s27.3,60.9,60.9,60.9c33.6,0,60.9-27.3,60.9-60.9
				S846.1,1211,812.5,1211z"/>
		</g>
		<g>
			<path class="st9" d="M751.6,1437.4h-3.5l0-163.9c0-36.4,29.6-66,66-66H979v3.5H814.1c-34.5,0-62.5,28-62.5,62.5L751.6,1437.4z"/>
		</g>
		<g>
			<path class="st9" d="M1062.2,1223.5c-5.9,0-10.7-4.8-10.7-10.7s4.8-10.7,10.7-10.7s10.7,4.8,10.7,10.7
				S1068.1,1223.5,1062.2,1223.5z M1062.2,1205.6c-4,0-7.2,3.2-7.2,7.2s3.2,7.2,7.2,7.2c4,0,7.2-3.2,7.2-7.2
				S1066.2,1205.6,1062.2,1205.6z"/>
		</g>
		<g>
			<rect x="871.4" y="1253.1" class="st9" width="182.6" height="3.5"/>
		</g>
		<g>
			<path class="st9" d="M1062.2,1265.5c-5.9,0-10.7-4.8-10.7-10.7s4.8-10.7,10.7-10.7s10.7,4.8,10.7,10.7
				S1068.1,1265.5,1062.2,1265.5z M1062.2,1247.6c-4,0-7.2,3.2-7.2,7.2s3.2,7.2,7.2,7.2c4,0,7.2-3.2,7.2-7.2
				S1066.2,1247.6,1062.2,1247.6z"/>
		</g>
		<g>
			<rect x="870.9" y="1295.1" class="st9" width="182.6" height="3.5"/>
		</g>
		<g>
			<path class="st9" d="M1062.2,1307.5c-5.9,0-10.7-4.8-10.7-10.7s4.8-10.7,10.7-10.7s10.7,4.8,10.7,10.7
				S1068.1,1307.5,1062.2,1307.5z M1062.2,1289.7c-4,0-7.2,3.2-7.2,7.2s3.2,7.2,7.2,7.2c4,0,7.2-3.2,7.2-7.2
				S1066.2,1289.7,1062.2,1289.7z"/>
		</g>
		<g>
			<path class="st9" d="M1154,1340.6H161c-36.4,0-66-29.6-66-66V991.3h3.5v283.3c0,34.5,28,62.5,62.5,62.5h993V1340.6z"/>
		</g>
		<g>
			<path class="st9" d="M1162.2,1349.5c-5.9,0-10.7-4.8-10.7-10.7s4.8-10.7,10.7-10.7s10.7,4.8,10.7,10.7
				S1168.1,1349.5,1162.2,1349.5z M1162.2,1331.7c-4,0-7.2,3.2-7.2,7.2s3.2,7.2,7.2,7.2c4,0,7.2-3.2,7.2-7.2
				S1166.2,1331.7,1162.2,1331.7z"/>
		</g>
		<g>
			<rect x="979" y="1207.9" class="st9" width="75" height="3.5"/>
		</g>
		<g>
			<path class="st9" d="M182,562.6c-5.9,0-10.7-4.8-10.7-10.7s4.8-10.7,10.7-10.7s10.7,4.8,10.7,10.7S187.9,562.6,182,562.6z
				 M182,544.7c-4,0-7.2,3.2-7.2,7.2c0,4,3.2,7.2,7.2,7.2c4,0,7.2-3.2,7.2-7.2C189.2,548,186,544.7,182,544.7z"/>
		</g>
		<g>
			<rect x="97.9" y="506.8" class="st9" width="75.8" height="3.5"/>
		</g>
		<g>
			<path class="st9" d="M182,519.2c-5.9,0-10.7-4.8-10.7-10.7c0-5.9,4.8-10.7,10.7-10.7s10.7,4.8,10.7,10.7
				C192.7,514.4,187.9,519.2,182,519.2z M182,501.3c-4,0-7.2,3.2-7.2,7.2c0,4,3.2,7.2,7.2,7.2c4,0,7.2-3.2,7.2-7.2
				C189.2,504.6,186,501.3,182,501.3z"/>
		</g>
		<g>
			<rect x="97.9" y="463.3" class="st9" width="75.8" height="3.5"/>
		</g>
		<g>
			<path class="st9" d="M182,475.8c-5.9,0-10.7-4.8-10.7-10.7s4.8-10.7,10.7-10.7s10.7,4.8,10.7,10.7S187.9,475.8,182,475.8z
				 M182,457.9c-4,0-7.2,3.2-7.2,7.2c0,4,3.2,7.2,7.2,7.2c4,0,7.2-3.2,7.2-7.2C189.2,461.1,186,457.9,182,457.9z"/>
		</g>
		<g>
			<rect x="98.7" y="419.9" class="st9" width="75" height="3.5"/>
		</g>
		<g>
			<path class="st9" d="M182,432.4c-5.9,0-10.7-4.8-10.7-10.7S176.1,411,182,411s10.7,4.8,10.7,10.7S187.9,432.4,182,432.4z
				 M182,414.5c-4,0-7.2,3.2-7.2,7.2c0,4,3.2,7.2,7.2,7.2c4,0,7.2-3.2,7.2-7.2C189.2,417.7,186,414.5,182,414.5z"/>
		</g>
		<g>
			<rect x="98.7" y="550.2" class="st9" width="75" height="3.5"/>
		</g>
		<g>
			<path class="st9" d="M190.9,510.6v-3.5l239.8,0c34.5,0,62.5-28,62.5-62.5l0-367.9l1.8-1.8h37.8v3.5h-36.1l0,366.2
				c0,36.4-29.6,66-66,66L190.9,510.6z"/>
		</g>
		<g>
			<path class="st9" d="M1004.5,151.4c-6.4,0-11.6-5.2-11.6-11.6s5.2-11.6,11.6-11.6c6.4,0,11.6,5.2,11.6,11.6
				S1010.9,151.4,1004.5,151.4z M1004.5,131.7c-4.5,0-8.1,3.6-8.1,8.1c0,4.5,3.6,8.1,8.1,8.1c4.5,0,8.1-3.6,8.1-8.1
				C1012.6,135.4,1008.9,131.7,1004.5,131.7z"/>
		</g>
		<g>
			<path class="st9" d="M355.1,631.8c-6.4,0-11.6-5.2-11.6-11.6c0-6.4,5.2-11.6,11.6-11.6c6.4,0,11.6,5.2,11.6,11.6
				C366.7,626.6,361.5,631.8,355.1,631.8z M355.1,612.2c-4.5,0-8.1,3.6-8.1,8.1c0,4.5,3.6,8.1,8.1,8.1c4.5,0,8.1-3.6,8.1-8.1
				C363.2,615.8,359.5,612.2,355.1,612.2z"/>
		</g>
		<g>
			<rect x="495" y="285.2" class="st9" width="285.7" height="3.5"/>
		</g>
		<g>
			<path class="st9" d="M789,297.6c-5.9,0-10.7-4.8-10.7-10.7s4.8-10.7,10.7-10.7s10.7,4.8,10.7,10.7S794.9,297.6,789,297.6z
				 M789,279.8c-4,0-7.2,3.2-7.2,7.2c0,4,3.2,7.2,7.2,7.2c4,0,7.2-3.2,7.2-7.2C796.2,283,792.9,279.8,789,279.8z"/>
		</g>
		<g>
			<rect x="495" y="328.6" class="st9" width="285.7" height="3.5"/>
		</g>
		<g>
			<path class="st9" d="M789,341.1c-5.9,0-10.7-4.8-10.7-10.7s4.8-10.7,10.7-10.7s10.7,4.8,10.7,10.7S794.9,341.1,789,341.1z
				 M789,323.2c-4,0-7.2,3.2-7.2,7.2c0,4,3.2,7.2,7.2,7.2c4,0,7.2-3.2,7.2-7.2C796.2,326.4,792.9,323.2,789,323.2z"/>
		</g>
		<g>
			<rect x="495" y="372" class="st9" width="285.7" height="3.5"/>
		</g>
		<g>
			<path class="st9" d="M789,384.5c-5.9,0-10.7-4.8-10.7-10.7c0-5.9,4.8-10.7,10.7-10.7s10.7,4.8,10.7,10.7
				C799.7,379.7,794.9,384.5,789,384.5z M789,366.6c-4,0-7.2,3.2-7.2,7.2c0,4,3.2,7.2,7.2,7.2c4,0,7.2-3.2,7.2-7.2
				C796.2,369.8,792.9,366.6,789,366.6z"/>
		</g>
		<g>
			<path class="st9" d="M625.3,208.7H495l-1.8-1.8V76.7l1.8-1.8h130.3l1.8,1.8V207L625.3,208.7z M496.8,205.2h126.8V78.4H496.8
				V205.2z"/>
		</g>
		<g>
			<rect x="495" y="108" class="st9" width="56.2" height="3.5"/>
		</g>
		<g>
			<rect x="534.7" y="172.1" class="st9" width="90.6" height="3.5"/>
		</g>
		<g>
			<rect x="495" y="140.1" class="st9" width="90.6" height="3.5"/>
		</g>
		<g>
			<rect x="592.8" y="76.7" class="st9" width="3.5" height="56.2"/>
		</g>
		<g>
			<rect x="524" y="182.8" class="st9" width="3.5" height="24.1"/>
		</g>
		<g>
			<rect x="558.4" y="118.7" class="st9" width="3.5" height="88.3"/>
		</g>
		<g>
			<path class="st9" d="M560.2,121.4c-6.4,0-11.6-5.2-11.6-11.6c0-6.4,5.2-11.6,11.6-11.6s11.6,5.2,11.6,11.6
				C571.8,116.2,566.6,121.4,560.2,121.4z M560.2,101.7c-4.5,0-8.1,3.6-8.1,8.1s3.6,8.1,8.1,8.1s8.1-3.6,8.1-8.1
				S564.6,101.7,560.2,101.7z"/>
		</g>
		<g>
			<path class="st9" d="M525.8,185.5c-6.4,0-11.6-5.2-11.6-11.6c0-6.4,5.2-11.6,11.6-11.6c6.4,0,11.6,5.2,11.6,11.6
				C537.4,180.3,532.2,185.5,525.8,185.5z M525.8,165.8c-4.5,0-8.1,3.6-8.1,8.1c0,4.5,3.6,8.1,8.1,8.1c4.5,0,8.1-3.6,8.1-8.1
				C533.9,169.4,530.2,165.8,525.8,165.8z"/>
		</g>
		<g>
			<path class="st9" d="M594.6,153.4c-6.4,0-11.6-5.2-11.6-11.6s5.2-11.6,11.6-11.6c6.4,0,11.6,5.2,11.6,11.6S601,153.4,594.6,153.4
				z M594.6,133.7c-4.5,0-8.1,3.6-8.1,8.1c0,4.5,3.6,8.1,8.1,8.1c4.5,0,8.1-3.6,8.1-8.1C602.7,137.4,599.1,133.7,594.6,133.7z"/>
		</g>
		<g>
			<path class="st9" d="M159.4,1002.9c-6.4,0-11.6-5.2-11.6-11.6c0-6.4,5.2-11.6,11.6-11.6c6.4,0,11.6,5.2,11.6,11.6
				C171,997.7,165.8,1002.9,159.4,1002.9z M159.4,983.2c-4.5,0-8.1,3.6-8.1,8.1c0,4.5,3.6,8.1,8.1,8.1c4.5,0,8.1-3.6,8.1-8.1
				C167.5,986.8,163.8,983.2,159.4,983.2z"/>
		</g>
		<g>
			<path class="st9" d="M159.4,1055.7c-35.5,0-64.4-28.9-64.4-64.4c0-35.5,28.9-64.4,64.4-64.4c35.5,0,64.4,28.9,64.4,64.4
				C223.8,1026.8,194.9,1055.7,159.4,1055.7z M159.4,930.4c-33.6,0-60.9,27.3-60.9,60.9c0,33.6,27.3,60.9,60.9,60.9
				c33.6,0,60.9-27.3,60.9-60.9C220.3,957.7,193,930.4,159.4,930.4z"/>
		</g>
		<g>
			<rect x="940.6" y="74.9" class="st9" width="63.9" height="3.5"/>
		</g>
		<g>
			<path class="st9" d="M1062.2,1181.5c-5.9,0-10.7-4.8-10.7-10.7s4.8-10.7,10.7-10.7s10.7,4.8,10.7,10.7
				S1068.1,1181.5,1062.2,1181.5z M1062.2,1163.6c-4,0-7.2,3.2-7.2,7.2s3.2,7.2,7.2,7.2c4,0,7.2-3.2,7.2-7.2
				S1066.2,1163.6,1062.2,1163.6z"/>
		</g>
	</g>
</g>
<g id="TEXTS">
	<text transform="matrix(0.9769 0 0 1 1022.5205 686.3467)"><tspan x="0" y="0" class="st9 st10 st11">The Creativity</tspan><tspan x="72.8" y="106.4" class="st9 st10 st11">is the key </tspan></text>
</g>
</svg>
