<?xml version="1.0" encoding="utf-8"?>
<!-- Generator: Adobe Illustrator 28.0.0, SVG Export Plug-In . SVG Version: 6.00 Build 0)  -->
<svg version="1.1" xmlns="http://www.w3.org/2000/svg" xmlns:xlink="http://www.w3.org/1999/xlink" x="0px" y="0px"
	 viewBox="0 0 1920 1080" style="enable-background:new 0 0 1920 1080;" xml:space="preserve">
<style type="text/css">
	.st0{fill:url(#SVGID_1_);}
	.st1{fill:#7AFF73;}
	.st2{fill:none;}
	.st3{fill:url(#SVGID_00000057124731030679017960000000905635227079100305_);}
	.st4{fill:url(#SVGID_00000116236283287257558640000007267717884390859924_);}
	.st5{fill:url(#SVGID_00000176733466940472796950000002676535777833100693_);}
	.st6{fill:url(#SVGID_00000175289191753462552130000007842100588449658548_);}
	.st7{fill:url(#SVGID_00000117647208170282518420000001421782562107588278_);}
	.st8{fill:url(#SVGID_00000160181126526684021400000015767830337144880812_);}
	.st9{fill:url(#SVGID_00000117663030731006391640000001972728568034569856_);}
	.st10{fill:url(#SVGID_00000142160295811779447560000017902304434234431108_);}
	.st11{fill:#FFFFFF;}
	.st12{fill:url(#SVGID_00000042735899898659765510000017253190762445175216_);}
	.st13{fill:#0F0D0E;}
	.st14{font-family:'DMSans-Medium';}
	.st15{font-size:18px;}
	.st16{font-size:84.154px;}
	.st17{font-family:'MyriadPro-Regular';}
	.st18{font-size:12px;}
</style>
<g id="BACKGROUND">
	<linearGradient id="SVGID_1_" gradientUnits="userSpaceOnUse" x1="56.4221" y1="67.7233" x2="1848.5796" y2="1004.4374">
		<stop  offset="0" style="stop-color:#0F0D0E"/>
		<stop  offset="0.1665" style="stop-color:#100D12"/>
		<stop  offset="0.3429" style="stop-color:#130B1F"/>
		<stop  offset="0.5241" style="stop-color:#180934"/>
		<stop  offset="0.7085" style="stop-color:#1F0652"/>
		<stop  offset="0.8935" style="stop-color:#280378"/>
		<stop  offset="1" style="stop-color:#2E0091"/>
	</linearGradient>
	<polygon class="st0" points="0,0 0,1080 1920,1080 1920,0 	"/>
</g>
<g id="OBJECTS">
	<g>
		<g>
			<path class="st1" d="M1715.62,710.04c-4.66,0-8.45-3.79-8.45-8.45c0-4.66,3.79-8.45,8.45-8.45c4.66,0,8.45,3.79,8.45,8.45
				C1724.07,706.25,1720.28,710.04,1715.62,710.04z M1715.62,696.14c-3,0-5.45,2.45-5.45,5.45c0,3,2.45,5.45,5.45,5.45
				c3.01,0,5.45-2.45,5.45-5.45C1721.07,698.58,1718.62,696.14,1715.62,696.14z"/>
		</g>
		<g>
			<rect x="1722.03" y="733.86" class="st1" width="197.97" height="3"/>
		</g>
		<g>
			<path class="st1" d="M1715.62,743.81c-4.66,0-8.45-3.79-8.45-8.45c0-4.66,3.79-8.45,8.45-8.45c4.66,0,8.45,3.79,8.45,8.45
				C1724.07,740.02,1720.28,743.81,1715.62,743.81z M1715.62,729.91c-3,0-5.45,2.45-5.45,5.45c0,3,2.45,5.45,5.45,5.45
				c3.01,0,5.45-2.45,5.45-5.45C1721.07,732.35,1718.62,729.91,1715.62,729.91z"/>
		</g>
		<g>
			<rect x="1722.03" y="767.63" class="st1" width="197.97" height="3"/>
		</g>
		<g>
			<path class="st1" d="M1715.62,777.58c-4.66,0-8.45-3.79-8.45-8.45c0-4.66,3.79-8.45,8.45-8.45c4.66,0,8.45,3.79,8.45,8.45
				C1724.07,773.79,1720.28,777.58,1715.62,777.58z M1715.62,763.68c-3,0-5.45,2.45-5.45,5.45s2.45,5.45,5.45,5.45
				c3.01,0,5.45-2.45,5.45-5.45S1718.62,763.68,1715.62,763.68z"/>
		</g>
		<g>
			<rect x="1722.03" y="801.41" class="st1" width="197.97" height="3"/>
		</g>
		<g>
			<path class="st1" d="M1715.62,811.36c-4.66,0-8.45-3.79-8.45-8.45c0-4.66,3.79-8.45,8.45-8.45c4.66,0,8.45,3.79,8.45,8.45
				C1724.07,807.57,1720.28,811.36,1715.62,811.36z M1715.62,797.46c-3,0-5.45,2.45-5.45,5.45c0,3,2.45,5.45,5.45,5.45
				c3.01,0,5.45-2.45,5.45-5.45C1721.07,799.9,1718.62,797.46,1715.62,797.46z"/>
		</g>
		<g>
			<path class="st1" d="M1790.22,703.09h-68.19v-3h68.19c26.74,0,48.5-21.76,48.5-48.5V613c0-26.74-21.76-48.5-48.5-48.5h-115.34v-3
				h115.34c28.4,0,51.5,23.1,51.5,51.5v38.59C1841.72,679.98,1818.62,703.09,1790.22,703.09z"/>
		</g>
		<g>
			<path class="st1" d="M1840.99,303.57h-111.91c-28.4,0-51.5-23.1-51.5-51.5V140.16h3v111.91c0,26.74,21.76,48.5,48.5,48.5h111.91
				V303.57z"/>
		</g>
		<g>
			<path class="st1" d="M1810.71,273.28h-101.34l-1.5-1.5V170.45l1.5-1.5h101.34l1.5,1.5v101.34L1810.71,273.28z M1710.87,270.28
				h98.34v-98.34h-98.34V270.28z"/>
		</g>
		<g>
			<rect x="1733.6" y="170.45" class="st1" width="3" height="43.72"/>
		</g>
		<g>
			<rect x="1783.48" y="201.3" class="st1" width="3" height="70.48"/>
		</g>
		<g>
			<rect x="1758.54" y="170.45" class="st1" width="3" height="70.48"/>
		</g>
		<g>
			<rect x="1709.37" y="246.38" class="st1" width="43.72" height="3"/>
		</g>
		<g>
			<rect x="1791.93" y="192.85" class="st1" width="18.78" height="3"/>
		</g>
		<g>
			<rect x="1742.05" y="219.62" class="st1" width="68.66" height="3"/>
		</g>
		<g>
			<path class="st1" d="M1735.1,230.27c-5.05,0-9.16-4.11-9.16-9.15s4.11-9.15,9.16-9.15s9.16,4.11,9.16,9.15
				S1740.14,230.27,1735.1,230.27z M1735.1,214.96c-3.39,0-6.16,2.76-6.16,6.15s2.76,6.15,6.16,6.15s6.16-2.76,6.16-6.15
				S1738.49,214.96,1735.1,214.96z"/>
		</g>
		<g>
			<path class="st1" d="M1784.98,203.5c-5.05,0-9.16-4.11-9.16-9.15c0-5.05,4.11-9.15,9.16-9.15s9.16,4.11,9.16,9.15
				C1794.13,199.4,1790.03,203.5,1784.98,203.5z M1784.98,188.2c-3.39,0-6.16,2.76-6.16,6.15s2.76,6.15,6.16,6.15
				s6.16-2.76,6.16-6.15S1788.37,188.2,1784.98,188.2z"/>
		</g>
		<g>
			<path class="st1" d="M1760.04,257.04c-5.05,0-9.16-4.11-9.16-9.15s4.11-9.15,9.16-9.15s9.15,4.11,9.15,9.15
				S1765.08,257.04,1760.04,257.04z M1760.04,241.73c-3.39,0-6.16,2.76-6.16,6.15s2.76,6.15,6.16,6.15s6.15-2.76,6.15-6.15
				S1763.43,241.73,1760.04,241.73z"/>
		</g>
		<g>
			<rect x="1084.69" y="735.61" class="st1" width="3" height="344.39"/>
		</g>
		<g>
			<path class="st1" d="M1086.19,737.65c-4.66,0-8.45-3.79-8.45-8.45c0-4.66,3.79-8.45,8.45-8.45s8.45,3.79,8.45,8.45
				C1094.64,733.86,1090.85,737.65,1086.19,737.65z M1086.19,723.75c-3,0-5.45,2.45-5.45,5.45c0,3.01,2.45,5.45,5.45,5.45
				s5.45-2.45,5.45-5.45C1091.64,726.19,1089.19,723.75,1086.19,723.75z"/>
		</g>
		<g>
			<path class="st1" d="M1086.19,859.74c-72.51,0-131.5-58.99-131.5-131.5s58.99-131.5,131.5-131.5c72.51,0,131.5,58.99,131.5,131.5
				S1158.7,859.74,1086.19,859.74z M1086.19,599.75c-70.85,0-128.5,57.64-128.5,128.5s57.64,128.5,128.5,128.5
				s128.5-57.64,128.5-128.5S1157.04,599.75,1086.19,599.75z"/>
		</g>
		<g>
			<path class="st1" d="M1187.68,727.22h-3c0-54.31-44.18-98.49-98.49-98.49s-98.49,44.18-98.49,98.49h-3
				c0-55.96,45.53-101.49,101.49-101.49S1187.68,671.25,1187.68,727.22z"/>
		</g>
		<g>
			<path class="st1" d="M1086.19,801.15c-39.66,0-71.93-32.27-71.93-71.93s32.27-71.93,71.93-71.93s71.93,32.27,71.93,71.93
				S1125.85,801.15,1086.19,801.15z M1086.19,660.3c-38.01,0-68.93,30.92-68.93,68.93s30.92,68.93,68.93,68.93
				s68.93-30.92,68.93-68.93S1124.2,660.3,1086.19,660.3z"/>
		</g>
		<g>
			<path class="st1" d="M1086.19,555.38c-4.66,0-8.45-3.79-8.45-8.45c0-4.66,3.79-8.45,8.45-8.45s8.45,3.79,8.45,8.45
				C1094.64,551.59,1090.85,555.38,1086.19,555.38z M1086.19,541.48c-3,0-5.45,2.45-5.45,5.45c0,3.01,2.45,5.45,5.45,5.45
				s5.45-2.45,5.45-5.45C1091.64,543.93,1089.19,541.48,1086.19,541.48z"/>
		</g>
		<g>
			<path class="st1" d="M1842.49,735.36h-3v-545.2c0-26.74-21.76-48.5-48.5-48.5h-654.8c-26.74,0-48.5,21.76-48.5,48.5v350.36h-3
				V190.16c0-28.4,23.1-51.5,51.5-51.5h654.8c28.4,0,51.5,23.1,51.5,51.5V735.36z"/>
		</g>
		<g>
			<rect x="1839.49" y="851.65" class="st1" width="3" height="228.35"/>
		</g>
		<g>
			<path class="st1" d="M958.16,943.6h-3V318.01l1.5-1.5h257.66c26.74,0,48.5-21.76,48.5-48.5V140.52h3v127.49
				c0,28.4-23.1,51.5-51.5,51.5H958.16V943.6z"/>
		</g>
		<g>
			<path class="st1" d="M1134.84,198.42c-5.05,0-9.16-4.11-9.16-9.15c0-5.05,4.11-9.15,9.16-9.15c5.05,0,9.15,4.11,9.15,9.15
				C1144,194.31,1139.89,198.42,1134.84,198.42z M1134.84,183.11c-3.39,0-6.16,2.76-6.16,6.15c0,3.39,2.76,6.15,6.16,6.15
				c3.39,0,6.15-2.76,6.15-6.15C1141,185.87,1138.24,183.11,1134.84,183.11z"/>
		</g>
		<g>
			<path class="st1" d="M1134.84,239.51c-27.7,0-50.24-22.54-50.24-50.24c0-27.7,22.54-50.24,50.24-50.24s50.24,22.54,50.24,50.24
				C1185.08,216.97,1162.55,239.51,1134.84,239.51z M1134.84,142.02c-26.05,0-47.24,21.19-47.24,47.24s21.19,47.24,47.24,47.24
				s47.24-21.19,47.24-47.24S1160.89,142.02,1134.84,142.02z"/>
		</g>
		<g>
			<path class="st1" d="M1215.58,278.42c-5.05,0-9.16-4.11-9.16-9.15c0-5.05,4.11-9.15,9.16-9.15s9.15,4.11,9.15,9.15
				C1224.73,274.31,1220.63,278.42,1215.58,278.42z M1215.58,263.11c-3.39,0-6.16,2.76-6.16,6.15c0,3.39,2.76,6.15,6.16,6.15
				c3.39,0,6.15-2.76,6.15-6.15C1221.73,265.87,1218.97,263.11,1215.58,263.11z"/>
		</g>
		<g>
			
				<rect x="1174.18" y="179.55" transform="matrix(0.7071 -0.7071 0.7071 0.7071 182.5803 898.331)" class="st1" width="3" height="98.44"/>
		</g>
		<g>
			<path class="st1" d="M956.66,960.41c-5.05,0-9.15-4.11-9.15-9.16c0-5.05,4.11-9.15,9.15-9.15c5.05,0,9.15,4.11,9.15,9.15
				C965.81,956.3,961.71,960.41,956.66,960.41z M956.66,945.1c-3.39,0-6.15,2.76-6.15,6.15c0,3.39,2.76,6.16,6.15,6.16
				c3.39,0,6.15-2.76,6.15-6.16C962.81,947.86,960.05,945.1,956.66,945.1z"/>
		</g>
		<g>
			<path class="st1" d="M956.66,1001.5c-27.7,0-50.24-22.54-50.24-50.24s22.54-50.24,50.24-50.24c27.7,0,50.24,22.54,50.24,50.24
				S984.36,1001.5,956.66,1001.5z M956.66,904.01c-26.05,0-47.24,21.19-47.24,47.24s21.19,47.24,47.24,47.24
				c26.05,0,47.24-21.19,47.24-47.24S982.71,904.01,956.66,904.01z"/>
		</g>
		<g>
			<path class="st1" d="M909.41,1080h-3l0-127.49c0-28.4,23.1-51.5,51.5-51.5h128.22v3H957.92c-26.74,0-48.5,21.76-48.5,48.5
				L909.41,1080z"/>
		</g>
		<g>
			<rect x="1118.72" y="318.01" class="st1" width="3" height="222.24"/>
		</g>
		<g>
			<path class="st1" d="M1120.22,555.11c-4.66,0-8.45-3.79-8.45-8.45c0-4.66,3.79-8.45,8.45-8.45s8.45,3.79,8.45,8.45
				C1128.67,551.32,1124.88,555.11,1120.22,555.11z M1120.22,541.21c-3,0-5.45,2.45-5.45,5.45c0,3.01,2.45,5.45,5.45,5.45
				s5.45-2.45,5.45-5.45C1125.67,543.66,1123.22,541.21,1120.22,541.21z"/>
		</g>
		<g>
			<rect x="1152.49" y="318.01" class="st1" width="3" height="222.24"/>
		</g>
		<g>
			<path class="st1" d="M1153.99,555.11c-4.66,0-8.45-3.79-8.45-8.45c0-4.66,3.79-8.45,8.45-8.45c4.66,0,8.45,3.79,8.45,8.45
				C1162.44,551.32,1158.65,555.11,1153.99,555.11z M1153.99,541.21c-3.01,0-5.45,2.45-5.45,5.45c0,3.01,2.45,5.45,5.45,5.45
				c3,0,5.45-2.45,5.45-5.45C1159.44,543.66,1157,541.21,1153.99,541.21z"/>
		</g>
		<g>
			<rect x="1186.26" y="318.01" class="st2" width="3" height="222.24"/>
		</g>
		<g>
			<path class="st1" d="M1187.76,555.11c-4.66,0-8.45-3.79-8.45-8.45c0-4.66,3.79-8.45,8.45-8.45c4.66,0,8.45,3.79,8.45,8.45
				C1196.21,551.32,1192.42,555.11,1187.76,555.11z M1187.76,541.21c-3.01,0-5.45,2.45-5.45,5.45c0,3.01,2.45,5.45,5.45,5.45
				c3.01,0,5.45-2.45,5.45-5.45C1193.21,543.66,1190.77,541.21,1187.76,541.21z"/>
		</g>
		<g>
			<path class="st1" d="M1150.93,910.48c-4.66,0-8.45-3.79-8.45-8.45c0-4.66,3.79-8.45,8.45-8.45c4.66,0,8.45,3.79,8.45,8.45
				C1159.38,906.69,1155.59,910.48,1150.93,910.48z M1150.93,896.58c-3,0-5.45,2.45-5.45,5.45c0,3.01,2.45,5.45,5.45,5.45
				c3,0,5.45-2.45,5.45-5.45C1156.38,899.02,1153.94,896.58,1150.93,896.58z"/>
		</g>
		<g>
			<rect x="1085.53" y="934.3" class="st1" width="58.99" height="3"/>
		</g>
		<g>
			<path class="st1" d="M1150.93,944.25c-4.66,0-8.45-3.79-8.45-8.45c0-4.66,3.79-8.45,8.45-8.45c4.66,0,8.45,3.79,8.45,8.45
				C1159.38,940.46,1155.59,944.25,1150.93,944.25z M1150.93,930.35c-3,0-5.45,2.45-5.45,5.45c0,3.01,2.45,5.45,5.45,5.45
				c3,0,5.45-2.45,5.45-5.45C1156.38,932.8,1153.94,930.35,1150.93,930.35z"/>
		</g>
		<g>
			<rect x="1085.53" y="968.08" class="st1" width="58.99" height="3"/>
		</g>
		<g>
			<path class="st1" d="M1150.93,978.03c-4.66,0-8.45-3.79-8.45-8.45c0-4.66,3.79-8.45,8.45-8.45c4.66,0,8.45,3.79,8.45,8.45
				C1159.38,974.24,1155.59,978.03,1150.93,978.03z M1150.93,964.13c-3,0-5.45,2.45-5.45,5.45c0,3,2.45,5.45,5.45,5.45
				c3,0,5.45-2.45,5.45-5.45C1156.38,966.57,1153.94,964.13,1150.93,964.13z"/>
		</g>
		<g>
			<rect y="1001.85" class="st1" width="1144.52" height="3"/>
		</g>
		<g>
			<path class="st1" d="M1150.93,1011.8c-4.66,0-8.45-3.79-8.45-8.45s3.79-8.45,8.45-8.45c4.66,0,8.45,3.79,8.45,8.45
				S1155.59,1011.8,1150.93,1011.8z M1150.93,997.9c-3,0-5.45,2.45-5.45,5.45s2.45,5.45,5.45,5.45c3,0,5.45-2.45,5.45-5.45
				S1153.94,997.9,1150.93,997.9z"/>
		</g>
		<g>
			<rect x="1086.14" y="900.53" class="st1" width="58.38" height="3"/>
		</g>
		<g>
			<path class="st1" d="M1774.64,475.19c-4.66,0-8.45-3.79-8.45-8.45s3.79-8.45,8.45-8.45c4.66,0,8.45,3.79,8.45,8.45
				S1779.3,475.19,1774.64,475.19z M1774.64,461.29c-3,0-5.45,2.44-5.45,5.45s2.45,5.45,5.45,5.45c3.01,0,5.45-2.45,5.45-5.45
				S1777.65,461.29,1774.64,461.29z"/>
		</g>
		<g>
			<rect x="1781.05" y="431.47" class="st1" width="58.99" height="3"/>
		</g>
		<g>
			<path class="st1" d="M1774.64,441.42c-4.66,0-8.45-3.79-8.45-8.45c0-4.66,3.79-8.45,8.45-8.45c4.66,0,8.45,3.79,8.45,8.45
				C1783.09,437.63,1779.3,441.42,1774.64,441.42z M1774.64,427.52c-3,0-5.45,2.44-5.45,5.45c0,3.01,2.45,5.45,5.45,5.45
				c3.01,0,5.45-2.45,5.45-5.45C1780.09,429.96,1777.65,427.52,1774.64,427.52z"/>
		</g>
		<g>
			<rect x="1781.05" y="397.7" class="st1" width="58.99" height="3"/>
		</g>
		<g>
			<path class="st1" d="M1774.64,407.65c-4.66,0-8.45-3.79-8.45-8.45s3.79-8.45,8.45-8.45c4.66,0,8.45,3.79,8.45,8.45
				S1779.3,407.65,1774.64,407.65z M1774.64,393.75c-3,0-5.45,2.45-5.45,5.45s2.45,5.45,5.45,5.45c3.01,0,5.45-2.44,5.45-5.45
				S1777.65,393.75,1774.64,393.75z"/>
		</g>
		<g>
			<rect x="1781.05" y="363.92" class="st1" width="58.38" height="3"/>
		</g>
		<g>
			<path class="st1" d="M1774.64,373.87c-4.66,0-8.45-3.79-8.45-8.45c0-4.66,3.79-8.45,8.45-8.45c4.66,0,8.45,3.79,8.45,8.45
				C1783.09,370.08,1779.3,373.87,1774.64,373.87z M1774.64,359.97c-3,0-5.45,2.45-5.45,5.45c0,3.01,2.45,5.45,5.45,5.45
				c3.01,0,5.45-2.45,5.45-5.45C1780.09,362.42,1777.65,359.97,1774.64,359.97z"/>
		</g>
		<g>
			<rect x="1781.05" y="465.24" class="st1" width="58.38" height="3"/>
		</g>
		<g>
			<path class="st1" d="M1057.99,420.85H956.66l-1.5-1.5V318.01l1.5-1.5h101.34l1.5,1.5v101.34L1057.99,420.85z M958.16,417.85
				h98.34v-98.34h-98.34V417.85z"/>
		</g>
		<g>
			<rect x="980.88" y="318.01" class="st1" width="3" height="43.72"/>
		</g>
		<g>
			<rect x="1030.77" y="348.86" class="st1" width="3" height="70.48"/>
		</g>
		<g>
			<rect x="1005.83" y="318.01" class="st1" width="3" height="70.48"/>
		</g>
		<g>
			<rect x="956.66" y="393.94" class="st1" width="43.72" height="3"/>
		</g>
		<g>
			<rect x="1039.22" y="340.41" class="st1" width="18.78" height="3"/>
		</g>
		<g>
			<rect x="989.34" y="367.18" class="st1" width="68.66" height="3"/>
		</g>
		<g>
			<path class="st1" d="M982.38,377.83c-5.05,0-9.15-4.11-9.15-9.15c0-5.05,4.11-9.16,9.15-9.16c5.05,0,9.16,4.11,9.16,9.16
				C991.54,373.73,987.43,377.83,982.38,377.83z M982.38,362.52c-3.39,0-6.15,2.76-6.15,6.16c0,3.39,2.76,6.15,6.15,6.15
				c3.39,0,6.16-2.76,6.16-6.15C988.54,365.28,985.78,362.52,982.38,362.52z"/>
		</g>
		<g>
			<path class="st1" d="M1032.27,351.07c-5.05,0-9.15-4.11-9.15-9.15c0-5.05,4.11-9.16,9.15-9.16s9.16,4.11,9.16,9.16
				C1041.42,346.96,1037.31,351.07,1032.27,351.07z M1032.27,335.76c-3.39,0-6.15,2.76-6.15,6.16c0,3.39,2.76,6.15,6.15,6.15
				s6.16-2.76,6.16-6.15C1038.42,338.52,1035.66,335.76,1032.27,335.76z"/>
		</g>
		<g>
			<path class="st1" d="M1007.33,404.6c-5.05,0-9.16-4.11-9.16-9.15c0-5.05,4.11-9.16,9.16-9.16c5.05,0,9.15,4.11,9.15,9.16
				C1016.48,400.49,1012.37,404.6,1007.33,404.6z M1007.33,389.29c-3.39,0-6.16,2.76-6.16,6.16c0,3.39,2.76,6.15,6.16,6.15
				c3.39,0,6.15-2.76,6.15-6.15C1013.48,392.05,1010.72,389.29,1007.33,389.29z"/>
		</g>
		<g>
			<path class="st1" d="M1792.25,860.8c-5.05,0-9.16-4.11-9.16-9.16c0-5.05,4.11-9.15,9.16-9.15s9.15,4.11,9.15,9.15
				C1801.4,856.7,1797.3,860.8,1792.25,860.8z M1792.25,845.49c-3.39,0-6.16,2.76-6.16,6.15c0,3.39,2.76,6.16,6.16,6.16
				s6.15-2.76,6.15-6.16C1798.4,848.25,1795.64,845.49,1792.25,845.49z"/>
		</g>
		<g>
			<path class="st1" d="M1792.25,901.89c-27.7,0-50.24-22.54-50.24-50.24s22.54-50.24,50.24-50.24s50.24,22.54,50.24,50.24
				S1819.95,901.89,1792.25,901.89z M1792.25,804.41c-26.05,0-47.24,21.19-47.24,47.24s21.19,47.24,47.24,47.24
				s47.24-21.19,47.24-47.24S1818.3,804.41,1792.25,804.41z"/>
		</g>
		<g>
			<rect y="138.66" class="st1" width="1184.52" height="3"/>
		</g>
	</g>
	<g>
		<g>
			
				<linearGradient id="SVGID_00000003079358246809780870000003074639659895261590_" gradientUnits="userSpaceOnUse" x1="1146.6586" y1="948.3781" x2="1581.6406" y2="276.8748">
				<stop  offset="0" style="stop-color:#0F0D0E"/>
				<stop  offset="0.1927" style="stop-color:#100D12"/>
				<stop  offset="0.3659" style="stop-color:#120C1C"/>
				<stop  offset="0.5315" style="stop-color:#170A2F"/>
				<stop  offset="0.6925" style="stop-color:#1D0749"/>
				<stop  offset="0.8486" style="stop-color:#250469"/>
				<stop  offset="1" style="stop-color:#2E0091"/>
			</linearGradient>
			<circle style="fill:url(#SVGID_00000003079358246809780870000003074639659895261590_);" cx="1490.53" cy="417.53" r="214.58"/>
			
				<linearGradient id="SVGID_00000057849481000336086830000005564081814073297806_" gradientUnits="userSpaceOnUse" x1="1252.0546" y1="1016.6505" x2="1687.0365" y2="345.1474">
				<stop  offset="0" style="stop-color:#0F0D0E"/>
				<stop  offset="0.1927" style="stop-color:#100D12"/>
				<stop  offset="0.3659" style="stop-color:#120C1C"/>
				<stop  offset="0.5315" style="stop-color:#170A2F"/>
				<stop  offset="0.6925" style="stop-color:#1D0749"/>
				<stop  offset="0.8486" style="stop-color:#250469"/>
				<stop  offset="1" style="stop-color:#2E0091"/>
			</linearGradient>
			<polygon style="fill:url(#SVGID_00000057849481000336086830000005564081814073297806_);" points="1389.55,796.77 1608.51,796.77 
				1559.96,548.94 1341,548.94 			"/>
			
				<linearGradient id="SVGID_00000152971314374809250130000015081673194692491199_" gradientUnits="userSpaceOnUse" x1="1439.5916" y1="1138.132" x2="1874.5728" y2="466.6302">
				<stop  offset="0" style="stop-color:#0F0D0E"/>
				<stop  offset="0.1927" style="stop-color:#100D12"/>
				<stop  offset="0.3659" style="stop-color:#120C1C"/>
				<stop  offset="0.5315" style="stop-color:#170A2F"/>
				<stop  offset="0.6925" style="stop-color:#1D0749"/>
				<stop  offset="0.8486" style="stop-color:#250469"/>
				<stop  offset="1" style="stop-color:#2E0091"/>
			</linearGradient>
			<path style="fill:url(#SVGID_00000152971314374809250130000015081673194692491199_);" d="M1818.8,1080H1194.9v0
				c0-170.64,138.33-308.97,308.97-308.97h5.96C1680.47,771.03,1818.8,909.36,1818.8,1080L1818.8,1080z"/>
		</g>
		
			<linearGradient id="SVGID_00000173151889666580824660000002071782527411314326_" gradientUnits="userSpaceOnUse" x1="1235.7731" y1="1107.9496" x2="1473.8721" y2="794.2862">
			<stop  offset="0" style="stop-color:#7AFF73"/>
			<stop  offset="0.1422" style="stop-color:#79FB73;stop-opacity:0.8578"/>
			<stop  offset="0.27" style="stop-color:#76F175;stop-opacity:0.73"/>
			<stop  offset="0.3923" style="stop-color:#70DE77;stop-opacity:0.6077"/>
			<stop  offset="0.5112" style="stop-color:#69C47A;stop-opacity:0.4888"/>
			<stop  offset="0.6278" style="stop-color:#5FA37E;stop-opacity:0.3722"/>
			<stop  offset="0.7424" style="stop-color:#527A83;stop-opacity:0.2576"/>
			<stop  offset="0.8556" style="stop-color:#444A88;stop-opacity:0.1444"/>
			<stop  offset="0.9649" style="stop-color:#34138F;stop-opacity:0.0351"/>
			<stop  offset="1" style="stop-color:#2E0091;stop-opacity:0"/>
		</linearGradient>
		<path style="fill:url(#SVGID_00000173151889666580824660000002071782527411314326_);" d="M1434.37,749.42
			c-153.3,31.94-268.47,167.8-268.47,330.58v0h268.47V749.42z"/>
		
			<linearGradient id="SVGID_00000003819176608451985920000016051536005180582796_" gradientUnits="userSpaceOnUse" x1="1367.2235" y1="636.2051" x2="1578.2815" y2="260.7324">
			<stop  offset="0" style="stop-color:#7AFF73"/>
			<stop  offset="0.1422" style="stop-color:#79FB73;stop-opacity:0.8578"/>
			<stop  offset="0.27" style="stop-color:#76F175;stop-opacity:0.73"/>
			<stop  offset="0.3923" style="stop-color:#70DE77;stop-opacity:0.6077"/>
			<stop  offset="0.5112" style="stop-color:#69C47A;stop-opacity:0.4888"/>
			<stop  offset="0.6278" style="stop-color:#5FA37E;stop-opacity:0.3722"/>
			<stop  offset="0.7424" style="stop-color:#527A83;stop-opacity:0.2576"/>
			<stop  offset="0.8556" style="stop-color:#444A88;stop-opacity:0.1444"/>
			<stop  offset="0.9649" style="stop-color:#34138F;stop-opacity:0.0351"/>
			<stop  offset="1" style="stop-color:#2E0091;stop-opacity:0"/>
		</linearGradient>
		<path style="fill:url(#SVGID_00000003819176608451985920000016051536005180582796_);" d="M1694.74,305.17
			c-27.36-49.31-72.9-88.17-125.99-107.21c-31.4-11.39-65.25-15.87-98.54-13.3c-113.76,8.81-205.68,99.22-216.65,212.53
			l-26.49,167.36h31.95v162.85h85.35c60.67,0,109.85-49.18,109.85-109.85v-2.99c0-27.61,22.39-50,50-50h170.85
			C1731.8,494.71,1740.85,383.95,1694.74,305.17z"/>
		<g>
			
				<linearGradient id="SVGID_00000079461488939363937860000004612916678785863310_" gradientUnits="userSpaceOnUse" x1="1596.236" y1="931.0892" x2="1618.4659" y2="1110.0995">
				<stop  offset="0" style="stop-color:#0F0D0E"/>
				<stop  offset="0.1927" style="stop-color:#100D12"/>
				<stop  offset="0.3659" style="stop-color:#120C1C"/>
				<stop  offset="0.5315" style="stop-color:#170A2F"/>
				<stop  offset="0.6925" style="stop-color:#1D0749"/>
				<stop  offset="0.8486" style="stop-color:#250469"/>
				<stop  offset="1" style="stop-color:#2E0091"/>
			</linearGradient>
			<polygon style="fill:url(#SVGID_00000079461488939363937860000004612916678785863310_);" points="1732.96,1080 1492.52,1080 
				1478.33,933.75 1718.77,933.75 			"/>
			
				<linearGradient id="SVGID_00000122681688169601968290000007828201576716528522_" gradientUnits="userSpaceOnUse" x1="1607.355" y1="1020.4424" x2="1584.2858" y2="793.2986">
				<stop  offset="0" style="stop-color:#FF47E3"/>
				<stop  offset="0.1551" style="stop-color:#FB46E2;stop-opacity:0.8443"/>
				<stop  offset="0.2945" style="stop-color:#F142DD;stop-opacity:0.7044"/>
				<stop  offset="0.4279" style="stop-color:#DE3CD6;stop-opacity:0.5704"/>
				<stop  offset="0.5576" style="stop-color:#C433CC;stop-opacity:0.4402"/>
				<stop  offset="0.6846" style="stop-color:#A328BF;stop-opacity:0.3127"/>
				<stop  offset="0.8097" style="stop-color:#7A1AAF;stop-opacity:0.1872"/>
				<stop  offset="0.9308" style="stop-color:#4B0A9C;stop-opacity:0.0656"/>
				<stop  offset="0.9961" style="stop-color:#2E0091;stop-opacity:0"/>
			</linearGradient>
			<circle style="fill:url(#SVGID_00000122681688169601968290000007828201576716528522_);" cx="1598.55" cy="933.75" r="120.22"/>
			
				<linearGradient id="SVGID_00000178890531679401883720000005598530394516701371_" gradientUnits="userSpaceOnUse" x1="1592.35" y1="883.8194" x2="1617.6375" y2="1087.4508">
				<stop  offset="0" style="stop-color:#0F0D0E"/>
				<stop  offset="0.1927" style="stop-color:#100D12"/>
				<stop  offset="0.3659" style="stop-color:#120C1C"/>
				<stop  offset="0.5315" style="stop-color:#170A2F"/>
				<stop  offset="0.6925" style="stop-color:#1D0749"/>
				<stop  offset="0.8486" style="stop-color:#250469"/>
				<stop  offset="1" style="stop-color:#2E0091"/>
			</linearGradient>
			<circle style="fill:url(#SVGID_00000178890531679401883720000005598530394516701371_);" cx="1598.55" cy="933.75" r="65.18"/>
			<g>
				<path class="st11" d="M1598.55,1024.36c-49.96,0-90.61-40.65-90.61-90.61c0-49.96,40.65-90.61,90.61-90.61
					c49.96,0,90.61,40.65,90.61,90.61C1689.16,983.71,1648.51,1024.36,1598.55,1024.36z M1598.55,846.14
					c-48.31,0-87.61,39.3-87.61,87.61c0,48.31,39.3,87.61,87.61,87.61c48.31,0,87.61-39.3,87.61-87.61
					C1686.16,885.44,1646.86,846.14,1598.55,846.14z"/>
			</g>
		</g>
		<g>
			
				<linearGradient id="SVGID_00000060733951125557546810000000043368056076913807_" gradientUnits="userSpaceOnUse" x1="1462.9338" y1="258.4567" x2="1516.0475" y2="551.3204">
				<stop  offset="0" style="stop-color:#FF47E3"/>
				<stop  offset="0.1543" style="stop-color:#FB46E2;stop-opacity:0.9221"/>
				<stop  offset="0.2929" style="stop-color:#F142DD;stop-opacity:0.8522"/>
				<stop  offset="0.4256" style="stop-color:#DE3CD6;stop-opacity:0.7852"/>
				<stop  offset="0.5546" style="stop-color:#C433CC;stop-opacity:0.7201"/>
				<stop  offset="0.681" style="stop-color:#A328BF;stop-opacity:0.6563"/>
				<stop  offset="0.8053" style="stop-color:#7A1AAF;stop-opacity:0.5936"/>
				<stop  offset="0.9258" style="stop-color:#4B0A9C;stop-opacity:0.5328"/>
				<stop  offset="0.9908" style="stop-color:#2E0091;stop-opacity:0.5"/>
			</linearGradient>
			<path style="fill:url(#SVGID_00000060733951125557546810000000043368056076913807_);" d="M1490.53,267.5
				c-82.8,0-149.93,67.12-149.93,149.93h149.46h0.46v2.37l28.38,144.86c69.23-13.27,121.55-74.13,121.55-147.23
				C1640.46,334.63,1573.33,267.5,1490.53,267.5z"/>
			<g>
				<path class="st11" d="M1366.09,726.27h-3V417.21c0-70.27,57.17-127.44,127.44-127.44s127.44,57.17,127.44,127.44
					c0,61.04-43.45,113.68-103.32,125.15l-0.56-2.95c58.46-11.2,100.88-62.59,100.88-122.2c0-68.62-55.82-124.44-124.44-124.44
					s-124.44,55.82-124.44,124.44V726.27z"/>
			</g>
		</g>
		<g>
			<g>
				<g>
					<path class="st11" d="M1323.39,502.09h-27.29c-13.8,0-25.03-11.23-25.03-25.03c0-13.8,11.23-25.03,25.03-25.03h27.29
						c13.8,0,25.03,11.23,25.03,25.03C1348.42,490.86,1337.2,502.09,1323.39,502.09z M1296.1,455.03
						c-12.15,0-22.03,9.88-22.03,22.03c0,12.15,9.88,22.03,22.03,22.03h27.29c12.15,0,22.03-9.88,22.03-22.03
						c0-12.15-9.88-22.03-22.03-22.03H1296.1z"/>
				</g>
			</g>
			<path class="st13" d="M1322.15,488.93h-24.81c-6.56,0-11.87-5.32-11.87-11.87c0-6.56,5.31-11.87,11.87-11.87h24.81
				c6.56,0,11.87,5.32,11.87,11.87C1334.02,483.61,1328.71,488.93,1322.15,488.93z"/>
		</g>
		<g>
			<g>
				<g>
					<path class="st11" d="M1322.88,638.44h-63.77v-3h63.77c12.15,0,22.03-9.88,22.03-22.03s-9.88-22.03-22.03-22.03h-63.77v-3
						h63.77c13.8,0,25.03,11.23,25.03,25.03S1336.68,638.44,1322.88,638.44z"/>
				</g>
			</g>
			<g>
				<path class="st11" d="M1321.64,626.78h-62.53v-3h62.53c5.72,0,10.37-4.65,10.37-10.37c0-5.72-4.65-10.37-10.37-10.37h-62.53v-3
					h62.53c7.37,0,13.37,6,13.37,13.37S1329.01,626.78,1321.64,626.78z"/>
			</g>
		</g>
		<g>
			<g>
				<g>
					<path class="st11" d="M1502.86,622.56c-5.05,0-9.16-4.11-9.16-9.16c0-5.05,4.11-9.15,9.16-9.15s9.15,4.11,9.15,9.15
						C1512.01,618.45,1507.9,622.56,1502.86,622.56z M1502.86,607.25c-3.39,0-6.16,2.76-6.16,6.15s2.76,6.16,6.16,6.16
						s6.15-2.76,6.15-6.16S1506.25,607.25,1502.86,607.25z"/>
				</g>
				<g>
					<path class="st11" d="M1502.86,663.65c-27.7,0-50.24-22.54-50.24-50.24s22.54-50.24,50.24-50.24s50.24,22.54,50.24,50.24
						S1530.56,663.65,1502.86,663.65z M1502.86,566.16c-26.05,0-47.24,21.19-47.24,47.24s21.19,47.24,47.24,47.24
						s47.24-21.19,47.24-47.24S1528.91,566.16,1502.86,566.16z"/>
				</g>
			</g>
		</g>
	</g>
	<g>
		<g>
			<g>
				<circle class="st11" cx="86.21" cy="489.34" r="6.95"/>
				<path class="st11" d="M86.21,497.79c-4.66,0-8.45-3.79-8.45-8.45c0-4.66,3.79-8.45,8.45-8.45s8.45,3.79,8.45,8.45
					C94.66,494,90.87,497.79,86.21,497.79z M86.21,483.89c-3.01,0-5.45,2.44-5.45,5.45c0,3.01,2.45,5.45,5.45,5.45
					s5.45-2.45,5.45-5.45C91.66,486.33,89.21,483.89,86.21,483.89z"/>
			</g>
		</g>
		<g>
			<path class="st11" d="M86.21,531.56c-4.66,0-8.45-3.79-8.45-8.45c0-4.66,3.79-8.45,8.45-8.45s8.45,3.79,8.45,8.45
				C94.66,527.77,90.87,531.56,86.21,531.56z M86.21,517.66c-3.01,0-5.45,2.44-5.45,5.45c0,3.01,2.45,5.45,5.45,5.45
				s5.45-2.45,5.45-5.45C91.66,520.11,89.21,517.66,86.21,517.66z"/>
		</g>
		<g>
			<path class="st11" d="M86.21,565.34c-4.66,0-8.45-3.79-8.45-8.45c0-4.66,3.79-8.45,8.45-8.45s8.45,3.79,8.45,8.45
				C94.66,561.55,90.87,565.34,86.21,565.34z M86.21,551.44c-3.01,0-5.45,2.45-5.45,5.45c0,3,2.45,5.45,5.45,5.45
				s5.45-2.45,5.45-5.45C91.66,553.88,89.21,551.44,86.21,551.44z"/>
		</g>
		<g>
			<path class="st11" d="M86.21,599.11c-4.66,0-8.45-3.79-8.45-8.45c0-4.66,3.79-8.45,8.45-8.45s8.45,3.79,8.45,8.45
				C94.66,595.32,90.87,599.11,86.21,599.11z M86.21,585.21c-3.01,0-5.45,2.45-5.45,5.45c0,3,2.45,5.45,5.45,5.45
				s5.45-2.45,5.45-5.45C91.66,587.65,89.21,585.21,86.21,585.21z"/>
		</g>
	</g>
	<g>
		<g>
			<path class="st11" d="M1823.85,115.39c-9.85,0-17.87-8.01-17.87-17.87s8.01-17.87,17.87-17.87s17.87,8.02,17.87,17.87
				S1833.7,115.39,1823.85,115.39z M1823.85,82.66c-8.2,0-14.87,6.67-14.87,14.87c0,8.2,6.67,14.87,14.87,14.87
				s14.87-6.67,14.87-14.87C1838.72,89.33,1832.05,82.66,1823.85,82.66z"/>
		</g>
		<g>
			<g>
				<path class="st11" d="M1823.85,99.54c-3.41,0-6.18-2.77-6.18-6.18c0-3.41,2.77-6.18,6.18-6.18s6.18,2.77,6.18,6.18
					C1830.03,96.77,1827.26,99.54,1823.85,99.54z M1823.85,90.18c-1.75,0-3.18,1.43-3.18,3.18c0,1.75,1.43,3.18,3.18,3.18
					s3.18-1.43,3.18-3.18C1827.03,91.61,1825.61,90.18,1823.85,90.18z"/>
			</g>
			<g>
				<path class="st11" d="M1831.71,107.87h-15.72l-1.5-1.61c0.37-4.86,4.48-8.67,9.36-8.67c4.88,0,8.98,3.81,9.35,8.67
					L1831.71,107.87z M1817.83,104.87h12.05c-0.88-2.5-3.27-4.28-6.02-4.28C1821.1,100.59,1818.71,102.37,1817.83,104.87z"/>
			</g>
		</g>
	</g>
	<g>
		<path class="st1" d="M111.72,82.74c-1.05-1.05-2.44-1.58-3.82-1.58c-1.38,0-2.76,0.52-3.82,1.58l-23.25,23.25
			c-2.1,2.1-2.1,5.52,0,7.62c2.1,2.1,5.52,2.1,7.62,0l19.44-19.44l19.44,19.44c2.1,2.1,5.52,2.1,7.62,0c2.1-2.1,2.1-5.52,0-7.62
			L111.72,82.74z"/>
		<path class="st1" d="M159.91,105.98l-23.25-23.25c-2.1-2.1-5.52-2.1-7.62,0v0c-2.1,2.1-2.1,5.52,0,7.62l23.25,23.25
			c2.1,2.1,5.52,2.1,7.62,0C162.02,111.5,162.02,108.09,159.91,105.98z"/>
		<circle class="st1" cx="108.06" cy="107.78" r="7.41"/>
	</g>
</g>
<g id="TEXTS">
	<g>
		<rect x="161.49" y="646.69" class="st2" width="597.06" height="71.14"/>
		<text transform="matrix(1 0 0 1 161.4901 686.4686)"><tspan x="0" y="0" class="st11 st14 st15">AI</tspan><tspan x="15.32" y="0" class="st11 st14 st15"> </tspan><tspan x="19.78" y="0" class="st11 st14 st15">is</tspan><tspan x="31.12" y="0" class="st11 st14 st15"> </tspan><tspan x="35.59" y="0" class="st11 st14 st15">rapidly</tspan><tspan x="87.48" y="0" class="st11 st14 st15"> </tspan><tspan x="91.95" y="0" class="st11 st14 st15">changing</tspan><tspan x="162.99" y="0" class="st11 st14 st15"> </tspan><tspan x="167.46" y="0" class="st11 st14 st15">the</tspan><tspan x="192.43" y="0" class="st11 st14 st15"> </tspan><tspan x="196.89" y="0" class="st11 st14 st15">job</tspan><tspan x="221.39" y="0" class="st11 st14 st15"> </tspan><tspan x="225.86" y="0" class="st11 st14 st15">market,</tspan><tspan x="282.57" y="0" class="st11 st14 st15"> </tspan><tspan x="287.04" y="0" class="st11 st14 st15">automating</tspan><tspan x="375.38" y="0" class="st11 st14 st15"> </tspan><tspan x="379.85" y="0" class="st11 st14 st15">tasks,</tspan><tspan x="420.9" y="0" class="st11 st14 st15"> </tspan><tspan x="425.37" y="0" class="st11 st14 st15">creating</tspan><tspan x="487.23" y="0" class="st11 st14 st15"> </tspan><tspan x="491.7" y="0" class="st11 st14 st15">new</tspan><tspan x="523.96" y="0" class="st11 st14 st15"> </tspan><tspan x="528.42" y="0" class="st11 st14 st15">jobs,</tspan><tspan x="563.77" y="0" class="st11 st14 st15"> </tspan><tspan x="568.24" y="0" class="st11 st14 st15">and </tspan><tspan x="0" y="27" class="st11 st14 st15">demanding new skills. Workers and businesses must adapt to thrive.</tspan></text>
	</g>
	<text transform="matrix(1.1 0 0 1 161.4895 489.6797)"><tspan x="0" y="0" class="st1 st14 st16">The Future of Work is Here,</tspan><tspan x="0" y="100.98" class="st1 st14 st16">and It&apos;s Powered by AI </tspan></text>
	<text transform="matrix(1 0 0 1 427.4868 799.7441)" class="st17 st18">Lorem ipsum</text>
	<rect x="190.7" y="740.91" class="st2" width="248.65" height="85.04"/>
	<text transform="matrix(1 0 0 1 164.9204 790.6709)" class="st17 st18">Lorem ipsum</text>
</g>
</svg>
