<?xml version="1.0" encoding="utf-8"?>
<!-- Generator: Adobe Illustrator 27.9.0, SVG Export Plug-In . SVG Version: 6.00 Build 0)  -->
<svg version="1.1" id="Calque_1" xmlns="http://www.w3.org/2000/svg" xmlns:xlink="http://www.w3.org/1999/xlink" x="0px" y="0px"
	 viewBox="0 0 1280 720" style="enable-background:new 0 0 1280 720;" xml:space="preserve">
<style type="text/css">
	.st0{fill:url(#SVGID_1_);}
	.st1{fill:url(#SVGID_00000132771737444950878680000007259477386892905139_);}
	.st2{fill:url(#SVGID_00000005251728282353450050000014139171132795015585_);}
	.st3{fill:url(#SVGID_00000118394696292088818650000016646715610647354798_);}
	.st4{fill:url(#SVGID_00000135688717007225380380000006888434081916104850_);}
	.st5{fill:#FFFFFF;}
	.st6{fill:url(#SVGID_00000034778303107932395440000017269543419948037252_);}
	.st7{fill:#0F0D0E;}
	.st8{fill:url(#SVGID_00000163764303565093189110000017974758293448216245_);}
	.st9{opacity:0.75;fill:url(#SVGID_00000173851641224665736590000009480253092495892646_);enable-background:new    ;}
	.st10{opacity:0.75;fill:url(#SVGID_00000111190850566874131370000014284654757492139704_);enable-background:new    ;}
	.st11{fill:url(#SVGID_00000059304136035032508240000013144301615871612579_);}
	.st12{fill:url(#SVGID_00000135659653676085765610000000609533575360109971_);}
	.st13{fill:url(#SVGID_00000106866520857929404630000009895187692108593572_);}
	.st14{fill:#7AFF73;}
	.st15{font-family:'ArialMT';}
	.st16{font-size:78.1053px;}
</style>
<g id="BACKGROUND">
	
		<linearGradient id="SVGID_1_" gradientUnits="userSpaceOnUse" x1="37.6147" y1="674.7412" x2="1232.3864" y2="50.265" gradientTransform="matrix(1 0 0 -1 0 719.89)">
		<stop  offset="0" style="stop-color:#0F0D0E"/>
		<stop  offset="0.1517" style="stop-color:#120C1B"/>
		<stop  offset="0.4299" style="stop-color:#1A083C"/>
		<stop  offset="0.8008" style="stop-color:#270371"/>
		<stop  offset="1" style="stop-color:#2E0091"/>
	</linearGradient>
	<polygon class="st0" points="0,0 0,720 1280,720 1280,0 	"/>
</g>
<g>
	
		<linearGradient id="SVGID_00000055703030134078926750000001984667650857790107_" gradientUnits="userSpaceOnUse" x1="935.9" y1="615.2069" x2="935.9" y2="301.2197" gradientTransform="matrix(1 0 0 -1 0 719.89)">
		<stop  offset="0" style="stop-color:#7AFF73"/>
		<stop  offset="0.1422" style="stop-color:#79FB73;stop-opacity:0.8578"/>
		<stop  offset="0.27" style="stop-color:#76F175;stop-opacity:0.73"/>
		<stop  offset="0.3923" style="stop-color:#70DE77;stop-opacity:0.6077"/>
		<stop  offset="0.5112" style="stop-color:#69C47A;stop-opacity:0.4888"/>
		<stop  offset="0.6278" style="stop-color:#5FA37E;stop-opacity:0.3722"/>
		<stop  offset="0.7424" style="stop-color:#527A83;stop-opacity:0.2576"/>
		<stop  offset="0.8556" style="stop-color:#444A88;stop-opacity:0.1444"/>
		<stop  offset="0.9649" style="stop-color:#34138F;stop-opacity:3.505307e-02"/>
		<stop  offset="1" style="stop-color:#2E0091;stop-opacity:0"/>
	</linearGradient>
	<circle style="fill:url(#SVGID_00000055703030134078926750000001984667650857790107_);" cx="935.9" cy="261.9" r="179.9"/>
	<g>
		
			<linearGradient id="SVGID_00000056391214526718007620000001097168483571898506_" gradientUnits="userSpaceOnUse" x1="1098.8696" y1="477.3155" x2="692.5331" y2="-77.2977" gradientTransform="matrix(1 0 0 -1 0 719.89)">
			<stop  offset="0" style="stop-color:#0F0D0E"/>
			<stop  offset="0.135" style="stop-color:#100D12"/>
			<stop  offset="0.2562" style="stop-color:#120C1C"/>
			<stop  offset="0.3722" style="stop-color:#170A2F"/>
			<stop  offset="0.4849" style="stop-color:#1D0749"/>
			<stop  offset="0.5942" style="stop-color:#250469"/>
			<stop  offset="0.7002" style="stop-color:#2E0091"/>
		</linearGradient>
		
			<rect x="858.5" y="397.6" style="fill:url(#SVGID_00000056391214526718007620000001097168483571898506_);" width="154.6" height="135.1"/>
		
			<linearGradient id="SVGID_00000183949769144427401590000014046594098850815376_" gradientUnits="userSpaceOnUse" x1="1206.6666" y1="396.6997" x2="801.1577" y2="-156.7842" gradientTransform="matrix(1 0 0 -1 0 719.89)">
			<stop  offset="0" style="stop-color:#0F0D0E"/>
			<stop  offset="0.1368" style="stop-color:#100D12"/>
			<stop  offset="0.2596" style="stop-color:#120C1C"/>
			<stop  offset="0.3772" style="stop-color:#170A2F"/>
			<stop  offset="0.4914" style="stop-color:#1D0749"/>
			<stop  offset="0.6022" style="stop-color:#250469"/>
			<stop  offset="0.7096" style="stop-color:#2E0091"/>
		</linearGradient>
		<polygon style="fill:url(#SVGID_00000183949769144427401590000014046594098850815376_);" points="1219.3,720 652.4,720 652.4,720 
			708.2,589.5 938.1,484.5 1164,589.4 1219.3,720 		"/>
	</g>
	<g>
		
			<linearGradient id="SVGID_00000183224161541108462150000000979543040951693708_" gradientUnits="userSpaceOnUse" x1="935.9" y1="-8.1211" x2="935.9" y2="273.2009" gradientTransform="matrix(1 0 0 -1 0 719.89)">
			<stop  offset="0" style="stop-color:#7AFF73"/>
			<stop  offset="0.1422" style="stop-color:#79FB73;stop-opacity:0.8578"/>
			<stop  offset="0.27" style="stop-color:#76F175;stop-opacity:0.73"/>
			<stop  offset="0.3923" style="stop-color:#70DE77;stop-opacity:0.6077"/>
			<stop  offset="0.5112" style="stop-color:#69C47A;stop-opacity:0.4888"/>
			<stop  offset="0.6278" style="stop-color:#5FA37E;stop-opacity:0.3722"/>
			<stop  offset="0.7424" style="stop-color:#527A83;stop-opacity:0.2576"/>
			<stop  offset="0.8556" style="stop-color:#444A88;stop-opacity:0.1444"/>
			<stop  offset="0.9649" style="stop-color:#34138F;stop-opacity:3.505307e-02"/>
			<stop  offset="1" style="stop-color:#2E0091;stop-opacity:0"/>
		</linearGradient>
		<path style="fill:url(#SVGID_00000183224161541108462150000000979543040951693708_);" d="M1180.4,571.3l-150.2-66.4
			c-20.3,30.4-55,50.5-94.3,50.5c-38.9,0-73.2-19.6-93.6-49.4l-150.4,65.4L629.1,720l0,0h613.6l0,0L1180.4,571.3z"/>
		<g>
			<path class="st5" d="M935.5,572.6c-44.3,0-85.3-21.2-112.7-58.1l2-1.5c26.9,36.3,67.2,57.1,110.7,57.1
				c43.9,0,84.5-21.2,111.4-58.1l2,1.5C1021.6,551,980.2,572.6,935.5,572.6z"/>
		</g>
		<g>
			<g>
				
					<rect x="727.7" y="562.6" transform="matrix(0.895 -0.4461 0.4461 0.895 -211.4515 392.9865)" class="st5" width="2.5" height="166.1"/>
			</g>
			<g>
				
					<rect x="1059.8" y="644.4" transform="matrix(0.4484 -0.8938 0.8938 0.4484 53.4152 1377.759)" class="st5" width="166.4" height="2.5"/>
			</g>
		</g>
	</g>
	
		<linearGradient id="SVGID_00000179622491502752763490000013065334173790932138_" gradientUnits="userSpaceOnUse" x1="1129.951" y1="658.5063" x2="824.2197" y2="265.8719" gradientTransform="matrix(1 0 0 -1 0 719.89)">
		<stop  offset="0" style="stop-color:#0F0D0E"/>
		<stop  offset="0.1927" style="stop-color:#100D12"/>
		<stop  offset="0.3659" style="stop-color:#120C1C"/>
		<stop  offset="0.5315" style="stop-color:#170A2F"/>
		<stop  offset="0.6925" style="stop-color:#1D0749"/>
		<stop  offset="0.8486" style="stop-color:#250469"/>
		<stop  offset="1" style="stop-color:#2E0091"/>
	</linearGradient>
	<path style="fill:url(#SVGID_00000179622491502752763490000013065334173790932138_);" d="M823.1,187.5c0,2.9-10,163.5-10,163.5
		l33.1,107.7c3.2,14.1,15.7,24.1,30.1,24.1h119.1c14.4,0,26.9-10,30.1-24.1l33.1-107.7c0,0-10-160.6-10-163.5"/>
	<g>
		<polygon class="st7" points="892.3,399.6 892.3,399.6 935.9,409.1 979.4,399.6 979.4,399.6 979.4,399.6 944,388.2 935.9,392.1 
			927.7,388.2 		"/>
		<polygon class="st7" points="918.8,353.8 920.1,370.1 951.6,370.1 952.9,353.8 		"/>
	</g>
	<g>
		
			<linearGradient id="SVGID_00000175301635460328289810000003350410466748381630_" gradientUnits="userSpaceOnUse" x1="935.85" y1="237.0285" x2="935.85" y2="-27.0993" gradientTransform="matrix(1 0 0 -1 0 719.89)">
			<stop  offset="0" style="stop-color:#FF47E3"/>
			<stop  offset="0.1487" style="stop-color:#FB46E2;stop-opacity:0.8443"/>
			<stop  offset="0.2823" style="stop-color:#F142DD;stop-opacity:0.7044"/>
			<stop  offset="0.4101" style="stop-color:#DE3CD6;stop-opacity:0.5704"/>
			<stop  offset="0.5345" style="stop-color:#C433CC;stop-opacity:0.4402"/>
			<stop  offset="0.6562" style="stop-color:#A328BF;stop-opacity:0.3127"/>
			<stop  offset="0.7761" style="stop-color:#7A1AAF;stop-opacity:0.1872"/>
			<stop  offset="0.8921" style="stop-color:#4B0A9C;stop-opacity:6.563032e-02"/>
			<stop  offset="0.9548" style="stop-color:#2E0091;stop-opacity:0"/>
			<stop  offset="0.9908" style="stop-color:#2E0091;stop-opacity:0.5"/>
		</linearGradient>
		<path style="fill:url(#SVGID_00000175301635460328289810000003350410466748381630_);" d="M1064.9,720
			c0-71.3-57.8-130.1-129.1-130.1s-129,58.8-129,130.1"/>
		<g>
			<path class="st5" d="M1045.6,720h-2.6c0-59.1-48.1-107.1-107.1-107.1c-59.1,0-107.1,48.1-107.1,107.1h-2.6
				c0-60.5,49.2-109.7,109.7-109.7C996.4,610.3,1045.6,659.5,1045.6,720z"/>
		</g>
	</g>
	<g>
		
			<linearGradient id="SVGID_00000088844030250787037810000011836181335280217992_" gradientUnits="userSpaceOnUse" x1="935.35" y1="443.3753" x2="935.35" y2="598.7877" gradientTransform="matrix(1 0 0 -1 0 719.89)">
			<stop  offset="0" style="stop-color:#FF47E3"/>
			<stop  offset="0.2017" style="stop-color:#CA35CE;stop-opacity:0.7954"/>
			<stop  offset="0.4776" style="stop-color:#881EB4;stop-opacity:0.5153"/>
			<stop  offset="0.7098" style="stop-color:#570EA1;stop-opacity:0.2797"/>
			<stop  offset="0.886" style="stop-color:#390495;stop-opacity:0.101"/>
			<stop  offset="0.9855" style="stop-color:#2E0091;stop-opacity:0"/>
		</linearGradient>
		<path style="opacity:0.75;fill:url(#SVGID_00000088844030250787037810000011836181335280217992_);enable-background:new    ;" d="
			M784.4,279.5c7.4-23.9,29.3-41.3,55.2-41.3h191.5c25.9,0,47.8,17.4,55.2,41.3h11.1c3.1,0,80.1-192.9,80.1-192.9H693.2l79,192.9
			H784.4z"/>
		
			<linearGradient id="SVGID_00000050658310623720017890000001172049737217057469_" gradientUnits="userSpaceOnUse" x1="935.35" y1="821.4808" x2="935.35" y2="976.8932" gradientTransform="matrix(1 0 0 1 0 -505.7112)">
			<stop  offset="0" style="stop-color:#FF47E3"/>
			<stop  offset="0.2017" style="stop-color:#CA35CE;stop-opacity:0.7954"/>
			<stop  offset="0.4776" style="stop-color:#881EB4;stop-opacity:0.5153"/>
			<stop  offset="0.7098" style="stop-color:#570EA1;stop-opacity:0.2797"/>
			<stop  offset="0.886" style="stop-color:#390495;stop-opacity:0.101"/>
			<stop  offset="0.9855" style="stop-color:#2E0091;stop-opacity:0"/>
		</linearGradient>
		<path style="opacity:0.75;fill:url(#SVGID_00000050658310623720017890000001172049737217057469_);enable-background:new    ;" d="
			M784.4,312.8c7.4,23.9,29.3,41.3,55.2,41.3h191.5c25.9,0,47.8-17.4,55.2-41.3h11.1c3.1,0,80.1,192.9,80.1,192.9H693.2l79-192.9
			H784.4z"/>
		<g>
			<g>
				
					<linearGradient id="SVGID_00000067939583402335610100000004836540087498610074_" gradientUnits="userSpaceOnUse" x1="781.7" y1="492.8505" x2="781.7" y2="385.8345" gradientTransform="matrix(1 0 0 -1 0 719.89)">
					<stop  offset="0" style="stop-color:#0F0D0E"/>
					<stop  offset="0.1927" style="stop-color:#100D12"/>
					<stop  offset="0.3659" style="stop-color:#120C1C"/>
					<stop  offset="0.5315" style="stop-color:#170A2F"/>
					<stop  offset="0.6925" style="stop-color:#1D0749"/>
					<stop  offset="0.8486" style="stop-color:#250469"/>
					<stop  offset="1" style="stop-color:#2E0091"/>
				</linearGradient>
				<path style="fill:url(#SVGID_00000067939583402335610100000004836540087498610074_);" d="M790.1,278.6h-16.8
					c-9.6,0-17.4,7.8-17.4,17.4l0,0c0,9.6,7.8,17.4,17.4,17.4h16.8c9.6,0,17.4-7.8,17.4-17.4l0,0
					C807.5,286.3,799.7,278.6,790.1,278.6z"/>
				
					<linearGradient id="SVGID_00000049197345510565123730000010288126341719451035_" gradientUnits="userSpaceOnUse" x1="1088.9" y1="492.8505" x2="1088.9" y2="385.8345" gradientTransform="matrix(1 0 0 -1 0 719.89)">
					<stop  offset="0" style="stop-color:#0F0D0E"/>
					<stop  offset="0.1927" style="stop-color:#100D12"/>
					<stop  offset="0.3659" style="stop-color:#120C1C"/>
					<stop  offset="0.5315" style="stop-color:#170A2F"/>
					<stop  offset="0.6925" style="stop-color:#1D0749"/>
					<stop  offset="0.8486" style="stop-color:#250469"/>
					<stop  offset="1" style="stop-color:#2E0091"/>
				</linearGradient>
				<path style="fill:url(#SVGID_00000049197345510565123730000010288126341719451035_);" d="M1097.3,278.6h-16.8
					c-9.6,0-17.4,7.8-17.4,17.4l0,0c0,9.6,7.8,17.4,17.4,17.4h16.8c9.6,0,17.4-7.8,17.4-17.4l0,0
					C1114.7,286.3,1106.9,278.6,1097.3,278.6z"/>
			</g>
			<g>
				
					<linearGradient id="SVGID_00000111165726146047675030000000943615454758201473_" gradientUnits="userSpaceOnUse" x1="935.35" y1="516.3751" x2="935.35" y2="367.3572" gradientTransform="matrix(1 0 0 -1 0 719.89)">
					<stop  offset="0" style="stop-color:#FF47E3"/>
					<stop  offset="0.1557" style="stop-color:#FB46E2;stop-opacity:0.9221"/>
					<stop  offset="0.2956" style="stop-color:#F142DD;stop-opacity:0.8522"/>
					<stop  offset="0.4296" style="stop-color:#DE3CD6;stop-opacity:0.7852"/>
					<stop  offset="0.5598" style="stop-color:#C433CC;stop-opacity:0.7201"/>
					<stop  offset="0.6873" style="stop-color:#A328BF;stop-opacity:0.6563"/>
					<stop  offset="0.8128" style="stop-color:#7A1AAF;stop-opacity:0.5936"/>
					<stop  offset="0.9344" style="stop-color:#4B0A9C;stop-opacity:0.5328"/>
					<stop  offset="1" style="stop-color:#2E0091;stop-opacity:0.5"/>
				</linearGradient>
				<path style="fill:url(#SVGID_00000111165726146047675030000000943615454758201473_);" d="M1031.1,353.8H839.6
					c-32,0-57.9-25.9-57.9-57.9l0,0c0-32,25.9-57.9,57.9-57.9h191.5c32,0,57.9,25.9,57.9,57.9l0,0
					C1088.9,327.9,1063,353.8,1031.1,353.8z"/>
				<g>
					<path class="st5" d="M1048.2,310.2c-7.9,0-14.3-6.4-14.3-14.3s6.4-14.3,14.3-14.3s14.3,6.4,14.3,14.3
						C1062.5,303.8,1056.1,310.2,1048.2,310.2z M1048.2,284.2c-6.5,0-11.8,5.3-11.8,11.8s5.3,11.8,11.8,11.8s11.8-5.3,11.8-11.8
						C1060,289.4,1054.7,284.2,1048.2,284.2z"/>
				</g>
				<g>
					<path class="st5" d="M1009.8,310.2c-7.9,0-14.3-6.4-14.3-14.3s6.4-14.3,14.3-14.3c7.9,0,14.3,6.4,14.3,14.3
						C1024.1,303.8,1017.7,310.2,1009.8,310.2z M1009.8,284.2c-6.5,0-11.8,5.3-11.8,11.8s5.3,11.8,11.8,11.8s11.8-5.3,11.8-11.8
						C1021.6,289.4,1016.3,284.2,1009.8,284.2z"/>
				</g>
				<g>
					<path class="st5" d="M1031.1,341.2H839.6c-17.8,0-33.9-10.4-41.2-26.6h-25.1c-10.3,0-18.6-8.4-18.6-18.6s8.4-18.6,18.6-18.6
						h25.1c7.3-16.2,23.4-26.6,41.2-26.6h191.5c17.8,0,33.9,10.4,41.2,26.6h25.1c10.3,0,18.6,8.4,18.6,18.6s-8.3,18.6-18.6,18.6
						h-25.1C1064.9,330.7,1048.8,341.2,1031.1,341.2z M773.3,279.8c-8.9,0-16.1,7.2-16.1,16.1s7.2,16.1,16.1,16.1h25.9l1.1,0.8
						c6.8,15.7,22.2,25.9,39.2,25.9H1031c17.1,0,32.5-10.1,39.2-25.9l1.1-0.8h25.9c8.9,0,16.1-7.2,16.1-16.1s-7.2-16.1-16.1-16.1
						h-25.9l-1.1-0.8c-6.8-15.7-22.2-25.9-39.2-25.9H839.6c-17.1,0-32.5,10.1-39.2,25.9l-1.1,0.8H773.3z"/>
				</g>
				<g>
					<path class="st5" d="M976.2,305.4H773.3c-2.6,0-5.1-1.1-6.9-3c-1.8-1.9-2.7-4.4-2.5-7.1c0.3-5,4.6-8.9,9.8-8.9h202.5
						c5.2,0,9.5,4.2,9.5,9.5S981.4,305.4,976.2,305.4z M773.6,289c-3.8,0-7,2.9-7.3,6.5c-0.1,1.9,0.5,3.8,1.9,5.2
						c1.3,1.4,3.1,2.2,5.1,2.2h202.9c3.8,0,7-3.1,7-7s-3.1-7-7-7L773.6,289L773.6,289z"/>
				</g>
				<g>
					<path class="st5" d="M1031.1,328.1H839.6c-17.7,0-32.1-14.4-32.1-32.1s14.4-32.1,32.1-32.1h191.5c17.7,0,32.1,14.4,32.1,32.1
						S1048.8,328.1,1031.1,328.1z M839.6,266.3c-16.3,0-29.6,13.3-29.6,29.6c0,16.3,13.3,29.6,29.6,29.6h191.5
						c16.3,0,29.6-13.3,29.6-29.6c0-16.3-13.3-29.6-29.6-29.6H839.6z"/>
				</g>
			</g>
		</g>
	</g>
</g>
<g>
	<g>
		<path class="st14" d="M1155.8,149.2c-3.2,0-5.9-2.6-5.9-5.9c0-3.2,2.6-5.9,5.9-5.9c3.2,0,5.9,2.6,5.9,5.9
			C1161.7,146.5,1159.1,149.2,1155.8,149.2z M1155.8,139.9c-1.9,0-3.4,1.5-3.4,3.4s1.5,3.4,3.4,3.4s3.4-1.5,3.4-3.4
			C1159.2,141.4,1157.7,139.9,1155.8,139.9z"/>
	</g>
	<g>
		<rect x="1160.1" y="164.6" class="st14" width="81.1" height="2.5"/>
	</g>
	<g>
		<path class="st14" d="M1155.8,171.7c-3.2,0-5.9-2.6-5.9-5.9c0-3.2,2.6-5.9,5.9-5.9c3.2,0,5.9,2.6,5.9,5.9
			C1161.7,169.1,1159.1,171.7,1155.8,171.7z M1155.8,162.4c-1.9,0-3.4,1.5-3.4,3.4s1.5,3.4,3.4,3.4s3.4-1.5,3.4-3.4
			C1159.2,163.9,1157.7,162.4,1155.8,162.4z"/>
	</g>
	<g>
		<rect x="1160.1" y="187.1" class="st14" width="81.1" height="2.5"/>
	</g>
	<g>
		<path class="st14" d="M1155.8,194.2c-3.2,0-5.9-2.6-5.9-5.9c0-3.2,2.6-5.9,5.9-5.9c3.2,0,5.9,2.6,5.9,5.9
			C1161.7,191.6,1159.1,194.2,1155.8,194.2z M1155.8,185c-1.9,0-3.4,1.5-3.4,3.4s1.5,3.4,3.4,3.4s3.4-1.5,3.4-3.4
			C1159.2,186.5,1157.7,185,1155.8,185z"/>
	</g>
	<g>
		<rect x="1160.1" y="209.7" class="st14" width="81.1" height="2.5"/>
	</g>
	<g>
		<path class="st14" d="M1155.8,216.8c-3.2,0-5.9-2.6-5.9-5.9c0-3.2,2.6-5.9,5.9-5.9c3.2,0,5.9,2.6,5.9,5.9
			C1161.7,214.1,1159.1,216.8,1155.8,216.8z M1155.8,207.5c-1.9,0-3.4,1.5-3.4,3.4s1.5,3.4,3.4,3.4s3.4-1.5,3.4-3.4
			C1159.2,209,1157.7,207.5,1155.8,207.5z"/>
	</g>
	<g>
		<rect x="1160.1" y="142" class="st14" width="81.1" height="2.5"/>
	</g>
	<g>
		<path class="st14" d="M676.3,482h-67.6l-1.2-1.2v-67.6l1.2-1.2h67.6l1.2,1.2v67.6L676.3,482z M609.9,479.5H675v-65.1h-65.1V479.5z
			"/>
	</g>
	<g>
		<rect x="647.6" y="462.3" class="st14" width="29.4" height="2.5"/>
	</g>
	<g>
		<rect x="578.1" y="429" class="st14" width="77.6" height="2.5"/>
	</g>
	<g>
		<rect x="629.3" y="445.7" class="st14" width="47" height="2.5"/>
	</g>
	<g>
		<rect x="623.4" y="451.5" class="st14" width="2.5" height="29.2"/>
	</g>
	<g>
		<rect x="659.1" y="413.1" class="st14" width="2.5" height="12.5"/>
	</g>
	<g>
		<rect x="641.2" y="413.1" class="st14" width="2.5" height="45.4"/>
	</g>
	<g>
		<rect x="641.2" y="468.7" class="st14" width="2.5" height="38.8"/>
	</g>
	<g>
		<path class="st14" d="M660.4,436.6c-3.5,0-6.4-2.9-6.4-6.4s2.9-6.4,6.4-6.4s6.4,2.9,6.4,6.4C666.7,433.8,663.9,436.6,660.4,436.6z
			 M660.4,426.4c-2.1,0-3.9,1.7-3.9,3.9c0,2.1,1.7,3.9,3.9,3.9c2.1,0,3.9-1.7,3.9-3.9C664.2,428.1,662.5,426.4,660.4,426.4z"/>
	</g>
	<g>
		<path class="st14" d="M624.6,453.3c-3.5,0-6.4-2.9-6.4-6.4s2.9-6.4,6.4-6.4s6.4,2.9,6.4,6.4S628.1,453.3,624.6,453.3z M624.6,443
			c-2.1,0-3.9,1.7-3.9,3.9c0,2.1,1.7,3.9,3.9,3.9c2.1,0,3.9-1.7,3.9-3.9C628.5,444.8,626.8,443,624.6,443z"/>
	</g>
	<g>
		<path class="st14" d="M1177.9,507.4c-36.2,0-65.6-29.4-65.6-65.6s29.4-65.6,65.6-65.6s65.6,29.4,65.6,65.6
			S1214.1,507.4,1177.9,507.4z M1177.9,378.7c-34.8,0-63.1,28.3-63.1,63.1s28.3,63.1,63.1,63.1c34.8,0,63.1-28.3,63.1-63.1
			S1212.7,378.7,1177.9,378.7z"/>
	</g>
	<g>
		<path class="st14" d="M1177.9,493.1c-28,0-50.8-22.8-50.8-50.8h2.5c0,26.6,21.6,48.3,48.3,48.3c26.6,0,48.3-21.6,48.3-48.3h2.5
			C1228.7,470.3,1205.9,493.1,1177.9,493.1z"/>
	</g>
	<g>
		<path class="st14" d="M1177.9,477.4c-19.9,0-36.1-16.2-36.1-36.1s16.2-36.1,36.1-36.1s36.1,16.2,36.1,36.1
			C1214,461.2,1197.8,477.4,1177.9,477.4z M1177.9,407.7c-18.5,0-33.6,15.1-33.6,33.6s15.1,33.6,33.6,33.6s33.6-15.1,33.6-33.6
			C1211.5,422.8,1196.5,407.7,1177.9,407.7z"/>
	</g>
	<g>
		<path class="st14" d="M1209.5,76.9c-3.5,0-6.4-2.9-6.4-6.4s2.9-6.4,6.4-6.4s6.4,2.9,6.4,6.4C1215.8,74,1213,76.9,1209.5,76.9z
			 M1209.5,66.7c-2.1,0-3.9,1.7-3.9,3.9c0,2.1,1.7,3.9,3.9,3.9c2.1,0,3.9-1.7,3.9-3.9C1213.3,68.4,1211.6,66.7,1209.5,66.7z"/>
	</g>
	<g>
		<path class="st14" d="M1209.5,104.3c-18.6,0-33.8-15.2-33.8-33.8s15.2-33.8,33.8-33.8s33.8,15.2,33.8,33.8
			C1243.2,89.2,1228.1,104.3,1209.5,104.3z M1209.5,39.2c-17.3,0-31.3,14-31.3,31.3s14,31.3,31.3,31.3s31.3-14,31.3-31.3
			C1240.8,53.3,1226.7,39.2,1209.5,39.2z"/>
	</g>
	<g>
		<path class="st14" d="M610.5,76.9c-3.5,0-6.4-2.9-6.4-6.4s2.9-6.4,6.4-6.4s6.4,2.9,6.4,6.4C616.8,74,614,76.9,610.5,76.9z
			 M610.5,66.7c-2.1,0-3.9,1.7-3.9,3.9c0,2.1,1.7,3.9,3.9,3.9c2.1,0,3.9-1.7,3.9-3.9C614.3,68.4,612.6,66.7,610.5,66.7z"/>
	</g>
	<g>
		<path class="st14" d="M610.5,104.3c-18.6,0-33.8-15.2-33.8-33.8s15.2-33.8,33.8-33.8s33.8,15.2,33.8,33.8
			C644.3,89.2,629.1,104.3,610.5,104.3z M610.5,39.2c-17.3,0-31.3,14-31.3,31.3s14,31.3,31.3,31.3s31.3-14,31.3-31.3
			C641.8,53.3,627.7,39.2,610.5,39.2z"/>
	</g>
	<g>
		<path class="st14" d="M39.2,720h-2.5V71.4c0-19.1,15.5-34.6,34.6-34.6h1137.2v2.5H71.4c-17.7,0-32.1,14.4-32.1,32.1V720H39.2z
			 M1243.2,441.8h-2.5V71.4c0-17.7-14.4-32.1-32.1-32.1v-2.5c19.1,0,34.6,15.5,34.6,34.6V441.8z"/>
	</g>
	<g>
		<rect x="615.6" y="69.3" class="st14" width="588.8" height="2.5"/>
	</g>
	<g>
		<path class="st14" d="M642.5,469.9c-3.5,0-6.4-2.9-6.4-6.4s2.9-6.4,6.4-6.4s6.4,2.9,6.4,6.4C648.9,467.1,646,469.9,642.5,469.9z
			 M642.5,459.7c-2.1,0-3.9,1.7-3.9,3.9c0,2.1,1.7,3.9,3.9,3.9c2.1,0,3.9-1.7,3.9-3.9C646.4,461.4,644.6,459.7,642.5,459.7z"/>
	</g>
	<g>
		<path class="st14" d="M638.6,216.1c-3.2,0-5.9-2.6-5.9-5.9c0-3.2,2.6-5.9,5.9-5.9c3.2,0,5.9,2.6,5.9,5.9S641.8,216.1,638.6,216.1z
			 M638.6,206.9c-1.9,0-3.4,1.5-3.4,3.4s1.5,3.4,3.4,3.4s3.4-1.5,3.4-3.4S640.4,206.9,638.6,206.9z"/>
	</g>
	<g>
		<rect x="577.9" y="232" class="st14" width="124.8" height="2.5"/>
	</g>
	<g>
		<path class="st14" d="M707,239.1c-3.2,0-5.9-2.6-5.9-5.9c0-3.2,2.6-5.9,5.9-5.9c3.2,0,5.9,2.6,5.9,5.9S710.2,239.1,707,239.1z
			 M707,229.8c-1.9,0-3.4,1.5-3.4,3.4s1.5,3.4,3.4,3.4s3.4-1.5,3.4-3.4S708.9,229.8,707,229.8z"/>
	</g>
	<g>
		<rect x="577.9" y="254.5" class="st14" width="124.8" height="2.5"/>
	</g>
	<g>
		<path class="st14" d="M707,261.6c-3.2,0-5.9-2.6-5.9-5.9c0-3.2,2.6-5.9,5.9-5.9c3.2,0,5.9,2.6,5.9,5.9
			C712.9,259,710.2,261.6,707,261.6z M707,252.4c-1.9,0-3.4,1.5-3.4,3.4c0,1.9,1.5,3.4,3.4,3.4s3.4-1.5,3.4-3.4
			C710.4,253.9,708.9,252.4,707,252.4z"/>
	</g>
	<g>
		<rect x="577.9" y="277" class="st14" width="124.8" height="2.5"/>
	</g>
	<g>
		<path class="st14" d="M707,284.2c-3.2,0-5.9-2.6-5.9-5.9c0-3.2,2.6-5.9,5.9-5.9c3.2,0,5.9,2.6,5.9,5.9S710.2,284.2,707,284.2z
			 M707,274.9c-1.9,0-3.4,1.5-3.4,3.4s1.5,3.4,3.4,3.4s3.4-1.5,3.4-3.4S708.9,274.9,707,274.9z"/>
	</g>
	<g>
		<rect x="577.9" y="209.4" class="st14" width="55.4" height="2.5"/>
	</g>
	<g>
		<rect x="577.9" y="299.5" class="st14" width="124.8" height="2.5"/>
	</g>
	<g>
		<path class="st14" d="M707,306.6c-3.2,0-5.9-2.6-5.9-5.9c0-3.2,2.6-5.9,5.9-5.9c3.2,0,5.9,2.6,5.9,5.9S710.2,306.6,707,306.6z
			 M707,297.3c-1.9,0-3.4,1.5-3.4,3.4s1.5,3.4,3.4,3.4s3.4-1.5,3.4-3.4C710.4,298.9,708.9,297.3,707,297.3z"/>
	</g>
	<g>
		<rect x="1240" y="513.2" class="st14" width="2.5" height="206.8"/>
	</g>
	<g>
		<path class="st14" d="M1241.3,514.8c-3.2,0-5.9-2.6-5.9-5.9c0-3.2,2.6-5.9,5.9-5.9s5.9,2.6,5.9,5.9
			C1247.2,512.2,1244.5,514.8,1241.3,514.8z M1241.3,505.6c-1.9,0-3.4,1.5-3.4,3.4s1.5,3.4,3.4,3.4s3.4-1.5,3.4-3.4
			C1244.7,507.1,1243.1,505.6,1241.3,505.6z"/>
	</g>
	<g>
		<path class="st14" d="M1177.9,447.2c-3.2,0-5.9-2.6-5.9-5.9c0-3.2,2.6-5.9,5.9-5.9c3.2,0,5.9,2.6,5.9,5.9
			S1181.2,447.2,1177.9,447.2z M1177.9,437.9c-1.9,0-3.4,1.5-3.4,3.4s1.5,3.4,3.4,3.4s3.4-1.5,3.4-3.4S1179.8,437.9,1177.9,437.9z"
			/>
	</g>
	<g>
		<path class="st14" d="M708.2,508.9h-2.5v-91c0-17.7-14.4-32.1-32-32.1h-95.5v-2.5h95.5c19,0,34.5,15.5,34.5,34.6V508.9z"/>
	</g>
	<g>
		<path class="st14" d="M706.9,510.2h-95.5c-19.1,0-34.6-15.5-34.6-34.6l-0.1-339.1c0-9.3,3.6-18,10.1-24.5s15.2-10.1,24.5-10.1
			h67.8v2.5h-67.8c-8.6,0-16.7,3.3-22.7,9.4c-6.1,6.1-9.4,14.1-9.4,22.7l0.1,339.1c0,17.7,14.4,32.1,32.1,32.1h95.5L706.9,510.2
			L706.9,510.2z"/>
	</g>
	<g>
		<rect x="576.7" y="578.7" class="st14" width="2.5" height="141.3"/>
	</g>
	<g>
		<path class="st14" d="M577.9,580.4c-3.2,0-5.9-2.6-5.9-5.9c0-3.2,2.6-5.9,5.9-5.9c3.2,0,5.9,2.6,5.9,5.9
			C583.8,577.7,581.2,580.4,577.9,580.4z M577.9,571.1c-1.9,0-3.4,1.5-3.4,3.4s1.5,3.4,3.4,3.4s3.4-1.5,3.4-3.4
			C581.3,572.6,579.8,571.1,577.9,571.1z"/>
	</g>
</g>
<g id="TEXTS">
	<g>
		<text transform="matrix(1.1 0 0 1 79.2085 298.4174)" class="st14 st15 st16">Does AI</text>
		<text transform="matrix(1.1 0 0 1 81.4087 392.1176)" class="st14 st15 st16">Shape the</text>
		<text transform="matrix(1.1 0 0 1 79.2085 485.9174)" class="st14 st15 st16">Future?</text>
	</g>
</g>
</svg>
