<?xml version="1.0" encoding="utf-8"?>
<!-- Generator: Adobe Illustrator 27.9.0, SVG Export Plug-In . SVG Version: 6.00 Build 0)  -->
<svg version="1.1" xmlns="http://www.w3.org/2000/svg" xmlns:xlink="http://www.w3.org/1999/xlink" x="0px" y="0px"
	 viewBox="0 0 773.2 312" style="enable-background:new 0 0 773.2 312;" xml:space="preserve">
<style type="text/css">
	.st0{fill:url(#SVGID_1_);}
	.st1{fill:#7AFF73;}
	.st2{fill:url(#SVGID_00000133491259554071967370000001832570132647882151_);}
	.st3{fill:url(#SVGID_00000077301090773405720050000003824340026775269055_);}
	.st4{fill:url(#SVGID_00000181769296652903322410000010032310572753075370_);}
	.st5{fill:url(#SVGID_00000119799964737815853330000012827214982542752675_);}
	.st6{fill:#FFFFFF;}
	.st7{fill:#0F0D0E;}
	.st8{font-family:'DMSans-Medium';}
	.st9{font-size:36.0641px;}
</style>
<g id="BACKGROUND">
	
		<linearGradient id="SVGID_1_" gradientUnits="userSpaceOnUse" x1="31.2167" y1="156" x2="804.3836" y2="156" gradientTransform="matrix(-1 0 0 1 804.3836 0)">
		<stop  offset="0" style="stop-color:#0F0D0E"/>
		<stop  offset="0.1665" style="stop-color:#100D12"/>
		<stop  offset="0.3429" style="stop-color:#130B1F"/>
		<stop  offset="0.5241" style="stop-color:#180934"/>
		<stop  offset="0.7085" style="stop-color:#1F0652"/>
		<stop  offset="0.8935" style="stop-color:#280378"/>
		<stop  offset="1" style="stop-color:#2E0091"/>
	</linearGradient>
	<rect class="st0" width="773.2" height="312"/>
</g>
<g id="OBJECTS">
	<g>
		<path class="st1" d="M378.4,50.8c-2.1,0-3.7-1.7-3.7-3.7c0-2.1,1.7-3.7,3.7-3.7c2.1,0,3.7,1.7,3.7,3.7
			C382.1,49.1,380.4,50.8,378.4,50.8z M378.4,44.8c-1.2,0-2.2,1-2.2,2.2c0,1.2,1,2.2,2.2,2.2c1.2,0,2.2-1,2.2-2.2
			C380.6,45.8,379.6,44.8,378.4,44.8z"/>
	</g>
	<g>
		<path class="st1" d="M80,287.6h-1.5v-48c0-11.4-9.3-20.7-20.7-20.7h-48v-1.5h48c12.2,0,22.2,9.9,22.2,22.2V287.6z"/>
	</g>
	<g>
		<path class="st1" d="M66.3,275.4H22.9l-0.8-0.8v-43.4l0.8-0.8h43.4l0.8,0.8v43.4L66.3,275.4z M23.6,273.9h41.9V232H23.6V273.9z"/>
	</g>
	<g>
		<rect x="54.5" y="255.9" class="st1" width="1.5" height="18.7"/>
	</g>
	<g>
		<rect x="33.2" y="231.2" class="st1" width="1.5" height="30.2"/>
	</g>
	<g>
		<rect x="43.8" y="244.4" class="st1" width="1.5" height="30.2"/>
	</g>
	<g>
		<rect x="47.6" y="240.7" class="st1" width="18.7" height="1.5"/>
	</g>
	<g>
		<rect x="22.9" y="263.7" class="st1" width="8" height="1.5"/>
	</g>
	<g>
		<rect x="22.9" y="252.2" class="st1" width="29.4" height="1.5"/>
	</g>
	<g>
		<path class="st1" d="M55.3,257c-2.2,0-4-1.8-4-4c0-2.2,1.8-4,4-4c2.2,0,4,1.8,4,4C59.3,255.2,57.5,257,55.3,257z M55.3,250.4
			c-1.4,0-2.5,1.1-2.5,2.5c0,1.4,1.1,2.5,2.5,2.5c1.4,0,2.5-1.1,2.5-2.5C57.8,251.5,56.7,250.4,55.3,250.4z"/>
	</g>
	<g>
		<path class="st1" d="M33.9,268.4c-2.2,0-4-1.8-4-4c0-2.2,1.8-4,4-4c2.2,0,4,1.8,4,4C37.9,266.6,36.1,268.4,33.9,268.4z
			 M33.9,261.9c-1.4,0-2.5,1.1-2.5,2.5c0,1.4,1.1,2.5,2.5,2.5c1.4,0,2.5-1.1,2.5-2.5C36.4,263,35.3,261.9,33.9,261.9z"/>
	</g>
	<g>
		<path class="st1" d="M44.6,245.5c-2.2,0-4-1.8-4-4c0-2.2,1.8-4,4-4c2.2,0,4,1.8,4,4C48.6,243.7,46.8,245.5,44.6,245.5z
			 M44.6,238.9c-1.4,0-2.5,1.1-2.5,2.5c0,1.4,1.1,2.5,2.5,2.5c1.4,0,2.5-1.1,2.5-2.5C47.1,240.1,46,238.9,44.6,238.9z"/>
	</g>
	<g>
		<path class="st1" d="M759.3,291.4c-2.1,0-3.7-1.7-3.7-3.7s1.7-3.7,3.7-3.7c2.1,0,3.7,1.7,3.7,3.7S761.3,291.4,759.3,291.4z
			 M759.3,285.4c-1.2,0-2.2,1-2.2,2.2c0,1.2,1,2.2,2.2,2.2c1.2,0,2.2-1,2.2-2.2C761.5,286.4,760.5,285.4,759.3,285.4z"/>
	</g>
	<g>
		<rect x="377.6" y="193.4" class="st1" width="1.5" height="95.2"/>
	</g>
	<g>
		<path class="st1" d="M378.4,194.4c-2.1,0-3.7-1.7-3.7-3.7c0-2.1,1.7-3.7,3.7-3.7c2.1,0,3.7,1.7,3.7,3.7
			C382.1,192.7,380.4,194.4,378.4,194.4z M378.4,188.5c-1.2,0-2.2,1-2.2,2.2s1,2.2,2.2,2.2c1.2,0,2.2-1,2.2-2.2
			S379.6,188.5,378.4,188.5z"/>
	</g>
	<g>
		<rect x="363.1" y="193.4" class="st1" width="1.5" height="95.2"/>
	</g>
	<g>
		<path class="st1" d="M363.9,194.4c-2.1,0-3.7-1.7-3.7-3.7c0-2.1,1.7-3.7,3.7-3.7c2.1,0,3.7,1.7,3.7,3.7
			C367.6,192.7,365.9,194.4,363.9,194.4z M363.9,188.5c-1.2,0-2.2,1-2.2,2.2s1,2.2,2.2,2.2c1.2,0,2.2-1,2.2-2.2
			S365.1,188.5,363.9,188.5z"/>
	</g>
	<g>
		<rect x="348.7" y="193.4" class="st1" width="1.5" height="95.2"/>
	</g>
	<g>
		<path class="st1" d="M349.4,194.4c-2.1,0-3.7-1.7-3.7-3.7c0-2.1,1.7-3.7,3.7-3.7c2.1,0,3.7,1.7,3.7,3.7
			C353.1,192.7,351.5,194.4,349.4,194.4z M349.4,188.5c-1.2,0-2.2,1-2.2,2.2s1,2.2,2.2,2.2s2.2-1,2.2-2.2S350.6,188.5,349.4,188.5z"
			/>
	</g>
	<g>
		<path class="st1" d="M76.3,149c-2.1,0-3.7-1.7-3.7-3.7c0-2.1,1.7-3.7,3.7-3.7c2.1,0,3.7,1.7,3.7,3.7C80,147.3,78.4,149,76.3,149z
			 M76.3,143.1c-1.2,0-2.2,1-2.2,2.2c0,1.2,1,2.2,2.2,2.2c1.2,0,2.2-1,2.2-2.2C78.5,144.1,77.5,143.1,76.3,143.1z"/>
	</g>
	<g>
		<rect x="10.3" y="159" class="st1" width="63.3" height="1.5"/>
	</g>
	<g>
		<path class="st1" d="M76.3,163.5c-2.1,0-3.7-1.7-3.7-3.7c0-2.1,1.7-3.7,3.7-3.7c2.1,0,3.7,1.7,3.7,3.7
			C80,161.8,78.4,163.5,76.3,163.5z M76.3,157.5c-1.2,0-2.2,1-2.2,2.2c0,1.2,1,2.2,2.2,2.2c1.2,0,2.2-1,2.2-2.2
			C78.5,158.5,77.5,157.5,76.3,157.5z"/>
	</g>
	<g>
		<rect x="10.3" y="173.5" class="st1" width="63.3" height="1.5"/>
	</g>
	<g>
		<path class="st1" d="M76.3,178c-2.1,0-3.7-1.7-3.7-3.7c0-2.1,1.7-3.7,3.7-3.7c2.1,0,3.7,1.7,3.7,3.7C80,176.3,78.4,178,76.3,178z
			 M76.3,172c-1.2,0-2.2,1-2.2,2.2c0,1.2,1,2.2,2.2,2.2c1.2,0,2.2-1,2.2-2.2C78.5,173,77.5,172,76.3,172z"/>
	</g>
	<g>
		<rect x="10.6" y="188" class="st1" width="63" height="1.5"/>
	</g>
	<g>
		<path class="st1" d="M76.3,192.4c-2.1,0-3.7-1.7-3.7-3.7c0-2.1,1.7-3.7,3.7-3.7c2.1,0,3.7,1.7,3.7,3.7
			C80,190.8,78.4,192.4,76.3,192.4z M76.3,186.5c-1.2,0-2.2,1-2.2,2.2c0,1.2,1,2.2,2.2,2.2c1.2,0,2.2-1,2.2-2.2
			C78.5,187.5,77.5,186.5,76.3,186.5z"/>
	</g>
	<g>
		<rect x="10.6" y="144.5" class="st1" width="63" height="1.5"/>
	</g>
	<g>
		<path class="st1" d="M30.8,72c-2.2,0-4-1.8-4-4c0-2.2,1.8-4,4-4c2.2,0,4,1.8,4,4C34.8,70.1,33,72,30.8,72z M30.8,65.4
			c-1.4,0-2.5,1.1-2.5,2.5c0,1.4,1.1,2.5,2.5,2.5c1.4,0,2.5-1.1,2.5-2.5C33.3,66.5,32.2,65.4,30.8,65.4z"/>
	</g>
	<g>
		<path class="st1" d="M30.8,89.6c-11.9,0-21.6-9.7-21.6-21.6c0-11.9,9.7-21.6,21.6-21.6c11.9,0,21.6,9.7,21.6,21.6
			C52.4,79.9,42.7,89.6,30.8,89.6z M30.8,47.8c-11.1,0-20.1,9-20.1,20.1c0,11.1,9,20.1,20.1,20.1s20.1-9,20.1-20.1
			C50.9,56.8,41.9,47.8,30.8,47.8z"/>
	</g>
	<g>
		<rect x="190.6" y="286.9" class="st1" width="565.8" height="1.5"/>
	</g>
	<g>
		<path class="st1" d="M107.7,293.4H27.3c-12.2,0-22.2-9.9-22.2-22.2V73.5c0-12.2,9.9-22.2,22.2-22.2h344.3v1.5H27.3
			c-11.4,0-20.7,9.3-20.7,20.7v197.7c0,11.4,9.3,20.7,20.7,20.7h80.4c11.4,0,20.7-9.3,20.7-20.7v-56.3h1.5v56.3
			C129.9,283.4,119.9,293.4,107.7,293.4z"/>
	</g>
	<g>
		<g>
			
				<linearGradient id="SVGID_00000102504041519507632560000003064582183704096156_" gradientUnits="userSpaceOnUse" x1="1694.5874" y1="381.464" x2="1882.0446" y2="92.0771" gradientTransform="matrix(-1 0 0 1 2055.0034 0)">
				<stop  offset="0" style="stop-color:#0F0D0E"/>
				<stop  offset="0.1927" style="stop-color:#100D12"/>
				<stop  offset="0.3659" style="stop-color:#120C1C"/>
				<stop  offset="0.5315" style="stop-color:#170A2F"/>
				<stop  offset="0.6925" style="stop-color:#1D0749"/>
				<stop  offset="0.8486" style="stop-color:#250469"/>
				<stop  offset="1" style="stop-color:#2E0091"/>
			</linearGradient>
			
				<ellipse style="fill:url(#SVGID_00000102504041519507632560000003064582183704096156_);" cx="212.2" cy="152.7" rx="97.8" ry="90.1"/>
			
				<linearGradient id="SVGID_00000134962628121271689740000015334787517252075910_" gradientUnits="userSpaceOnUse" x1="1739.5801" y1="408.159" x2="1927.1045" y2="118.6682" gradientTransform="matrix(-1 0 0 1 2055.0034 0)">
				<stop  offset="0" style="stop-color:#0F0D0E"/>
				<stop  offset="0.1927" style="stop-color:#100D12"/>
				<stop  offset="0.3659" style="stop-color:#120C1C"/>
				<stop  offset="0.5315" style="stop-color:#170A2F"/>
				<stop  offset="0.6925" style="stop-color:#1D0749"/>
				<stop  offset="0.8486" style="stop-color:#250469"/>
				<stop  offset="1" style="stop-color:#2E0091"/>
			</linearGradient>
			<polygon style="fill:url(#SVGID_00000134962628121271689740000015334787517252075910_);" points="258.3,312 158.4,312 
				180.6,207.9 280.4,207.9 			"/>
		</g>
		
			<linearGradient id="SVGID_00000013887776630551142230000001301005030794157466_" gradientUnits="userSpaceOnUse" x1="1789.5774" y1="246.9159" x2="1880.3302" y2="85.4665" gradientTransform="matrix(-1 0 0 1 2055.0034 0)">
			<stop  offset="0" style="stop-color:#7AFF73"/>
			<stop  offset="0.1422" style="stop-color:#79FB73;stop-opacity:0.8578"/>
			<stop  offset="0.27" style="stop-color:#76F175;stop-opacity:0.73"/>
			<stop  offset="0.3923" style="stop-color:#70DE77;stop-opacity:0.6077"/>
			<stop  offset="0.5112" style="stop-color:#69C47A;stop-opacity:0.4888"/>
			<stop  offset="0.6278" style="stop-color:#5FA37E;stop-opacity:0.3722"/>
			<stop  offset="0.7424" style="stop-color:#527A83;stop-opacity:0.2576"/>
			<stop  offset="0.8556" style="stop-color:#444A88;stop-opacity:0.1444"/>
			<stop  offset="0.9649" style="stop-color:#34138F;stop-opacity:3.505307e-02"/>
			<stop  offset="1" style="stop-color:#2E0091;stop-opacity:0"/>
		</linearGradient>
		<path style="fill:url(#SVGID_00000013887776630551142230000001301005030794157466_);" d="M119.1,105.5c12.5-20.7,33.2-37,57.4-45
			c14.3-4.8,29.7-6.7,44.9-5.6c51.9,3.7,93.8,41.7,98.8,89.3l12.1,70.3h-14.6v68.4h-38.9c-27.7,0-50.1-20.7-50.1-46.1v-1.3
			c0-11.6-10.2-21-22.8-21h-77.9C102.2,185.1,98.1,138.6,119.1,105.5z"/>
		<g>
			
				<linearGradient id="SVGID_00000146478323265664097060000002823502238384384651_" gradientUnits="userSpaceOnUse" x1="1831.1149" y1="85.6892" x2="1853.49" y2="209.0637" gradientTransform="matrix(-1 0 0 1 2055.0034 0)">
				<stop  offset="0" style="stop-color:#FF47E3"/>
				<stop  offset="0.1543" style="stop-color:#FB46E2;stop-opacity:0.9221"/>
				<stop  offset="0.2929" style="stop-color:#F142DD;stop-opacity:0.8522"/>
				<stop  offset="0.4256" style="stop-color:#DE3CD6;stop-opacity:0.7852"/>
				<stop  offset="0.5546" style="stop-color:#C433CC;stop-opacity:0.7201"/>
				<stop  offset="0.681" style="stop-color:#A328BF;stop-opacity:0.6563"/>
				<stop  offset="0.8053" style="stop-color:#7A1AAF;stop-opacity:0.5936"/>
				<stop  offset="0.9258" style="stop-color:#4B0A9C;stop-opacity:0.5328"/>
				<stop  offset="0.9908" style="stop-color:#2E0091;stop-opacity:0.5"/>
			</linearGradient>
			<path style="fill:url(#SVGID_00000146478323265664097060000002823502238384384651_);" d="M212.2,89.7c37.8,0,68.4,28.2,68.4,63
				h-68.1h-0.2v1l-12.9,60.9c-31.6-5.6-55.4-31.1-55.4-61.8C143.9,117.9,174.5,89.7,212.2,89.7z"/>
			<g>
				<path class="st6" d="M270.3,282.4h-1.4V152.6c0-28.8-25.4-52.3-56.7-52.3c-31.3,0-56.7,23.4-56.7,52.3c0,25,19.3,46.6,46,51.3
					l-0.3,1.3c-27.3-4.8-47.1-26.9-47.1-52.6c0-29.5,26.1-53.5,58.1-53.5c32,0,58.1,24,58.1,53.5V282.4z"/>
			</g>
		</g>
		<g>
			<g>
				<g>
					<path class="st6" d="M300.9,188.2h-12.4c-6.3,0-11.4-4.7-11.4-10.5c0-5.8,5.1-10.5,11.4-10.5h12.4c6.3,0,11.4,4.7,11.4,10.5
						C312.3,183.5,307.2,188.2,300.9,188.2z M288.4,168.5c-5.5,0-10,4.1-10,9.2c0,5.1,4.5,9.2,10,9.2h12.4c5.5,0,10-4.1,10-9.2
						c0-5.1-4.5-9.2-10-9.2H288.4z"/>
				</g>
			</g>
			<path class="st7" d="M289,182.7h11.3c3,0,5.4-2.2,5.4-5c0-2.8-2.4-5-5.4-5H289c-3,0-5.4,2.2-5.4,5
				C283.6,180.5,286,182.7,289,182.7z"/>
		</g>
		<g>
			<g>
				<g>
					<path class="st6" d="M317.7,245.5h-29.1c-6.3,0-11.4-4.7-11.4-10.5c0-5.8,5.1-10.5,11.4-10.5h29.1v1.3h-29.1
						c-5.5,0-10,4.1-10,9.2c0,5.1,4.5,9.2,10,9.2h29.1V245.5z"/>
				</g>
			</g>
			<g>
				<path class="st6" d="M317.7,240.6h-28.5c-3.4,0-6.1-2.5-6.1-5.6s2.7-5.6,6.1-5.6h28.5v1.3h-28.5c-2.6,0-4.7,1.9-4.7,4.3
					c0,2.4,2.1,4.3,4.7,4.3h28.5V240.6z"/>
			</g>
		</g>
		<g>
			<g>
				<g>
					<path class="st6" d="M206.6,238.8c-2.3,0-4.2-1.7-4.2-3.9c0-2.1,1.9-3.9,4.2-3.9c2.3,0,4.2,1.7,4.2,3.9
						C210.8,237.1,208.9,238.8,206.6,238.8z M206.6,232.4c-1.5,0-2.8,1.2-2.8,2.6c0,1.4,1.3,2.6,2.8,2.6c1.5,0,2.8-1.2,2.8-2.6
						C209.4,233.6,208.1,232.4,206.6,232.4z"/>
				</g>
				<g>
					<path class="st6" d="M206.6,256.1c-12.6,0-22.9-9.5-22.9-21.1c0-11.6,10.3-21.1,22.9-21.1s22.9,9.5,22.9,21.1
						C229.5,246.6,219.2,256.1,206.6,256.1z M206.6,215.1c-11.9,0-21.5,8.9-21.5,19.8c0,10.9,9.7,19.8,21.5,19.8s21.5-8.9,21.5-19.8
						C228.1,224,218.5,215.1,206.6,215.1z"/>
				</g>
			</g>
		</g>
	</g>
</g>
<g id="TEXTS">
	<text transform="matrix(0.7311 0 0 1 423.5371 119.6538)"><tspan x="0" y="0" class="st1 st8 st9">AI Enhances </tspan><tspan x="0" y="43.3" class="st1 st8 st9">Human Capabilities</tspan></text>
</g>
</svg>
