<?xml version="1.0" encoding="utf-8"?>
<!-- Generator: Adobe Illustrator 27.9.0, SVG Export Plug-In . SVG Version: 6.00 Build 0)  -->
<svg version="1.1" xmlns="http://www.w3.org/2000/svg" xmlns:xlink="http://www.w3.org/1999/xlink" x="0px" y="0px"
	 viewBox="0 0 820 312" style="enable-background:new 0 0 820 312;" xml:space="preserve">
<style type="text/css">
	.st0{fill:url(#SVGID_1_);}
	.st1{fill:#7AFF73;}
	.st2{fill:url(#SVGID_00000011737948083885724300000001314624606298859149_);}
	.st3{fill:url(#SVGID_00000137134054451227252850000004469253847603962043_);}
	.st4{fill:url(#SVGID_00000147214690513488166110000015848253628116626330_);}
	.st5{fill:url(#SVGID_00000114752781817905729150000006648613056746707628_);}
	.st6{fill:#FFFFFF;}
	.st7{fill:#0F0D0E;}
	.st8{font-family:'DMSans-Medium';}
	.st9{font-size:36.0641px;}
</style>
<g id="BACKGROUND">
	
		<linearGradient id="SVGID_1_" gradientUnits="userSpaceOnUse" x1="18.6129" y1="156" x2="838.6129" y2="156" gradientTransform="matrix(-1 0 0 1 838.6129 0)">
		<stop  offset="0" style="stop-color:#0F0D0E"/>
		<stop  offset="0.1665" style="stop-color:#100D12"/>
		<stop  offset="0.3429" style="stop-color:#130B1F"/>
		<stop  offset="0.5241" style="stop-color:#180934"/>
		<stop  offset="0.7085" style="stop-color:#1F0652"/>
		<stop  offset="0.8935" style="stop-color:#280378"/>
		<stop  offset="1" style="stop-color:#2E0091"/>
	</linearGradient>
	<rect class="st0" width="820" height="312"/>
</g>
<g id="OBJECTS">
	<g>
		<g>
			<path class="st1" d="M401.4,39.8c-2.1,0-3.7-1.7-3.7-3.7c0-2.1,1.7-3.7,3.7-3.7c2.1,0,3.7,1.7,3.7,3.7
				C405.1,38.1,403.4,39.8,401.4,39.8z M401.4,33.8c-1.2,0-2.2,1-2.2,2.2s1,2.2,2.2,2.2c1.2,0,2.2-1,2.2-2.2S402.6,33.8,401.4,33.8z
				"/>
		</g>
		<g>
			<path class="st1" d="M103,276.6h-1.5v-48c0-11.4-9.3-20.7-20.7-20.7h-48v-1.5h48c12.2,0,22.2,9.9,22.2,22.2V276.6z"/>
		</g>
		<g>
			<path class="st1" d="M89.3,264.4H45.9l-0.8-0.8v-43.4l0.8-0.8h43.4l0.8,0.8v43.4L89.3,264.4z M46.6,262.9h41.9V221H46.6V262.9z"
				/>
		</g>
		<g>
			<rect x="77.5" y="244.9" class="st1" width="1.5" height="18.7"/>
		</g>
		<g>
			<rect x="56.2" y="220.2" class="st1" width="1.5" height="30.2"/>
		</g>
		<g>
			<rect x="66.8" y="233.4" class="st1" width="1.5" height="30.2"/>
		</g>
		<g>
			<rect x="70.6" y="229.7" class="st1" width="18.7" height="1.5"/>
		</g>
		<g>
			<rect x="45.9" y="252.7" class="st1" width="8" height="1.5"/>
		</g>
		<g>
			<rect x="45.9" y="241.2" class="st1" width="29.4" height="1.5"/>
		</g>
		<g>
			<path class="st1" d="M78.3,246c-2.2,0-4-1.8-4-4c0-2.2,1.8-4,4-4c2.2,0,4,1.8,4,4C82.3,244.2,80.5,246,78.3,246z M78.3,239.4
				c-1.4,0-2.5,1.1-2.5,2.5c0,1.4,1.1,2.5,2.5,2.5c1.4,0,2.5-1.1,2.5-2.5C80.8,240.5,79.7,239.4,78.3,239.4z"/>
		</g>
		<g>
			<path class="st1" d="M56.9,257.4c-2.2,0-4-1.8-4-4c0-2.2,1.8-4,4-4c2.2,0,4,1.8,4,4C60.9,255.6,59.1,257.4,56.9,257.4z
				 M56.9,250.9c-1.4,0-2.5,1.1-2.5,2.5c0,1.4,1.1,2.5,2.5,2.5c1.4,0,2.5-1.1,2.5-2.5C59.4,252,58.3,250.9,56.9,250.9z"/>
		</g>
		<g>
			<path class="st1" d="M67.6,234.5c-2.2,0-4-1.8-4-4c0-2.2,1.8-4,4-4c2.2,0,4,1.8,4,4C71.6,232.7,69.8,234.5,67.6,234.5z
				 M67.6,227.9c-1.4,0-2.5,1.1-2.5,2.5c0,1.4,1.1,2.5,2.5,2.5c1.4,0,2.5-1.1,2.5-2.5C70.1,229.1,69,227.9,67.6,227.9z"/>
		</g>
		<g>
			<path class="st1" d="M782.3,280.4c-2.1,0-3.7-1.7-3.7-3.7c0-2.1,1.7-3.7,3.7-3.7c2.1,0,3.7,1.7,3.7,3.7
				C786,278.7,784.3,280.4,782.3,280.4z M782.3,274.4c-1.2,0-2.2,1-2.2,2.2c0,1.2,1,2.2,2.2,2.2c1.2,0,2.2-1,2.2-2.2
				C784.5,275.4,783.5,274.4,782.3,274.4z"/>
		</g>
		<g>
			<rect x="400.6" y="182.4" class="st1" width="1.5" height="95.2"/>
		</g>
		<g>
			<path class="st1" d="M401.4,183.4c-2.1,0-3.7-1.7-3.7-3.7c0-2.1,1.7-3.7,3.7-3.7c2.1,0,3.7,1.7,3.7,3.7
				C405.1,181.7,403.4,183.4,401.4,183.4z M401.4,177.5c-1.2,0-2.2,1-2.2,2.2s1,2.2,2.2,2.2c1.2,0,2.2-1,2.2-2.2
				S402.6,177.5,401.4,177.5z"/>
		</g>
		<g>
			<rect x="386.1" y="182.4" class="st1" width="1.5" height="95.2"/>
		</g>
		<g>
			<path class="st1" d="M386.9,183.4c-2.1,0-3.7-1.7-3.7-3.7c0-2.1,1.7-3.7,3.7-3.7c2.1,0,3.7,1.7,3.7,3.7
				C390.6,181.7,388.9,183.4,386.9,183.4z M386.9,177.5c-1.2,0-2.2,1-2.2,2.2s1,2.2,2.2,2.2s2.2-1,2.2-2.2S388.1,177.5,386.9,177.5z
				"/>
		</g>
		<g>
			<rect x="371.7" y="182.4" class="st1" width="1.5" height="95.2"/>
		</g>
		<g>
			<path class="st1" d="M372.4,183.4c-2.1,0-3.7-1.7-3.7-3.7c0-2.1,1.7-3.7,3.7-3.7c2.1,0,3.7,1.7,3.7,3.7
				C376.1,181.7,374.5,183.4,372.4,183.4z M372.4,177.5c-1.2,0-2.2,1-2.2,2.2s1,2.2,2.2,2.2s2.2-1,2.2-2.2S373.6,177.5,372.4,177.5z
				"/>
		</g>
		<g>
			<path class="st1" d="M99.3,138c-2.1,0-3.7-1.7-3.7-3.7c0-2.1,1.7-3.7,3.7-3.7c2.1,0,3.7,1.7,3.7,3.7
				C103,136.3,101.4,138,99.3,138z M99.3,132.1c-1.2,0-2.2,1-2.2,2.2c0,1.2,1,2.2,2.2,2.2c1.2,0,2.2-1,2.2-2.2
				C101.5,133.1,100.5,132.1,99.3,132.1z"/>
		</g>
		<g>
			<rect x="33.3" y="148" class="st1" width="63.3" height="1.5"/>
		</g>
		<g>
			<path class="st1" d="M99.3,152.5c-2.1,0-3.7-1.7-3.7-3.7c0-2.1,1.7-3.7,3.7-3.7c2.1,0,3.7,1.7,3.7,3.7
				C103,150.8,101.4,152.5,99.3,152.5z M99.3,146.5c-1.2,0-2.2,1-2.2,2.2s1,2.2,2.2,2.2c1.2,0,2.2-1,2.2-2.2S100.5,146.5,99.3,146.5
				z"/>
		</g>
		<g>
			<rect x="33.3" y="162.5" class="st1" width="63.3" height="1.5"/>
		</g>
		<g>
			<path class="st1" d="M99.3,167c-2.1,0-3.7-1.7-3.7-3.7c0-2.1,1.7-3.7,3.7-3.7c2.1,0,3.7,1.7,3.7,3.7
				C103,165.3,101.4,167,99.3,167z M99.3,161c-1.2,0-2.2,1-2.2,2.2c0,1.2,1,2.2,2.2,2.2c1.2,0,2.2-1,2.2-2.2
				C101.5,162,100.5,161,99.3,161z"/>
		</g>
		<g>
			<rect x="33.6" y="177" class="st1" width="63" height="1.5"/>
		</g>
		<g>
			<path class="st1" d="M99.3,181.4c-2.1,0-3.7-1.7-3.7-3.7c0-2.1,1.7-3.7,3.7-3.7c2.1,0,3.7,1.7,3.7,3.7
				C103,179.8,101.4,181.4,99.3,181.4z M99.3,175.5c-1.2,0-2.2,1-2.2,2.2c0,1.2,1,2.2,2.2,2.2c1.2,0,2.2-1,2.2-2.2
				C101.5,176.5,100.5,175.5,99.3,175.5z"/>
		</g>
		<g>
			<rect x="33.6" y="133.5" class="st1" width="63" height="1.5"/>
		</g>
		<g>
			<path class="st1" d="M53.8,61c-2.2,0-4-1.8-4-4c0-2.2,1.8-4,4-4c2.2,0,4,1.8,4,4C57.8,59.1,56,61,53.8,61z M53.8,54.4
				c-1.4,0-2.5,1.1-2.5,2.5c0,1.4,1.1,2.5,2.5,2.5c1.4,0,2.5-1.1,2.5-2.5C56.3,55.5,55.2,54.4,53.8,54.4z"/>
		</g>
		<g>
			<path class="st1" d="M53.8,78.6c-11.9,0-21.6-9.7-21.6-21.6c0-11.9,9.7-21.6,21.6-21.6c11.9,0,21.6,9.7,21.6,21.6
				C75.4,68.9,65.7,78.6,53.8,78.6z M53.8,36.8c-11.1,0-20.1,9-20.1,20.1c0,11.1,9,20.1,20.1,20.1s20.1-9,20.1-20.1
				C73.9,45.8,64.9,36.8,53.8,36.8z"/>
		</g>
		<g>
			<rect x="213.6" y="275.9" class="st1" width="565.8" height="1.5"/>
		</g>
		<g>
			<path class="st1" d="M134.7,277.4H54.3c-12.2,0-22.2-9.9-22.2-22.2V57.5c0-12.2,9.9-22.2,22.2-22.2h344.3v1.5H54.3
				c-11.4,0-20.7,9.3-20.7,20.7v197.7c0,11.4,9.3,20.7,20.7,20.7h80.4c11.4,0,20.7-9.3,20.7-20.7v-56.3h1.5v56.3
				C156.9,267.4,146.9,277.4,134.7,277.4z"/>
		</g>
	</g>
	<g>
		<g>
			
				<linearGradient id="SVGID_00000075869448151635334020000000334069925348262076_" gradientUnits="userSpaceOnUse" x1="1702.0903" y1="385.8799" x2="1914.0677" y2="58.6399" gradientTransform="matrix(-1 0 0 1 2089.2327 0)">
				<stop  offset="0" style="stop-color:#0F0D0E"/>
				<stop  offset="0.1927" style="stop-color:#100D12"/>
				<stop  offset="0.3659" style="stop-color:#120C1C"/>
				<stop  offset="0.5315" style="stop-color:#170A2F"/>
				<stop  offset="0.6925" style="stop-color:#1D0749"/>
				<stop  offset="0.8486" style="stop-color:#250469"/>
				<stop  offset="1" style="stop-color:#2E0091"/>
			</linearGradient>
			<circle style="fill:url(#SVGID_00000075869448151635334020000000334069925348262076_);" cx="219.6" cy="127.2" r="104.6"/>
			
				<linearGradient id="SVGID_00000003824498739542864640000015351142295332504729_" gradientUnits="userSpaceOnUse" x1="1753.4523" y1="419.1508" x2="1965.4298" y2="91.9108" gradientTransform="matrix(-1 0 0 1 2089.2327 0)">
				<stop  offset="0" style="stop-color:#0F0D0E"/>
				<stop  offset="0.1927" style="stop-color:#100D12"/>
				<stop  offset="0.3659" style="stop-color:#120C1C"/>
				<stop  offset="0.5315" style="stop-color:#170A2F"/>
				<stop  offset="0.6925" style="stop-color:#1D0749"/>
				<stop  offset="0.8486" style="stop-color:#250469"/>
				<stop  offset="1" style="stop-color:#2E0091"/>
			</linearGradient>
			<polygon style="fill:url(#SVGID_00000003824498739542864640000015351142295332504729_);" points="268.8,312 162.1,312 
				185.7,191.2 292.4,191.2 			"/>
		</g>
		
			<linearGradient id="SVGID_00000104675325965108239930000015065546420607184814_" gradientUnits="userSpaceOnUse" x1="1809.577" y1="233.7504" x2="1912.4308" y2="50.7733" gradientTransform="matrix(-1 0 0 1 2089.2327 0)">
			<stop  offset="0" style="stop-color:#7AFF73"/>
			<stop  offset="0.1422" style="stop-color:#79FB73;stop-opacity:0.8578"/>
			<stop  offset="0.27" style="stop-color:#76F175;stop-opacity:0.73"/>
			<stop  offset="0.3923" style="stop-color:#70DE77;stop-opacity:0.6077"/>
			<stop  offset="0.5112" style="stop-color:#69C47A;stop-opacity:0.4888"/>
			<stop  offset="0.6278" style="stop-color:#5FA37E;stop-opacity:0.3722"/>
			<stop  offset="0.7424" style="stop-color:#527A83;stop-opacity:0.2576"/>
			<stop  offset="0.8556" style="stop-color:#444A88;stop-opacity:0.1444"/>
			<stop  offset="0.9649" style="stop-color:#34138F;stop-opacity:3.505307e-02"/>
			<stop  offset="1" style="stop-color:#2E0091;stop-opacity:0"/>
		</linearGradient>
		<path style="fill:url(#SVGID_00000104675325965108239930000015065546420607184814_);" d="M120,72.4c13.3-24,35.5-43,61.4-52.2
			c15.3-5.6,31.8-7.7,48-6.5C284.9,18,329.7,62,335,117.3l12.9,81.6h-15.6v79.4h-41.6c-29.6,0-53.5-24-53.5-53.5v-1.5
			c0-13.5-10.9-24.4-24.4-24.4h-83.3C102,164.8,97.6,110.8,120,72.4z"/>
		<g>
			
				<linearGradient id="SVGID_00000087408367334481223540000004003637139468340374_" gradientUnits="userSpaceOnUse" x1="1856.2191" y1="49.6643" x2="1882.1027" y2="192.3839" gradientTransform="matrix(-1 0 0 1 2089.2327 0)">
				<stop  offset="0" style="stop-color:#FF47E3"/>
				<stop  offset="0.1543" style="stop-color:#FB46E2;stop-opacity:0.9221"/>
				<stop  offset="0.2929" style="stop-color:#F142DD;stop-opacity:0.8522"/>
				<stop  offset="0.4256" style="stop-color:#DE3CD6;stop-opacity:0.7852"/>
				<stop  offset="0.5546" style="stop-color:#C433CC;stop-opacity:0.7201"/>
				<stop  offset="0.681" style="stop-color:#A328BF;stop-opacity:0.6563"/>
				<stop  offset="0.8053" style="stop-color:#7A1AAF;stop-opacity:0.5936"/>
				<stop  offset="0.9258" style="stop-color:#4B0A9C;stop-opacity:0.5328"/>
				<stop  offset="0.9908" style="stop-color:#2E0091;stop-opacity:0.5"/>
			</linearGradient>
			<path style="fill:url(#SVGID_00000087408367334481223540000004003637139468340374_);" d="M219.6,54.1c40.4,0,73.1,32.7,73.1,73.1
				h-72.8h-0.2v1.2l-13.8,70.6c-33.7-6.5-59.2-36.1-59.2-71.8C146.5,86.8,179.2,54.1,219.6,54.1z"/>
			<g>
				<path class="st6" d="M281.7,277.6h-1.5V127c0-33.4-27.2-60.6-60.6-60.6c-33.4,0-60.6,27.2-60.6,60.6c0,29,20.7,54.1,49.1,59.5
					l-0.3,1.5c-29.2-5.6-50.4-31.2-50.4-61c0-34.3,27.9-62.1,62.1-62.1c34.3,0,62.1,27.9,62.1,62.1V277.6z"/>
			</g>
		</g>
		<g>
			<g>
				<g>
					<path class="st6" d="M314.3,168.4H301c-6.7,0-12.2-5.5-12.2-12.2c0-6.7,5.5-12.2,12.2-12.2h13.3c6.7,0,12.2,5.5,12.2,12.2
						C326.5,162.9,321.1,168.4,314.3,168.4z M301,145.5c-5.9,0-10.7,4.8-10.7,10.7c0,5.9,4.8,10.7,10.7,10.7h13.3
						c5.9,0,10.7-4.8,10.7-10.7c0-5.9-4.8-10.7-10.7-10.7H301z"/>
				</g>
			</g>
			<path class="st7" d="M301.6,162h12.1c3.2,0,5.8-2.6,5.8-5.8c0-3.2-2.6-5.8-5.8-5.8h-12.1c-3.2,0-5.8,2.6-5.8,5.8
				C295.8,159.4,298.4,162,301.6,162z"/>
		</g>
		<g>
			<g>
				<g>
					<path class="st6" d="M332.3,234.9h-31.1c-6.7,0-12.2-5.5-12.2-12.2c0-6.7,5.5-12.2,12.2-12.2h31.1v1.5h-31.1
						c-5.9,0-10.7,4.8-10.7,10.7c0,5.9,4.8,10.7,10.7,10.7h31.1V234.9z"/>
				</g>
			</g>
			<g>
				<path class="st6" d="M332.3,229.2h-30.5c-3.6,0-6.5-2.9-6.5-6.5s2.9-6.5,6.5-6.5h30.5v1.5h-30.5c-2.8,0-5,2.3-5,5
					c0,2.8,2.3,5,5,5h30.5V229.2z"/>
			</g>
		</g>
		<g>
			<g>
				<g>
					<path class="st6" d="M213.6,227.1c-2.5,0-4.5-2-4.5-4.5s2-4.5,4.5-4.5c2.5,0,4.5,2,4.5,4.5S216,227.1,213.6,227.1z
						 M213.6,219.7c-1.6,0-3,1.3-3,3c0,1.6,1.3,3,3,3c1.6,0,3-1.3,3-3C216.5,221,215.2,219.7,213.6,219.7z"/>
				</g>
				<g>
					<path class="st6" d="M213.6,247.1c-13.5,0-24.5-11-24.5-24.5c0-13.5,11-24.5,24.5-24.5s24.5,11,24.5,24.5
						C238.1,236.2,227.1,247.1,213.6,247.1z M213.6,199.6c-12.7,0-23,10.3-23,23c0,12.7,10.3,23,23,23s23-10.3,23-23
						C236.6,210,226.2,199.6,213.6,199.6z"/>
				</g>
			</g>
		</g>
	</g>
</g>
<g id="TEXTS">
	<text transform="matrix(1.1 0 0 1 423.5367 119.6538)"><tspan x="0" y="0" class="st1 st8 st9">AI Enhances </tspan><tspan x="0" y="43.3" class="st1 st8 st9">Human Capabilities</tspan></text>
</g>
</svg>
