<?xml version="1.0" encoding="utf-8"?>
<!-- Generator: Adobe Illustrator 27.9.0, SVG Export Plug-In . SVG Version: 6.00 Build 0)  -->
<svg version="1.1" xmlns="http://www.w3.org/2000/svg" xmlns:xlink="http://www.w3.org/1999/xlink" x="0px" y="0px"
	 viewBox="0 0 773.2 312" style="enable-background:new 0 0 773.2 312;" xml:space="preserve">
<style type="text/css">
	.st0{fill:url(#SVGID_1_);}
	.st1{fill:#7AFF73;}
	.st2{fill:url(#SVGID_00000080890478793282876590000007905771207888829100_);}
	.st3{fill:url(#SVGID_00000127755181067716712580000001983573219807212735_);}
	.st4{fill:url(#SVGID_00000137816688875676818020000001511452947969064616_);}
	.st5{fill:url(#SVGID_00000166676480403971668380000011113399493579692971_);}
	.st6{fill:#FFFFFF;}
	.st7{fill:#0F0D0E;}
	.st8{font-family:'DMSans-Medium';}
	.st9{font-size:36.0641px;}
</style>
<g id="BACKGROUND">
	
		<linearGradient id="SVGID_1_" gradientUnits="userSpaceOnUse" x1="31.2167" y1="156" x2="804.3836" y2="156" gradientTransform="matrix(-1 0 0 1 804.3836 0)">
		<stop  offset="0" style="stop-color:#0F0D0E"/>
		<stop  offset="0.1665" style="stop-color:#100D12"/>
		<stop  offset="0.3429" style="stop-color:#130B1F"/>
		<stop  offset="0.5241" style="stop-color:#180934"/>
		<stop  offset="0.7085" style="stop-color:#1F0652"/>
		<stop  offset="0.8935" style="stop-color:#280378"/>
		<stop  offset="1" style="stop-color:#2E0091"/>
	</linearGradient>
	<rect class="st0" width="773.2" height="312"/>
</g>
<g id="OBJECTS">
	<g>
		<g>
			<path class="st1" d="M401.4,39.8c-2.1,0-3.7-1.7-3.7-3.7c0-2.1,1.7-3.7,3.7-3.7c2.1,0,3.7,1.7,3.7,3.7
				C405.1,38.1,403.4,39.8,401.4,39.8z M401.4,33.8c-1.2,0-2.2,1-2.2,2.2c0,1.2,1,2.2,2.2,2.2c1.2,0,2.2-1,2.2-2.2
				C403.6,34.8,402.6,33.8,401.4,33.8z"/>
		</g>
		<g>
			<path class="st1" d="M103,276.6h-1.5v-48c0-11.4-9.3-20.7-20.7-20.7h-48v-1.5h48c12.2,0,22.2,9.9,22.2,22.2V276.6z"/>
		</g>
		<g>
			<path class="st1" d="M89.3,264.4H45.9l-0.8-0.8v-43.4l0.8-0.8h43.4l0.8,0.8v43.4L89.3,264.4z M46.6,262.9h41.9V221H46.6V262.9z"
				/>
		</g>
		<g>
			<rect x="77.5" y="244.9" class="st1" width="1.5" height="18.7"/>
		</g>
		<g>
			<rect x="56.2" y="220.2" class="st1" width="1.5" height="30.2"/>
		</g>
		<g>
			<rect x="66.8" y="233.4" class="st1" width="1.5" height="30.2"/>
		</g>
		<g>
			<rect x="70.6" y="229.7" class="st1" width="18.7" height="1.5"/>
		</g>
		<g>
			<rect x="45.9" y="252.7" class="st1" width="8" height="1.5"/>
		</g>
		<g>
			<rect x="45.9" y="241.2" class="st1" width="29.4" height="1.5"/>
		</g>
		<g>
			<path class="st1" d="M78.3,246c-2.2,0-4-1.8-4-4c0-2.2,1.8-4,4-4c2.2,0,4,1.8,4,4C82.3,244.2,80.5,246,78.3,246z M78.3,239.4
				c-1.4,0-2.5,1.1-2.5,2.5c0,1.4,1.1,2.5,2.5,2.5c1.4,0,2.5-1.1,2.5-2.5C80.8,240.5,79.7,239.4,78.3,239.4z"/>
		</g>
		<g>
			<path class="st1" d="M56.9,257.4c-2.2,0-4-1.8-4-4c0-2.2,1.8-4,4-4c2.2,0,4,1.8,4,4C60.9,255.6,59.1,257.4,56.9,257.4z
				 M56.9,250.9c-1.4,0-2.5,1.1-2.5,2.5c0,1.4,1.1,2.5,2.5,2.5c1.4,0,2.5-1.1,2.5-2.5C59.4,252,58.3,250.9,56.9,250.9z"/>
		</g>
		<g>
			<path class="st1" d="M67.6,234.5c-2.2,0-4-1.8-4-4c0-2.2,1.8-4,4-4c2.2,0,4,1.8,4,4C71.6,232.7,69.8,234.5,67.6,234.5z
				 M67.6,227.9c-1.4,0-2.5,1.1-2.5,2.5c0,1.4,1.1,2.5,2.5,2.5c1.4,0,2.5-1.1,2.5-2.5C70.1,229.1,69,227.9,67.6,227.9z"/>
		</g>
		<g>
			<path class="st1" d="M782.3,280.4c-2.1,0-3.7-1.7-3.7-3.7s1.7-3.7,3.7-3.7c2.1,0,3.7,1.7,3.7,3.7S784.3,280.4,782.3,280.4z
				 M782.3,274.4c-1.2,0-2.2,1-2.2,2.2c0,1.2,1,2.2,2.2,2.2c1.2,0,2.2-1,2.2-2.2C784.5,275.4,783.5,274.4,782.3,274.4z"/>
		</g>
		<g>
			<rect x="400.6" y="182.4" class="st1" width="1.5" height="95.2"/>
		</g>
		<g>
			<path class="st1" d="M401.4,183.4c-2.1,0-3.7-1.7-3.7-3.7c0-2.1,1.7-3.7,3.7-3.7c2.1,0,3.7,1.7,3.7,3.7
				C405.1,181.7,403.4,183.4,401.4,183.4z M401.4,177.5c-1.2,0-2.2,1-2.2,2.2s1,2.2,2.2,2.2c1.2,0,2.2-1,2.2-2.2
				S402.6,177.5,401.4,177.5z"/>
		</g>
		<g>
			<rect x="386.1" y="182.4" class="st1" width="1.5" height="95.2"/>
		</g>
		<g>
			<path class="st1" d="M386.9,183.4c-2.1,0-3.7-1.7-3.7-3.7c0-2.1,1.7-3.7,3.7-3.7c2.1,0,3.7,1.7,3.7,3.7
				C390.6,181.7,388.9,183.4,386.9,183.4z M386.9,177.5c-1.2,0-2.2,1-2.2,2.2s1,2.2,2.2,2.2c1.2,0,2.2-1,2.2-2.2
				S388.1,177.5,386.9,177.5z"/>
		</g>
		<g>
			<rect x="371.7" y="182.4" class="st1" width="1.5" height="95.2"/>
		</g>
		<g>
			<path class="st1" d="M372.4,183.4c-2.1,0-3.7-1.7-3.7-3.7c0-2.1,1.7-3.7,3.7-3.7c2.1,0,3.7,1.7,3.7,3.7
				C376.1,181.7,374.5,183.4,372.4,183.4z M372.4,177.5c-1.2,0-2.2,1-2.2,2.2s1,2.2,2.2,2.2s2.2-1,2.2-2.2S373.6,177.5,372.4,177.5z
				"/>
		</g>
		<g>
			<path class="st1" d="M99.3,138c-2.1,0-3.7-1.7-3.7-3.7c0-2.1,1.7-3.7,3.7-3.7c2.1,0,3.7,1.7,3.7,3.7
				C103,136.3,101.4,138,99.3,138z M99.3,132.1c-1.2,0-2.2,1-2.2,2.2c0,1.2,1,2.2,2.2,2.2c1.2,0,2.2-1,2.2-2.2
				C101.5,133.1,100.5,132.1,99.3,132.1z"/>
		</g>
		<g>
			<rect x="33.3" y="148" class="st1" width="63.3" height="1.5"/>
		</g>
		<g>
			<path class="st1" d="M99.3,152.5c-2.1,0-3.7-1.7-3.7-3.7c0-2.1,1.7-3.7,3.7-3.7c2.1,0,3.7,1.7,3.7,3.7
				C103,150.8,101.4,152.5,99.3,152.5z M99.3,146.5c-1.2,0-2.2,1-2.2,2.2c0,1.2,1,2.2,2.2,2.2c1.2,0,2.2-1,2.2-2.2
				C101.5,147.5,100.5,146.5,99.3,146.5z"/>
		</g>
		<g>
			<rect x="33.3" y="162.5" class="st1" width="63.3" height="1.5"/>
		</g>
		<g>
			<path class="st1" d="M99.3,167c-2.1,0-3.7-1.7-3.7-3.7c0-2.1,1.7-3.7,3.7-3.7c2.1,0,3.7,1.7,3.7,3.7
				C103,165.3,101.4,167,99.3,167z M99.3,161c-1.2,0-2.2,1-2.2,2.2c0,1.2,1,2.2,2.2,2.2c1.2,0,2.2-1,2.2-2.2
				C101.5,162,100.5,161,99.3,161z"/>
		</g>
		<g>
			<rect x="33.6" y="177" class="st1" width="63" height="1.5"/>
		</g>
		<g>
			<path class="st1" d="M99.3,181.4c-2.1,0-3.7-1.7-3.7-3.7c0-2.1,1.7-3.7,3.7-3.7c2.1,0,3.7,1.7,3.7,3.7
				C103,179.8,101.4,181.4,99.3,181.4z M99.3,175.5c-1.2,0-2.2,1-2.2,2.2c0,1.2,1,2.2,2.2,2.2c1.2,0,2.2-1,2.2-2.2
				C101.5,176.5,100.5,175.5,99.3,175.5z"/>
		</g>
		<g>
			<rect x="33.6" y="133.5" class="st1" width="63" height="1.5"/>
		</g>
		<g>
			<path class="st1" d="M53.8,61c-2.2,0-4-1.8-4-4c0-2.2,1.8-4,4-4c2.2,0,4,1.8,4,4C57.8,59.1,56,61,53.8,61z M53.8,54.4
				c-1.4,0-2.5,1.1-2.5,2.5c0,1.4,1.1,2.5,2.5,2.5c1.4,0,2.5-1.1,2.5-2.5C56.3,55.5,55.2,54.4,53.8,54.4z"/>
		</g>
		<g>
			<path class="st1" d="M53.8,78.6c-11.9,0-21.6-9.7-21.6-21.6c0-11.9,9.7-21.6,21.6-21.6c11.9,0,21.6,9.7,21.6,21.6
				C75.4,68.9,65.7,78.6,53.8,78.6z M53.8,36.8c-11.1,0-20.1,9-20.1,20.1c0,11.1,9,20.1,20.1,20.1s20.1-9,20.1-20.1
				C73.9,45.8,64.9,36.8,53.8,36.8z"/>
		</g>
		<g>
			<rect x="213.6" y="275.9" class="st1" width="565.8" height="1.5"/>
		</g>
		<g>
			<path class="st1" d="M134.7,277.4H54.3c-12.2,0-22.2-9.9-22.2-22.2V57.5c0-12.2,9.9-22.2,22.2-22.2h344.3v1.5H54.3
				c-11.4,0-20.7,9.3-20.7,20.7v197.7c0,11.4,9.3,20.7,20.7,20.7h80.4c11.4,0,20.7-9.3,20.7-20.7v-56.3h1.5v56.3
				C156.9,267.4,146.9,277.4,134.7,277.4z"/>
		</g>
	</g>
	<g>
		<g>
			
				<linearGradient id="SVGID_00000008867180229810348560000005650321585461151161_" gradientUnits="userSpaceOnUse" x1="1689.927" y1="381.2324" x2="1883.2794" y2="82.7447" gradientTransform="matrix(-1 0 0 1 2055.0034 0)">
				<stop  offset="0" style="stop-color:#0F0D0E"/>
				<stop  offset="0.1927" style="stop-color:#100D12"/>
				<stop  offset="0.3659" style="stop-color:#120C1C"/>
				<stop  offset="0.5315" style="stop-color:#170A2F"/>
				<stop  offset="0.6925" style="stop-color:#1D0749"/>
				<stop  offset="0.8486" style="stop-color:#250469"/>
				<stop  offset="1" style="stop-color:#2E0091"/>
			</linearGradient>
			
				<ellipse style="fill:url(#SVGID_00000008867180229810348560000005650321585461151161_);" cx="212.2" cy="145.3" rx="97.8" ry="94.3"/>
			
				<linearGradient id="SVGID_00000007396393589116067250000013485200031558752934_" gradientUnits="userSpaceOnUse" x1="1736.5631" y1="410.39" x2="1929.9803" y2="111.8021" gradientTransform="matrix(-1 0 0 1 2055.0034 0)">
				<stop  offset="0" style="stop-color:#0F0D0E"/>
				<stop  offset="0.1927" style="stop-color:#100D12"/>
				<stop  offset="0.3659" style="stop-color:#120C1C"/>
				<stop  offset="0.5315" style="stop-color:#170A2F"/>
				<stop  offset="0.6925" style="stop-color:#1D0749"/>
				<stop  offset="0.8486" style="stop-color:#250469"/>
				<stop  offset="1" style="stop-color:#2E0091"/>
			</linearGradient>
			<polygon style="fill:url(#SVGID_00000007396393589116067250000013485200031558752934_);" points="258.3,312 158.4,312 180.6,203 
				280.4,203 			"/>
		</g>
		
			<linearGradient id="SVGID_00000130609690698854538550000016198524880007671439_" gradientUnits="userSpaceOnUse" x1="1787.9299" y1="242.4829" x2="1881.6654" y2="75.7272" gradientTransform="matrix(-1 0 0 1 2055.0034 0)">
			<stop  offset="0" style="stop-color:#7AFF73"/>
			<stop  offset="0.1422" style="stop-color:#79FB73;stop-opacity:0.8578"/>
			<stop  offset="0.27" style="stop-color:#76F175;stop-opacity:0.73"/>
			<stop  offset="0.3923" style="stop-color:#70DE77;stop-opacity:0.6077"/>
			<stop  offset="0.5112" style="stop-color:#69C47A;stop-opacity:0.4888"/>
			<stop  offset="0.6278" style="stop-color:#5FA37E;stop-opacity:0.3722"/>
			<stop  offset="0.7424" style="stop-color:#527A83;stop-opacity:0.2576"/>
			<stop  offset="0.8556" style="stop-color:#444A88;stop-opacity:0.1444"/>
			<stop  offset="0.9649" style="stop-color:#34138F;stop-opacity:3.505307e-02"/>
			<stop  offset="1" style="stop-color:#2E0091;stop-opacity:0"/>
		</linearGradient>
		<path style="fill:url(#SVGID_00000130609690698854538550000016198524880007671439_);" d="M119.1,95.9
			c12.5-21.7,33.2-38.8,57.4-47.1c14.3-5,29.7-7,44.9-5.8c51.9,3.9,93.8,43.6,98.8,93.4l12.1,73.6h-14.6v71.6h-38.9
			c-27.7,0-50.1-21.6-50.1-48.3v-1.3c0-12.1-10.2-22-22.8-22h-77.9C102.2,179.2,98.1,130.5,119.1,95.9z"/>
		<g>
			
				<linearGradient id="SVGID_00000181792156881787028240000005143977392385908405_" gradientUnits="userSpaceOnUse" x1="1830.614" y1="75.2501" x2="1853.9938" y2="204.1642" gradientTransform="matrix(-1 0 0 1 2055.0034 0)">
				<stop  offset="0" style="stop-color:#FF47E3"/>
				<stop  offset="0.1543" style="stop-color:#FB46E2;stop-opacity:0.9221"/>
				<stop  offset="0.2929" style="stop-color:#F142DD;stop-opacity:0.8522"/>
				<stop  offset="0.4256" style="stop-color:#DE3CD6;stop-opacity:0.7852"/>
				<stop  offset="0.5546" style="stop-color:#C433CC;stop-opacity:0.7201"/>
				<stop  offset="0.681" style="stop-color:#A328BF;stop-opacity:0.6563"/>
				<stop  offset="0.8053" style="stop-color:#7A1AAF;stop-opacity:0.5936"/>
				<stop  offset="0.9258" style="stop-color:#4B0A9C;stop-opacity:0.5328"/>
				<stop  offset="0.9908" style="stop-color:#2E0091;stop-opacity:0.5"/>
			</linearGradient>
			<path style="fill:url(#SVGID_00000181792156881787028240000005143977392385908405_);" d="M212.2,79.3c37.8,0,68.4,29.5,68.4,65.9
				h-68.1h-0.2v1L199.3,210c-31.6-5.8-55.4-32.6-55.4-64.7C143.9,108.8,174.5,79.3,212.2,79.3z"/>
			<g>
				<path class="st6" d="M270.3,281h-1.4V145.1c0-30.2-25.4-54.7-56.7-54.7c-31.3,0-56.7,24.5-56.7,54.7c0,26.2,19.3,48.8,46,53.7
					l-0.3,1.3c-27.3-5-47.1-28.2-47.1-55c0-30.9,26.1-56,58.1-56c32,0,58.1,25.1,58.1,56V281z"/>
			</g>
		</g>
		<g>
			<g>
				<g>
					<path class="st6" d="M300.9,182.5h-12.4c-6.3,0-11.4-4.9-11.4-11c0-6.1,5.1-11,11.4-11h12.4c6.3,0,11.4,4.9,11.4,11
						C312.3,177.5,307.2,182.5,300.9,182.5z M288.4,161.8c-5.5,0-10,4.3-10,9.7c0,5.3,4.5,9.7,10,9.7h12.4c5.5,0,10-4.3,10-9.7
						c0-5.3-4.5-9.7-10-9.7H288.4z"/>
				</g>
			</g>
			<path class="st7" d="M289,176.7h11.3c3,0,5.4-2.3,5.4-5.2c0-2.9-2.4-5.2-5.4-5.2H289c-3,0-5.4,2.3-5.4,5.2
				C283.6,174.3,286,176.7,289,176.7z"/>
		</g>
		<g>
			<g>
				<g>
					<path class="st6" d="M317.7,242.4h-29.1c-6.3,0-11.4-4.9-11.4-11c0-6.1,5.1-11,11.4-11h29.1v1.4h-29.1c-5.5,0-10,4.3-10,9.7
						c0,5.3,4.5,9.7,10,9.7h29.1V242.4z"/>
				</g>
			</g>
			<g>
				<path class="st6" d="M317.7,237.3h-28.5c-3.4,0-6.1-2.6-6.1-5.9c0-3.3,2.7-5.9,6.1-5.9h28.5v1.4h-28.5c-2.6,0-4.7,2-4.7,4.5
					c0,2.5,2.1,4.5,4.7,4.5h28.5V237.3z"/>
			</g>
		</g>
		<g>
			<g>
				<g>
					<path class="st6" d="M206.6,235.4c-2.3,0-4.2-1.8-4.2-4c0-2.2,1.9-4,4.2-4c2.3,0,4.2,1.8,4.2,4
						C210.8,233.6,208.9,235.4,206.6,235.4z M206.6,228.7c-1.5,0-2.8,1.2-2.8,2.7c0,1.5,1.3,2.7,2.8,2.7c1.5,0,2.8-1.2,2.8-2.7
						C209.4,229.9,208.1,228.7,206.6,228.7z"/>
				</g>
				<g>
					<path class="st6" d="M206.6,253.5c-12.6,0-22.9-9.9-22.9-22.1c0-12.2,10.3-22.1,22.9-22.1s22.9,9.9,22.9,22.1
						C229.5,243.6,219.2,253.5,206.6,253.5z M206.6,210.6c-11.9,0-21.5,9.3-21.5,20.8c0,11.4,9.7,20.8,21.5,20.8s21.5-9.3,21.5-20.8
						C228.1,219.9,218.5,210.6,206.6,210.6z"/>
				</g>
			</g>
		</g>
	</g>
</g>
<g id="TEXTS">
	<text transform="matrix(0.7311 0 0 1 423.5371 119.6538)"><tspan x="0" y="0" class="st1 st8 st9">AI Enhances </tspan><tspan x="0" y="43.3" class="st1 st8 st9">Human Capabilities</tspan></text>
</g>
</svg>
