<?xml version="1.0" encoding="utf-8"?>
<!-- Generator: Adobe Illustrator 28.0.0, SVG Export Plug-In . SVG Version: 6.00 Build 0)  -->
<svg version="1.1" xmlns="http://www.w3.org/2000/svg" xmlns:xlink="http://www.w3.org/1999/xlink" x="0px" y="0px"
	 viewBox="0 0 500 500" style="enable-background:new 0 0 500 500;" xml:space="preserve">
<g id="Floor">
	<path style="fill:#F5F5F5;" d="M412.68,245.86c-90.43-52.21-236.58-52.21-326.43,0C-3.6,298.08-3.12,382.73,87.31,434.95
		c90.44,52.22,236.59,52.21,326.44,0C503.6,382.73,503.12,298.08,412.68,245.86z"/>
</g>
<g id="Shadows">
	<polygon style="fill:#E0E0E0;" points="450.49,283.82 389.85,248.8 339.6,278 400.25,313.01 	"/>
	<path style="fill:#E0E0E0;" d="M96.61,341.26l146.66,84.67c4.01,2.32,10.49,2.31,14.46,0l145.71-84.68
		c1.99-1.16,2.98-2.67,2.97-4.19c-0.01-1.52-1.01-3.03-3.02-4.19L256.74,248.2c-4.01-2.32-10.49-2.32-14.47,0L96.56,332.88
		c-1.99,1.16-2.98,2.67-2.97,4.19C93.6,338.58,94.6,340.1,96.61,341.26z"/>
	<path style="fill:#E0E0E0;" d="M380.43,409.94c-14.12-8.15-36.94-8.15-50.97,0c-14.03,8.15-13.96,21.37,0.17,29.53
		c14.12,8.15,36.94,8.15,50.97,0C394.63,431.31,394.55,418.09,380.43,409.94z"/>
	<path style="fill:#E0E0E0;" d="M163.47,403.81c-14.12-8.15-36.94-8.15-50.97,0c-14.03,8.15-13.96,21.37,0.17,29.53
		c14.12,8.15,36.94,8.15,50.97,0C177.67,425.18,177.59,411.96,163.47,403.81z"/>
</g>
<g id="Machine">
	<g>
		<g>
			<polygon style="fill:#455A64;" points="342.77,241.76 342.67,276.78 399.85,309.79 399.95,274.77 			"/>
			<polygon style="fill:#FFFFFF;" points="346.77,274.43 346.84,248.84 395.85,277.13 395.78,302.72 			"/>
			<polygon style="fill:#455A64;" points="346.77,274.43 346.84,248.84 395.85,277.13 395.78,302.72 			"/>
			<polygon style="opacity:0.1;fill:#FFFFFF;" points="346.77,274.43 346.84,248.84 395.85,277.13 395.78,302.72 			"/>
			<polygon style="fill:#455A64;" points="399.95,274.77 399.85,309.79 447.22,282.27 447.32,247.24 			"/>
			<polygon style="opacity:0.1;" points="399.95,274.77 399.85,309.79 447.22,282.27 447.32,247.24 			"/>
			<polygon style="opacity:0.1;fill:#FFFFFF;" points="399.95,274.77 399.85,309.79 447.22,282.27 447.32,247.24 			"/>
			<polygon style="fill:#455A64;" points="447.32,247.24 390.14,214.23 342.77,241.76 399.95,274.77 			"/>
			<polygon style="opacity:0.1;fill:#FFFFFF;" points="447.32,247.24 390.14,214.23 342.77,241.76 399.95,274.77 			"/>
			<g>
				<g>
					<polygon style="fill:#FFFFFF;" points="377.65,271.27 380.76,273.06 380.73,276.29 377.63,274.5 					"/>
				</g>
				<g>
					<polygon style="fill:#BA68C8;" points="380.73,276.29 380.71,290.1 377.6,288.31 377.63,274.5 					"/>
				</g>
				<g>
					<polygon style="fill:#BA68C8;" points="386.34,290.49 386.3,293.33 383.19,291.53 383.23,288.7 					"/>
				</g>
				<g>
					<polygon style="fill:#FFFFFF;" points="383.24,274.5 386.35,276.29 386.34,290.49 383.23,288.7 					"/>
				</g>
				<g>
					<polygon style="fill:#FFFFFF;" points="388.83,277.72 391.93,279.52 391.92,284.09 388.81,282.3 					"/>
				</g>
				<g>
					<polygon style="fill:#BA68C8;" points="391.92,284.09 391.89,296.55 388.78,294.76 388.81,282.3 					"/>
				</g>
			</g>
		</g>
		<g>
			<polygon style="fill:#455A64;" points="342.77,201.19 342.67,236.21 399.85,269.22 399.95,234.2 			"/>
			<polygon style="fill:#FFFFFF;" points="346.77,233.85 346.84,208.26 395.85,236.56 395.78,262.14 			"/>
			<polygon style="fill:#455A64;" points="346.77,233.85 346.84,208.26 395.85,236.56 395.78,262.14 			"/>
			<polygon style="opacity:0.1;fill:#FFFFFF;" points="346.77,233.85 346.84,208.26 395.85,236.56 395.78,262.14 			"/>
			<polygon style="fill:#455A64;" points="399.95,234.2 399.85,269.22 447.22,241.69 447.32,206.67 			"/>
			<polygon style="opacity:0.1;" points="399.95,234.2 399.85,269.22 447.22,241.69 447.32,206.67 			"/>
			<polygon style="opacity:0.1;fill:#FFFFFF;" points="399.95,234.2 399.85,269.22 447.22,241.69 447.32,206.67 			"/>
			<polygon style="fill:#455A64;" points="447.32,206.67 390.14,173.66 342.77,201.19 399.95,234.2 			"/>
			<polygon style="opacity:0.1;fill:#FFFFFF;" points="447.32,206.67 390.14,173.66 342.77,201.19 399.95,234.2 			"/>
			<g>
				<g>
					<polygon style="fill:#FFFFFF;" points="377.65,230.7 380.76,232.49 380.73,244.76 377.63,242.97 					"/>
				</g>
				<g>
					<polygon style="fill:#BA68C8;" points="380.73,244.76 380.71,249.53 377.6,247.73 377.63,242.97 					"/>
				</g>
				<g>
					<polygon style="fill:#BA68C8;" points="386.34,245.4 386.3,252.75 383.19,250.96 383.23,243.61 					"/>
				</g>
				<g>
					<polygon style="fill:#FFFFFF;" points="383.24,233.93 386.35,235.72 386.34,245.4 383.23,243.61 					"/>
				</g>
				<g>
					<polygon style="fill:#FFFFFF;" points="388.83,237.15 391.93,238.94 391.92,249.08 388.81,247.28 					"/>
				</g>
				<g>
					<polygon style="fill:#BA68C8;" points="391.92,249.08 391.89,255.98 388.78,254.19 388.81,247.28 					"/>
				</g>
			</g>
		</g>
		<g>
			<polygon style="fill:#455A64;" points="342.77,160.61 342.67,195.64 399.85,228.65 399.95,193.62 			"/>
			<polygon style="fill:#FFFFFF;" points="346.77,193.28 346.84,167.69 395.85,195.98 395.78,221.57 			"/>
			<polygon style="fill:#455A64;" points="346.77,193.28 346.84,167.69 395.85,195.98 395.78,221.57 			"/>
			<polygon style="opacity:0.1;fill:#FFFFFF;" points="346.77,193.28 346.84,167.69 395.85,195.98 395.78,221.57 			"/>
			<polygon style="fill:#455A64;" points="399.95,193.62 399.85,228.65 447.22,201.12 447.32,166.1 			"/>
			<polygon style="opacity:0.1;" points="399.95,193.62 399.85,228.65 447.22,201.12 447.32,166.1 			"/>
			<polygon style="opacity:0.1;fill:#FFFFFF;" points="399.95,193.62 399.85,228.65 447.22,201.12 447.32,166.1 			"/>
			<polygon style="fill:#455A64;" points="447.32,166.1 390.14,133.09 342.77,160.61 399.95,193.62 			"/>
			<polygon style="opacity:0.1;fill:#FFFFFF;" points="447.32,166.1 390.14,133.09 342.77,160.61 399.95,193.62 			"/>
			<g>
				<g>
					<polygon style="fill:#FFFFFF;" points="377.65,190.12 380.76,191.92 380.73,196.17 377.63,194.38 					"/>
				</g>
				<g>
					<polygon style="fill:#BA68C8;" points="380.73,196.17 380.71,208.95 377.6,207.16 377.63,194.38 					"/>
				</g>
				<g>
					<polygon style="fill:#BA68C8;" points="386.34,206.28 386.3,212.18 383.19,210.39 383.23,204.48 					"/>
				</g>
				<g>
					<polygon style="fill:#FFFFFF;" points="383.24,193.35 386.35,195.14 386.34,206.28 383.23,204.48 					"/>
				</g>
				<g>
					<polygon style="fill:#FFFFFF;" points="388.83,196.58 391.93,198.37 391.92,206.42 388.81,204.62 					"/>
				</g>
				<g>
					<polygon style="fill:#BA68C8;" points="391.92,206.42 391.89,215.41 388.78,213.61 388.81,204.62 					"/>
				</g>
			</g>
		</g>
		<g>
			<g>
				<polygon style="fill:#455A64;" points="342.77,120.04 342.67,155.06 399.85,188.07 399.95,153.05 				"/>
				<polygon style="fill:#FFFFFF;" points="346.77,152.7 346.84,127.12 395.85,155.41 395.78,181 				"/>
				<polygon style="fill:#455A64;" points="346.77,152.7 346.84,127.12 395.85,155.41 395.78,181 				"/>
				<polygon style="opacity:0.1;fill:#FFFFFF;" points="346.77,152.7 346.84,127.12 395.85,155.41 395.78,181 				"/>
				<polygon style="fill:#455A64;" points="399.95,153.05 399.85,188.07 447.22,160.54 447.32,125.52 				"/>
				<polygon style="opacity:0.1;" points="399.95,153.05 399.85,188.07 447.22,160.54 447.32,125.52 				"/>
				<polygon style="opacity:0.1;fill:#FFFFFF;" points="399.95,153.05 399.85,188.07 447.22,160.54 447.32,125.52 				"/>
				<polygon style="fill:#455A64;" points="447.32,125.52 390.14,92.51 342.77,120.04 399.95,153.05 				"/>
				<polygon style="opacity:0.1;fill:#FFFFFF;" points="447.32,125.52 390.14,92.51 342.77,120.04 399.95,153.05 				"/>
				<g>
					<g>
						<polygon style="fill:#FFFFFF;" points="377.65,149.55 380.76,151.34 380.73,159.86 377.63,158.06 						"/>
					</g>
					<g>
						<polygon style="fill:#BA68C8;" points="380.73,159.86 380.71,168.38 377.6,166.59 377.63,158.06 						"/>
					</g>
					<g>
						<polygon style="fill:#BA68C8;" points="386.34,158.01 386.3,171.61 383.19,169.81 383.23,156.21 						"/>
					</g>
					<g>
						<polygon style="fill:#FFFFFF;" points="383.24,152.78 386.35,154.57 386.34,158.01 383.23,156.21 						"/>
					</g>
					<g>
						<polygon style="fill:#FFFFFF;" points="388.83,156 391.93,157.8 391.92,163.76 388.81,161.97 						"/>
					</g>
					<g>
						<polygon style="fill:#BA68C8;" points="391.92,163.76 391.89,174.83 388.78,173.04 388.81,161.97 						"/>
					</g>
				</g>
			</g>
			<g>
				<path style="fill:#E0E0E0;" d="M361.74,155.16l0.1-0.06C361.81,155.12,361.77,155.14,361.74,155.16L361.74,155.16z"/>
				<g>
					<path style="fill:#E0E0E0;" d="M367.43,148.76c0.01-4.21-2.95-9.34-6.61-11.46c-1.82-1.05-3.47-1.16-4.67-0.49l0,0l-0.02,0.01
						c0,0-0.01,0-0.01,0.01l-3.44,1.99l0,0c1.2-0.67,2.85-0.56,4.67,0.49c3.67,2.12,6.63,7.24,6.61,11.46
						c-0.01,2.01-0.69,3.44-1.81,4.16l3.27-1.88c0.03-0.02,0.06-0.04,0.09-0.05l0.05-0.03l0,0
						C366.71,152.25,367.42,150.81,367.43,148.76z"/>
					<path style="opacity:0.2;" d="M367.43,148.76c0.01-4.21-2.95-9.34-6.61-11.46c-1.82-1.05-3.47-1.16-4.67-0.49l0,0l-0.02,0.01
						c0,0-0.01,0-0.01,0.01l-3.44,1.99l0,0c1.2-0.67,2.85-0.56,4.67,0.49c3.67,2.12,6.63,7.24,6.61,11.46
						c-0.01,2.01-0.69,3.44-1.81,4.16l3.27-1.88c0.03-0.02,0.06-0.04,0.09-0.05l0.05-0.03l0,0
						C366.71,152.25,367.42,150.81,367.43,148.76z"/>
					<path style="fill:#E0E0E0;" d="M363.96,150.77c0.01-4.21-2.95-9.34-6.61-11.46c-1.82-1.05-3.47-1.16-4.67-0.49
						c-1.22,0.68-1.98,2.16-1.98,4.28c-0.01,4.21,2.95,9.34,6.61,11.45c1.71,0.98,3.26,1.13,4.44,0.6c0.04-0.02,0.07-0.03,0.11-0.05
						c0.11-0.05,0.21-0.11,0.31-0.18C363.26,154.21,363.95,152.78,363.96,150.77z"/>
					<path style="opacity:0.1;" d="M363.96,150.77c0.01-4.21-2.95-9.34-6.61-11.46c-1.82-1.05-3.47-1.16-4.67-0.49
						c-1.22,0.68-1.98,2.16-1.98,4.28c-0.01,4.21,2.95,9.34,6.61,11.45c1.71,0.98,3.26,1.13,4.44,0.6c0.04-0.02,0.07-0.03,0.11-0.05
						c0.11-0.05,0.21-0.11,0.31-0.18C363.26,154.21,363.95,152.78,363.96,150.77z"/>
				</g>
				<g>
					<path style="fill:#E0E0E0;" d="M360.84,150.16c0.01-3-2.1-6.65-4.71-8.16c-1.3-0.75-2.47-0.82-3.33-0.35l0,0l-0.01,0.01
						c0,0,0,0-0.01,0l-2.45,1.42l0,0c0.86-0.48,2.03-0.4,3.33,0.35c2.61,1.51,4.72,5.16,4.71,8.16c0,1.43-0.49,2.45-1.29,2.96
						l2.33-1.34c0.02-0.01,0.04-0.03,0.07-0.04l0.04-0.02l0,0C360.33,152.64,360.83,151.61,360.84,150.16z"/>
					<path style="opacity:0.2;" d="M360.84,150.16c0.01-3-2.1-6.65-4.71-8.16c-1.3-0.75-2.47-0.82-3.33-0.35l0,0l-0.01,0.01
						c0,0,0,0-0.01,0l-2.45,1.42l0,0c0.86-0.48,2.03-0.4,3.33,0.35c2.61,1.51,4.72,5.16,4.71,8.16c0,1.43-0.49,2.45-1.29,2.96
						l2.33-1.34c0.02-0.01,0.04-0.03,0.07-0.04l0.04-0.02l0,0C360.33,152.64,360.83,151.61,360.84,150.16z"/>
					<path style="fill:#E0E0E0;" d="M358.37,151.58c0.01-3-2.1-6.65-4.71-8.16c-1.3-0.75-2.47-0.82-3.33-0.35
						c-0.87,0.48-1.41,1.54-1.41,3.05c-0.01,3,2.1,6.65,4.71,8.16c1.22,0.7,2.32,0.81,3.16,0.43c0.03-0.01,0.05-0.02,0.08-0.04
						c0.08-0.04,0.15-0.08,0.22-0.13C357.87,154.03,358.36,153.02,358.37,151.58z"/>
					<path style="opacity:0.1;" d="M358.37,151.58c0.01-3-2.1-6.65-4.71-8.16c-1.3-0.75-2.47-0.82-3.33-0.35
						c-0.87,0.48-1.41,1.54-1.41,3.05c-0.01,3,2.1,6.65,4.71,8.16c1.22,0.7,2.32,0.81,3.16,0.43c0.03-0.01,0.05-0.02,0.08-0.04
						c0.08-0.04,0.15-0.08,0.22-0.13C357.87,154.03,358.36,153.02,358.37,151.58z"/>
				</g>
			</g>
			<path style="fill:#F0F0F0;" d="M353.21,146.73c-0.5-0.29-0.95-0.32-1.28-0.13c-0.05,0.03-0.09,0.07-0.14,0.11l-0.06,0.04
				c-2.24,1.27-4.37,2.68-6.33,4.18c-5.06,3.87-10.55,7.02-14.77,9.34c-6.41,3.52-12.85,5.14-18.62,4.69
				c-6.6-0.51-12.5-3.92-15.39-8.88c-2.28-3.92-3.03-9.08-2.28-15.78c0.26-2.37,0.68-4.8,1.09-7.16c0.6-3.46,1.21-7.03,1.4-10.67
				c0.27-5.36-0.42-12.93-5.25-18.58c-2.7-3.15-6.42-5.34-10.48-6.16c-8.36-1.69-16.46,2.51-23.4,6.58l2.59,4.41
				c6.41-3.76,13.21-7.31,19.8-5.98c2.95,0.6,5.65,2.19,7.61,4.48c3.74,4.37,4.25,10.57,4.03,15c-0.17,3.33-0.73,6.6-1.33,10.06
				c-0.42,2.43-0.85,4.94-1.13,7.46c-0.87,7.83,0.09,14.02,2.94,18.92c3.72,6.4,11.17,10.77,19.42,11.41
				c0.76,0.06,1.52,0.09,2.29,0.09c6.13,0,12.71-1.85,19.18-5.4c4.38-2.4,10.08-5.68,15.41-9.76c1.78-1.36,3.72-2.64,5.75-3.8
				l0.2-0.11l0,0c0,0,0,0,0,0c0.03-0.01,0.06-0.03,0.08-0.05c0.31-0.2,0.5-0.59,0.5-1.14C355.03,148.72,354.22,147.31,353.21,146.73
				z"/>
			<g>
				<g>
					<path style="fill:#E0E0E0;" d="M265.46,103.06c-0.35-0.85-0.99-1.56-1.77-2.04c-0.39,0.19-0.78,0.39-1.17,0.59
						c0.88,0.3,1.64,0.97,1.99,1.84c0.39,0.94,0.3,2.06-0.23,2.92l0.07,0.04c0.42-0.22,0.84-0.44,1.25-0.65
						C265.84,104.88,265.81,103.92,265.46,103.06z"/>
					<path style="fill:#E0E0E0;" d="M272.81,100.26c-0.35-0.86-1-1.58-1.8-2.05c-0.45,0.12-0.89,0.25-1.33,0.38l-0.03,0.14
						c0.98,0.25,1.83,0.98,2.22,1.92c0.35,0.84,0.29,1.82-0.1,2.64c0.4-0.12,0.8-0.22,1.2-0.31
						C273.19,102.08,273.16,101.11,272.81,100.26z"/>
					<path style="fill:#E0E0E0;" d="M281.08,99.85c0.03-0.77-0.16-1.54-0.53-2.21c-0.47-0.08-0.94-0.15-1.41-0.19
						c0.59,0.63,0.95,1.49,0.91,2.36c-0.04,1.01-0.59,1.99-1.43,2.56l0.11,0.17c0.36,0.04,0.72,0.1,1.08,0.16
						C280.57,101.95,281.04,100.92,281.08,99.85z"/>
					<path style="fill:#E0E0E0;" d="M288.41,103.96c0.45-0.76,0.62-1.67,0.55-2.55c-0.4-0.31-0.81-0.61-1.23-0.89
						c0.39,0.93,0.31,2.05-0.2,2.92c-0.49,0.82-1.36,1.39-2.31,1.54c0.35,0.25,0.68,0.52,1.01,0.79
						C287.13,105.43,287.92,104.79,288.41,103.96z"/>
					<path style="fill:#E0E0E0;" d="M292.95,110.18c0.64-0.51,1.12-1.21,1.39-1.99c-0.24-0.5-0.5-0.99-0.79-1.47l-0.01,0
						c0.03,1.01-0.44,2.03-1.23,2.66c-0.77,0.61-1.83,0.83-2.79,0.6c0.19,0.36,0.36,0.73,0.52,1.1c0.07,0,0.15,0.01,0.22,0.01
						C291.23,111.1,292.19,110.77,292.95,110.18z"/>
					<path style="fill:#E0E0E0;" d="M294.61,117.56c0.77-0.22,1.47-0.66,2.01-1.25c-0.06-0.5-0.13-1-0.22-1.51
						c-0.4,0.85-1.16,1.53-2.06,1.78c-0.98,0.27-2.08,0.06-2.88-0.56l-0.03,0.04c0.06,0.41,0.12,0.81,0.16,1.22
						c0.59,0.28,1.24,0.44,1.9,0.44C293.86,117.71,294.24,117.66,294.61,117.56z"/>
					<path style="fill:#E0E0E0;" d="M294.45,125.36c0.77,0,1.52-0.23,2.18-0.62c0.04-0.45,0.07-0.89,0.11-1.34
						c-0.69,0.67-1.67,1.03-2.62,0.92c-1-0.11-1.94-0.72-2.45-1.59c-0.03,0.49-0.07,0.97-0.11,1.46c0.67,0.63,1.54,1.05,2.46,1.15
						C294.15,125.35,294.3,125.36,294.45,125.36z"/>
					<path style="fill:#E0E0E0;" d="M292.89,133.11c0.25,0.04,0.5,0.06,0.75,0.06c0.63,0,1.25-0.13,1.83-0.37
						c0.07-0.42,0.14-0.85,0.22-1.28c-0.76,0.5-1.71,0.73-2.63,0.57c-0.96-0.16-1.83-0.73-2.4-1.51c-0.07,0.43-0.15,0.87-0.22,1.31
						C291.12,132.52,291.98,132.95,292.89,133.11z"/>
					<path style="fill:#E0E0E0;" d="M291.68,141.34c0.25,0.04,0.5,0.06,0.76,0.06c0.63,0,1.25-0.13,1.83-0.37
						c0.02-0.25,0.03-0.48,0.06-0.73c0.02-0.16,0.05-0.32,0.07-0.48c-0.75,0.46-1.67,0.66-2.55,0.51c-0.99-0.17-1.89-0.78-2.47-1.6
						c-0.04,0.34-0.1,0.67-0.14,1.01c-0.01,0.13-0.02,0.25-0.03,0.38C289.9,140.74,290.76,141.18,291.68,141.34z"/>
					<path style="fill:#E0E0E0;" d="M291.62,149.24c0.94-0.01,1.86-0.31,2.63-0.83c-0.05-0.41-0.1-0.8-0.13-1.23
						c-0.67,0.63-1.57,1.03-2.51,1.03c-0.01,0-0.01,0-0.02,0c-0.95,0-1.89-0.4-2.58-1.05c0.03,0.46,0.06,0.92,0.11,1.37
						c0.75,0.45,1.61,0.7,2.47,0.7C291.6,149.24,291.61,149.24,291.62,149.24z"/>
					<path style="fill:#E0E0E0;" d="M293.86,156.98c0.94-0.28,1.77-0.86,2.37-1.62c-0.18-0.35-0.36-0.71-0.52-1.08
						c-0.46,0.81-1.23,1.45-2.14,1.72c-0.92,0.27-1.94,0.14-2.79-0.3c0.17,0.44,0.35,0.88,0.55,1.3c0.4,0.1,0.8,0.17,1.21,0.17
						C292.99,157.16,293.44,157.1,293.86,156.98z"/>
					<path style="fill:#E0E0E0;" d="M300.45,160.49c-0.31-0.25-0.61-0.51-0.9-0.78c-0.11,0.95-0.59,1.87-1.36,2.47
						c-0.74,0.58-1.71,0.84-2.65,0.77c0.34,0.34,0.7,0.67,1.07,0.99c0.8-0.13,1.58-0.45,2.21-0.95
						C299.62,162.36,300.19,161.46,300.45,160.49z"/>
					<path style="fill:#E0E0E0;" d="M306.14,166.88c0.56-0.87,0.8-1.93,0.72-2.95c-0.38-0.12-0.75-0.25-1.11-0.4
						c0.21,0.94,0.06,1.97-0.47,2.79c-0.51,0.8-1.35,1.37-2.27,1.6c0.46,0.2,0.92,0.38,1.39,0.55
						C305.1,168.1,305.71,167.55,306.14,166.88z"/>
					<path style="fill:#E0E0E0;" d="M314.61,167.41c-0.07-0.87-0.41-1.7-0.92-2.4c-0.5,0-0.99-0.01-1.48-0.05
						c0.77,0.62,1.29,1.54,1.38,2.53c0.08,0.92-0.22,1.87-0.78,2.61c0.36,0.01,0.72,0.04,1.08,0.04c0.04,0,0.08,0,0.12,0
						C314.47,169.31,314.7,168.35,314.61,167.41z"/>
					<path style="fill:#E0E0E0;" d="M323.82,166.51c-0.09-1.06-0.56-2.07-1.29-2.83c-0.39,0.12-0.78,0.24-1.17,0.34
						c0.8,0.61,1.35,1.56,1.44,2.58c0.08,0.87-0.18,1.77-0.68,2.49c0.45-0.11,0.89-0.21,1.34-0.34
						C323.75,168.04,323.89,167.27,323.82,166.51z"/>
					<path style="fill:#E0E0E0;" d="M331.14,162.93c-0.33-0.84-0.92-1.57-1.64-2.1c-0.36,0.18-0.71,0.38-1.07,0.55
						c0.79,0.4,1.43,1.09,1.76,1.92c0.37,0.94,0.31,2.03-0.11,2.95c0.43-0.2,0.86-0.41,1.29-0.63
						C331.55,164.73,331.48,163.78,331.14,162.93z"/>
					<path style="fill:#E0E0E0;" d="M338.54,159.2c-0.38-0.98-1.11-1.8-2-2.33c-0.36,0.22-0.71,0.43-1.06,0.64
						c0.94,0.36,1.74,1.11,2.12,2.07c0.32,0.82,0.33,1.75,0.05,2.59c0.39-0.23,0.79-0.46,1.19-0.7
						C338.91,160.7,338.82,159.91,338.54,159.2z"/>
					<path style="fill:#E0E0E0;" d="M345.69,154.34c-0.37-0.93-1.04-1.72-1.88-2.25c-0.31,0.22-0.62,0.44-0.93,0.66
						c0.83,0.4,1.52,1.1,1.86,1.96c0.39,0.99,0.31,2.16-0.18,3.1c0.46-0.32,0.93-0.64,1.39-0.97
						C346.08,156.01,346,155.13,345.69,154.34z"/>
					<path style="fill:#E0E0E0;" d="M351.45,150.27c-0.36-0.93-1.04-1.71-1.87-2.24c-0.33,0.21-0.67,0.42-1,0.63
						c0.85,0.39,1.56,1.1,1.91,1.98c0.38,0.95,0.31,2.06-0.13,2.98c0.44-0.3,0.89-0.6,1.34-0.9
						C351.84,151.9,351.76,151.04,351.45,150.27z"/>
				</g>
			</g>
		</g>
	</g>
</g>
<g id="Datas">
	<g>
		<g>
			<g>
				<polygon style="fill:#455A64;" points="65.43,274.14 65.44,277.89 127.07,242.31 127.06,238.56 				"/>
			</g>
			<g>
				<polygon style="fill:#455A64;" points="65.43,280.73 65.44,284.47 105.14,261.56 105.12,257.81 				"/>
			</g>
			<g style="opacity:0.3;">
				<polygon style="fill:#FFFFFF;" points="65.43,274.14 65.44,277.89 127.07,242.31 127.06,238.56 				"/>
			</g>
			<g style="opacity:0.3;">
				<polygon style="fill:#FFFFFF;" points="65.43,280.73 65.44,284.47 105.14,261.56 105.12,257.81 				"/>
			</g>
			<g>
				<path style="fill:#455A64;" d="M120.32,205.91c-0.58,0.33-1.15,0.81-1.68,1.45c-1.95,2.34-2.43,5.53-2.7,8.23
					c-0.38,3.79-0.75,7.57-1.12,11.36c-0.19,1.9-0.39,3.84-1.05,5.86c-0.67,2.01-1.91,4.16-3.46,5.34c-0.2,0.15-0.39,0.28-0.59,0.4
					c-1.45,0.84-2.86,0.69-3.84-0.01c-1.12-0.8-1.79-2.22-2.52-3.54c-0.89-1.59-1.89-3.1-3.38-3.83c-1.28-0.63-2.98-0.6-4.7,0.39
					c-0.28,0.16-0.56,0.35-0.84,0.57c-3.19,2.45-5.08,7.27-6.54,11.44c-1.46,4.17-3.42,9.01-6.63,11.35
					c-0.22,0.16-0.44,0.31-0.66,0.43c-2.44,1.41-4.69,0.74-6.31-0.51c-1.77-1.35-3.19-3.34-5.4-3.89c-0.99-0.25-2.23-0.08-3.45,0.49
					l0.05,18.22l76.51-44.17l-0.09-30.29c-1.47,2.58-2.54,5.37-3.01,8c-0.66,3.64-0.5,7.61-2.96,10.82
					c-0.65,0.85-1.4,1.49-2.16,1.93c-1.09,0.63-2.21,0.84-3.1,0.61c-1.51-0.39-2.47-1.81-3.1-3.47c-0.84-2.21-1.22-4.94-2.57-6.59
					C123.98,205.24,122.12,204.87,120.32,205.91z"/>
			</g>
			<g style="opacity:0.5;">
				<path style="fill:#FFFFFF;" d="M120.32,205.91c-0.58,0.33-1.15,0.81-1.68,1.45c-1.95,2.34-2.43,5.53-2.7,8.23
					c-0.38,3.79-0.75,7.57-1.12,11.36c-0.19,1.9-0.39,3.84-1.05,5.86c-0.67,2.01-1.91,4.16-3.46,5.34c-0.2,0.15-0.39,0.28-0.59,0.4
					c-1.45,0.84-2.86,0.69-3.84-0.01c-1.12-0.8-1.79-2.22-2.52-3.54c-0.89-1.59-1.89-3.1-3.38-3.83c-1.28-0.63-2.98-0.6-4.7,0.39
					c-0.28,0.16-0.56,0.35-0.84,0.57c-3.19,2.45-5.08,7.27-6.54,11.44c-1.46,4.17-3.42,9.01-6.63,11.35
					c-0.22,0.16-0.44,0.31-0.66,0.43c-2.44,1.41-4.69,0.74-6.31-0.51c-1.77-1.35-3.19-3.34-5.4-3.89c-0.99-0.25-2.23-0.08-3.45,0.49
					l0.05,18.22l76.51-44.17l-0.09-30.29c-1.47,2.58-2.54,5.37-3.01,8c-0.66,3.64-0.5,7.61-2.96,10.82
					c-0.65,0.85-1.4,1.49-2.16,1.93c-1.09,0.63-2.21,0.84-3.1,0.61c-1.51-0.39-2.47-1.81-3.1-3.47c-0.84-2.21-1.22-4.94-2.57-6.59
					C123.98,205.24,122.12,204.87,120.32,205.91z"/>
			</g>
		</g>
		<g>
			<g>
				<path style="fill:#455A64;" d="M68.29,155.59l69.16-39.93c0.7-0.4,1.33-0.46,1.81-0.24v-0.01l0.06,0.03
					c0.04,0.02,0.07,0.04,0.11,0.06l2.79,1.61c-0.49-0.26-1.15-0.22-1.89,0.21l-69.16,39.93c-1.5,0.87-2.72,2.97-2.71,4.7
					l0.05,18.65c0,0.85,0.3,1.45,0.79,1.74l0,0l-2.85-1.65c-0.01,0-0.02-0.01-0.02-0.01l-0.03-0.02l0,0
					c-0.47-0.29-0.76-0.88-0.76-1.72l-0.05-18.65C65.57,158.56,66.78,156.45,68.29,155.59z"/>
				<path style="fill:#455A64;" d="M68.5,180.6l-0.05-18.65c0-1.73,1.21-3.83,2.71-4.7l69.16-39.93c0.73-0.42,1.4-0.47,1.89-0.21
					c0.02,0.01,0.04,0.02,0.07,0.04c0.02,0.01,0.03,0.02,0.04,0.03c0.45,0.3,0.73,0.88,0.73,1.69l0.05,18.65
					c0,1.73-1.21,3.83-2.71,4.7l-69.16,39.93c-0.76,0.44-1.45,0.48-1.94,0.18C68.81,182.05,68.5,181.45,68.5,180.6z"/>
				<path style="opacity:0.3;fill:#FFFFFF;" d="M68.29,155.59l69.16-39.93c0.7-0.4,1.33-0.46,1.81-0.24v-0.01l0.06,0.03
					c0.04,0.02,0.07,0.04,0.11,0.06l2.79,1.61c-0.49-0.26-1.15-0.22-1.89,0.21l-69.16,39.93c-1.05,0.61-1.95,1.82-2.4,3.08
					l-2.88-1.64C66.32,157.42,67.23,156.2,68.29,155.59z"/>
				<path style="opacity:0.2;" d="M68.76,160.33c-0.19,0.54-0.31,1.1-0.31,1.62l0.05,18.65c0,0.85,0.3,1.45,0.79,1.74l0,0
					l-2.85-1.65c-0.01,0-0.02-0.01-0.02-0.01l-0.03-0.02l0,0c-0.47-0.29-0.76-0.88-0.76-1.72l-0.05-18.65c0-0.51,0.12-1.06,0.3-1.6
					L68.76,160.33z"/>
			</g>
			<path style="opacity:0.3;fill:#FFFFFF;" d="M143.05,118.88c0-0.82-0.28-1.39-0.73-1.69c-0.02-0.01-0.03-0.03-0.04-0.03
				c-0.02-0.01-0.04-0.03-0.07-0.04l-2.79-1.61c-0.03-0.02-0.07-0.04-0.11-0.06l-0.06-0.03v0.01c-0.48-0.22-1.11-0.17-1.81,0.24
				l-69.16,39.93c-0.24,0.14-0.47,0.32-0.69,0.51c-0.05,0.05-0.1,0.1-0.16,0.15c-0.2,0.19-0.38,0.39-0.56,0.61
				c-0.01,0.02-0.03,0.03-0.04,0.05c-0.41,0.54-0.74,1.15-0.97,1.78c0,0,0,0,0,0c0,0,0,0,0,0c-0.09,0.25-0.16,0.51-0.21,0.76
				c0,0.02-0.01,0.04-0.01,0.06c-0.05,0.26-0.08,0.52-0.08,0.77l0.05,18.65c0,0.84,0.3,1.43,0.76,1.72l0,0l0.03,0.02
				c0.01,0,0.02,0.01,0.02,0.01l2.85,1.65l0,0c0.5,0.29,1.18,0.25,1.94-0.18l69.16-39.93c1.5-0.87,2.71-2.97,2.71-4.7L143.05,118.88
				z"/>
			<g>
				<g>
					<polygon style="fill:#FFFFFF;" points="74.32,172.86 74.33,175.94 93.91,164.63 93.9,161.55 					"/>
				</g>
				<g>
					<polygon style="fill:#FFFFFF;" points="74.31,166.37 74.32,169.45 96.35,156.73 96.34,153.65 					"/>
				</g>
				<g>
					<polygon style="fill:#FFFFFF;" points="74.31,159.98 74.32,163.06 84.11,157.4 84.1,154.32 					"/>
				</g>
				<g>
					<path style="fill:#FFFFFF;" d="M128.68,135.08c-0.6,0.35-1.09,1.19-1.09,1.88l0.01,2.08c0,0.69,0.49,0.97,1.1,0.62l1.81-1.05
						c0.6-0.35,1.09-1.19,1.08-1.88l-0.01-2.08c0-0.69-0.49-0.97-1.09-0.62L128.68,135.08z"/>
				</g>
				<g>
					<path style="fill:#455A64;" d="M129.56,127.11c-0.09,0.05-0.18,0.12-0.27,0.17l0.01,2.5c0.09-0.06,0.18-0.12,0.27-0.17
						c3.48-2.01,6.31-0.39,6.32,3.6c0,1.65-0.48,3.44-1.28,5.13l1.86,0.24c1-2.19,1.61-4.5,1.6-6.63
						C138.05,126.58,134.24,124.41,129.56,127.11z"/>
				</g>
				<g>
					<path style="fill:#455A64;" d="M110.7,138c-0.09,0.05-0.18,0.12-0.27,0.17l0.01,2.5c0.09-0.06,0.18-0.12,0.27-0.17
						c3.48-2.01,6.31-0.39,6.32,3.6c0,1.65-0.48,3.44-1.28,5.13l1.86,0.24c1.01-2.19,1.61-4.5,1.6-6.63
						C119.2,137.47,115.38,135.3,110.7,138z"/>
				</g>
				<g style="opacity:0.3;">
					<path style="fill:#FFFFFF;" d="M129.56,127.11c-0.09,0.05-0.18,0.12-0.27,0.17l0.01,2.5c0.09-0.06,0.18-0.12,0.27-0.17
						c3.48-2.01,6.31-0.39,6.32,3.6c0,1.65-0.48,3.44-1.28,5.13l1.86,0.24c1-2.19,1.61-4.5,1.6-6.63
						C138.05,126.58,134.24,124.41,129.56,127.11z"/>
				</g>
				<g>
					<path style="fill:#FFFFFF;" d="M129.29,127.28c-4.55,2.8-8.2,9.2-8.18,14.47c0.02,5.37,3.83,7.55,8.51,4.85
						c2.82-1.63,5.32-4.68,6.85-8.01l-1.86-0.24c-1.15,2.4-2.96,4.57-5,5.75c-3.48,2.01-6.31,0.39-6.32-3.6
						c-0.01-3.89,2.66-8.61,6.01-10.71L129.29,127.28z"/>
				</g>
				<g style="opacity:0.3;">
					<path style="fill:#FFFFFF;" d="M110.7,138c-0.09,0.05-0.18,0.12-0.27,0.17l0.01,2.5c0.09-0.06,0.18-0.12,0.27-0.17
						c3.48-2.01,6.31-0.39,6.32,3.6c0,1.65-0.48,3.44-1.28,5.13l1.86,0.24c1.01-2.19,1.61-4.5,1.6-6.63
						C119.2,137.47,115.38,135.3,110.7,138z"/>
				</g>
				<g style="enable-background:new    ;">
					<g>
						<path style="fill:#FFFFFF;" d="M109.82,145.97c-0.6,0.35-1.09,1.18-1.08,1.88l0.01,2.08c0,0.69,0.49,0.97,1.09,0.63l1.81-1.05
							c0.6-0.35,1.09-1.19,1.09-1.88l-0.01-2.08c0-0.69-0.49-0.97-1.1-0.62L109.82,145.97z"/>
					</g>
					<g>
						<path style="fill:#FFFFFF;" d="M110.43,138.17c-4.55,2.79-8.19,9.2-8.18,14.46c0.02,5.37,3.83,7.55,8.5,4.85
							c2.82-1.63,5.32-4.68,6.85-8.01l-1.86-0.24c-1.15,2.4-2.96,4.57-5,5.75c-3.48,2.01-6.31,0.39-6.32-3.6
							c-0.01-3.89,2.66-8.61,6.01-10.71L110.43,138.17z"/>
					</g>
				</g>
			</g>
		</g>
		<g>
			<g>
				<path style="fill:#455A64;" d="M67.4,196.87c-1.05,0.6-1.89,2.06-1.88,3.26l0.01,3.61c0,1.19,0.85,1.68,1.89,1.08l3.14-1.81
					c1.04-0.6,1.88-2.06,1.88-3.26l-0.01-3.61c0-1.2-0.85-1.68-1.89-1.08L67.4,196.87z"/>
			</g>
			<g>
				<path style="fill:#455A64;" d="M67.43,207.04c-1.05,0.6-1.89,2.06-1.88,3.25l0.01,3.62c0,1.19,0.85,1.68,1.89,1.07l3.14-1.81
					c1.04-0.6,1.88-2.06,1.88-3.25l-0.01-3.62c0-1.19-0.85-1.68-1.89-1.08L67.43,207.04z"/>
			</g>
			<g>
				<path style="fill:#455A64;" d="M67.45,217.21c-1.05,0.6-1.89,2.06-1.88,3.25l0.01,3.61c0,1.2,0.85,1.68,1.89,1.08l3.14-1.81
					c1.04-0.6,1.88-2.06,1.88-3.26l-0.01-3.61c0-1.19-0.85-1.68-1.89-1.08L67.45,217.21z"/>
			</g>
			<g style="enable-background:new    ;">
				<g>
					<polygon style="fill:#455A64;" points="75.17,215.26 75.18,218.86 119.32,193.37 119.31,189.77 					"/>
				</g>
				<g>
					<polygon style="fill:#455A64;" points="75.18,205.08 75.19,208.68 141.9,170.16 141.89,166.57 					"/>
				</g>
				<g>
					<polygon style="fill:#455A64;" points="75.18,195.1 75.19,198.69 134.92,164.01 134.91,160.42 					"/>
				</g>
			</g>
		</g>
		<g style="opacity:0.3;">
			<g>
				<path style="fill:#FFFFFF;" d="M67.4,196.87c-1.05,0.6-1.89,2.06-1.88,3.26l0.01,3.61c0,1.19,0.85,1.68,1.89,1.08l3.14-1.81
					c1.04-0.6,1.88-2.06,1.88-3.26l-0.01-3.61c0-1.2-0.85-1.68-1.89-1.08L67.4,196.87z"/>
			</g>
			<g>
				<path style="fill:#FFFFFF;" d="M67.43,207.04c-1.05,0.6-1.89,2.06-1.88,3.25l0.01,3.62c0,1.19,0.85,1.68,1.89,1.07l3.14-1.81
					c1.04-0.6,1.88-2.06,1.88-3.25l-0.01-3.62c0-1.19-0.85-1.68-1.89-1.08L67.43,207.04z"/>
			</g>
			<g>
				<path style="fill:#FFFFFF;" d="M67.45,217.21c-1.05,0.6-1.89,2.06-1.88,3.25l0.01,3.61c0,1.2,0.85,1.68,1.89,1.08l3.14-1.81
					c1.04-0.6,1.88-2.06,1.88-3.26l-0.01-3.61c0-1.19-0.85-1.68-1.89-1.08L67.45,217.21z"/>
			</g>
			<g style="enable-background:new    ;">
				<g>
					<polygon style="fill:#FFFFFF;" points="75.17,215.26 75.18,218.86 119.32,193.37 119.31,189.77 					"/>
				</g>
				<g>
					<polygon style="fill:#FFFFFF;" points="75.18,205.08 75.19,208.68 141.9,170.16 141.89,166.57 					"/>
				</g>
				<g>
					<polygon style="fill:#FFFFFF;" points="75.18,195.1 75.19,198.69 134.92,164.01 134.91,160.42 					"/>
				</g>
			</g>
		</g>
	</g>
</g>
<g id="Robot">
	<g>
		<g>
			<path style="fill:#BA68C8;" d="M403.44,313.39l-145.71,84.68c-3.98,2.31-10.45,2.32-14.46,0L96.61,313.39
				c-2-1.16-3.01-2.67-3.02-4.19v23.05c0.01,1.52,1.02,3.04,3.02,4.19l146.66,84.67c4.01,2.32,10.49,2.31,14.46,0l145.71-84.68
				c1.99-1.16,2.98-2.67,2.97-4.19h0v0V309.2C406.42,310.72,405.43,312.23,403.44,313.39z"/>
			<path style="fill:#BA68C8;" d="M96.61,313.39l146.66,84.67c4.01,2.32,10.49,2.31,14.46,0l145.71-84.68
				c1.99-1.16,2.98-2.67,2.97-4.19c-0.01-1.52-1.01-3.03-3.02-4.19l-146.66-84.67c-4.01-2.32-10.49-2.32-14.47,0L96.56,305.01
				c-1.99,1.16-2.98,2.67-2.97,4.19C93.6,310.72,94.6,312.24,96.61,313.39z"/>
			<polygon style="fill:#BA68C8;" points="361.13,316.96 249.59,252.56 138.86,316.91 250.4,381.31 			"/>
			<polygon style="opacity:0.4;" points="361.13,316.96 249.59,252.56 138.86,316.91 250.4,381.31 			"/>
			<polygon style="fill:#BA68C8;" points="125.51,309.2 138.86,316.91 249.59,252.56 249.59,237.09 			"/>
			<polygon style="fill:#BA68C8;" points="249.59,237.09 249.59,252.56 361.13,316.96 374.48,309.2 			"/>
			<polygon style="opacity:0.2;" points="125.51,309.2 138.86,316.91 249.59,252.56 249.59,237.09 			"/>
			<polygon style="opacity:0.1;" points="249.59,237.09 249.59,252.56 361.13,316.96 374.48,309.2 			"/>
			<path style="opacity:0.1;" d="M243.27,398.07L96.61,313.39c-2-1.16-3.01-2.67-3.02-4.19v23.05c0.01,1.52,1.02,3.04,3.02,4.19
				l146.66,84.67c1.98,1.14,4.56,1.72,7.14,1.73V399.8C247.82,399.78,245.24,399.21,243.27,398.07z"/>
			<path style="opacity:0.2;" d="M403.44,313.39l-145.71,84.68c-2.02,1.17-4.67,1.75-7.33,1.73v23.05c2.65,0.02,5.31-0.56,7.33-1.73
				l145.71-84.68c1.99-1.16,2.98-2.67,2.97-4.19h0v0V309.2C406.42,310.72,405.43,312.23,403.44,313.39z"/>
		</g>
		<g>
			<polygon style="opacity:0.08;fill:#BA68C8;" points="250.02,109.68 125.13,181.78 125.13,156.3 250.02,84.2 			"/>
			<polygon style="opacity:0.15;fill:#BA68C8;" points="250.02,160.65 125.13,232.75 125.13,207.27 250.02,135.16 			"/>
			<polygon style="opacity:0.1;fill:#BA68C8;" points="250.02,135.16 125.13,207.27 125.13,181.78 250.02,109.68 			"/>
			<polygon style="opacity:0.2;fill:#BA68C8;" points="250.02,186.13 125.13,258.23 125.13,232.75 250.02,160.65 			"/>
			<polygon style="opacity:0.25;fill:#BA68C8;" points="250.02,211.61 125.13,283.72 125.13,258.23 250.02,186.13 			"/>
			<polygon style="opacity:0.3;fill:#BA68C8;" points="250.02,237.1 125.13,309.2 125.13,283.72 250.02,211.61 			"/>
			<polygon style="opacity:0.06;fill:#BA68C8;" points="250.02,84.2 125.13,156.3 125.13,130.82 250.02,58.71 			"/>
			<polygon style="opacity:0.02;fill:#BA68C8;" points="250.02,12.09 250.02,33.23 125.13,105.33 125.13,84.2 			"/>
			<polygon style="opacity:0.03;fill:#BA68C8;" points="250.02,58.71 125.13,130.82 125.13,105.33 250.02,33.23 			"/>
		</g>
		<g>
			<polygon style="opacity:0.08;fill:#BA68C8;" points="249.59,109.68 374.48,181.78 374.48,156.3 249.59,84.2 			"/>
			<polygon style="opacity:0.15;fill:#BA68C8;" points="249.59,160.65 374.48,232.75 374.48,207.27 249.59,135.16 			"/>
			<polygon style="opacity:0.1;fill:#BA68C8;" points="249.59,135.16 374.48,207.27 374.48,181.78 249.59,109.68 			"/>
			<polygon style="opacity:0.2;fill:#BA68C8;" points="249.59,186.13 374.48,258.23 374.48,232.75 249.59,160.65 			"/>
			<polygon style="opacity:0.25;fill:#BA68C8;" points="249.59,211.61 374.48,283.72 374.48,258.23 249.59,186.13 			"/>
			<polygon style="opacity:0.3;fill:#BA68C8;" points="249.59,237.1 374.48,309.2 374.48,283.72 249.59,211.61 			"/>
			<polygon style="opacity:0.06;fill:#BA68C8;" points="249.59,84.2 374.48,156.3 374.48,130.82 249.59,58.71 			"/>
			<polygon style="opacity:0.02;fill:#BA68C8;" points="249.59,12.09 249.59,33.23 374.48,105.33 374.48,84.2 			"/>
			<polygon style="opacity:0.03;fill:#BA68C8;" points="249.59,58.71 374.48,130.82 374.48,105.33 249.59,33.23 			"/>
		</g>
		<g style="opacity:0.5;">
			<g>
				<g>
					<g>
						<polygon style="fill:#BA68C8;" points="280.87,212.93 283.14,214.24 283.3,158.32 281.03,157.01 						"/>
						<polygon style="fill:#BA68C8;" points="280.84,222.74 283.11,224.05 283.12,219.04 280.86,217.73 						"/>
						<polygon style="fill:#BA68C8;" points="277.84,216.19 280.1,217.5 280.12,212.49 277.85,211.18 						"/>
						<polygon style="fill:#BA68C8;" points="286.71,226.12 288.97,227.43 288.99,222.42 286.72,221.12 						"/>
						<polygon style="fill:#BA68C8;" points="286.88,165.81 286.86,170.81 289.13,172.12 289.15,167.12 						"/>
						<polygon style="fill:#BA68C8;" points="283.83,207.93 286.09,209.24 286.18,177.65 283.91,176.34 						"/>
						<polygon style="fill:#BA68C8;" points="277.87,204.5 280.14,205.8 280.23,174.21 277.96,172.9 						"/>
						<polygon style="fill:#BA68C8;" points="286.81,188.35 289.08,189.66 289.11,179.34 286.84,178.03 						"/>
						<polygon style="fill:#BA68C8;" points="286.75,209.63 289.02,210.93 289.07,195.14 286.8,193.83 						"/>
					</g>
					<g>
						<polygon style="fill:#BA68C8;" points="189.52,155.67 189.5,160.68 191.77,161.99 191.78,156.98 						"/>
						<polygon style="fill:#BA68C8;" points="180.61,155.55 182.88,156.86 182.89,151.85 180.63,150.54 						"/>
						<polygon style="fill:#BA68C8;" points="180.64,145.28 182.91,146.59 182.94,135 180.67,133.69 						"/>
						<polygon style="fill:#BA68C8;" points="189.48,170.89 191.74,172.2 191.76,167.2 189.49,165.89 						"/>
						<polygon style="fill:#BA68C8;" points="183.55,190.06 185.81,191.37 185.95,141.97 183.69,140.66 						"/>
						<polygon style="fill:#BA68C8;" points="183.43,229.89 185.7,231.2 185.79,198.14 183.53,196.83 						"/>
						<polygon style="fill:#BA68C8;" points="186.48,191.75 188.74,193.06 188.81,170.51 186.54,169.2 						"/>
						<polygon style="fill:#BA68C8;" points="186.42,211.89 188.68,213.2 188.73,198.44 186.46,197.13 						"/>
						<polygon style="fill:#BA68C8;" points="180.47,205.24 182.74,206.55 182.85,168.7 180.58,167.39 						"/>
						<polygon style="fill:#BA68C8;" points="189.33,221.38 191.6,222.69 191.65,205.81 189.38,204.5 						"/>
						<polygon style="fill:#BA68C8;" points="189.41,192.96 191.68,194.26 191.71,184.56 189.44,183.25 						"/>
					</g>
					<g>
						<polygon style="fill:#BA68C8;" points="316.02,233.48 316.01,238.49 318.27,239.8 318.29,234.79 						"/>
						<polygon style="fill:#BA68C8;" points="306.88,315.47 309.15,316.78 309.16,311.77 306.9,310.47 						"/>
						<polygon style="fill:#BA68C8;" points="315.98,249.28 318.24,250.59 318.26,245.59 315.99,244.28 						"/>
						<polygon style="fill:#BA68C8;" points="309.94,306.49 312.2,307.8 312.44,224.56 310.17,223.25 						"/>
						<polygon style="fill:#BA68C8;" points="312.9,296.18 315.17,297.49 315.32,243.89 313.05,242.58 						"/>
						<polygon style="fill:#BA68C8;" points="307.05,254.97 309.32,256.28 309.35,246.22 307.08,244.91 						"/>
						<polygon style="fill:#BA68C8;" points="306.99,277.59 309.25,278.9 309.3,262.02 307.04,260.71 						"/>
						<polygon style="fill:#BA68C8;" points="306.93,298.63 309.2,299.94 309.24,283.06 306.98,281.75 						"/>
						<polygon style="fill:#BA68C8;" points="315.85,293.65 318.12,294.96 318.16,278.08 315.9,276.77 						"/>
						<polygon style="fill:#BA68C8;" points="315.93,265.84 318.19,267.15 318.22,257.04 315.96,255.73 						"/>
					</g>
					<g>
						<polygon style="fill:#BA68C8;" points="211.91,98.4 211.89,103.4 214.16,104.71 214.17,99.71 						"/>
						<polygon style="fill:#BA68C8;" points="202.87,145.16 205.14,146.47 205.15,141.46 202.89,140.15 						"/>
						<polygon style="fill:#BA68C8;" points="202.84,156.09 205.11,157.39 205.12,152.39 202.86,151.08 						"/>
						<polygon style="fill:#BA68C8;" points="205.91,141.89 208.17,143.2 208.3,97.08 206.04,95.77 						"/>
						<polygon style="fill:#BA68C8;" points="208.89,126.56 211.16,127.86 211.22,106.16 208.95,104.86 						"/>
						<polygon style="fill:#BA68C8;" points="208.83,149.48 211.09,150.79 211.14,133.54 208.88,132.23 						"/>
						<polygon style="fill:#BA68C8;" points="202.98,106.45 205.25,107.76 205.28,97.7 203.01,96.39 						"/>
						<polygon style="fill:#BA68C8;" points="202.92,128.14 205.19,129.45 205.22,119.4 202.95,118.09 						"/>
						<polygon style="fill:#BA68C8;" points="211.71,166.79 213.98,168.1 214.05,141.31 211.79,140 						"/>
						<polygon style="fill:#BA68C8;" points="211.81,133.92 214.07,135.23 214.13,113.65 211.87,112.34 						"/>
					</g>
				</g>
			</g>
			<g style="opacity:0.8;">
				<g>
					<g>
						<polygon style="fill:#FFFFFF;" points="280.87,212.93 283.14,214.24 283.3,158.32 281.03,157.01 						"/>
						<polygon style="fill:#FFFFFF;" points="280.84,222.74 283.11,224.05 283.12,219.04 280.86,217.73 						"/>
						<polygon style="fill:#FFFFFF;" points="277.84,216.19 280.1,217.5 280.12,212.49 277.85,211.18 						"/>
						<polygon style="fill:#FFFFFF;" points="286.71,226.12 288.97,227.43 288.99,222.42 286.72,221.12 						"/>
						<polygon style="fill:#FFFFFF;" points="286.88,165.81 286.86,170.81 289.13,172.12 289.15,167.12 						"/>
						<polygon style="fill:#FFFFFF;" points="283.83,207.93 286.09,209.24 286.18,177.65 283.91,176.34 						"/>
						<polygon style="fill:#FFFFFF;" points="277.87,204.5 280.14,205.8 280.23,174.21 277.96,172.9 						"/>
						<polygon style="fill:#FFFFFF;" points="286.81,188.35 289.08,189.66 289.11,179.34 286.84,178.03 						"/>
						<polygon style="fill:#FFFFFF;" points="286.75,209.63 289.02,210.93 289.07,195.14 286.8,193.83 						"/>
					</g>
					<g>
						<polygon style="fill:#FFFFFF;" points="189.52,155.67 189.5,160.68 191.77,161.99 191.78,156.98 						"/>
						<polygon style="fill:#FFFFFF;" points="180.61,155.55 182.88,156.86 182.89,151.85 180.63,150.54 						"/>
						<polygon style="fill:#FFFFFF;" points="180.64,145.28 182.91,146.59 182.94,135 180.67,133.69 						"/>
						<polygon style="fill:#FFFFFF;" points="189.48,170.89 191.74,172.2 191.76,167.2 189.49,165.89 						"/>
						<polygon style="fill:#FFFFFF;" points="183.55,190.06 185.81,191.37 185.95,141.97 183.69,140.66 						"/>
						<polygon style="fill:#FFFFFF;" points="183.43,229.89 185.7,231.2 185.79,198.14 183.53,196.83 						"/>
						<polygon style="fill:#FFFFFF;" points="186.48,191.75 188.74,193.06 188.81,170.51 186.54,169.2 						"/>
						<polygon style="fill:#FFFFFF;" points="186.42,211.89 188.68,213.2 188.73,198.44 186.46,197.13 						"/>
						<polygon style="fill:#FFFFFF;" points="180.47,205.24 182.74,206.55 182.85,168.7 180.58,167.39 						"/>
						<polygon style="fill:#FFFFFF;" points="189.33,221.38 191.6,222.69 191.65,205.81 189.38,204.5 						"/>
						<polygon style="fill:#FFFFFF;" points="189.41,192.96 191.68,194.26 191.71,184.56 189.44,183.25 						"/>
					</g>
					<g>
						<polygon style="fill:#FFFFFF;" points="316.02,233.48 316.01,238.49 318.27,239.8 318.29,234.79 						"/>
						<polygon style="fill:#FFFFFF;" points="306.88,315.47 309.15,316.78 309.16,311.77 306.9,310.47 						"/>
						<polygon style="fill:#FFFFFF;" points="315.98,249.28 318.24,250.59 318.26,245.59 315.99,244.28 						"/>
						<polygon style="fill:#FFFFFF;" points="309.94,306.49 312.2,307.8 312.44,224.56 310.17,223.25 						"/>
						<polygon style="fill:#FFFFFF;" points="312.9,296.18 315.17,297.49 315.32,243.89 313.05,242.58 						"/>
						<polygon style="fill:#FFFFFF;" points="307.05,254.97 309.32,256.28 309.35,246.22 307.08,244.91 						"/>
						<polygon style="fill:#FFFFFF;" points="306.99,277.59 309.25,278.9 309.3,262.02 307.04,260.71 						"/>
						<polygon style="fill:#FFFFFF;" points="306.93,298.63 309.2,299.94 309.24,283.06 306.98,281.75 						"/>
						<polygon style="fill:#FFFFFF;" points="315.85,293.65 318.12,294.96 318.16,278.08 315.9,276.77 						"/>
						<polygon style="fill:#FFFFFF;" points="315.93,265.84 318.19,267.15 318.22,257.04 315.96,255.73 						"/>
					</g>
					<g>
						<polygon style="fill:#FFFFFF;" points="211.91,98.4 211.89,103.4 214.16,104.71 214.17,99.71 						"/>
						<polygon style="fill:#FFFFFF;" points="202.87,145.16 205.14,146.47 205.15,141.46 202.89,140.15 						"/>
						<polygon style="fill:#FFFFFF;" points="202.84,156.09 205.11,157.39 205.12,152.39 202.86,151.08 						"/>
						<polygon style="fill:#FFFFFF;" points="205.91,141.89 208.17,143.2 208.3,97.08 206.04,95.77 						"/>
						<polygon style="fill:#FFFFFF;" points="208.89,126.56 211.16,127.86 211.22,106.16 208.95,104.86 						"/>
						<polygon style="fill:#FFFFFF;" points="208.83,149.48 211.09,150.79 211.14,133.54 208.88,132.23 						"/>
						<polygon style="fill:#FFFFFF;" points="202.98,106.45 205.25,107.76 205.28,97.7 203.01,96.39 						"/>
						<polygon style="fill:#FFFFFF;" points="202.92,128.14 205.19,129.45 205.22,119.4 202.95,118.09 						"/>
						<polygon style="fill:#FFFFFF;" points="211.71,166.79 213.98,168.1 214.05,141.31 211.79,140 						"/>
						<polygon style="fill:#FFFFFF;" points="211.81,133.92 214.07,135.23 214.13,113.65 211.87,112.34 						"/>
					</g>
				</g>
			</g>
		</g>
		<g>
			<g>
				<g>
					<path style="fill:#455A64;" d="M262.36,111.13l-0.09,1.44c-0.15,2.47-0.94,4.86-2.29,6.94l0,0c-1.51,2.33-2.32,5.05-2.32,7.84
						v2.61c0,1.46-0.6,2.88-1.69,3.85c-6.68,5.96-14.98,3.19-9.68-1.99c0.42-0.41,0.67-0.98,0.67-1.57v-3.82l11.72-15.3H262.36z"/>
					<path style="fill:#455A64;" d="M260.98,113.66L260.98,113.66c-2.5,0.43-4.52,2.3-5.15,4.76l-1.27,4.98
						c-0.44,1.73-1.87,3.04-3.63,3.33l-5.85,0.95c-2.05,0.33-4.09-0.78-4.85-2.72c-4.68-12.02-2.41-23.58,8.48-24.94
						c10.66-1.33,13.66,7.29,13.65,11.98C262.37,112.82,261.79,113.52,260.98,113.66z"/>
				</g>
				<g>
					<path style="fill:#BA68C8;" d="M249.38,113.48c-0.03,0.51-0.46,0.91-0.97,0.88c-0.51-0.03-0.9-0.47-0.87-0.98
						c0.03-0.51,0.46-0.91,0.97-0.88C249.02,112.52,249.4,112.96,249.38,113.48z"/>
					<path style="fill:#BA68C8;" d="M241.69,112.76c-0.03,0.51-0.46,0.91-0.97,0.88c-0.51-0.03-0.9-0.47-0.87-0.98
						c0.03-0.51,0.46-0.91,0.97-0.88C241.32,111.8,241.71,112.24,241.69,112.76z"/>
				</g>
			</g>
			<g>
				<path style="fill:#455A64;" d="M255.6,178.03l-10.79-5.77l-12.46,1.07v6.01l-0.44,15.23c0.01,1.76,1.17,3.52,3.5,4.86
					c4.64,2.68,12.14,2.68,16.75,0c2.31-1.34,3.45-3.1,3.44-4.85h0V178.03z"/>
				<path style="fill:#BA68C8;" d="M232.15,186.38c-1.91-0.99-3.21-2.9-3.9-4.94c-0.69-2.04-0.84-4.21-0.96-6.36
					c-0.26-4.79-0.37-9.64,0.47-14.36c0.56-3.16,1.58-6.28,3.16-9.05c1.46-2.57,3.98-4.35,6.87-4.98c11.09-2.41,21.12,0.68,27,4.77
					c1.9,1.32,3.05,3.46,3.16,5.76c0.72,16.26-7.26,25.62-11.97,30.06c-5.02,4.74-9.73-0.47-11.53-4.84
					c-1.8-4.37-4.17-7.73-7.63-7.73c-3.45,0-4.46,4.63-4.46,4.63L232.15,186.38z"/>
				<path style="opacity:0.6;fill:#FFFFFF;" d="M232.15,186.38c-1.91-0.99-3.21-2.9-3.9-4.94c-0.69-2.04-0.84-4.21-0.96-6.36
					c-0.26-4.79-0.37-9.64,0.47-14.36c0.56-3.16,1.58-6.28,3.16-9.05c1.46-2.57,3.98-4.35,6.87-4.98c11.09-2.41,21.12,0.68,27,4.77
					c1.9,1.32,3.05,3.46,3.16,5.76c0.72,16.26-7.26,25.62-11.97,30.06c-5.02,4.74-9.73-0.47-11.53-4.84
					c-1.8-4.37-4.17-7.73-7.63-7.73c-3.45,0-4.46,4.63-4.46,4.63L232.15,186.38z"/>
				<g>
					<path style="fill:#455A64;" d="M258.39,174.23c0.8-2.34,1.49-4.71,2.17-7.04l-0.54-0.16c-0.64,2.19-1.28,4.42-2.02,6.62
						c-1.04-1.42-2.29-2.71-3.73-3.81c-4.02-3.1-9.48-4.83-15.39-4.89c-0.37,0-0.74,0.01-1.11,0.02c1.41-6.54,4.51-12.73,9.05-17.62
						l-0.41-0.38c-4.65,5-7.8,11.32-9.22,18.01c-3.43,0.15-6.85,0.83-10.07,2.01c-0.01,0.2-0.02,0.4-0.02,0.6
						c3.19-1.19,6.58-1.9,9.98-2.05c-0.59,3.03-0.83,6.12-0.68,9.2c0.13-0.01,0.26-0.03,0.4-0.03c0.06,0,0.11,0.01,0.16,0.01
						c-0.15-3.07,0.09-6.16,0.69-9.19c0.41-0.01,0.81-0.03,1.22-0.02c5.78,0.06,11.13,1.75,15.05,4.77c1.5,1.16,2.79,2.53,3.84,4.02
						c-0.68,1.98-1.45,3.94-2.36,5.82c-1.65,3.41-3.62,6.23-5.88,8.45c0.18,0.09,0.36,0.17,0.54,0.24c2.24-2.24,4.2-5.06,5.84-8.45
						c0.86-1.78,1.59-3.62,2.24-5.49c1.41,2.18,2.3,4.61,2.57,7.05c0.16-0.21,0.32-0.43,0.47-0.66
						C260.84,178.82,259.86,176.4,258.39,174.23z"/>
				</g>
				<path style="fill:#37474F;" d="M249.45,146.04c-3.07-0.36-4.71-0.19-7.62,1.61c-6.61,5.57,2.07,8.79,9.01,2.6
					c0.43-0.39,0.78-0.84,1.06-1.35C252.29,147.99,252.13,146.35,249.45,146.04z"/>
				<g>
					<path style="fill:#BA68C8;" d="M267.36,156.78c-0.51-2.31-1.77-3.65-3.32-3.9c0.44,0.62,0.78,1.4,0.99,2.36
						c0.92,4.16-0.89,9.86-4.06,12.75c-1.4,1.28-2.83,1.78-4.07,1.59c1.45,2.05,3.97,2.16,6.4-0.05
						C266.47,166.64,268.28,160.94,267.36,156.78z"/>
					<path style="opacity:0.3;fill:#FFFFFF;" d="M267.36,156.78c-0.51-2.31-1.77-3.65-3.32-3.9c0.44,0.62,0.78,1.4,0.99,2.36
						c0.92,4.16-0.89,9.86-4.06,12.75c-1.4,1.28-2.83,1.78-4.07,1.59c1.45,2.05,3.97,2.16,6.4-0.05
						C266.47,166.64,268.28,160.94,267.36,156.78z"/>
					<path style="fill:#37474F;" d="M260.97,167.99c3.17-2.88,4.98-8.59,4.06-12.75c-0.21-0.96-0.56-1.75-0.99-2.36
						c-1.24-0.19-2.67,0.31-4.08,1.59c-3.16,2.88-4.97,8.59-4.05,12.74c0.21,0.96,0.56,1.75,1,2.37
						C258.14,169.77,259.57,169.27,260.97,167.99z"/>
				</g>
			</g>
			<g>
				<g>
					<path style="fill:#455A64;" d="M143.22,187.49c0.48,0.03,0.93-0.25,1.11-0.72c0.02-0.05,1.91-4.9,6.33-6.84
						c0.56-0.25,0.82-0.91,0.57-1.47c-0.25-0.56-0.91-0.82-1.47-0.57c-5.29,2.32-7.43,7.87-7.52,8.1c-0.22,0.58,0.07,1.22,0.65,1.44
						C143,187.46,143.11,187.49,143.22,187.49z"/>
				</g>
				<g>
					<path style="fill:#455A64;" d="M147.12,187.31c0.46-0.01,0.89-0.3,1.04-0.76c0.01-0.04,1.55-4.44,5.82-6.71
						c0.54-0.29,0.75-0.96,0.46-1.51c-0.29-0.54-0.97-0.75-1.51-0.46c-5.09,2.7-6.82,7.76-6.9,7.97c-0.2,0.58,0.12,1.22,0.7,1.41
						C146.88,187.29,147,187.31,147.12,187.31z"/>
				</g>
				<g>
					<path style="fill:#455A64;" d="M151.83,186.39c0.39-0.08,0.73-0.37,0.85-0.78c0.01-0.04,1.3-4.3,5.16-7.38
						c0.48-0.39,0.56-1.09,0.18-1.57c-0.39-0.48-1.09-0.56-1.57-0.18c-4.43,3.54-5.85,8.3-5.91,8.5c-0.17,0.59,0.17,1.21,0.76,1.38
						C151.48,186.42,151.66,186.42,151.83,186.39z"/>
				</g>
				<g>
					<path style="fill:#BA68C8;" d="M148.03,177.95c0,3.57,2.89,6.46,6.46,6.46c3.57,0,6.46-2.89,6.46-6.46
						c0-3.57-2.89-6.46-6.46-6.46C150.92,171.49,148.03,174.38,148.03,177.95z"/>
					<path style="opacity:0.6;fill:#FFFFFF;" d="M148.03,177.95c0,3.57,2.89,6.46,6.46,6.46c3.57,0,6.46-2.89,6.46-6.46
						c0-3.57-2.89-6.46-6.46-6.46C150.92,171.49,148.03,174.38,148.03,177.95z"/>
				</g>
				<g>
					<path style="fill:#455A64;" d="M156.74,179.63c0.98,0,1.97-0.35,2.75-1.07c7.39-6.74,19.71-16.31,36.41-23.69
						c2.07-0.91,3-3.33,2.09-5.4c-0.91-2.07-3.33-3-5.4-2.09c-17.71,7.82-30.77,17.98-38.61,25.13c-1.67,1.52-1.79,4.11-0.27,5.78
						C154.52,179.18,155.63,179.63,156.74,179.63z"/>
				</g>
				<g>
					
						<ellipse transform="matrix(0.973 -0.2308 0.2308 0.973 -29.1993 49.7116)" style="fill:#BA68C8;" cx="197.89" cy="149.66" rx="10.55" ry="10.55"/>
					
						<ellipse transform="matrix(0.973 -0.2308 0.2308 0.973 -29.1993 49.7116)" style="opacity:0.4;fill:#FFFFFF;" cx="197.89" cy="149.66" rx="10.55" ry="10.55"/>
					<path style="fill:#455A64;" d="M203.03,156.75c2.83-3.42,3.78-8.11,2.42-11.95c-0.65-1.84-1.83-3.48-3.36-4.81
						c-0.69-0.3-1.42-0.53-2.18-0.68c2.26,1.38,4.01,3.39,4.84,5.73c1.28,3.6,0.38,8-2.29,11.22c-1.33,1.61-3.11,2.93-5.15,3.91
						c0.19,0.01,0.39,0.03,0.58,0.03c0.36,0,0.72-0.02,1.08-0.05C200.53,159.23,201.91,158.1,203.03,156.75z"/>
				</g>
				<g>
					<path style="fill:#455A64;" d="M203.11,154.93c-0.27-0.37-0.47-0.85-0.6-1.43c-0.56-2.52,0.54-5.98,2.46-7.72
						c0.73-0.67,1.47-0.98,2.15-0.99l0,0h-2.25c-0.68-0.01-1.44,0.31-2.19,0.99c-1.92,1.75-3.02,5.21-2.46,7.72
						c0.13,0.58,0.34,1.06,0.6,1.43c0.42,0.6,0.99,0.91,1.64,0.94l0,0.01h2.33l0-0.01C204.12,155.86,203.54,155.54,203.11,154.93z"
						/>
					<path style="fill:#37474F;" d="M209.45,147.17c-0.31-1.4-1.07-2.22-2.01-2.36c-0.11-0.02-0.22-0.02-0.33-0.02
						c-0.67,0-1.41,0.32-2.15,0.99c-1.92,1.75-3.02,5.21-2.46,7.72c0.13,0.58,0.34,1.06,0.6,1.43c0.43,0.61,1.02,0.93,1.67,0.95
						c0.69,0.02,1.45-0.3,2.2-0.98C208.9,153.15,210,149.7,209.45,147.17z"/>
				</g>
				<g>
					<path style="fill:#455A64;" d="M153,180.36c-0.44-0.39-1.11-0.38-1.53,0.04c-1.92,1.9-3.15,4.43-3.48,7.11
						c-0.08,0.61,0.36,1.17,0.97,1.24c0.61,0.07,1.17-0.36,1.24-0.97c0.27-2.19,1.28-4.25,2.84-5.8c0.44-0.43,0.44-1.14,0.01-1.58
						C153.03,180.39,153.01,180.37,153,180.36z"/>
				</g>
			</g>
			<g>
				<g>
					<path style="fill:#455A64;" d="M289.48,192.89c-0.27-0.37-0.47-0.85-0.6-1.43c-0.56-2.52,0.54-5.98,2.46-7.72
						c0.73-0.67,1.47-0.98,2.14-0.99l0,0h-2.25c-0.68-0.01-1.44,0.31-2.19,0.99c-1.92,1.75-3.02,5.21-2.46,7.72
						c0.13,0.58,0.34,1.06,0.6,1.43c0.42,0.6,0.99,0.91,1.64,0.94l0,0.01h2.33l0-0.01C290.49,193.82,289.91,193.5,289.48,192.89z"/>
					<path style="fill:#455A64;" d="M295.81,185.13c-0.31-1.4-1.07-2.22-2.01-2.36c-0.11-0.02-0.22-0.02-0.33-0.02
						c-0.67,0-1.41,0.32-2.14,0.99c-1.92,1.75-3.02,5.21-2.46,7.72c0.13,0.58,0.34,1.06,0.6,1.43c0.43,0.61,1.02,0.93,1.67,0.95
						c0.69,0.02,1.45-0.3,2.2-0.98C295.27,191.11,296.37,187.65,295.81,185.13z"/>
				</g>
				
					<ellipse transform="matrix(0.1495 -0.9888 0.9888 0.1495 67.5267 458.2867)" style="fill:#BA68C8;" cx="300.17" cy="189.89" rx="10.55" ry="10.55"/>
				
					<ellipse transform="matrix(0.1495 -0.9888 0.9888 0.1495 67.5267 458.2867)" style="opacity:0.4;fill:#FFFFFF;" cx="300.17" cy="189.89" rx="10.55" ry="10.55"/>
				<g>
					<path style="fill:#455A64;" d="M303.15,198.07c3.55-2.35,5.56-6.93,4.89-11.14c-0.42-2.63-1.88-5.07-3.92-6.81
						c-0.69-0.28-1.41-0.48-2.16-0.61c2.77,1.56,4.85,4.41,5.35,7.54c0.62,3.93-1.25,8.21-4.57,10.4c-2.3,1.53-5.26,2.02-7.98,1.48
						c0.64,0.39,1.33,0.71,2.06,0.95c0.04,0,0.08,0,0.11,0C299.12,199.88,301.33,199.28,303.15,198.07z"/>
				</g>
				<g>
					<path style="fill:#455A64;" d="M343.13,219.85c-0.98,0-1.97-0.35-2.75-1.07c-7.39-6.74-19.71-16.31-36.41-23.69
						c-2.07-0.91-3-3.33-2.09-5.4c0.91-2.07,3.33-3,5.4-2.09c17.71,7.82,30.77,17.98,38.61,25.13c1.67,1.52,1.79,4.11,0.27,5.78
						C345.35,219.4,344.24,219.85,343.13,219.85z"/>
				</g>
				<g>
					<path style="fill:#BA68C8;" d="M351.84,218.18c0,3.57-2.89,6.46-6.46,6.46c-3.57,0-6.46-2.89-6.46-6.46s2.89-6.46,6.46-6.46
						C348.95,211.71,351.84,214.61,351.84,218.18z"/>
					<path style="opacity:0.6;fill:#FFFFFF;" d="M351.84,218.18c0,3.57-2.89,6.46-6.46,6.46c-3.57,0-6.46-2.89-6.46-6.46
						s2.89-6.46,6.46-6.46C348.95,211.71,351.84,214.61,351.84,218.18z"/>
				</g>
				<g>
					<path style="fill:#455A64;" d="M351.84,229.62c-0.48,0-0.92-0.31-1.07-0.79c-0.02-0.05-1.61-5.01-5.91-7.21
						c-0.55-0.28-0.77-0.95-0.48-1.5s0.96-0.77,1.5-0.48c5.15,2.64,6.95,8.3,7.02,8.54c0.18,0.59-0.15,1.21-0.74,1.4
						C352.06,229.61,351.95,229.62,351.84,229.62z"/>
				</g>
				<g>
					<path style="fill:#455A64;" d="M355.07,227.63c-0.46,0-0.89-0.29-1.05-0.75c-0.01-0.04-1.61-4.41-5.92-6.62
						c-0.55-0.28-0.77-0.95-0.48-1.5c0.28-0.55,0.96-0.76,1.5-0.48c5.12,2.63,6.93,7.66,7.01,7.87c0.2,0.58-0.1,1.22-0.68,1.42
						C355.32,227.61,355.2,227.63,355.07,227.63z"/>
				</g>
				<g>
					<path style="fill:#455A64;" d="M357.65,224.8c-0.4,0-0.79-0.22-0.99-0.6c-0.02-0.04-2.13-3.95-6.52-6.2
						c-0.55-0.28-0.77-0.95-0.48-1.5c0.28-0.55,0.95-0.77,1.5-0.48c5.04,2.59,7.38,6.97,7.48,7.15c0.29,0.55,0.07,1.22-0.47,1.51
						C358,224.76,357.83,224.8,357.65,224.8z"/>
				</g>
				<g>
					<path style="fill:#455A64;" d="M338.58,228.57c-0.59,0-1.08-0.46-1.11-1.05c-0.16-2.7,0.6-5.4,2.15-7.62
						c0.35-0.51,1.05-0.63,1.55-0.28c0.51,0.35,0.63,1.05,0.28,1.55c-1.26,1.81-1.88,4.02-1.75,6.22c0.04,0.62-0.43,1.14-1.05,1.18
						C338.62,228.57,338.6,228.57,338.58,228.57z"/>
				</g>
			</g>
			<g>
				<path style="fill:#BA68C8;" d="M230.74,130.65L230.74,130.65c-2.82,0.49-5.09,2.59-5.8,5.37l-1.43,5.61
					c-0.5,1.95-2.11,3.43-4.1,3.75l-6.59,1.07c-2.31,0.38-4.61-0.88-5.46-3.07c-5.27-13.55-2.72-26.58,9.56-28.11
					c12.01-1.5,15.4,8.22,15.38,13.51C232.31,129.7,231.65,130.49,230.74,130.65z"/>
				<path style="opacity:0.6;fill:#FFFFFF;" d="M230.74,130.65L230.74,130.65c-2.82,0.49-5.09,2.59-5.8,5.37l-1.43,5.61
					c-0.5,1.95-2.11,3.43-4.1,3.75l-6.59,1.07c-2.31,0.38-4.61-0.88-5.46-3.07c-5.27-13.55-2.72-26.58,9.56-28.11
					c12.01-1.5,15.4,8.22,15.38,13.51C232.31,129.7,231.65,130.49,230.74,130.65z"/>
				<path style="fill:#455A64;" d="M226.04,119.83c1.6,0.24,3.15,0.84,4.47,1.76c-0.24-0.46-0.52-0.91-0.82-1.35
					c-1.37-0.7-2.89-1.13-4.44-1.25c-1.36-1.33-2.99-2.38-4.79-3.04c-0.83-0.31-1.69-0.52-2.56-0.66c0.18-0.05,0.37-0.1,0.55-0.15
					c-0.5,0.02-1,0.06-1.53,0.13c-1.21,0.15-2.32,0.42-3.35,0.78c0.37-0.06,0.75-0.11,1.12-0.15c-1.23,0.74-2.38,1.68-3.38,2.81
					c-1.79,2.03-3.09,4.6-3.85,7.52c-0.7-0.28-1.38-0.61-2.02-1.01c-0.07,0.25-0.13,0.5-0.19,0.75c0.65,0.38,1.32,0.71,2.03,0.98
					c-0.08,0.39-0.17,0.77-0.23,1.17c-0.51,3.05-0.45,6.43,0.16,10.34c0.25,1.6,0.61,3.47,1.39,5.25c0.39,0.88,0.86,1.67,1.4,2.36
					c0.42,0.18,0.86,0.31,1.32,0.37c-0.81-0.81-1.5-1.83-2.03-3.03c-0.75-1.7-1.09-3.51-1.34-5.06c-0.6-3.83-0.65-7.14-0.16-10.1
					c0.06-0.35,0.13-0.7,0.21-1.04c1.22,0.39,2.5,0.62,3.79,0.66c0.03,0,0.06,0,0.09,0c1.28,0,2.43-0.75,2.96-1.94
					c1.19-2.66,3.57-4.81,6.38-5.74c1.18-0.39,2.44-0.55,3.69-0.49c0.66,0.68,1.26,1.43,1.76,2.24c1.66,2.71,2.28,6.15,1.78,9.51
					c0.26-0.14,0.53-0.27,0.8-0.38c0.39-3.38-0.28-6.8-1.95-9.52C226.93,120.95,226.5,120.37,226.04,119.83z M220.99,119.5
					c-3.01,1-5.56,3.29-6.83,6.14c-0.42,0.94-1.36,1.52-2.35,1.5c-1.24-0.03-2.46-0.26-3.63-0.64c0.72-2.84,1.98-5.33,3.7-7.29
					c1.28-1.45,2.83-2.58,4.48-3.33c1.31,0.06,2.61,0.31,3.85,0.77c1.44,0.53,2.76,1.33,3.91,2.32
					C223.05,118.99,222,119.16,220.99,119.5z"/>
				<path style="fill:#37474F;" d="M217.71,137.03c2.28-0.4,4.14-2.06,4.86-4.26c0.21-0.65,0.4-1.31,0.56-1.98
					c0.2-0.82-0.48-1.59-1.33-1.51c-2.98,0.27-5.97,0.34-8.96,0.19c-1.54-0.07-3.08-0.21-4.57-0.61c-1.17-0.32-2.29-0.83-3.25-1.56
					c-0.4,2.65-0.32,5.59,0.23,8.68c1.54,1,3.5,1.36,5.37,1.48C212.98,137.61,215.36,137.44,217.71,137.03z"/>
			</g>
			<g>
				<g>
					<path style="fill:#455A64;" d="M228.24,218.56c-1.62,25.1-0.13,56.39-0.13,56.39l9.18,2.34c6.2-21.31,7.48-40.5,7.48-40.5
						L228.24,218.56z"/>
					<path style="fill:#BA68C8;" d="M242.25,314.85l-3.91-36.92c-0.12-1.13-0.65-2.17-1.49-2.93l-2.04-1.85l-6.51,0.59l-3.91,40.09
						l1.07-1.43c0.53-0.71,1.44-1.03,2.3-0.82l0.62,0.15c1.43,0.36,2.66,1.28,3.39,2.56l1.78,3.09c0.72,1.25,2.24,1.78,3.58,1.26
						l0.11-0.04c1.69-0.66,3.21-1.72,4.41-3.08L242.25,314.85z"/>
					<path style="opacity:0.6;fill:#FFFFFF;" d="M242.25,314.85l-3.91-36.92c-0.12-1.13-0.65-2.17-1.49-2.93l-2.04-1.85l-6.51,0.59
						l-3.91,40.09l1.07-1.43c0.53-0.71,1.44-1.03,2.3-0.82l0.62,0.15c1.43,0.36,2.66,1.28,3.39,2.56l1.78,3.09
						c0.72,1.25,2.24,1.78,3.58,1.26l0.11-0.04c1.69-0.66,3.21-1.72,4.41-3.08L242.25,314.85z"/>
					<path style="fill:#37474F;" d="M241.18,319.67c-1.49,1.05-3.23,1.7-5.04,1.9l-1.41,0.15c-1.54,0.17-3.03,0.66-4.36,1.46
						l-2.46,1.46c-4.33,2.58-9.66,2.85-14.24,0.74l-0.85-0.39c-0.63-0.29-1.03-0.92-1.03-1.62v1.41c0,0.69,0.4,1.33,1.03,1.62
						l0.85,0.39c4.58,2.11,9.9,1.83,14.24-0.74l2.46-1.46c1.33-0.79,2.82-1.29,4.36-1.46l1.41-0.15c1.81-0.2,3.55-0.85,5.04-1.9
						c0.58-0.41,0.9-1.1,0.84-1.81l-0.07-0.73C241.83,318.99,241.57,319.4,241.18,319.67z"/>
					<path style="fill:#455A64;" d="M212.81,324.99l0.85,0.39c4.58,2.11,9.9,1.83,14.24-0.74l2.46-1.46
						c1.33-0.79,2.82-1.29,4.36-1.46l1.41-0.15c1.81-0.2,3.55-0.85,5.04-1.9c0.39-0.27,0.65-0.68,0.77-1.13l-0.28-3.03
						c-1.21,1.36-2.72,2.42-4.41,3.08l-0.11,0.04c-1.34,0.53-2.86-0.01-3.58-1.26l-1.78-3.09c-0.74-1.28-1.96-2.2-3.39-2.56
						l-0.62-0.15c-0.86-0.22-1.77,0.11-2.3,0.82l-1.07,1.43l-2.73,1.69c-2.52,1.56-5.18,2.87-7.95,3.91
						c-1.16,0.44-1.93,1.55-1.93,2.79v1.15C211.78,324.07,212.18,324.7,212.81,324.99z"/>
					<g>
						<path style="fill:#455A64;" d="M237.8,310.61c-0.49,0.13-1.01,0.03-1.42-0.26c-0.43-0.3-0.7-0.77-0.75-1.29l-1.99-21.82
							c-0.08-0.9,0.49-1.72,1.4-1.99c1.43-0.43,2.76-1.21,3.83-2.23l-0.07-0.71c-1.06,1.11-2.43,1.95-3.92,2.4
							c-1.16,0.35-1.9,1.41-1.79,2.58l1.99,21.82c0.06,0.68,0.42,1.3,0.98,1.69c0.39,0.28,0.85,0.42,1.31,0.42
							c0.19,0,0.38-0.02,0.57-0.07c1.61-0.42,2.93-1.12,3.73-1.68l-0.07-0.64C240.93,309.35,239.55,310.15,237.8,310.61z"/>
					</g>
					<path style="fill:#BA68C8;" d="M235.79,275.27c-0.26,3.34-2.45,5.9-4.89,5.71c-2.44-0.19-4.2-3.06-3.93-6.4
						c0.26-3.34,2.45-5.9,4.89-5.71C234.3,269.05,236.06,271.92,235.79,275.27z"/>
					<path style="fill:#BA68C8;" d="M218,324.89c-0.08-0.37-0.14-0.75-0.17-1.13c-0.04-0.55-0.45-0.98-0.99-1.04
						c-1.7-0.19-3.34-0.94-4.58-2.11c-0.3,0.47-0.48,1.02-0.48,1.61v1.15c0,0.69,0.4,1.33,1.03,1.62l0.85,0.39
						c2.71,1.25,5.67,1.65,8.54,1.25c-1.06-0.08-2.13-0.29-3.14-0.61C218.54,325.86,218.12,325.43,218,324.89z"/>
					<path style="opacity:0.2;" d="M218,324.89c-0.08-0.37-0.14-0.75-0.17-1.13c-0.04-0.55-0.45-0.98-0.99-1.04
						c-1.7-0.19-3.34-0.94-4.58-2.11c-0.3,0.47-0.48,1.02-0.48,1.61v1.15c0,0.69,0.4,1.33,1.03,1.62l0.85,0.39
						c2.71,1.25,5.67,1.65,8.54,1.25c-1.06-0.08-2.13-0.29-3.14-0.61C218.54,325.86,218.12,325.43,218,324.89z"/>
					<path style="opacity:0.2;" d="M235.79,275.27c-0.26,3.34-2.45,5.9-4.89,5.71c-2.44-0.19-4.2-3.06-3.93-6.4
						c0.26-3.34,2.45-5.9,4.89-5.71C234.3,269.05,236.06,271.92,235.79,275.27z"/>
				</g>
				<g>
					<path style="fill:#BA68C8;" d="M228.11,214.56c0,8.31,1.57,24.88,16.93,25.14c10.08,0.17,14.78-5.3,16.82-9.08
						c1.03-1.91,1.44-4.09,1.26-6.25c-0.61-7.26-2.76-11.88-2.76-11.88L228.11,214.56z"/>
					<path style="opacity:0.4;fill:#FFFFFF;" d="M228.11,214.56c0,8.31,1.57,24.88,16.93,25.14c10.08,0.17,14.78-5.3,16.82-9.08
						c1.03-1.91,1.44-4.09,1.26-6.25c-0.61-7.26-2.76-11.88-2.76-11.88L228.11,214.56z"/>
					<g>
						<g>
							<path style="fill:#BA68C8;" d="M255.97,207.94c6.4,3.7,6.43,9.69,0.08,13.39c-6.36,3.7-16.7,3.7-23.11,0
								c-6.4-3.69-6.44-9.69-0.08-13.39C239.21,204.24,249.57,204.24,255.97,207.94z"/>
						</g>
						<path style="opacity:0.2;fill:#FFFFFF;" d="M255.97,207.94c6.4,3.7,6.43,9.69,0.08,13.39c-6.36,3.7-16.7,3.7-23.11,0
							c-6.4-3.69-6.44-9.69-0.08-13.39C239.21,204.24,249.57,204.24,255.97,207.94z"/>
						<path style="opacity:0.2;" d="M234.42,218.74c2.61,1.51,6.29,2.37,10.08,2.37c3.79,0,7.45-0.86,10.04-2.37
							c1.35-0.78,2.31-1.68,2.83-2.6c-0.53-0.94-1.52-1.86-2.9-2.66c-2.61-1.51-6.29-2.37-10.08-2.37c-3.79,0-7.45,0.86-10.04,2.37
							c-1.35,0.78-2.31,1.68-2.83,2.6C232.05,217.02,233.04,217.95,234.42,218.74z"/>
						<g>
							<path style="opacity:0.2;" d="M234.35,213.49c2.59-1.5,6.25-2.37,10.04-2.37c3.8,0,7.47,0.86,10.08,2.37
								c1.38,0.8,2.37,1.72,2.9,2.66c0.28-0.5,0.44-1,0.44-1.49c0-1.41-1.22-2.92-3.34-4.14c-2.61-1.51-6.29-2.37-10.08-2.37
								c-3.79,0-7.45,0.86-10.04,2.37c-2.08,1.21-3.27,2.7-3.27,4.09c0,0.49,0.16,0.99,0.44,1.49
								C232.04,215.17,233.01,214.27,234.35,213.49z"/>
							<path style="opacity:0.2;" d="M234.42,218.74c2.61,1.51,6.29,2.37,10.08,2.37c3.79,0,7.45-0.86,10.04-2.37
								c1.35-0.78,2.31-1.68,2.83-2.6c-0.53-0.94-1.52-1.86-2.9-2.66c-2.61-1.51-6.29-2.37-10.08-2.37c-3.79,0-7.45,0.86-10.04,2.37
								c-1.35,0.78-2.31,1.68-2.83,2.6C232.05,217.02,233.04,217.95,234.42,218.74z"/>
						</g>
					</g>
				</g>
				<g>
					<path style="fill:#455A64;" d="M262.68,275.11c1.27-14.15,0.59-40.64-0.76-46.52c-2.74-9.91-18.28-1.63-17.47,5.63
						c0.81,7.25,3.75,27.07,9.18,41.97L262.68,275.11z"/>
					<path style="fill:#BA68C8;" d="M256.57,274.95l-1.79,1.05c-1.37,0.8-2.21,2.27-2.21,3.86c0.02,6.57,0.15,25.04,1.12,46.71
						l1.21-1.78c0.31-0.45,0.56-0.95,0.74-1.46l0.76-2.14c0.35-0.99,1.29-1.64,2.33-1.64h1.58c1.09,0,2.05,0.71,2.37,1.75l1.01,3.32
						c0.21,0.67,0.52,1.31,0.93,1.88l0.49,0.69c0.91,1.28,2.79,1.33,3.77,0.1l2.34-2.92c0.29-0.36,0.41-0.82,0.34-1.27l-6.83-44.77
						c-0.16-1.02-0.66-1.96-1.43-2.65l-0.64-0.58L256.57,274.95z"/>
					<path style="opacity:0.6;fill:#FFFFFF;" d="M256.57,274.95l-1.79,1.05c-1.37,0.8-2.21,2.27-2.21,3.86
						c0.02,6.57,0.15,25.04,1.12,46.71l1.21-1.78c0.31-0.45,0.56-0.95,0.74-1.46l0.76-2.14c0.35-0.99,1.29-1.64,2.33-1.64h1.58
						c1.09,0,2.05,0.71,2.37,1.75l1.01,3.32c0.21,0.67,0.52,1.31,0.93,1.88l0.49,0.69c0.91,1.28,2.79,1.33,3.77,0.1l2.34-2.92
						c0.29-0.36,0.41-0.82,0.34-1.27l-6.83-44.77c-0.16-1.02-0.66-1.96-1.43-2.65l-0.64-0.58L256.57,274.95z"/>
					<path style="fill:#455A64;" d="M249.61,339.59l1.65,0.47c2.4,0.68,4.91,0.88,7.39,0.59l2.99-0.35
						c2.65-0.31,4.94-2.01,6.01-4.45c0.42-0.96,0.64-1.99,0.64-3.03v-0.85c0-1.21,0.49-2.37,1.36-3.21l0.8-0.77
						c0.34-0.32,0.55-0.74,0.66-1.18l-0.16-2.04l-2.04,2.55c-0.98,1.22-2.86,1.17-3.77-0.1l-0.49-0.69
						c-0.41-0.57-0.72-1.21-0.93-1.88l-1.01-3.32c-0.32-1.04-1.28-1.75-2.37-1.75h-1.58c-1.05,0-1.98,0.66-2.33,1.64l-0.76,2.14
						c-0.18,0.52-0.43,1.01-0.74,1.46l-6.54,9.63c-0.45,0.67-0.69,1.45-0.69,2.26v0.34C247.66,338.21,248.46,339.26,249.61,339.59z"
						/>
					<path style="fill:#37474F;" d="M270.45,327.97l-0.8,0.77c-0.87,0.84-1.36,2-1.36,3.21v0.85c0,1.04-0.22,2.08-0.64,3.03
						c-1.07,2.44-3.36,4.14-6.01,4.45l-2.99,0.35c-2.48,0.29-4.99,0.09-7.39-0.59l-1.65-0.47c-1.15-0.33-1.95-1.38-1.95-2.57v1.63
						c0,1.2,0.8,2.25,1.95,2.57l1.65,0.47c2.4,0.68,4.91,0.88,7.39,0.59l2.99-0.35c2.65-0.31,4.94-2.01,6.01-4.45l0,0
						c0.42-0.96,0.64-1.99,0.64-3.03v-0.85c0-1.21,0.49-2.37,1.36-3.21l0.8-0.77c0.52-0.5,0.79-1.21,0.73-1.93l-0.07-0.88
						C271,327.24,270.78,327.65,270.45,327.97z"/>
					<path style="fill:#BA68C8;" d="M258.54,338.21c-0.12-0.47-0.23-0.94-0.33-1.41c-0.14-0.71-0.68-1.27-1.38-1.43
						c-2.26-0.53-4.61-0.72-6.93-0.58c-0.81,0.05-1.53,0.62-1.67,1.42c-0.14,0.73-0.18,1.48-0.15,2.22
						c0.34,0.55,0.88,0.97,1.53,1.16l1.65,0.47c2.4,0.68,4.91,0.88,7.39,0.59l2.99-0.35c0.01,0,0.02,0,0.03-0.01
						c-0.4-0.04-0.81-0.1-1.21-0.19C259.52,339.88,258.79,339.14,258.54,338.21z"/>
					<path style="opacity:0.2;" d="M258.54,338.21c-0.12-0.47-0.23-0.94-0.33-1.41c-0.14-0.71-0.68-1.27-1.38-1.43
						c-2.26-0.53-4.61-0.72-6.93-0.58c-0.81,0.05-1.53,0.62-1.67,1.42c-0.14,0.73-0.18,1.48-0.15,2.22
						c0.34,0.55,0.88,0.97,1.53,1.16l1.65,0.47c2.4,0.68,4.91,0.88,7.39,0.59l2.99-0.35c0.01,0,0.02,0,0.03-0.01
						c-0.4-0.04-0.81-0.1-1.21-0.19C259.52,339.88,258.79,339.14,258.54,338.21z"/>
					<g>
						<path style="fill:#455A64;" d="M261.91,291.3c1.01,10.59,2.95,21.43,3.94,25.77c0.29,1.28,1.42,2.15,2.72,2.15
							c0.12,0,0.24-0.01,0.35-0.02c0.76-0.09,1.44-0.25,2-0.41l-0.09-0.56c-0.55,0.16-1.23,0.33-1.98,0.42
							c-1.15,0.14-2.21-0.59-2.46-1.7c-0.98-4.33-2.92-15.14-3.93-25.7c-0.12-1.24,0.4-2.47,1.4-3.28c0.68-0.55,1.38-1.06,2.12-1.54
							l-0.09-0.6c-0.82,0.52-1.62,1.09-2.38,1.71C262.38,288.47,261.78,289.88,261.91,291.3z"/>
						<path style="fill:#455A64;" d="M255.92,317.45c0.2-4.45,0.19-15.46-0.7-26.06c-0.12-1.43-0.96-2.71-2.24-3.42
							c-0.12-0.06-0.24-0.12-0.36-0.19c0,0.21,0,0.42,0.01,0.63c0.03,0.01,0.05,0.03,0.08,0.04c1.12,0.62,1.85,1.74,1.96,2.98
							c0.88,10.57,0.9,21.55,0.7,25.99c-0.05,1.09-0.89,1.96-1.97,2.09c0.01,0.19,0.01,0.37,0.02,0.56
							C254.79,319.92,255.86,318.83,255.92,317.45z"/>
					</g>
					<path style="fill:#BA68C8;" d="M263.24,276.77c0.36,3.34-1.53,6.27-4.21,6.56c-2.69,0.29-5.16-2.18-5.52-5.52
						c-0.36-3.34,1.53-6.27,4.21-6.56C260.41,270.96,262.88,273.43,263.24,276.77z"/>
					<path style="opacity:0.2;" d="M263.24,276.77c0.36,3.34-1.53,6.27-4.21,6.56c-2.69,0.29-5.16-2.18-5.52-5.52
						c-0.36-3.34,1.53-6.27,4.21-6.56C260.41,270.96,262.88,273.43,263.24,276.77z"/>
				</g>
			</g>
		</g>
		<g style="opacity:0.2;">
			<g>
				<g>
					<g>
						<polygon style="fill:#BA68C8;" points="249.55,252.01 251.81,253.32 251.97,197.4 249.7,196.09 						"/>
						<polygon style="fill:#BA68C8;" points="249.52,261.82 251.78,263.13 251.8,258.12 249.53,256.81 						"/>
						<polygon style="fill:#BA68C8;" points="246.51,255.27 248.78,256.58 248.79,251.57 246.53,250.26 						"/>
						<polygon style="fill:#BA68C8;" points="255.38,265.2 257.65,266.51 257.66,261.5 255.4,260.2 						"/>
						<polygon style="fill:#BA68C8;" points="255.55,204.89 255.54,209.89 257.81,211.2 257.82,206.2 						"/>
						<polygon style="fill:#BA68C8;" points="252.5,247.01 254.77,248.32 254.86,216.73 252.59,215.42 						"/>
						<polygon style="fill:#BA68C8;" points="246.55,243.58 248.81,244.88 248.9,213.29 246.63,211.98 						"/>
						<polygon style="fill:#BA68C8;" points="255.49,227.43 257.76,228.74 257.79,218.42 255.52,217.11 						"/>
						<polygon style="fill:#BA68C8;" points="255.43,248.71 257.7,250.01 257.74,234.22 255.48,232.91 						"/>
					</g>
					<g>
						<polygon style="fill:#BA68C8;" points="223.29,269.05 223.28,274.06 225.54,275.37 225.56,270.36 						"/>
						<polygon style="fill:#BA68C8;" points="214.38,268.93 216.65,270.24 216.67,265.23 214.4,263.92 						"/>
						<polygon style="fill:#BA68C8;" points="214.41,258.66 216.68,259.97 216.71,248.38 214.45,247.07 						"/>
						<polygon style="fill:#BA68C8;" points="223.25,284.27 225.51,285.58 225.53,280.58 223.26,279.27 						"/>
						<polygon style="fill:#BA68C8;" points="217.32,303.44 219.59,304.74 219.73,255.34 217.46,254.04 						"/>
						<polygon style="fill:#BA68C8;" points="217.21,343.27 219.47,344.58 219.57,311.52 217.3,310.21 						"/>
						<polygon style="fill:#BA68C8;" points="220.25,305.13 222.51,306.44 222.58,283.88 220.31,282.58 						"/>
						<polygon style="fill:#BA68C8;" points="220.19,325.27 222.46,326.58 222.5,311.82 220.23,310.51 						"/>
						<polygon style="fill:#BA68C8;" points="214.24,318.62 216.51,319.93 216.62,282.08 214.35,280.77 						"/>
						<polygon style="fill:#BA68C8;" points="223.1,334.76 225.37,336.07 225.42,319.18 223.15,317.88 						"/>
						<polygon style="fill:#BA68C8;" points="223.19,306.33 225.45,307.64 225.48,297.94 223.21,296.63 						"/>
					</g>
					<g>
						<polygon style="fill:#BA68C8;" points="282.38,288.8 282.37,293.8 284.63,295.11 284.65,290.1 						"/>
						<polygon style="fill:#BA68C8;" points="273.24,370.79 275.51,372.1 275.52,367.09 273.26,365.78 						"/>
						<polygon style="fill:#BA68C8;" points="282.33,304.59 284.6,305.9 284.62,300.9 282.35,299.59 						"/>
						<polygon style="fill:#BA68C8;" points="276.3,361.81 278.56,363.11 278.8,279.87 276.53,278.57 						"/>
						<polygon style="fill:#BA68C8;" points="279.26,351.5 281.53,352.81 281.68,299.2 279.41,297.89 						"/>
						<polygon style="fill:#BA68C8;" points="273.41,310.28 275.68,311.59 275.71,301.54 273.44,300.23 						"/>
						<polygon style="fill:#BA68C8;" points="273.35,332.91 275.61,334.21 275.66,317.33 273.4,316.02 						"/>
						<polygon style="fill:#BA68C8;" points="273.29,353.95 275.56,355.26 275.6,338.37 273.34,337.06 						"/>
						<polygon style="fill:#BA68C8;" points="282.21,348.97 284.48,350.28 284.52,333.39 282.26,332.08 						"/>
						<polygon style="fill:#BA68C8;" points="282.29,321.16 284.55,322.47 284.58,312.35 282.32,311.04 						"/>
					</g>
					<g>
						<polygon style="fill:#BA68C8;" points="173.78,209.29 173.77,214.3 176.04,215.6 176.05,210.6 						"/>
						<polygon style="fill:#BA68C8;" points="164.75,256.05 167.02,257.36 167.03,252.35 164.77,251.04 						"/>
						<polygon style="fill:#BA68C8;" points="164.72,266.98 166.99,268.29 167,263.28 164.73,261.97 						"/>
						<polygon style="fill:#BA68C8;" points="167.78,252.78 170.05,254.09 170.18,207.97 167.92,206.66 						"/>
						<polygon style="fill:#BA68C8;" points="170.77,237.45 173.04,238.76 173.1,217.06 170.83,215.75 						"/>
						<polygon style="fill:#BA68C8;" points="170.7,260.38 172.97,261.69 173.02,244.43 170.75,243.12 						"/>
						<polygon style="fill:#BA68C8;" points="164.86,217.34 167.13,218.65 167.16,208.59 164.89,207.29 						"/>
						<polygon style="fill:#BA68C8;" points="164.8,239.03 167.07,240.34 167.09,230.29 164.83,228.98 						"/>
						<polygon style="fill:#BA68C8;" points="173.59,277.69 175.86,278.99 175.93,252.2 173.67,250.89 						"/>
						<polygon style="fill:#BA68C8;" points="173.68,244.81 175.95,246.12 176.01,224.54 173.74,223.23 						"/>
					</g>
				</g>
			</g>
			<g style="opacity:0.8;">
				<g>
					<g>
						<polygon style="fill:#FFFFFF;" points="249.55,252.01 251.81,253.32 251.97,197.4 249.7,196.09 						"/>
						<polygon style="fill:#FFFFFF;" points="249.52,261.82 251.78,263.13 251.8,258.12 249.53,256.81 						"/>
						<polygon style="fill:#FFFFFF;" points="246.51,255.27 248.78,256.58 248.79,251.57 246.53,250.26 						"/>
						<polygon style="fill:#FFFFFF;" points="255.38,265.2 257.65,266.51 257.66,261.5 255.4,260.2 						"/>
						<polygon style="fill:#FFFFFF;" points="255.55,204.89 255.54,209.89 257.81,211.2 257.82,206.2 						"/>
						<polygon style="fill:#FFFFFF;" points="252.5,247.01 254.77,248.32 254.86,216.73 252.59,215.42 						"/>
						<polygon style="fill:#FFFFFF;" points="246.55,243.58 248.81,244.88 248.9,213.29 246.63,211.98 						"/>
						<polygon style="fill:#FFFFFF;" points="255.49,227.43 257.76,228.74 257.79,218.42 255.52,217.11 						"/>
						<polygon style="fill:#FFFFFF;" points="255.43,248.71 257.7,250.01 257.74,234.22 255.48,232.91 						"/>
					</g>
					<g>
						<polygon style="fill:#FFFFFF;" points="223.29,269.05 223.28,274.06 225.54,275.37 225.56,270.36 						"/>
						<polygon style="fill:#FFFFFF;" points="214.38,268.93 216.65,270.24 216.67,265.23 214.4,263.92 						"/>
						<polygon style="fill:#FFFFFF;" points="214.41,258.66 216.68,259.97 216.71,248.38 214.45,247.07 						"/>
						<polygon style="fill:#FFFFFF;" points="223.25,284.27 225.51,285.58 225.53,280.58 223.26,279.27 						"/>
						<polygon style="fill:#FFFFFF;" points="217.32,303.44 219.59,304.74 219.73,255.34 217.46,254.04 						"/>
						<polygon style="fill:#FFFFFF;" points="217.21,343.27 219.47,344.58 219.57,311.52 217.3,310.21 						"/>
						<polygon style="fill:#FFFFFF;" points="220.25,305.13 222.51,306.44 222.58,283.88 220.31,282.58 						"/>
						<polygon style="fill:#FFFFFF;" points="220.19,325.27 222.46,326.58 222.5,311.82 220.23,310.51 						"/>
						<polygon style="fill:#FFFFFF;" points="214.24,318.62 216.51,319.93 216.62,282.08 214.35,280.77 						"/>
						<polygon style="fill:#FFFFFF;" points="223.1,334.76 225.37,336.07 225.42,319.18 223.15,317.88 						"/>
						<polygon style="fill:#FFFFFF;" points="223.19,306.33 225.45,307.64 225.48,297.94 223.21,296.63 						"/>
					</g>
					<g>
						<polygon style="fill:#FFFFFF;" points="282.38,288.8 282.37,293.8 284.63,295.11 284.65,290.1 						"/>
						<polygon style="fill:#FFFFFF;" points="273.24,370.79 275.51,372.1 275.52,367.09 273.26,365.78 						"/>
						<polygon style="fill:#FFFFFF;" points="282.33,304.59 284.6,305.9 284.62,300.9 282.35,299.59 						"/>
						<polygon style="fill:#FFFFFF;" points="276.3,361.81 278.56,363.11 278.8,279.87 276.53,278.57 						"/>
						<polygon style="fill:#FFFFFF;" points="279.26,351.5 281.53,352.81 281.68,299.2 279.41,297.89 						"/>
						<polygon style="fill:#FFFFFF;" points="273.41,310.28 275.68,311.59 275.71,301.54 273.44,300.23 						"/>
						<polygon style="fill:#FFFFFF;" points="273.35,332.91 275.61,334.21 275.66,317.33 273.4,316.02 						"/>
						<polygon style="fill:#FFFFFF;" points="273.29,353.95 275.56,355.26 275.6,338.37 273.34,337.06 						"/>
						<polygon style="fill:#FFFFFF;" points="282.21,348.97 284.48,350.28 284.52,333.39 282.26,332.08 						"/>
						<polygon style="fill:#FFFFFF;" points="282.29,321.16 284.55,322.47 284.58,312.35 282.32,311.04 						"/>
					</g>
					<g>
						<polygon style="fill:#FFFFFF;" points="173.78,209.29 173.77,214.3 176.04,215.6 176.05,210.6 						"/>
						<polygon style="fill:#FFFFFF;" points="164.75,256.05 167.02,257.36 167.03,252.35 164.77,251.04 						"/>
						<polygon style="fill:#FFFFFF;" points="164.72,266.98 166.99,268.29 167,263.28 164.73,261.97 						"/>
						<polygon style="fill:#FFFFFF;" points="167.78,252.78 170.05,254.09 170.18,207.97 167.92,206.66 						"/>
						<polygon style="fill:#FFFFFF;" points="170.77,237.45 173.04,238.76 173.1,217.06 170.83,215.75 						"/>
						<polygon style="fill:#FFFFFF;" points="170.7,260.38 172.97,261.69 173.02,244.43 170.75,243.12 						"/>
						<polygon style="fill:#FFFFFF;" points="164.86,217.34 167.13,218.65 167.16,208.59 164.89,207.29 						"/>
						<polygon style="fill:#FFFFFF;" points="164.8,239.03 167.07,240.34 167.09,230.29 164.83,228.98 						"/>
						<polygon style="fill:#FFFFFF;" points="173.59,277.69 175.86,278.99 175.93,252.2 173.67,250.89 						"/>
						<polygon style="fill:#FFFFFF;" points="173.68,244.81 175.95,246.12 176.01,224.54 173.74,223.23 						"/>
					</g>
				</g>
			</g>
		</g>
		<g>
			<g>
				<polygon style="opacity:0.08;fill:#BA68C8;" points="125.51,181.78 250.4,253.89 250.4,228.41 125.51,156.3 				"/>
				<polygon style="opacity:0.15;fill:#BA68C8;" points="125.51,232.75 250.4,304.86 250.4,279.37 125.51,207.27 				"/>
				<polygon style="opacity:0.1;fill:#BA68C8;" points="125.51,207.27 250.4,279.37 250.4,253.89 125.51,181.78 				"/>
				<polygon style="opacity:0.2;fill:#BA68C8;" points="125.51,258.23 250.4,330.34 250.4,304.86 125.51,232.75 				"/>
				<polygon style="opacity:0.25;fill:#BA68C8;" points="125.51,283.72 250.4,355.82 250.4,330.34 125.51,258.23 				"/>
				<polygon style="opacity:0.3;fill:#BA68C8;" points="125.51,309.2 250.4,381.31 250.4,355.82 125.51,283.72 				"/>
				<polygon style="opacity:0.06;fill:#BA68C8;" points="125.51,156.3 250.4,228.41 250.4,202.92 125.51,130.82 				"/>
				<polygon style="opacity:0.02;fill:#BA68C8;" points="125.51,30.6 125.51,105.33 250.4,177.44 250.4,102.7 				"/>
				<polygon style="opacity:0.03;fill:#BA68C8;" points="125.51,130.82 250.4,202.92 250.4,177.44 125.51,105.33 				"/>
			</g>
			<g style="opacity:0.8;">
				<polygon style="opacity:0.08;fill:#BA68C8;" points="375.29,181.78 250.4,253.89 250.4,228.41 375.29,156.3 				"/>
				<polygon style="opacity:0.15;fill:#BA68C8;" points="375.29,232.75 250.4,304.86 250.4,279.37 375.29,207.27 				"/>
				<polygon style="opacity:0.1;fill:#BA68C8;" points="375.29,207.27 250.4,279.37 250.4,253.89 375.29,181.78 				"/>
				<polygon style="opacity:0.2;fill:#BA68C8;" points="375.29,258.23 250.4,330.34 250.4,304.86 375.29,232.75 				"/>
				<polygon style="opacity:0.25;fill:#BA68C8;" points="375.29,283.72 250.4,355.82 250.4,330.34 375.29,258.23 				"/>
				<polygon style="opacity:0.3;fill:#BA68C8;" points="375.29,309.2 250.4,381.31 250.4,355.82 375.29,283.72 				"/>
				<polygon style="opacity:0.06;fill:#BA68C8;" points="375.29,156.3 250.4,228.41 250.4,202.92 375.29,130.82 				"/>
				<polygon style="opacity:0.02;fill:#BA68C8;" points="375.29,30.6 375.29,105.33 250.4,177.44 250.4,102.7 				"/>
				<polygon style="opacity:0.03;fill:#BA68C8;" points="375.29,130.82 250.4,202.92 250.4,177.44 375.29,105.33 				"/>
			</g>
		</g>
	</g>
</g>
<g id="Character_2">
	<g>
		<g>
			<g>
				<path style="fill:#FFFFFF;" d="M392.56,317.39l-4.18-8.68l0,0c-4.68-9.75-8.82-20.77-17.06-18.2l8.8,23.6l1.78,3.74l-4.25,4.67
					l0.31,11.16l13.69-11.89C392.91,320.7,393.29,318.9,392.56,317.39z"/>
				<path style="opacity:0.1;" d="M384.35,321.2c0,0-1.92-1.59-2.45-3.34l-1.06,1.16C381.4,319.87,382.51,320.79,384.35,321.2z"/>
				<path style="opacity:0.1;" d="M380.52,319.38l-2.86,3.15l0.31,11.16l2.58-2.24C380.23,327.43,380.22,323.39,380.52,319.38z"/>
			</g>
			<path style="opacity:0.1;" d="M380.35,298.85c-2-0.75-4.15-1.08-6.29-1.01l6.07,16.27l1.22,2.57
				C382.85,310.86,382.58,304.4,380.35,298.85z"/>
			<path style="fill:#F28F8F;" d="M353.67,281.39L353.67,281.39c-1.14,0.31-2.11,1.07-2.68,2.11l-2.95,5.38l-9.62,10.99
				c-2.87,3.28-4.87,7.22-5.83,11.47l0,0c-0.4,1.77,0.13,3.62,1.39,4.91l0,0c2.07,2.12,5.47,2.17,7.59,0.09l3.21-3.15l-0.7-4.94
				l8.34-16.24l4.6-2.69c0.97-0.57,1.63-1.54,1.82-2.64l0.35-2.13L353.67,281.39z"/>
			<g>
				<g>
					<g>
						<path style="fill:#455A64;" d="M358.56,432.14c-0.51,1.62-2.29,2.54-3.98,2.68c-1.69,0.13-3.36-0.34-5.03-0.64
							c-3.74-0.68-7.34-0.01-11.07-0.09c-1.22-0.03-2.46-0.08-3.64-0.4c-1.18-0.31-2.32-0.9-3.11-1.83
							c-0.46-0.55-0.78-1.24-0.9-1.95c-0.18,1.07,0.19,2.21,0.9,3.04c0.79,0.94,1.93,1.52,3.11,1.83c1.18,0.31,2.42,0.37,3.64,0.4
							c3.73,0.09,7.33-0.58,11.07,0.09c1.67,0.3,3.34,0.78,5.03,0.64c1.69-0.13,3.46-1.06,3.98-2.68c0.18-0.56,0.19-1.14,0.13-1.72
							C358.67,431.72,358.63,431.93,358.56,432.14z"/>
						<path style="fill:#455A64;" d="M358.47,429.04c-0.23-1.13-0.46-2.26-0.69-3.39c-0.12-0.6-0.25-1.21-0.58-1.73
							c-0.33-0.52-0.9-0.92-1.51-0.86c-2.05-0.27-4.92-1.01-6.62,0.16c-2.66,1.83-5.92,2.78-9.15,2.66
							c-1.69-0.06-3.38-0.41-5.06-0.2c-1.68,0.21-3.43,1.14-3.93,2.76c-0.15,0.48-0.17,0.98-0.09,1.47c0.11,0.71,0.43,1.4,0.9,1.95
							c0.79,0.94,1.93,1.52,3.11,1.83c1.18,0.31,2.42,0.37,3.64,0.4c3.73,0.09,7.33-0.58,11.07,0.09c1.67,0.3,3.34,0.78,5.03,0.64
							c1.69-0.13,3.46-1.06,3.98-2.68c0.07-0.21,0.1-0.42,0.13-0.63C358.79,430.7,358.63,429.85,358.47,429.04z"/>
					</g>
					<g style="opacity:0.5;">
						<path style="opacity:0.6;fill:#FFFFFF;" d="M358.56,432.14c-0.51,1.62-2.29,2.54-3.98,2.68c-1.69,0.13-3.36-0.34-5.03-0.64
							c-3.74-0.68-7.34-0.01-11.07-0.09c-1.22-0.03-2.46-0.08-3.64-0.4c-1.18-0.31-2.32-0.9-3.11-1.83
							c-0.46-0.55-0.78-1.24-0.9-1.95c-0.18,1.07,0.19,2.21,0.9,3.04c0.79,0.94,1.93,1.52,3.11,1.83c1.18,0.31,2.42,0.37,3.64,0.4
							c3.73,0.09,7.33-0.58,11.07,0.09c1.67,0.3,3.34,0.78,5.03,0.64c1.69-0.13,3.46-1.06,3.98-2.68c0.18-0.56,0.19-1.14,0.13-1.72
							C358.67,431.72,358.63,431.93,358.56,432.14z"/>
						<path style="fill:#37474F;" d="M358.47,429.04c-0.23-1.13-0.46-2.26-0.69-3.39c-0.12-0.6-0.25-1.21-0.58-1.73
							c-0.33-0.52-0.9-0.92-1.51-0.86c-2.05-0.27-4.92-1.01-6.62,0.16c-2.66,1.83-5.92,2.78-9.15,2.66
							c-1.69-0.06-3.38-0.41-5.06-0.2c-1.68,0.21-3.43,1.14-3.93,2.76c-0.15,0.48-0.17,0.98-0.09,1.47c0.11,0.71,0.43,1.4,0.9,1.95
							c0.79,0.94,1.93,1.52,3.11,1.83c1.18,0.31,2.42,0.37,3.64,0.4c3.73,0.09,7.33-0.58,11.07,0.09c1.67,0.3,3.34,0.78,5.03,0.64
							c1.69-0.13,3.46-1.06,3.98-2.68c0.07-0.21,0.1-0.42,0.13-0.63C358.79,430.7,358.63,429.85,358.47,429.04z"/>
					</g>
					<path style="fill:#FFA8A7;" d="M348.57,419.66l-0.15,4.42c-0.03,0.94,0.69,1.75,1.62,1.81c1.52,0.1,3,0.09,4.46-0.04
						c1.24-0.12,2.21-1.12,2.28-2.37l0.18-3.27L348.57,419.66z"/>
				</g>
				<g>
					<g>
						<path style="fill:#455A64;" d="M377.45,417.31c-0.05,0.66-0.2,1.3-0.59,1.83c-0.49,0.66-1.28,1.02-2.09,1.17
							c-1.94,0.36-4.06-0.51-5.18-2.13c-0.56-0.8-0.87-1.75-1.4-2.58c-0.73-1.14-1.83-2-2.9-2.82c-1.08-0.83-2.18-1.67-2.93-2.8
							c-0.72-1.1-1.05-2.53-0.56-3.74c-0.1,0.15-0.2,0.3-0.27,0.47c-0.58,1.27-0.24,2.82,0.52,3.98c0.76,1.17,1.89,2.04,2.99,2.89
							c1.1,0.85,2.22,1.73,2.96,2.91c0.54,0.85,0.86,1.83,1.43,2.66c1.15,1.67,3.31,2.57,5.29,2.2c0.82-0.16,1.63-0.54,2.13-1.21
							c0.53-0.71,0.64-1.65,0.62-2.54C377.46,417.49,377.45,417.4,377.45,417.31z"/>
						<path style="fill:#455A64;" d="M376.11,411.75c-1.34-2.36-4.12-4.07-6.26-5.74c-1.21-0.95-2.61-1.76-4.15-1.88
							c-1.53-0.13-3.21,0.58-3.86,1.97c-0.02,0.04-0.03,0.08-0.04,0.12c-0.5,1.21-0.16,2.64,0.56,3.74c0.75,1.13,1.85,1.98,2.93,2.8
							c1.08,0.83,2.17,1.68,2.9,2.82c0.53,0.82,0.84,1.77,1.4,2.58c1.12,1.62,3.24,2.5,5.18,2.13c0.8-0.15,1.6-0.52,2.09-1.17
							c0.39-0.52,0.55-1.17,0.59-1.83c0.02-0.21,0.02-0.43,0.01-0.64C377.43,414.95,376.96,413.25,376.11,411.75z"/>
					</g>
					<g style="opacity:0.5;">
						<path style="opacity:0.6;fill:#FFFFFF;" d="M377.45,417.31c-0.05,0.66-0.2,1.3-0.59,1.83c-0.49,0.66-1.28,1.02-2.09,1.17
							c-1.94,0.36-4.06-0.51-5.18-2.13c-0.56-0.8-0.87-1.75-1.4-2.58c-0.73-1.14-1.83-2-2.9-2.82c-1.08-0.83-2.18-1.67-2.93-2.8
							c-0.72-1.1-1.05-2.53-0.56-3.74c-0.1,0.15-0.2,0.3-0.27,0.47c-0.58,1.27-0.24,2.82,0.52,3.98c0.76,1.17,1.89,2.04,2.99,2.89
							c1.1,0.85,2.22,1.73,2.96,2.91c0.54,0.85,0.86,1.83,1.43,2.66c1.15,1.67,3.31,2.57,5.29,2.2c0.82-0.16,1.63-0.54,2.13-1.21
							c0.53-0.71,0.64-1.65,0.62-2.54C377.46,417.49,377.45,417.4,377.45,417.31z"/>
						<path style="fill:#37474F;" d="M376.11,411.75c-1.34-2.36-4.12-4.07-6.26-5.74c-1.21-0.95-2.61-1.76-4.15-1.88
							c-1.53-0.13-3.21,0.58-3.86,1.97c-0.02,0.04-0.03,0.08-0.04,0.12c-0.5,1.21-0.16,2.64,0.56,3.74c0.75,1.13,1.85,1.98,2.93,2.8
							c1.08,0.83,2.17,1.68,2.9,2.82c0.53,0.82,0.84,1.77,1.4,2.58c1.12,1.62,3.24,2.5,5.18,2.13c0.8-0.15,1.6-0.52,2.09-1.17
							c0.39-0.52,0.55-1.17,0.59-1.83c0.02-0.21,0.02-0.43,0.01-0.64C377.43,414.95,376.96,413.25,376.11,411.75z"/>
					</g>
					<path style="fill:#FFA8A7;" d="M370.28,409.71v4.02c3.67,1.53,6.25-0.28,6.25-0.28l0.38-3.62L370.28,409.71z"/>
				</g>
				<path style="fill:#455A64;" d="M377.96,336.79c1.21,3.62-0.28,20.8-0.98,37.28c2.61,6.23,1.91,23.91,0.4,36.47
					c0,0-2.61,1.61-7.34,0l-5.93-34.66l-0.82-19.59c0,0-1.49,17.38-3.2,28.54c1.61,8.54,1.21,10.15-2.76,36.42c0,0-4.07,2.37-8.89,0
					c-2.24-36.91-1.42-70.54-0.99-82.64L377.96,336.79z"/>
				<g>
					<path style="opacity:0.3;" d="M377.96,336.79l-30.51,1.81c-0.14,4.11-0.34,10.72-0.44,19.09c4.87,2.47,10.39,3.66,15.84,3.39
						c0.28-2.91,0.44-4.79,0.44-4.79l0.2,4.75c5.09-0.36,10.07-1.99,14.4-4.67C378.41,346.82,378.73,339.08,377.96,336.79z"/>
				</g>
				<path style="opacity:0.3;" d="M363.8,368.21l-0.67-15.98c4.13,0,7.96-3.09,10.88-6.01c-2.8,4.99-8.23,7.2-8.23,7.2L363.8,368.21
					z"/>
			</g>
			<path style="fill:#FFFFFF;" d="M380.84,350.38c-0.28-4.21-2.17-22.34-1.86-26.63c0.62-8.7,1.92-16.78,1.76-21.02
				c-0.23-6.33-1.01-13.46-10.82-12.03l-10.44,1.02l-5.3,1.29l-7.36,15.29v18.99l-0.99,27.33c8.08,3.39,15.49,3.69,21.41,2.65
				c1.18-4.59,1.95-9.28,2.3-14.01c1.01,4.48,1,8.88,1.12,13.22C376.33,354.85,380.08,352.09,380.84,350.38z"/>
			<path style="opacity:0.1;" d="M346.82,312.31l7.55-8.31c-1.78,9.08-7.55,15.52-7.55,15.52V312.31z"/>
			<g>
				<g>
					<path style="fill:#263238;" d="M354.47,270.22c-0.7-0.63-0.22-1.63-0.22-1.63c-0.49,0.18-1.11,0.06-1.55-0.22
						c-0.45-0.28-0.74-0.81-0.68-1.33c0.06-0.52,0.48-1,1.01-1.06c-0.49-0.07-0.89-0.42-1.19-0.81c-0.3-0.39-0.44-0.9-0.38-1.39
						c0.11-0.91,0.88-1.63,1.75-1.94c0.86-0.3,1.81-0.26,2.72-0.15c-0.34-0.94,0.23-2.19,1.15-2.58c0.81-0.34,1.78-0.1,2.5,0.41
						c0.72,0.5,1.25,1.23,1.77,1.95c2.01-1.01,4.43-1.26,6.52-0.42c2.09,0.84,3.79,2.61,4.55,4.73c1.65,0.48,2.98,1.96,3.46,3.61
						c0.48,1.65,0.26,3.44-0.3,5.06c-0.56,1.62-1.46,3.11-2.37,4.56c-0.43,0.69-0.87,1.38-1.3,2.07c-0.55,0.86-1.95,3.01-2.5,3.88
						c-2.38,1.22-5.44,0.92-7.72-0.47c-2.28-1.4-3.9-3.69-4.96-6.15C355.68,275.88,354.99,272.84,354.47,270.22z"/>
					<path style="fill:#272525;" d="M366.08,285.86c-1.53,0-3.1-0.42-4.46-1.26c-2.09-1.28-3.82-3.43-5.01-6.21
						c-1.09-2.55-1.78-5.67-2.25-8.11c-0.51-0.49-0.41-1.16-0.3-1.51c-0.46,0.08-0.99-0.03-1.42-0.29c-0.5-0.31-0.8-0.9-0.74-1.45
						c0.05-0.45,0.33-0.84,0.71-1.04c-0.37-0.17-0.67-0.48-0.86-0.74c-0.32-0.42-0.47-0.96-0.4-1.48c0.11-0.89,0.83-1.69,1.83-2.04
						c0.84-0.3,1.77-0.26,2.58-0.18c-0.23-0.97,0.35-2.16,1.28-2.55c0.77-0.33,1.78-0.17,2.62,0.42c0.72,0.5,1.26,1.23,1.74,1.89
						c2.14-1.04,4.51-1.18,6.52-0.37c2.1,0.84,3.82,2.62,4.6,4.75c1.62,0.49,2.98,1.93,3.48,3.67c0.56,1.92,0.15,3.86-0.3,5.14
						c-0.56,1.61-1.45,3.09-2.38,4.59c-0.43,0.69-0.87,1.38-1.3,2.07c-0.28,0.44-0.78,1.22-1.28,1.99
						c-0.48,0.74-0.95,1.46-1.21,1.89l-0.02,0.03l-0.03,0.02C368.43,285.6,367.27,285.86,366.08,285.86z M354.51,268.36l-0.13,0.28
						c-0.02,0.04-0.43,0.93,0.19,1.48l0.03,0.03l0.01,0.04c0.47,2.43,1.16,5.55,2.25,8.09c0.81,1.91,2.33,4.51,4.9,6.09
						c2.34,1.43,5.3,1.62,7.56,0.49c0.27-0.43,0.73-1.14,1.2-1.86c0.5-0.77,1-1.55,1.28-1.99c0.44-0.69,0.87-1.38,1.3-2.07
						c0.93-1.48,1.8-2.95,2.35-4.54c0.43-1.25,0.83-3.12,0.29-4.98c-0.48-1.66-1.84-3.07-3.37-3.52l-0.06-0.02l-0.02-0.06
						c-0.74-2.09-2.42-3.83-4.47-4.65c-1.97-0.79-4.31-0.64-6.41,0.41l-0.1,0.05l-0.06-0.09c-0.5-0.7-1.02-1.42-1.74-1.92
						c-0.6-0.42-1.55-0.75-2.38-0.4c-0.85,0.36-1.39,1.56-1.08,2.42l0.07,0.2l-0.21-0.03c-0.83-0.1-1.8-0.16-2.66,0.14
						c-0.75,0.26-1.55,0.93-1.66,1.83c-0.06,0.46,0.07,0.93,0.35,1.29c0.23,0.31,0.62,0.69,1.1,0.76l0.94,0.14l-0.95,0.12
						c-0.45,0.05-0.84,0.47-0.89,0.94c-0.05,0.46,0.2,0.95,0.62,1.21c0.45,0.28,1.02,0.36,1.44,0.21L354.51,268.36z"/>
				</g>
				<path style="fill:#F28F8F;" d="M353.28,275.58l-1.65,2.86l1.63,0.6C353.21,277.89,353.21,276.74,353.28,275.58z"/>
				<path style="fill:#FFA8A7;" d="M354.47,270.22c-0.5,1.57-1.09,3.56-1.2,5.36c-0.07,1.15-0.07,2.31-0.02,3.47
					c0.07,1.63,0.25,3.25,0.57,4.84c0.17,0.86,0.39,1.76,0.95,2.43c0.64,0.76,1.65,1.14,2.64,1.21c0.99,0.08,1.98-0.1,2.96-0.29v4.7
					c3.57,0.84,6.52,1.21,9.32-0.94l-0.3-6.04c-1.5,0.25-3.08,0.04-5.02-0.79c-2.46-1.33-3.15-3.45-2.81-4.64
					c0.36,0.6,1.24,0.83,1.93,0.68c0.68-0.16,1.25-0.66,1.6-1.27c0.35-0.61,0.51-1.31,0.6-2c0.11-0.85,0.1-1.77-0.37-2.48
					c-0.58-0.87-1.78-1.21-2.79-0.94c-1.01,0.27-1.83,1.05-2.35,1.96c-0.16,0.29-0.3,0.59-0.41,0.9c-0.21,0.56-1.03,0.46-1.08-0.14
					c-0.12-1.34,0.11-2.72,0.71-3.93c-0.44,0.19-0.84,0.32-1.32,0.31c-0.48-0.02-0.97-0.21-1.26-0.59
					c-0.29-0.38-0.34-0.96-0.05-1.33C355.6,271.29,354.47,270.22,354.47,270.22z"/>
			</g>
			<path style="fill:#FFFFFF;" d="M351.85,294.53c-1.75-2.45-5.07-3.64-7.98-2.87c-3.38,4.25-8.62,8.93-11.06,14.42
				c-0.66,1.5-1.23,3.06-1.43,4.69c-0.2,1.63,0,3.34,0.8,4.77c1.06,1.9,3.18,3.17,5.36,3.2c2.18,0.03,4.61-2.26,6.29-3.67
				c-0.27-6.71-2.25-8.92-2.25-8.92L351.85,294.53z"/>
			<path style="opacity:0.1;" d="M351.85,294.53c-0.49-0.69-1.11-1.26-1.81-1.74c-1.63,0.5-3.14,1.43-4.45,2.54
				c-1.67,1.42-3.05,3.13-4.43,4.83c-1.72,2.13-3.27,4.32-4.99,6.45l7.37,5.3c-0.63-4.26-1.96-5.76-1.96-5.76L351.85,294.53z"/>
			<path style="fill:#FFFFFF;" d="M336.18,306.61l9.9-9.73c2.2-2.17,5.07-3.54,8.13-3.9l0.18-0.02c4.19,9.18-1.35,13.66-1.35,13.66
				l-9.2,8.45C337.98,311.95,336.18,306.61,336.18,306.61z"/>
		</g>
	</g>
</g>
<g id="Character_1">
	<g>
		<g>
			<path style="fill:#37474F;" d="M142.29,418.57c3,3,6.82,5.17,10.94,6.23c1.19,0.3,2.58,0.67,3.02,1.81
				c0.41,1.08-0.31,2.29-1.23,2.98c-1.47,1.11-3.43,1.4-5.26,1.19c-1.83-0.21-3.57-0.86-5.31-1.49c-1.73-0.63-3.5-1.24-5.33-1.36
				c-0.87-0.06-1.75,0-2.6-0.15c-0.86-0.15-1.72-0.54-2.19-1.28c0.01-5.3,1.38-7.2,1.38-7.2L142.29,418.57z"/>
			<path style="fill:#BD7070;" d="M142.42,416.22v3.59c-2.42,2.64-6.25,0.88-6.71-0.52l-0.12-3.07H142.42z"/>
			<path style="fill:#37474F;" d="M124.37,403.35c4.3-3.88,6.68-3.73,7.71-2.95c1.04,0.78,2.9,3.26-1.86,7.46
				c-4.76,4.19-4.4,6.78-7.71,6.78s-2.69-3.31-2.69-3.31c0-1.58,0.52-3.39,0.52-3.39L124.37,403.35z"/>
			<path style="fill:#BD7070;" d="M125.92,405.83v2.54c-2.02,1.73-5.41,0.75-5.59-0.44l0.16-2.51L125.92,405.83z"/>
			<g>
				<path style="fill:#263238;" d="M145.6,335.32l1.86,44.11l-5.04,36.8c-2.69,1.73-6.83,0-6.83,0
					c-0.55-11.32-3.04-27.37-1.07-35.97l-3.73-23.71l-1.24,19.05c-0.21,11.18-3.11,23.09-3.62,30.24c-3,1.19-5.44-0.41-5.44-0.41
					c-1.67-14.88-4.99-22.88-1.81-33.52c-2.21-20.02-4.1-32.45-1.33-37.52L145.6,335.32z"/>
				<path style="opacity:0.1;fill:#FFFFFF;" d="M145.6,335.32l1.86,44.11l-5.04,36.8c-2.69,1.73-6.83,0-6.83,0
					c-0.55-11.32-3.04-27.37-1.07-35.97l-3.73-23.71l-1.24,19.05c-0.21,11.18-3.11,23.09-3.62,30.24c-3,1.19-5.44-0.41-5.44-0.41
					c-1.67-14.88-4.99-22.88-1.81-33.52c-2.21-20.02-4.1-32.45-1.33-37.52L145.6,335.32z"/>
				<path style="opacity:0.2;" d="M130.08,352.03l0.71,4.52l-0.39,6.01l-1.42-9.42c-4.3-0.57-6.16-3.93-6.16-3.93
					C126.18,351.68,130.08,352.03,130.08,352.03z"/>
			</g>
			<g>
				<path style="opacity:0.3;" d="M143.32,360.57c1.12-0.18,2.23-0.46,3.31-0.82l-1.03-24.43l-28.25-0.93
					c-1.99,3.64-1.58,11.08-0.37,22.37c2.23,1.42,4.76,2.4,7.34,3.01c2.04,0.49,4.11,0.76,6.2,0.93l0.27-4.15l0.66,4.22
					c1.25,0.08,2.5,0.13,3.74,0.17C137.91,361.01,140.64,361.01,143.32,360.57z"/>
			</g>
		</g>
		<g>
			<g>
				<path style="fill:#FFFFFF;" d="M146.36,327.62c-0.04-0.67-0.08-1.34-0.12-2c0-0.01,0-0.01,0-0.02h0
					c-0.56-8.74-1.34-16.51-1.34-16.51L137.02,294l-13.01-1.74c-5.44-0.53-7.79,5.44-7.71,10.96c0.04,3.25,1.74,11.5,2.79,20
					c-4.94,10.43-4.63,23.7-4.53,28.83c2.25,1.61,4.71,2.88,7.24,3.84c-0.03-3.71,0.31-7.43,1.07-11.06
					c0.01,3.89,0.5,7.94,1.22,11.84c10.13,3.07,20.9,1.63,24.49-1.55C148.59,355.12,147.06,338.63,146.36,327.62z"/>
				<g>
					<path style="fill:#37474F;" d="M141.27,277.55c0.8-1.65,1.32-3.49,1.13-5.32c-0.19-1.83-1.17-3.63-2.79-4.5
						c-1.62-0.87-3.87-0.58-4.99,0.87c-2.98-1.48-6.71-1.51-9.48,0.34c-2.77,1.84-4.44,5.23-4.22,8.55c0.13,1.91,0.83,3.79,0.61,5.7
						c-0.13,1.12-0.57,2.25-0.27,3.34c0.25,0.91,0.98,1.62,1.82,2.06c0.83,0.44,2.79,0.32,3.71,0.51c2.82,2.56,6.35,1.6,8.6-0.68
						C137.63,286.13,141.27,277.55,141.27,277.55z"/>
					<polygon style="fill:#A85353;" points="141.86,280.09 143.62,283.15 141.69,283.86 					"/>
					<path style="fill:#BD7070;" d="M142.06,278.73c-0.28-2.68-1.07-5.21-2.81-6.49c0.6,3.52-0.6,7.54-2.01,9.6
						c-0.17-0.88-0.63-1.69-1.3-2.3c-0.67-0.61-1.67-0.89-2.5-0.53c-0.58,0.25-1.02,0.78-1.26,1.37c-0.46,1.15-0.2,2.56,0.65,3.46
						c0.85,0.9,2.24,1.24,3.42,0.84c-0.4,2.39-2.44,4.35-4.81,4.87c-1.55,0.34-3.18,0.14-4.66-0.44l-0.73,3.61
						c2.94,3.14,7.97,1.03,7.97,1.03l0.66-3.56c5.79,0.34,6.33,0.25,6.97-2.94C142,285.49,142.4,281.99,142.06,278.73z"/>
					<path style="fill:#263238;" d="M129.24,274.83c-0.83-2.3-2.47-4.35-4.61-5.5c-2.46,1.9-3.92,5.05-3.72,8.16
						c0.13,1.91,0.83,3.79,0.61,5.7c-0.13,1.12-0.57,2.25-0.27,3.34c0.25,0.91,0.98,1.62,1.82,2.06c0.84,0.44,2.79,0.32,3.71,0.51
						c0.12,0.11,0.41,0.09,0.53,0.19c0.96-1.88,1.61-3.72,2.13-5.76C130.15,280.67,130.23,277.6,129.24,274.83z"/>
					<path style="fill:#37474F;" d="M127.63,272.82c-0.9-2.97-3.86-5.2-6.97-5.24c-3.11-0.04-6.12,2.11-7.1,5.06
						c-1.75,5.29,2.73,10.9,1.75,16.38c-0.35,1.97-1.4,3.77-1.75,5.74c-0.41,2.27,0.15,4.71,1.52,6.57c1.37,1.86,3.53,3.12,5.82,3.4
						c-1.26-1.38-1.28-3.53-0.56-5.25c0.72-1.73,1.99-3.15,3.09-4.66C127.88,288.74,129.82,280.04,127.63,272.82z"/>
				</g>
				<path style="opacity:0.1;" d="M140.91,315.42c1.47,2.14,3.2,4.09,5.03,5.94c-0.5-6.86-1.05-12.27-1.05-12.27l-5.76-11.04
					c-1,1.39-1.78,2.93-2.28,4.56C135.52,306.95,138.34,311.68,140.91,315.42z"/>
				<g>
					<g>
						<polygon style="fill:#455A64;" points="180.24,283.56 171.1,310.05 152.21,299.56 161.25,273.37 						"/>
						<polygon style="opacity:0.3;" points="180.24,283.56 171.1,310.05 152.21,299.56 161.25,273.37 						"/>
						<polygon style="opacity:0.4;fill:#FFFFFF;" points="180.24,283.56 171.1,310.05 152.21,299.56 161.25,273.37 						"/>
						<polygon style="fill:#FFFFFF;" points="155.01,298.49 162.54,276.68 177.43,284.66 169.82,306.7 						"/>
						<g>
							<polygon style="fill:#455A64;" points="165.16,278.3 173.44,282.64 173.8,281.53 172.19,280.12 167.66,277.84 165.6,277.46 
															"/>
							<polygon style="fill:#37474F;" points="167.66,277.84 168.01,277 172.44,279.38 172.19,280.12 							"/>
							<polygon style="fill:#455A64;" points="165.45,275.62 175.45,280.99 175.88,279.95 165.79,274.65 							"/>
							<path style="fill:#37474F;" d="M168.15,275.89c0.87-2.75,6.1-0.16,5.08,2.67L168.15,275.89z"/>
						</g>
						<path style="fill:#BD7070;" d="M150.85,304.93l6.98,9.06l12.12-11.92c0.68-0.67,1.11-1.54,1.23-2.49
							c0.58-4.52,1.83-7.75,3.44-7.18c1.01,0.36-0.28,4.76-0.28,4.76l1.51-0.86l1.76-5.11h0.8c0.86,0,1.62,0.54,1.9,1.35l0.76,2.18
							c0.92,2.65,0.01,5.58-2.24,7.25l-2.66,1.97c-0.4,0.29-0.74,0.66-1.01,1.08c-5.23,7.93-10.82,14.7-14.22,18.17
							c-1.21,1.24-3.14,1.43-4.59,0.47c-7.42-4.9-13.55-13.19-13.55-13.19L150.85,304.93z"/>
					</g>
					<path style="fill:#FFFFFF;" d="M165.3,305.06l-7.46,7.2l-9.74-12.47c-2.41-3.13-5.97-5.17-9.89-5.64l-1.19-0.14
						c0,0-2.38,9.98,2.72,15.54l9.75,10.32c3.57,3.82,6.46,6.08,9.24,5.7c2.77-0.38,4.3-1.98,7.16-5.7
						c2.86-3.72,7.97-10.16,7.97-10.16C172.46,304.85,168.03,304.34,165.3,305.06z"/>
					<path style="opacity:0.1;" d="M159.94,310.23l-2.1,2.03l3.45,3.88C161.7,314.01,160.66,311.58,159.94,310.23z"/>
				</g>
			</g>
		</g>
	</g>
</g>
</svg>
