<?xml version="1.0" encoding="utf-8"?>
<!-- Generator: Adobe Illustrator 27.9.0, SVG Export Plug-In . SVG Version: 6.00 Build 0)  -->
<svg version="1.1" id="Calque_1" xmlns="http://www.w3.org/2000/svg" xmlns:xlink="http://www.w3.org/1999/xlink" x="0px" y="0px"
	 viewBox="0 0 5.5 29.3" style="enable-background:new 0 0 5.5 29.3;" xml:space="preserve">
<style type="text/css">
	.st0{fill:url(#SVGID_1_);}
	.st1{fill:#7AFF73;}
	.st2{fill:url(#SVGID_00000054232009698061365420000012725069593838924934_);}
	.st3{fill:url(#SVGID_00000005965018344522302200000001483926975557989774_);}
	.st4{fill:#FFFFFF;}
	.st5{fill:url(#SVGID_00000041998177876347567480000002749089885087631013_);}
	.st6{fill:url(#SVGID_00000026853320111560437680000012159927835743666351_);}
	.st7{fill:url(#SVGID_00000018234230899055055350000002692001359861941949_);}
	.st8{fill:url(#SVGID_00000018222053266456481140000007847271908525748900_);}
</style>
<linearGradient id="SVGID_1_" gradientUnits="userSpaceOnUse" x1="767.185" y1="173.1208" x2="767.185" y2="1000.2637" gradientTransform="matrix(1 0 0 -1 0 875.7563)">
	<stop  offset="0" style="stop-color:#0F0D0E"/>
	<stop  offset="0.1578" style="stop-color:#100D12"/>
	<stop  offset="0.325" style="stop-color:#130B1F"/>
	<stop  offset="0.4967" style="stop-color:#180934"/>
	<stop  offset="0.6715" style="stop-color:#1F0652"/>
	<stop  offset="0.8468" style="stop-color:#280378"/>
	<stop  offset="0.9478" style="stop-color:#2E0091"/>
</linearGradient>
<rect x="17.2" y="-104.5" class="st0" width="1500" height="794.6"/>
<g>
	<g>
		<g>
			<g>
				<g>
					<rect x="291.7" y="340.4" class="st1" width="26" height="2.8"/>
				</g>
				<g>
					<rect x="291.7" y="323.6" class="st1" width="26" height="2.8"/>
				</g>
				<g>
					<rect x="291.7" y="306.8" class="st1" width="26" height="2.8"/>
				</g>
				<g>
					<rect x="291.7" y="290" class="st1" width="26" height="2.8"/>
				</g>
				<g>
					<rect x="291.7" y="273.2" class="st1" width="26" height="2.8"/>
				</g>
				<g>
					<rect x="291.7" y="256.3" class="st1" width="26" height="2.8"/>
				</g>
				<g>
					<rect x="291.7" y="239.5" class="st1" width="26" height="2.8"/>
				</g>
				<g>
					<rect x="291.7" y="222.7" class="st1" width="26" height="2.8"/>
				</g>
			</g>
			<g>
				<g>
					<rect x="73.6" y="340.4" class="st1" width="26" height="2.8"/>
				</g>
				<g>
					<rect x="73.6" y="323.6" class="st1" width="26" height="2.8"/>
				</g>
				<g>
					<rect x="73.6" y="306.8" class="st1" width="26" height="2.8"/>
				</g>
				<g>
					<rect x="73.6" y="290" class="st1" width="26" height="2.8"/>
				</g>
				<g>
					<rect x="73.6" y="273.2" class="st1" width="26" height="2.8"/>
				</g>
				<g>
					<rect x="73.6" y="256.3" class="st1" width="26" height="2.8"/>
				</g>
				<g>
					<rect x="73.6" y="239.5" class="st1" width="26" height="2.8"/>
				</g>
				<g>
					<rect x="73.6" y="222.7" class="st1" width="26" height="2.8"/>
				</g>
			</g>
		</g>
		<g>
			<g>
				<g>
					<rect x="135.4" y="379" class="st1" width="2.8" height="73.8"/>
				</g>
				<g>
					<rect x="152.2" y="379" class="st1" width="2.8" height="26"/>
				</g>
				<g>
					<rect x="169" y="379" class="st1" width="2.8" height="26"/>
				</g>
				<g>
					<rect x="185.8" y="379" class="st1" width="2.8" height="26"/>
				</g>
				<g>
					<rect x="202.6" y="379" class="st1" width="2.8" height="26"/>
				</g>
				<g>
					<rect x="219.4" y="379" class="st1" width="2.8" height="26"/>
				</g>
				<g>
					<rect x="236.3" y="379" class="st1" width="2.8" height="26"/>
				</g>
				<g>
					<rect x="253.1" y="379" class="st1" width="2.8" height="26"/>
				</g>
			</g>
			<g>
				<g>
					<rect x="135.4" y="160.9" class="st1" width="2.8" height="26"/>
				</g>
				<g>
					<rect x="152.2" y="160.9" class="st1" width="2.8" height="26"/>
				</g>
				<g>
					<rect x="169" y="160.9" class="st1" width="2.8" height="26"/>
				</g>
				<g>
					<rect x="185.8" y="160.9" class="st1" width="2.8" height="26"/>
				</g>
				<g>
					<rect x="202.6" y="160.9" class="st1" width="2.8" height="26"/>
				</g>
				<g>
					<rect x="219.4" y="160.9" class="st1" width="2.8" height="26"/>
				</g>
				<g>
					<rect x="236.3" y="160.9" class="st1" width="2.8" height="26"/>
				</g>
				<g>
					<rect x="253.1" y="160.9" class="st1" width="2.8" height="26"/>
				</g>
			</g>
		</g>
	</g>
	
		<linearGradient id="SVGID_00000029756042143339173500000011559053877986127796_" gradientUnits="userSpaceOnUse" x1="1132.8876" y1="705.5677" x2="1132.8876" y2="501.6459" gradientTransform="matrix(-1 0 0 -1 1328.4827 875.7563)">
		<stop  offset="0" style="stop-color:#0F0D0E"/>
		<stop  offset="0.1927" style="stop-color:#100D12"/>
		<stop  offset="0.3659" style="stop-color:#120C1C"/>
		<stop  offset="0.5315" style="stop-color:#170A2F"/>
		<stop  offset="0.6925" style="stop-color:#1D0749"/>
		<stop  offset="0.8486" style="stop-color:#250469"/>
		<stop  offset="1" style="stop-color:#2E0091"/>
	</linearGradient>
	<path style="fill:url(#SVGID_00000029756042143339173500000011559053877986127796_);" d="M292.8,231.4v103.1
		c0,25.2-20.4,45.6-45.6,45.6H144c-25.2,0-45.6-20.4-45.6-45.6V231.4c0-25.2,20.4-45.6,45.6-45.6h103.1
		C272.4,185.8,292.8,206.2,292.8,231.4z"/>
	
		<linearGradient id="SVGID_00000034086227693259379750000008050369047019861181_" gradientUnits="userSpaceOnUse" x1="1132.8926" y1="670.6083" x2="1132.8926" y2="514.7335" gradientTransform="matrix(-1 0 0 -1 1328.4827 875.7563)">
		<stop  offset="0" style="stop-color:#FF47E3"/>
		<stop  offset="0.1557" style="stop-color:#FB46E2;stop-opacity:0.8443"/>
		<stop  offset="0.2956" style="stop-color:#F142DD;stop-opacity:0.7044"/>
		<stop  offset="0.4296" style="stop-color:#DE3CD6;stop-opacity:0.5704"/>
		<stop  offset="0.5598" style="stop-color:#C433CC;stop-opacity:0.4402"/>
		<stop  offset="0.6873" style="stop-color:#A328BF;stop-opacity:0.3127"/>
		<stop  offset="0.8128" style="stop-color:#7A1AAF;stop-opacity:0.1872"/>
		<stop  offset="0.9344" style="stop-color:#4B0A9C;stop-opacity:6.560000e-02"/>
		<stop  offset="1" style="stop-color:#2E0091;stop-opacity:0"/>
	</linearGradient>
	<path style="fill:url(#SVGID_00000034086227693259379750000008050369047019861181_);" d="M278.2,239.1v87.7
		c0,21.4-17.4,38.8-38.8,38.8h-87.7c-21.4,0-38.8-17.4-38.8-38.8v-87.7c0-21.4,17.4-38.8,38.8-38.8h87.7
		C260.8,200.3,278.2,217.7,278.2,239.1z"/>
	<g>
		<g>
			<path class="st4" d="M196.5,354.8c-17.8,0-31.8-30.2-31.8-68.8c0-32.5,10.1-60.1,24.6-67.1l1.2,2.5
				c-13.4,6.5-23.1,33.7-23.1,64.6c0,36.4,13,66.1,29,66.1c16,0,29-29.6,29-66c0-31.4-9.9-58.6-23.4-64.8l1.1-2.5
				c14.8,6.7,25.1,34.4,25.1,67.3C228.3,324.6,214.3,354.8,196.5,354.8z"/>
		</g>
		<g>
			<path class="st4" d="M230.8,330c-15.2,0-36.2-8.5-55.9-23.6c-30.7-23.3-46.3-52.7-35.6-66.9c10.8-14.2,43.3-7,74,16.3
				c25.9,19.6,41.7,44.4,38.5,60.2l-2.7-0.5c2.9-14.6-12.8-38.8-37.5-57.5c-29-22-60.5-29.6-70.1-16.9c-9.7,12.7,6,41,35,63.1
				c25,19,52.6,27.6,65.8,20.5l1.3,2.4C240.1,329.1,235.8,330,230.8,330z"/>
		</g>
		<g>
			<path class="st4" d="M160.4,330c-5,0-9.3-0.9-12.8-2.8l1.3-2.4c13.1,7.1,40.8-1.5,65.8-20.5c14.2-10.8,25.6-23.4,32.2-35.5
				c6.4-11.8,7.4-21.6,2.8-27.6c-9.7-12.7-41.1-5.2-70.1,16.9c-24.6,18.7-40.4,42.9-37.5,57.5l-2.7,0.5
				c-3.2-15.8,12.7-40.6,38.5-60.2c30.7-23.3,63.2-30.5,74-16.3c5.3,6.9,4.3,17.8-2.6,30.5c-6.8,12.4-18.5,25.4-32.9,36.4
				C196.5,321.4,175.6,330,160.4,330z"/>
		</g>
		<g>
			<path class="st1" d="M196.5,226c-4.1,0-7.4-3.3-7.4-7.4s3.3-7.4,7.4-7.4s7.4,3.3,7.4,7.4C204,222.7,200.6,226,196.5,226z
				 M196.5,213.9c-2.6,0-4.7,2.1-4.7,4.7c0,2.6,2.1,4.7,4.7,4.7c2.6,0,4.7-2.1,4.7-4.7S199.1,213.9,196.5,213.9z"/>
		</g>
		<g>
			<path class="st1" d="M247.8,329.3c-1.6,0-3.1-0.5-4.5-1.5l0,0c-3.3-2.5-3.9-7.2-1.4-10.4c2.5-3.3,7.2-3.9,10.4-1.4
				c1.6,1.2,2.6,3,2.9,4.9c0.3,2-0.2,3.9-1.4,5.5C252.2,328.3,250,329.3,247.8,329.3z M244.9,325.6c2.1,1.6,5,1.2,6.6-0.9
				c0.8-1,1.1-2.2,0.9-3.5s-0.8-2.3-1.8-3.1s-2.2-1.1-3.5-0.9c-1.2,0.2-2.3,0.8-3.1,1.8C242.5,321.1,242.9,324.1,244.9,325.6
				L244.9,325.6z"/>
		</g>
		<g>
			<path class="st1" d="M143.4,329.3c-2.2,0-4.5-1-5.9-2.9c-1.2-1.6-1.7-3.5-1.4-5.5s1.3-3.7,2.9-4.9c3.3-2.5,7.9-1.9,10.4,1.4
				c2.5,3.3,1.8,8-1.4,10.4l0,0C146.6,328.9,145,329.3,143.4,329.3z M143.4,317.2c-1,0-2,0.3-2.8,1c-1,0.8-1.6,1.9-1.8,3.1
				c-0.2,1.2,0.2,2.5,0.9,3.5c1.6,2.1,4.5,2.5,6.6,0.9c2.1-1.6,2.5-4.5,0.9-6.6c-0.8-1-1.9-1.6-3.1-1.8
				C143.8,317.2,143.6,317.2,143.4,317.2z"/>
		</g>
	</g>
	
		<linearGradient id="SVGID_00000133512373888758323060000012415937834269877928_" gradientUnits="userSpaceOnUse" x1="2321.2542" y1="793.9725" x2="2327.7139" y2="741.9538" gradientTransform="matrix(1 0 0 1 -2127.2424 -498.2641)">
		<stop  offset="0" style="stop-color:#0F0D0E"/>
		<stop  offset="0.1927" style="stop-color:#100D12"/>
		<stop  offset="0.3659" style="stop-color:#120C1C"/>
		<stop  offset="0.5315" style="stop-color:#170A2F"/>
		<stop  offset="0.6925" style="stop-color:#1D0749"/>
		<stop  offset="0.8486" style="stop-color:#250469"/>
		<stop  offset="1" style="stop-color:#2E0091"/>
	</linearGradient>
	<circle style="fill:url(#SVGID_00000133512373888758323060000012415937834269877928_);" cx="195.6" cy="283" r="16.6"/>
</g>
<g>
	<g>
		<g>
			<g>
				<g>
					<rect x="1183.1" y="338.1" class="st1" width="26" height="2.8"/>
				</g>
				<g>
					<rect x="1183.1" y="321.3" class="st1" width="26" height="2.8"/>
				</g>
				<g>
					<rect x="1183.1" y="304.5" class="st1" width="26" height="2.8"/>
				</g>
				<g>
					<rect x="1183.1" y="287.7" class="st1" width="26" height="2.8"/>
				</g>
				<g>
					<rect x="1183.1" y="270.8" class="st1" width="26" height="2.8"/>
				</g>
				<g>
					<rect x="1183.1" y="254" class="st1" width="26" height="2.8"/>
				</g>
				<g>
					<rect x="1183.1" y="237.2" class="st1" width="26" height="2.8"/>
				</g>
				<g>
					<rect x="1183.1" y="220.4" class="st1" width="26" height="2.8"/>
				</g>
			</g>
			<g>
				<g>
					<rect x="1401.2" y="338.1" class="st1" width="26" height="2.8"/>
				</g>
				<g>
					<rect x="1401.2" y="321.3" class="st1" width="26" height="2.8"/>
				</g>
				<g>
					<rect x="1401.2" y="304.5" class="st1" width="26" height="2.8"/>
				</g>
				<g>
					<rect x="1401.2" y="287.7" class="st1" width="26" height="2.8"/>
				</g>
				<g>
					<rect x="1401.2" y="270.8" class="st1" width="26" height="2.8"/>
				</g>
				<g>
					<rect x="1401.2" y="254" class="st1" width="26" height="2.8"/>
				</g>
				<g>
					<rect x="1401.2" y="237.2" class="st1" width="26" height="2.8"/>
				</g>
				<g>
					<rect x="1401.2" y="220.4" class="st1" width="26" height="2.8"/>
				</g>
			</g>
		</g>
		<g>
			<g>
				<g>
					<rect x="1362.6" y="376.7" class="st1" width="2.8" height="76.1"/>
				</g>
				<g>
					<rect x="1345.8" y="376.7" class="st1" width="2.8" height="26"/>
				</g>
				<g>
					<rect x="1329" y="376.7" class="st1" width="2.8" height="26"/>
				</g>
				<g>
					<rect x="1312.2" y="376.7" class="st1" width="2.8" height="26"/>
				</g>
				<g>
					<rect x="1295.3" y="376.7" class="st1" width="2.8" height="26"/>
				</g>
				<g>
					<rect x="1278.5" y="376.7" class="st1" width="2.8" height="26"/>
				</g>
				<g>
					<rect x="1261.7" y="376.7" class="st1" width="2.8" height="26"/>
				</g>
				<g>
					<rect x="1244.9" y="376.7" class="st1" width="2.8" height="26"/>
				</g>
			</g>
			<g>
				<g>
					<rect x="1362.6" y="158.6" class="st1" width="2.8" height="26"/>
				</g>
				<g>
					<rect x="1345.8" y="158.6" class="st1" width="2.8" height="26"/>
				</g>
				<g>
					<rect x="1329" y="158.6" class="st1" width="2.8" height="26"/>
				</g>
				<g>
					<rect x="1312.2" y="158.6" class="st1" width="2.8" height="26"/>
				</g>
				<g>
					<rect x="1295.3" y="158.6" class="st1" width="2.8" height="26"/>
				</g>
				<g>
					<rect x="1278.5" y="158.6" class="st1" width="2.8" height="26"/>
				</g>
				<g>
					<rect x="1261.7" y="158.6" class="st1" width="2.8" height="26"/>
				</g>
				<g>
					<rect x="1244.9" y="158.6" class="st1" width="2.8" height="26"/>
				</g>
			</g>
		</g>
	</g>
	
		<linearGradient id="SVGID_00000119101686514170283560000005934138324515727764_" gradientUnits="userSpaceOnUse" x1="1305.1251" y1="707.8937" x2="1305.1251" y2="503.9718" gradientTransform="matrix(1 0 0 -1 0 875.7563)">
		<stop  offset="0" style="stop-color:#0F0D0E"/>
		<stop  offset="0.1927" style="stop-color:#100D12"/>
		<stop  offset="0.3659" style="stop-color:#120C1C"/>
		<stop  offset="0.5315" style="stop-color:#170A2F"/>
		<stop  offset="0.6925" style="stop-color:#1D0749"/>
		<stop  offset="0.8486" style="stop-color:#250469"/>
		<stop  offset="1" style="stop-color:#2E0091"/>
	</linearGradient>
	<path style="fill:url(#SVGID_00000119101686514170283560000005934138324515727764_);" d="M1207.9,229.1v103.1
		c0,25.2,20.4,45.6,45.6,45.6h103.1c25.2,0,45.6-20.4,45.6-45.6V229.1c0-25.2-20.4-45.6-45.6-45.6h-103.1
		C1228.4,183.4,1207.9,203.9,1207.9,229.1z"/>
	
		<linearGradient id="SVGID_00000183935784607068011890000014562333824636474260_" gradientUnits="userSpaceOnUse" x1="1305.1302" y1="672.9343" x2="1305.1302" y2="517.0594" gradientTransform="matrix(1 0 0 -1 0 875.7563)">
		<stop  offset="0" style="stop-color:#FF47E3"/>
		<stop  offset="0.1557" style="stop-color:#FB46E2;stop-opacity:0.8443"/>
		<stop  offset="0.2956" style="stop-color:#F142DD;stop-opacity:0.7044"/>
		<stop  offset="0.4296" style="stop-color:#DE3CD6;stop-opacity:0.5704"/>
		<stop  offset="0.5598" style="stop-color:#C433CC;stop-opacity:0.4402"/>
		<stop  offset="0.6873" style="stop-color:#A328BF;stop-opacity:0.3127"/>
		<stop  offset="0.8128" style="stop-color:#7A1AAF;stop-opacity:0.1872"/>
		<stop  offset="0.9344" style="stop-color:#4B0A9C;stop-opacity:6.560000e-02"/>
		<stop  offset="1" style="stop-color:#2E0091;stop-opacity:0"/>
	</linearGradient>
	<path style="fill:url(#SVGID_00000183935784607068011890000014562333824636474260_);" d="M1222.5,236.8v87.7
		c0,21.4,17.4,38.8,38.8,38.8h87.7c21.4,0,38.8-17.4,38.8-38.8v-87.7c0-21.4-17.4-38.8-38.8-38.8h-87.7
		C1239.9,198,1222.5,215.4,1222.5,236.8z"/>
	<g>
		<g>
			<path class="st4" d="M1304.2,352.5c-17.8,0-31.8-30.2-31.8-68.8c0-32.9,10.3-60.6,25.1-67.3l1.1,2.5
				c-13.6,6.2-23.4,33.4-23.4,64.8c0,36.4,13,66,29,66s29-29.6,29-66c0-31-9.7-58.1-23.1-64.6l1.2-2.5c14.5,7,24.6,34.6,24.6,67.1
				C1336,322.2,1322,352.5,1304.2,352.5z"/>
		</g>
		<g>
			<path class="st4" d="M1269.9,327.6c-5,0-9.3-0.9-12.8-2.8l1.3-2.4c13.1,7.1,40.8-1.5,65.8-20.5c29-22,44.7-50.3,35-63
				c-9.7-12.7-41.1-5.2-70.1,16.9c-24.7,18.7-40.4,42.9-37.5,57.5l-2.7,0.5c-3.2-15.8,12.7-40.6,38.5-60.2
				c30.7-23.3,63.2-30.5,74-16.3c10.8,14.2-4.8,43.6-35.6,66.9C1306.1,319.1,1285.1,327.6,1269.9,327.6z"/>
		</g>
		<g>
			<path class="st4" d="M1340.3,327.6c-15.2,0-36.2-8.5-55.9-23.6c-30.7-23.3-46.3-52.7-35.6-66.9c5.3-6.9,15.9-8.9,30.1-5.7
				c13.8,3.2,29.4,11,43.9,22c25.8,19.6,41.7,44.4,38.5,60.2l-2.7-0.5c2.9-14.6-12.8-38.8-37.5-57.5c-14.2-10.8-29.4-18.4-42.8-21.5
				c-13.1-3-22.8-1.4-27.3,4.6c-9.7,12.7,6,41,35,63.1c25,19,52.7,27.6,65.8,20.5l1.3,2.4C1349.7,326.7,1345.3,327.6,1340.3,327.6z"
				/>
		</g>
		<g>
			<path class="st1" d="M1304.2,223.7c-4.1,0-7.4-3.3-7.4-7.4s3.3-7.4,7.4-7.4s7.4,3.3,7.4,7.4
				C1311.7,220.3,1308.3,223.7,1304.2,223.7z M1304.2,211.5c-2.6,0-4.7,2.1-4.7,4.7c0,2.6,2.1,4.7,4.7,4.7s4.7-2.1,4.7-4.7
				C1308.9,213.6,1306.8,211.5,1304.2,211.5z"/>
		</g>
		<g>
			<path class="st1" d="M1253,327c-0.3,0-0.7,0-1-0.1c-2-0.3-3.7-1.3-4.9-2.9c-2.5-3.3-1.8-8,1.4-10.4c1.6-1.2,3.5-1.7,5.5-1.5
				s3.7,1.3,4.9,2.9s1.7,3.5,1.4,5.5s-1.3,3.7-2.9,4.9C1256.1,326.5,1254.6,327,1253,327z M1252.9,314.9c-1,0-2,0.3-2.8,1
				c-1,0.8-1.6,1.9-1.8,3.1c-0.2,1.2,0.2,2.5,0.9,3.5c0.8,1,1.9,1.6,3.1,1.8c1.2,0.2,2.5-0.2,3.5-0.9c2.1-1.6,2.5-4.5,0.9-6.6
				c-0.8-1-1.9-1.6-3.1-1.8C1253.4,314.9,1253.1,314.9,1252.9,314.9z"/>
		</g>
		<g>
			<path class="st1" d="M1357.3,327c-1.6,0-3.2-0.5-4.5-1.5l0,0c-1.6-1.2-2.6-3-2.9-4.9s0.2-3.9,1.4-5.5c2.5-3.3,7.2-3.9,10.4-1.4
				c1.6,1.2,2.6,3,2.9,4.9s-0.2,3.9-1.4,5.5C1361.8,326,1359.6,327,1357.3,327z M1354.5,323.3c2.1,1.6,5,1.2,6.6-0.9
				c0.8-1,1.1-2.2,0.9-3.5c-0.2-1.2-0.8-2.3-1.8-3.1s-2.2-1.1-3.5-0.9c-1.2,0.2-2.3,0.8-3.1,1.8s-1.1,2.2-0.9,3.5
				C1352.8,321.5,1353.5,322.6,1354.5,323.3L1354.5,323.3z"/>
		</g>
	</g>
	
		<linearGradient id="SVGID_00000069389213373696473650000009282953266640720571_" gradientUnits="userSpaceOnUse" x1="2149.0161" y1="791.647" x2="2155.4758" y2="739.6283" gradientTransform="matrix(-1 0 0 1 3455.7251 -498.2641)">
		<stop  offset="0" style="stop-color:#0F0D0E"/>
		<stop  offset="0.1927" style="stop-color:#100D12"/>
		<stop  offset="0.3659" style="stop-color:#120C1C"/>
		<stop  offset="0.5315" style="stop-color:#170A2F"/>
		<stop  offset="0.6925" style="stop-color:#1D0749"/>
		<stop  offset="0.8486" style="stop-color:#250469"/>
		<stop  offset="1" style="stop-color:#2E0091"/>
	</linearGradient>
	<circle style="fill:url(#SVGID_00000069389213373696473650000009282953266640720571_);" cx="1305.1" cy="280.6" r="16.7"/>
</g>
<g>
	<g>
		<path class="st1" d="M1170.8,145.3c-3.6,0-6.5-2.9-6.5-6.5c0-3.6,2.9-6.5,6.5-6.5s6.5,2.9,6.5,6.5
			C1177.3,142.4,1174.3,145.3,1170.8,145.3z M1170.8,135.1c-2.1,0-3.7,1.7-3.7,3.7c0,2.1,1.7,3.7,3.7,3.7s3.7-1.7,3.7-3.7
			S1172.8,135.1,1170.8,135.1z"/>
	</g>
	<g>
		<path class="st1" d="M1170.8,172.7c-18.7,0-33.9-15.2-33.9-33.9s15.2-33.9,33.9-33.9s33.9,15.2,33.9,33.9
			S1189.5,172.7,1170.8,172.7z M1170.8,107.7c-17.2,0-31.2,14-31.2,31.2s14,31.2,31.2,31.2s31.2-14,31.2-31.2
			C1201.9,121.6,1188,107.7,1170.8,107.7z"/>
	</g>
	<g>
		<path class="st1" d="M1363.5,464.4c-3.6,0-6.5-2.9-6.5-6.5s2.9-6.5,6.5-6.5s6.5,2.9,6.5,6.5C1370,461.5,1367.1,464.4,1363.5,464.4
			z M1363.5,454.2c-2.1,0-3.7,1.7-3.7,3.7s1.7,3.7,3.7,3.7s3.7-1.7,3.7-3.7C1367.3,455.8,1365.6,454.2,1363.5,454.2z"/>
	</g>
	<g>
		<path class="st1" d="M1289.1,112.8c-3.6,0-6.5-2.9-6.5-6.5c0-3.6,2.9-6.5,6.5-6.5c3.6,0,6.5,2.9,6.5,6.5
			C1295.6,109.9,1292.7,112.8,1289.1,112.8z M1289.1,102.6c-2.1,0-3.7,1.7-3.7,3.7c0,2.1,1.7,3.7,3.7,3.7s3.7-1.7,3.7-3.7
			C1292.9,104.2,1291.2,102.6,1289.1,102.6z"/>
	</g>
	<g>
		<rect x="1171.6" y="104.9" class="st1" width="112.4" height="2.8"/>
	</g>
	<g>
		<path class="st1" d="M1267.2,493.5h-95.5c-19.2,0-34.8-15.6-34.8-34.8l-0.1-409.6h2.8l0.1,409.6c0,17.6,14.4,32,32,32h95.5V493.5z
			"/>
	</g>
	<g>
		<path class="st1" d="M1423.5,493.5H448.3v-2.8h975.2c20.8,0,37.7-16.9,37.7-37.7V49.1h2.8v403.9
			C1463.9,475.4,1445.8,493.5,1423.5,493.5z M249.4,493.5H75.6c-22.3,0-40.4-18.1-40.4-40.4V49.1h2.8v403.9
			c0,20.8,16.9,37.7,37.7,37.7h173.7V493.5z"/>
	</g>
	<g>
		<path class="st1" d="M1424.2,193.5c-3.8,0-6.8-3.1-6.8-6.8s3.1-6.8,6.8-6.8c3.8,0,6.8,3.1,6.8,6.8
			C1431,190.5,1427.9,193.5,1424.2,193.5z M1424.2,182.7c-2.2,0-4.1,1.8-4.1,4.1c0,2.2,1.8,4.1,4.1,4.1c2.2,0,4.1-1.8,4.1-4.1
			C1428.2,184.5,1426.4,182.7,1424.2,182.7z"/>
	</g>
	<g>
		<rect x="1429.2" y="158.9" class="st1" width="34" height="2.8"/>
	</g>
	<g>
		<path class="st1" d="M1424.2,167.1c-3.8,0-6.8-3.1-6.8-6.8c0-3.8,3.1-6.8,6.8-6.8c3.8,0,6.8,3.1,6.8,6.8
			C1431,164.1,1427.9,167.1,1424.2,167.1z M1424.2,156.3c-2.2,0-4.1,1.8-4.1,4.1c0,2.2,1.8,4.1,4.1,4.1c2.2,0,4.1-1.8,4.1-4.1
			C1428.2,158.1,1426.4,156.3,1424.2,156.3z"/>
	</g>
	<g>
		<rect x="1429.2" y="185.3" class="st1" width="33.5" height="2.8"/>
	</g>
	<g>
		<path class="st1" d="M1424.9,139.3c-3.8,0-6.8-3.1-6.8-6.8c0-3.8,3.1-6.8,6.8-6.8s6.8,3.1,6.8,6.8
			C1431.7,136.2,1428.6,139.3,1424.9,139.3z M1424.9,128.4c-2.2,0-4.1,1.8-4.1,4.1c0,2.2,1.8,4.1,4.1,4.1c2.2,0,4.1-1.8,4.1-4.1
			C1428.9,130.3,1427.1,128.4,1424.9,128.4z"/>
	</g>
	<g>
		<rect x="1324" y="104.7" class="st1" width="139.9" height="2.8"/>
	</g>
	<g>
		<path class="st1" d="M1319,112.9c-3.8,0-6.8-3.1-6.8-6.8s3.1-6.8,6.8-6.8s6.8,3,6.8,6.8C1325.8,109.9,1322.7,112.9,1319,112.9z
			 M1319,102c-2.2,0-4.1,1.8-4.1,4.1c0,2.2,1.8,4.1,4.1,4.1c2.2,0,4.1-1.8,4.1-4.1C1323,103.9,1321.2,102,1319,102z"/>
	</g>
	<g>
		<rect x="1429.9" y="131.1" class="st1" width="33.5" height="2.8"/>
	</g>
	<g>
		<path class="st1" d="M329.2,145.3c-3.6,0-6.5-2.9-6.5-6.5c0-3.6,2.9-6.5,6.5-6.5c3.6,0,6.5,2.9,6.5,6.5
			C335.7,142.4,332.8,145.3,329.2,145.3z M329.2,135.1c-2.1,0-3.7,1.7-3.7,3.7c0,2.1,1.7,3.7,3.7,3.7c2.1,0,3.7-1.7,3.7-3.7
			C333,136.8,331.3,135.1,329.2,135.1z"/>
	</g>
	<g>
		<path class="st1" d="M329.2,172.7c-18.7,0-33.9-15.2-33.9-33.9s15.2-33.9,33.9-33.9s33.9,15.2,33.9,33.9S347.9,172.7,329.2,172.7z
			 M329.2,107.7c-17.2,0-31.2,14-31.2,31.2s14,31.2,31.2,31.2s31.2-14,31.2-31.2C360.4,121.6,346.4,107.7,329.2,107.7z"/>
	</g>
	<g>
		<path class="st1" d="M71.5,464.4c-3.6,0-6.5-2.9-6.5-6.5s2.9-6.5,6.5-6.5c3.6,0,6.5,2.9,6.5,6.5C78,461.5,75.1,464.4,71.5,464.4z
			 M71.5,454.2c-2.1,0-3.7,1.7-3.7,3.7s1.7,3.7,3.7,3.7c2.1,0,3.7-1.7,3.7-3.7C75.2,455.8,73.5,454.2,71.5,454.2z"/>
	</g>
	<g>
		<path class="st1" d="M71.5,491.8c-18.7,0-33.9-15.2-33.9-33.9S52.8,424,71.5,424s33.9,15.2,33.9,33.9
			C105.4,476.6,90.2,491.8,71.5,491.8z M71.5,426.7c-17.2,0-31.2,14-31.2,31.2s14,31.2,31.2,31.2s31.2-14,31.2-31.2
			C102.6,440.7,88.7,426.7,71.5,426.7z"/>
	</g>
	<g>
		<path class="st1" d="M136.5,464.4c-3.6,0-6.5-2.9-6.5-6.5s2.9-6.5,6.5-6.5c3.6,0,6.5,2.9,6.5,6.5C143,461.5,140,464.4,136.5,464.4
			z M136.5,454.2c-2.1,0-3.7,1.7-3.7,3.7s1.7,3.7,3.7,3.7c2.1,0,3.7-1.7,3.7-3.7C140.2,455.8,138.5,454.2,136.5,454.2z"/>
	</g>
	<g>
		<path class="st1" d="M254.5,498.6c-3.6,0-6.5-2.9-6.5-6.5s2.9-6.5,6.5-6.5s6.5,2.9,6.5,6.5S258,498.6,254.5,498.6z M254.5,488.4
			c-2.1,0-3.7,1.7-3.7,3.7s1.7,3.7,3.7,3.7c2.1,0,3.7-1.7,3.7-3.7S256.5,488.4,254.5,488.4z"/>
	</g>
	<g>
		<path class="st1" d="M443.2,498.6c-3.6,0-6.5-2.9-6.5-6.5s2.9-6.5,6.5-6.5c3.6,0,6.5,2.9,6.5,6.5S446.8,498.6,443.2,498.6z
			 M443.2,488.4c-2.1,0-3.7,1.7-3.7,3.7s1.7,3.7,3.7,3.7c2.1,0,3.7-1.7,3.7-3.7S445.3,488.4,443.2,488.4z"/>
	</g>
	<g>
		<path class="st1" d="M105,112.8c-3.6,0-6.5-2.9-6.5-6.5c0-3.6,2.9-6.5,6.5-6.5c3.6,0,6.5,2.9,6.5,6.5
			C111.5,109.9,108.5,112.8,105,112.8z M105,102.6c-2.1,0-3.7,1.7-3.7,3.7c0,2.1,1.7,3.7,3.7,3.7c2.1,0,3.7-1.7,3.7-3.7
			C108.7,104.2,107,102.6,105,102.6z"/>
	</g>
	<g>
		<path class="st1" d="M363,549.1h-2.8l0.1-409.4c0-8.6-3.3-16.6-9.4-22.6c-6-6.1-14.1-9.4-22.6-9.4H110.1v-2.7h218.3
			c9.3,0,18,3.6,24.6,10.2c6.6,6.6,10.2,15.3,10.2,24.6L363,549.1z"/>
	</g>
	<g>
		<path class="st1" d="M75.8,193.5c-3.8,0-6.8-3.1-6.8-6.8s3.1-6.8,6.8-6.8c3.8,0,6.8,3.1,6.8,6.8C82.7,190.5,79.6,193.5,75.8,193.5
			z M75.8,182.7c-2.2,0-4.1,1.8-4.1,4.1c0,2.2,1.8,4.1,4.1,4.1s4.1-1.8,4.1-4.1C79.9,184.5,78.1,182.7,75.8,182.7z"/>
	</g>
	<g>
		<rect x="36.8" y="158.9" class="st1" width="34" height="2.8"/>
	</g>
	<g>
		<path class="st1" d="M75.8,167.1c-3.8,0-6.8-3.1-6.8-6.8c0-3.8,3.1-6.8,6.8-6.8c3.8,0,6.8,3.1,6.8,6.8
			C82.7,164.1,79.6,167.1,75.8,167.1z M75.8,156.3c-2.2,0-4.1,1.8-4.1,4.1c0,2.2,1.8,4.1,4.1,4.1s4.1-1.8,4.1-4.1
			C79.9,158.1,78.1,156.3,75.8,156.3z"/>
	</g>
	<g>
		<rect x="37.3" y="185.3" class="st1" width="33.5" height="2.8"/>
	</g>
	<g>
		<path class="st1" d="M75.2,139.3c-3.8,0-6.8-3.1-6.8-6.8c0-3.8,3.1-6.8,6.8-6.8c3.8,0,6.8,3.1,6.8,6.8S78.9,139.3,75.2,139.3z
			 M75.2,128.4c-2.2,0-4.1,1.8-4.1,4.1c0,2.2,1.8,4.1,4.1,4.1s4.1-1.8,4.1-4.1C79.2,130.3,77.4,128.4,75.2,128.4z"/>
	</g>
	<g>
		<rect x="36.1" y="104.7" class="st1" width="34" height="2.8"/>
	</g>
	<g>
		<path class="st1" d="M75.2,112.9c-3.8,0-6.8-3.1-6.8-6.8s3.1-6.8,6.8-6.8c3.8,0,6.8,3,6.8,6.8C82,109.9,78.9,112.9,75.2,112.9z
			 M75.2,102c-2.2,0-4.1,1.8-4.1,4.1c0,2.2,1.8,4.1,4.1,4.1s4.1-1.8,4.1-4.1C79.2,103.9,77.4,102,75.2,102z"/>
	</g>
	<g>
		<rect x="36.6" y="131.1" class="st1" width="33.5" height="2.8"/>
	</g>
	<g>
		<path class="st1" d="M1427.2,464.4c-3.6,0-6.5-2.9-6.5-6.5s2.9-6.5,6.5-6.5s6.5,2.9,6.5,6.5
			C1433.7,461.5,1430.7,464.4,1427.2,464.4z M1427.2,454.2c-2.1,0-3.7,1.7-3.7,3.7s1.7,3.7,3.7,3.7s3.7-1.7,3.7-3.7
			C1430.9,455.8,1429.2,454.2,1427.2,454.2z"/>
	</g>
	<g>
		<path class="st1" d="M1427.2,491.8c-18.7,0-33.9-15.2-33.9-33.9s15.2-33.9,33.9-33.9s33.9,15.2,33.9,33.9
			C1461.1,476.6,1445.9,491.8,1427.2,491.8z M1427.2,426.7c-17.2,0-31.2,14-31.2,31.2s14,31.2,31.2,31.2s31.2-14,31.2-31.2
			C1458.3,440.7,1444.4,426.7,1427.2,426.7z"/>
	</g>
</g>
<g id="TEXTS">
	<g>
		<text transform="matrix(1.1 0 0 1 396.3411 292.7384)" class="st1" style="font-family:'ArialMT'; font-size:60px;">To take control of my life</text>
	</g>
</g>
</svg>
