<?xml version="1.0" encoding="utf-8"?>
<!-- Generator: Adobe Illustrator 27.9.0, SVG Export Plug-In . SVG Version: 6.00 Build 0)  -->
<svg version="1.1" xmlns="http://www.w3.org/2000/svg" xmlns:xlink="http://www.w3.org/1999/xlink" x="0px" y="0px"
	 viewBox="0 0 1200 630" style="enable-background:new 0 0 1200 630;" xml:space="preserve">
<style type="text/css">
	.st0{fill:url(#SVGID_1_);}
	.st1{fill:url(#SVGID_00000113323950899998128140000000060308934419358618_);}
	.st2{fill:url(#SVGID_00000176724839803461088600000003179122986471660735_);}
	.st3{fill:#FFFFFF;}
	.st4{fill:url(#SVGID_00000021079984562285832160000018091231905959238558_);}
	.st5{fill:url(#SVGID_00000070110136592167647840000016212632908232132254_);}
	.st6{fill:url(#SVGID_00000004524867177458639170000000255015568151253635_);}
	.st7{fill:#7AFF73;}
	.st8{font-family:'DMSans-Medium';}
	.st9{font-size:64.2063px;}
</style>
<g id="BACKGROUND">
	
		<linearGradient id="SVGID_1_" gradientUnits="userSpaceOnUse" x1="0" y1="315" x2="1200" y2="315" gradientTransform="matrix(-1 0 0 -1 1200 630)">
		<stop  offset="0" style="stop-color:#0F0D0E"/>
		<stop  offset="0.1517" style="stop-color:#120C1B"/>
		<stop  offset="0.4299" style="stop-color:#1A083C"/>
		<stop  offset="0.8008" style="stop-color:#270371"/>
		<stop  offset="1" style="stop-color:#2E0091"/>
	</linearGradient>
	<polygon class="st0" points="0,0 1200,0 1200,630 0,630 	"/>
</g>
<g id="OBJECTS">
	<g>
		
			<linearGradient id="SVGID_00000023260429713842414590000007452548238543408572_" gradientUnits="userSpaceOnUse" x1="334.5806" y1="445.5668" x2="334.5806" y2="384.7863">
			<stop  offset="0" style="stop-color:#7AFF73"/>
			<stop  offset="8.495504e-02" style="stop-color:#77F574;stop-opacity:0.915"/>
			<stop  offset="0.2268" style="stop-color:#6FDC77;stop-opacity:0.7732"/>
			<stop  offset="0.4081" style="stop-color:#63B27C;stop-opacity:0.5919"/>
			<stop  offset="0.6218" style="stop-color:#527883;stop-opacity:0.3782"/>
			<stop  offset="0.8599" style="stop-color:#3C2E8C;stop-opacity:0.1401"/>
			<stop  offset="1" style="stop-color:#2E0091;stop-opacity:0"/>
		</linearGradient>
		<path style="fill:url(#SVGID_00000023260429713842414590000007452548238543408572_);" d="M133.7,414.7c0,9.9,8,17.9,17.9,17.9h366
			c9.9,0,17.9-8,17.9-17.9v-5.5H133.7V414.7z"/>
		
			<linearGradient id="SVGID_00000120520488788072107520000005873539460038989235_" gradientUnits="userSpaceOnUse" x1="334.5806" y1="538.3258" x2="334.5806" y2="157.7567">
			<stop  offset="0" style="stop-color:#0F0D0E"/>
			<stop  offset="0.1927" style="stop-color:#100D12"/>
			<stop  offset="0.3659" style="stop-color:#120C1C"/>
			<stop  offset="0.5315" style="stop-color:#170A2F"/>
			<stop  offset="0.6925" style="stop-color:#1D0749"/>
			<stop  offset="0.8486" style="stop-color:#250469"/>
			<stop  offset="1" style="stop-color:#2E0091"/>
		</linearGradient>
		<path style="fill:url(#SVGID_00000120520488788072107520000005873539460038989235_);" d="M517.6,147.7h-366
			c-9.9,0-17.9,8-17.9,17.9v243.7h401.8V165.6C535.5,155.7,527.5,147.7,517.6,147.7z"/>
		<g>
			<g>
				<polygon class="st3" points="452.1,483.1 217.1,483.1 215.9,482 215.3,478 216.1,476.6 286.9,454.4 286.9,432.6 289.4,432.6 
					289.4,455.3 288.5,456.5 217.9,478.7 218.2,480.6 451,480.6 451.3,478.7 380.6,456.5 379.8,455.3 379.8,432.6 382.3,432.6 
					382.3,454.4 453,476.6 453.9,478 453.3,482 				"/>
			</g>
		</g>
		
			<linearGradient id="SVGID_00000071523543026316934440000008693588805504803765_" gradientUnits="userSpaceOnUse" x1="334.5806" y1="49.5973" x2="334.5806" y2="450.6486">
			<stop  offset="0" style="stop-color:#FF47E3"/>
			<stop  offset="0.1557" style="stop-color:#FB46E2;stop-opacity:0.8443"/>
			<stop  offset="0.2956" style="stop-color:#F142DD;stop-opacity:0.7044"/>
			<stop  offset="0.4296" style="stop-color:#DE3CD6;stop-opacity:0.5704"/>
			<stop  offset="0.5598" style="stop-color:#C433CC;stop-opacity:0.4402"/>
			<stop  offset="0.6873" style="stop-color:#A328BF;stop-opacity:0.3127"/>
			<stop  offset="0.8128" style="stop-color:#7A1AAF;stop-opacity:0.1872"/>
			<stop  offset="0.9344" style="stop-color:#4B0A9C;stop-opacity:6.563032e-02"/>
			<stop  offset="1" style="stop-color:#2E0091;stop-opacity:0"/>
		</linearGradient>
		<path style="fill:url(#SVGID_00000071523543026316934440000008693588805504803765_);" d="M510.6,172.6v211.8h-352V172.6H510.6"/>
		<g>
			<path class="st3" d="M201.4,278.5c0,0,69.1,64.1,133.2,64.1c64.1,0,133.2-64.1,133.2-64.1s-69.1-64.1-133.2-64.1
				C270.5,214.4,201.4,278.5,201.4,278.5z"/>
			
				<linearGradient id="SVGID_00000090990382504820756320000012738847657365205384_" gradientUnits="userSpaceOnUse" x1="339.2743" y1="324.6812" x2="326.9764" y2="203.5936">
				<stop  offset="0" style="stop-color:#FF47E3"/>
				<stop  offset="0.1551" style="stop-color:#FB46E2;stop-opacity:0.8443"/>
				<stop  offset="0.2945" style="stop-color:#F142DD;stop-opacity:0.7044"/>
				<stop  offset="0.4279" style="stop-color:#DE3CD6;stop-opacity:0.5704"/>
				<stop  offset="0.5576" style="stop-color:#C433CC;stop-opacity:0.4402"/>
				<stop  offset="0.6846" style="stop-color:#A328BF;stop-opacity:0.3127"/>
				<stop  offset="0.8097" style="stop-color:#7A1AAF;stop-opacity:0.1872"/>
				<stop  offset="0.9308" style="stop-color:#4B0A9C;stop-opacity:6.563032e-02"/>
				<stop  offset="0.9961" style="stop-color:#2E0091;stop-opacity:0"/>
			</linearGradient>
			<circle style="fill:url(#SVGID_00000090990382504820756320000012738847657365205384_);" cx="334.6" cy="278.5" r="64.1"/>
			<g>
				<path class="st3" d="M334.6,343l0-52.5h0c0.4,0,0.8,0,1.3-0.1l5.4,52.3C339,342.8,336.8,343,334.6,343z M308.3,337.4
					c-2.1-0.9-4.1-2-6-3.1l26.4-45.4c0.4,0.2,0.7,0.4,1.1,0.6L308.3,337.4z M366.8,334.4l-26.3-45.5c0.4-0.2,0.7-0.4,1.1-0.7
					l30.9,42.5C370.6,332,368.7,333.2,366.8,334.4z M282.4,316.4c-1.3-1.8-2.6-3.7-3.7-5.7l45.5-26.3c0.2,0.4,0.4,0.7,0.7,1
					L282.4,316.4z M390.4,310.8l-45.4-26.4c0.2-0.4,0.4-0.7,0.6-1.1l48,21.5C392.5,306.9,391.5,308.9,390.4,310.8z M270.4,285.2
					c-0.2-2.2-0.3-4.5-0.3-6.7v-0.2h52.5v0.2c0,0.4,0,0.9,0.1,1.3L270.4,285.2z M346.5,278.5L346.5,278.5c0-0.5,0-0.9-0.1-1.3
					l52.3-5.3c0.2,2.2,0.3,4.4,0.3,6.6L346.5,278.5z M323.7,273.6L275.8,252c0.9-2,2-4.1,3.1-6l45.4,26.5
					C324,272.8,323.8,273.2,323.7,273.6z M345,272.5c-0.2-0.4-0.4-0.7-0.7-1.1l42.6-30.8c1.3,1.8,2.5,3.7,3.7,5.7L345,272.5z
					 M327.6,268.8l-30.8-42.6c1.8-1.3,3.7-2.5,5.7-3.7l26.2,45.6C328.3,268.3,327.9,268.5,327.6,268.8z M340.6,268.1
					c-0.4-0.2-0.7-0.4-1.1-0.6l21.5-47.9c2,0.9,4.1,2,6,3.1L340.6,268.1z M333.3,266.6l-5.2-52.3c2.1-0.2,4.3-0.3,6.5-0.3l0.1,52.5
					h-0.1C334.2,266.5,333.7,266.5,333.3,266.6z"/>
			</g>
			
				<linearGradient id="SVGID_00000183213000334354454880000017710977337121197707_" gradientUnits="userSpaceOnUse" x1="332.1798" y1="259.1324" x2="341.9714" y2="337.9809">
				<stop  offset="0" style="stop-color:#0F0D0E"/>
				<stop  offset="0.1927" style="stop-color:#100D12"/>
				<stop  offset="0.3659" style="stop-color:#120C1C"/>
				<stop  offset="0.5315" style="stop-color:#170A2F"/>
				<stop  offset="0.6925" style="stop-color:#1D0749"/>
				<stop  offset="0.8486" style="stop-color:#250469"/>
				<stop  offset="1" style="stop-color:#2E0091"/>
			</linearGradient>
			<circle style="fill:url(#SVGID_00000183213000334354454880000017710977337121197707_);" cx="334.6" cy="278.5" r="25.2"/>
			<circle class="st3" cx="351.3" cy="261.7" r="8.5"/>
		</g>
	</g>
	<g>
		<g>
			<path class="st7" d="M574.6,568.8H507l-1.2-1.2v-67.6l1.2-1.2h67.6l1.2,1.2v67.6L574.6,568.8z M508.2,566.3h65.1v-65.1h-65.1
				V566.3z"/>
		</g>
		<g>
			<rect x="556.2" y="538.8" class="st7" width="2.5" height="29.4"/>
		</g>
		<g>
			<rect x="522.9" y="499.9" class="st7" width="2.5" height="47"/>
		</g>
		<g>
			<rect x="539.5" y="520.5" class="st7" width="2.5" height="47"/>
		</g>
		<g>
			<rect x="545.4" y="514.6" class="st7" width="29.2" height="2.5"/>
		</g>
		<g>
			<rect x="507" y="550.4" class="st7" width="12.5" height="2.5"/>
		</g>
		<g>
			<rect x="384.7" y="532.5" class="st7" width="167.6" height="2.5"/>
		</g>
		<g>
			<rect x="562.5" y="532.5" class="st7" width="39.8" height="2.5"/>
		</g>
		<g>
			<path class="st7" d="M524.1,558c-3.5,0-6.4-2.9-6.4-6.4c0-3.5,2.9-6.4,6.4-6.4c3.5,0,6.4,2.9,6.4,6.4
				C530.5,555.1,527.6,558,524.1,558z M524.1,547.8c-2.1,0-3.9,1.7-3.9,3.9c0,2.1,1.7,3.9,3.9,3.9c2.1,0,3.9-1.7,3.9-3.9
				C528,549.5,526.3,547.8,524.1,547.8z"/>
		</g>
		<g>
			<path class="st7" d="M540.8,522.2c-3.5,0-6.4-2.9-6.4-6.4c0-3.5,2.9-6.4,6.4-6.4c3.5,0,6.4,2.9,6.4,6.4
				C547.1,519.4,544.3,522.2,540.8,522.2z M540.8,512c-2.1,0-3.9,1.7-3.9,3.9c0,2.1,1.7,3.9,3.9,3.9c2.1,0,3.9-1.7,3.9-3.9
				C544.6,513.8,542.9,512,540.8,512z"/>
		</g>
		<g>
			<path class="st7" d="M69.1,74.6c-3.5,0-6.4-2.9-6.4-6.4c0-3.5,2.9-6.4,6.4-6.4c3.5,0,6.4,2.9,6.4,6.4
				C75.5,71.8,72.6,74.6,69.1,74.6z M69.1,64.4c-2.1,0-3.9,1.7-3.9,3.9c0,2.1,1.7,3.9,3.9,3.9s3.9-1.7,3.9-3.9
				C73,66.2,71.3,64.4,69.1,64.4z"/>
		</g>
		<g>
			<path class="st7" d="M69.1,102.1c-18.6,0-33.8-15.2-33.8-33.8s15.2-33.8,33.8-33.8s33.8,15.2,33.8,33.8S87.8,102.1,69.1,102.1z
				 M69.1,37c-17.3,0-31.3,14-31.3,31.3s14,31.3,31.3,31.3c17.3,0,31.3-14,31.3-31.3S86.4,37,69.1,37z"/>
		</g>
		<g>
			<path class="st7" d="M69.1,567.6c-3.5,0-6.4-2.9-6.4-6.4c0-3.5,2.9-6.4,6.4-6.4c3.5,0,6.4,2.9,6.4,6.4
				C75.5,564.7,72.6,567.6,69.1,567.6z M69.1,557.4c-2.1,0-3.9,1.7-3.9,3.9c0,2.1,1.7,3.9,3.9,3.9s3.9-1.7,3.9-3.9
				C73,559.1,71.3,557.4,69.1,557.4z"/>
		</g>
		<g>
			<path class="st7" d="M69.1,595c-18.6,0-33.8-15.2-33.8-33.8c0-18.6,15.2-33.8,33.8-33.8s33.8,15.2,33.8,33.8
				C102.9,579.9,87.8,595,69.1,595z M69.1,530c-17.3,0-31.3,14-31.3,31.3c0,17.3,14,31.3,31.3,31.3c17.3,0,31.3-14,31.3-31.3
				C100.4,544,86.4,530,69.1,530z"/>
		</g>
		<g>
			<path class="st7" d="M1200,595.2H70c-19.1,0-34.6-15.5-34.6-34.6V69.1h2.5v491.5c0,17.7,14.4,32.1,32.1,32.1h1130V595.2z"/>
		</g>
		<g>
			<rect x="67.9" y="73.4" class="st7" width="2.5" height="482.7"/>
		</g>
		<g>
			<path class="st7" d="M557.4,540.1c-3.5,0-6.4-2.9-6.4-6.4c0-3.5,2.9-6.4,6.4-6.4c3.5,0,6.4,2.9,6.4,6.4
				C563.8,537.3,560.9,540.1,557.4,540.1z M557.4,529.9c-2.1,0-3.9,1.7-3.9,3.9c0,2.1,1.7,3.9,3.9,3.9s3.9-1.7,3.9-3.9
				C561.3,531.6,559.6,529.9,557.4,529.9z"/>
		</g>
		<g>
			<path class="st7" d="M512.2,99.9c-3.2,0-5.9-2.6-5.9-5.9c0-3.2,2.6-5.9,5.9-5.9c3.2,0,5.9,2.6,5.9,5.9
				C518.1,97.3,515.5,99.9,512.2,99.9z M512.2,90.6c-1.9,0-3.4,1.5-3.4,3.4c0,1.9,1.5,3.4,3.4,3.4c1.9,0,3.4-1.5,3.4-3.4
				C515.6,92.2,514.1,90.6,512.2,90.6z"/>
		</g>
		<g>
			<rect x="533.9" y="35" class="st7" width="2.5" height="54.8"/>
		</g>
		<g>
			<path class="st7" d="M535.2,99.9c-3.2,0-5.9-2.6-5.9-5.9c0-3.2,2.6-5.9,5.9-5.9c3.2,0,5.9,2.6,5.9,5.9
				C541.1,97.3,538.4,99.9,535.2,99.9z M535.2,90.6c-1.9,0-3.4,1.5-3.4,3.4c0,1.9,1.5,3.4,3.4,3.4c1.9,0,3.4-1.5,3.4-3.4
				C538.6,92.2,537,90.6,535.2,90.6z"/>
		</g>
		<g>
			<rect x="556.4" y="35" class="st7" width="2.5" height="54.8"/>
		</g>
		<g>
			<path class="st7" d="M557.7,99.9c-3.2,0-5.9-2.6-5.9-5.9c0-3.2,2.6-5.9,5.9-5.9c3.2,0,5.9,2.6,5.9,5.9
				C563.6,97.3,561,99.9,557.7,99.9z M557.7,90.6c-1.9,0-3.4,1.5-3.4,3.4c0,1.9,1.5,3.4,3.4,3.4c1.9,0,3.4-1.5,3.4-3.4
				C561.1,92.2,559.6,90.6,557.7,90.6z"/>
		</g>
		<g>
			<rect x="578.9" y="35" class="st7" width="2.5" height="54.8"/>
		</g>
		<g>
			<path class="st7" d="M580.3,99.9c-3.2,0-5.9-2.6-5.9-5.9c0-3.2,2.6-5.9,5.9-5.9c3.2,0,5.9,2.6,5.9,5.9
				C586.1,97.3,583.5,99.9,580.3,99.9z M580.3,90.6c-1.9,0-3.4,1.5-3.4,3.4c0,1.9,1.5,3.4,3.4,3.4c1.9,0,3.4-1.5,3.4-3.4
				C583.6,92.2,582.1,90.6,580.3,90.6z"/>
		</g>
		<g>
			<rect x="511.4" y="35" class="st7" width="2.5" height="54.4"/>
		</g>
		<g>
			<path class="st7" d="M160.9,75.2c-3.2,0-5.9-2.6-5.9-5.9c0-3.2,2.6-5.9,5.9-5.9c3.2,0,5.9,2.6,5.9,5.9
				C166.7,72.5,164.1,75.2,160.9,75.2z M160.9,65.9c-1.9,0-3.4,1.5-3.4,3.4c0,1.9,1.5,3.4,3.4,3.4c1.9,0,3.4-1.5,3.4-3.4
				C164.2,67.4,162.7,65.9,160.9,65.9z"/>
		</g>
		<g>
			<rect x="74.5" y="67.6" class="st7" width="81.7" height="2.5"/>
		</g>
		<g>
			<rect x="601.4" y="35" class="st7" width="2.5" height="54.8"/>
		</g>
		<g>
			<path class="st7" d="M602.7,99.9c-3.2,0-5.9-2.6-5.9-5.9c0-3.2,2.6-5.9,5.9-5.9c3.2,0,5.9,2.6,5.9,5.9
				C608.6,97.3,605.9,99.9,602.7,99.9z M602.7,90.6c-1.9,0-3.4,1.5-3.4,3.4c0,1.9,1.5,3.4,3.4,3.4c1.9,0,3.4-1.5,3.4-3.4
				C606.1,92.2,604.5,90.6,602.7,90.6z"/>
		</g>
		<g>
			<path class="st7" d="M37.9,69.1h-2.5C35.4,50,50.9,34.5,70,34.5h826.1V37H70C52.3,37,37.9,51.4,37.9,69.1z"/>
		</g>
		<g>
			<path class="st7" d="M900.7,42.4c-3.2,0-5.9-2.6-5.9-5.9c0-3.2,2.6-5.9,5.9-5.9c3.2,0,5.9,2.6,5.9,5.9
				C906.6,39.7,904,42.4,900.7,42.4z M900.7,33.1c-1.9,0-3.4,1.5-3.4,3.4c0,1.9,1.5,3.4,3.4,3.4c1.9,0,3.4-1.5,3.4-3.4
				C904.1,34.6,902.6,33.1,900.7,33.1z"/>
		</g>
		<g>
			<rect x="601.5" y="315" class="st7" width="2.5" height="280.2"/>
		</g>
		<g>
			<path class="st7" d="M380.1,540.3c-3.2,0-5.9-2.6-5.9-5.9c0-3.2,2.6-5.9,5.9-5.9c3.2,0,5.9,2.6,5.9,5.9
				C386,537.6,383.3,540.3,380.1,540.3z M380.1,531c-1.9,0-3.4,1.5-3.4,3.4s1.5,3.4,3.4,3.4c1.9,0,3.4-1.5,3.4-3.4
				S382,531,380.1,531z"/>
		</g>
		<g>
			<rect x="355.9" y="538.6" class="st7" width="2.5" height="54.8"/>
		</g>
		<g>
			<path class="st7" d="M357.1,540.3c-3.2,0-5.9-2.6-5.9-5.9c0-3.2,2.6-5.9,5.9-5.9c3.2,0,5.9,2.6,5.9,5.9
				C363,537.6,360.4,540.3,357.1,540.3z M357.1,531c-1.9,0-3.4,1.5-3.4,3.4s1.5,3.4,3.4,3.4c1.9,0,3.4-1.5,3.4-3.4
				S359,531,357.1,531z"/>
		</g>
		<g>
			<rect x="333.4" y="538.6" class="st7" width="2.5" height="54.8"/>
		</g>
		<g>
			<path class="st7" d="M334.6,540.3c-3.2,0-5.9-2.6-5.9-5.9c0-3.2,2.6-5.9,5.9-5.9c3.2,0,5.9,2.6,5.9,5.9
				C340.5,537.6,337.8,540.3,334.6,540.3z M334.6,531c-1.9,0-3.4,1.5-3.4,3.4s1.5,3.4,3.4,3.4c1.9,0,3.4-1.5,3.4-3.4
				S336.4,531,334.6,531z"/>
		</g>
		<g>
			<rect x="310.9" y="538.6" class="st7" width="2.5" height="54.8"/>
		</g>
		<g>
			<path class="st7" d="M312,540.3c-3.2,0-5.9-2.6-5.9-5.9c0-3.2,2.6-5.9,5.9-5.9c3.2,0,5.9,2.6,5.9,5.9
				C317.9,537.6,315.3,540.3,312,540.3z M312,531c-1.9,0-3.4,1.5-3.4,3.4s1.5,3.4,3.4,3.4c1.9,0,3.4-1.5,3.4-3.4S313.9,531,312,531z
				"/>
		</g>
		<g>
			<rect x="378.4" y="539" class="st7" width="2.5" height="54.4"/>
		</g>
		<g>
			<rect x="288.4" y="538.6" class="st7" width="2.5" height="54.8"/>
		</g>
		<g>
			<path class="st7" d="M289.6,540.3c-3.2,0-5.9-2.6-5.9-5.9c0-3.2,2.6-5.9,5.9-5.9c3.2,0,5.9,2.6,5.9,5.9
				C295.5,537.6,292.9,540.3,289.6,540.3z M289.6,531c-1.9,0-3.4,1.5-3.4,3.4s1.5,3.4,3.4,3.4c1.9,0,3.4-1.5,3.4-3.4
				S291.5,531,289.6,531z"/>
		</g>
		<g>
			<path class="st7" d="M602.7,316.2c-3.2,0-5.9-2.6-5.9-5.9c0-3.2,2.6-5.9,5.9-5.9c3.2,0,5.9,2.6,5.9,5.9
				C608.6,313.6,605.9,316.2,602.7,316.2z M602.7,307c-1.9,0-3.4,1.5-3.4,3.4c0,1.9,1.5,3.4,3.4,3.4c1.9,0,3.4-1.5,3.4-3.4
				C606.1,308.5,604.5,307,602.7,307z"/>
		</g>
	</g>
</g>
<g id="TEXTS">
	<g>
		<text transform="matrix(1.1 0 0 1 643.4664 272.7979)"><tspan x="0" y="0" class="st7 st8 st9">AI Improves</tspan><tspan x="0" y="77" class="st7 st8 st9">Work Efficiency</tspan></text>
	</g>
</g>
</svg>
