<?xml version="1.0" encoding="utf-8"?>
<!-- Generator: Adobe Illustrator 27.9.0, SVG Export Plug-In . SVG Version: 6.00 Build 0)  -->
<svg version="1.1" id="Calque_1" xmlns="http://www.w3.org/2000/svg" xmlns:xlink="http://www.w3.org/1999/xlink" x="0px" y="0px"
	 viewBox="0 0 1920 1080" style="enable-background:new 0 0 1920 1080;" xml:space="preserve">
<style type="text/css">
	.st0{fill:url(#SVGID_1_);}
	.st1{fill:#7AFF73;}
	.st2{fill:none;}
	.st3{fill:url(#SVGID_00000078029573895493793670000007049257662826827918_);}
	.st4{fill:url(#SVGID_00000183955304345113006890000004879242454400007049_);}
	.st5{fill:url(#SVGID_00000172416028834264268510000007435988946230001556_);}
	.st6{fill:url(#SVGID_00000158740951267148580280000000897845964791449984_);}
	.st7{fill:url(#SVGID_00000112605080430752687540000014205332190278733230_);}
	.st8{fill:url(#SVGID_00000176029751323434499530000003061277661881734287_);}
	.st9{fill:url(#SVGID_00000163047168684115450300000003485942230701660560_);}
	.st10{fill:url(#SVGID_00000159469020875621714010000009668765481363864228_);}
	.st11{fill:#FFFFFF;}
	.st12{fill:url(#SVGID_00000137100329072492807700000013566188301009906080_);}
	.st13{fill:#0F0D0E;}
	.st14{font-family:'ArialMT';}
	.st15{font-size:84.154px;}
	.st16{font-family:'MyriadPro-Bold';}
	.st17{font-size:12px;}
	.st18{font-size:21px;}
</style>
<g id="BACKGROUND">
	
		<linearGradient id="SVGID_1_" gradientUnits="userSpaceOnUse" x1="56.4221" y1="-168.2767" x2="1848.5795" y2="768.4374" gradientTransform="matrix(1 0 0 1 0 236)">
		<stop  offset="0" style="stop-color:#0F0D0E"/>
		<stop  offset="0.1665" style="stop-color:#100D12"/>
		<stop  offset="0.3429" style="stop-color:#130B1F"/>
		<stop  offset="0.5241" style="stop-color:#180934"/>
		<stop  offset="0.7085" style="stop-color:#1F0652"/>
		<stop  offset="0.8935" style="stop-color:#280378"/>
		<stop  offset="1" style="stop-color:#2E0091"/>
	</linearGradient>
	<polygon class="st0" points="0,0 0,1080 1920,1080 1920,0 	"/>
</g>
<g>
	<g>
		<path class="st1" d="M1715.6,710c-4.7,0-8.4-3.8-8.4-8.5s3.8-8.5,8.4-8.5c4.7,0,8.4,3.8,8.4,8.5S1720.3,710,1715.6,710z
			 M1715.6,696.1c-3,0-5.4,2.5-5.4,5.5s2.4,5.5,5.4,5.5s5.4-2.5,5.4-5.5C1721.1,698.6,1718.6,696.1,1715.6,696.1z"/>
	</g>
	<g>
		<rect x="1722" y="733.9" class="st1" width="198" height="3"/>
	</g>
	<g>
		<path class="st1" d="M1715.6,743.8c-4.7,0-8.4-3.8-8.4-8.5s3.8-8.5,8.4-8.5c4.7,0,8.4,3.8,8.4,8.5S1720.3,743.8,1715.6,743.8z
			 M1715.6,729.9c-3,0-5.4,2.5-5.4,5.5s2.4,5.5,5.4,5.5s5.4-2.5,5.4-5.5C1721.1,732.3,1718.6,729.9,1715.6,729.9z"/>
	</g>
	<g>
		<rect x="1722" y="767.6" class="st1" width="198" height="3"/>
	</g>
	<g>
		<path class="st1" d="M1715.6,777.6c-4.7,0-8.4-3.8-8.4-8.5s3.8-8.5,8.4-8.5c4.7,0,8.4,3.8,8.4,8.5
			C1724.1,773.8,1720.3,777.6,1715.6,777.6z M1715.6,763.7c-3,0-5.4,2.5-5.4,5.5s2.4,5.5,5.4,5.5s5.4-2.5,5.4-5.5
			S1718.6,763.7,1715.6,763.7z"/>
	</g>
	<g>
		<rect x="1722" y="801.4" class="st1" width="198" height="3"/>
	</g>
	<g>
		<path class="st1" d="M1715.6,811.4c-4.7,0-8.4-3.8-8.4-8.5s3.8-8.5,8.4-8.5c4.7,0,8.4,3.8,8.4,8.5S1720.3,811.4,1715.6,811.4z
			 M1715.6,797.5c-3,0-5.4,2.5-5.4,5.5s2.4,5.5,5.4,5.5s5.4-2.5,5.4-5.5C1721.1,799.9,1718.6,797.5,1715.6,797.5z"/>
	</g>
	<g>
		<path class="st1" d="M1790.2,703.1H1722v-3h68.2c26.7,0,48.5-21.8,48.5-48.5V613c0-26.7-21.8-48.5-48.5-48.5h-115.3v-3h115.3
			c28.4,0,51.5,23.1,51.5,51.5v38.6C1841.7,680,1818.6,703.1,1790.2,703.1z"/>
	</g>
	<g>
		<path class="st1" d="M1841,303.6h-111.9c-28.4,0-51.5-23.1-51.5-51.5V140.2h3v111.9c0,26.7,21.8,48.5,48.5,48.5H1841V303.6z"/>
	</g>
	<g>
		<path class="st1" d="M1810.7,273.3h-101.3l-1.5-1.5V170.4l1.5-1.5h101.3l1.5,1.5v101.3L1810.7,273.3z M1710.9,270.3h98.3V172
			h-98.3V270.3z"/>
	</g>
	<g>
		<rect x="1733.6" y="170.4" class="st1" width="3" height="43.7"/>
	</g>
	<g>
		<rect x="1783.5" y="201.3" class="st1" width="3" height="70.5"/>
	</g>
	<g>
		<rect x="1758.5" y="170.4" class="st1" width="3" height="70.5"/>
	</g>
	<g>
		<rect x="1709.4" y="246.4" class="st1" width="43.7" height="3"/>
	</g>
	<g>
		<rect x="1791.9" y="192.8" class="st1" width="18.8" height="3"/>
	</g>
	<g>
		<rect x="1742.1" y="219.6" class="st1" width="68.7" height="3"/>
	</g>
	<g>
		<path class="st1" d="M1735.1,230.3c-5.1,0-9.2-4.1-9.2-9.1s4.1-9.1,9.2-9.1s9.2,4.1,9.2,9.1S1740.1,230.3,1735.1,230.3z
			 M1735.1,215c-3.4,0-6.2,2.8-6.2,6.1s2.8,6.1,6.2,6.1s6.2-2.8,6.2-6.1S1738.5,215,1735.1,215z"/>
	</g>
	<g>
		<path class="st1" d="M1785,203.5c-5.1,0-9.2-4.1-9.2-9.1c0-5.1,4.1-9.1,9.2-9.1s9.2,4.1,9.2,9.1
			C1794.1,199.4,1790,203.5,1785,203.5z M1785,188.2c-3.4,0-6.2,2.8-6.2,6.1s2.8,6.1,6.2,6.1s6.2-2.8,6.2-6.1
			S1788.4,188.2,1785,188.2z"/>
	</g>
	<g>
		<path class="st1" d="M1760,257c-5.1,0-9.2-4.1-9.2-9.2s4.1-9.1,9.2-9.1s9.2,4.1,9.2,9.1S1765.1,257,1760,257z M1760,241.7
			c-3.4,0-6.2,2.8-6.2,6.1s2.8,6.1,6.2,6.1s6.2-2.8,6.2-6.1S1763.4,241.7,1760,241.7z"/>
	</g>
	<g>
		<rect x="1084.7" y="735.6" class="st1" width="3" height="344.4"/>
	</g>
	<g>
		<path class="st1" d="M1086.2,737.7c-4.7,0-8.4-3.8-8.4-8.5s3.8-8.5,8.4-8.5s8.4,3.8,8.4,8.5S1090.8,737.7,1086.2,737.7z
			 M1086.2,723.8c-3,0-5.4,2.5-5.4,5.5s2.4,5.5,5.4,5.5s5.4-2.5,5.4-5.5C1091.6,726.2,1089.2,723.8,1086.2,723.8z"/>
	</g>
	<g>
		<path class="st1" d="M1086.2,859.7c-72.5,0-131.5-59-131.5-131.5s59-131.5,131.5-131.5s131.5,59,131.5,131.5
			S1158.7,859.7,1086.2,859.7z M1086.2,599.8c-70.8,0-128.5,57.6-128.5,128.5s57.6,128.5,128.5,128.5s128.5-57.6,128.5-128.5
			S1157,599.8,1086.2,599.8z"/>
	</g>
	<g>
		<path class="st1" d="M1187.7,727.2h-3c0-54.3-44.2-98.5-98.5-98.5s-98.5,44.2-98.5,98.5h-3c0-56,45.5-101.5,101.5-101.5
			S1187.7,671.2,1187.7,727.2z"/>
	</g>
	<g>
		<path class="st1" d="M1086.2,801.2c-39.7,0-71.9-32.3-71.9-71.9s32.3-71.9,71.9-71.9s71.9,32.3,71.9,71.9
			S1125.8,801.2,1086.2,801.2z M1086.2,660.3c-38,0-68.9,30.9-68.9,68.9s30.9,68.9,68.9,68.9s68.9-30.9,68.9-68.9
			S1124.2,660.3,1086.2,660.3z"/>
	</g>
	<g>
		<path class="st1" d="M1086.2,555.4c-4.7,0-8.4-3.8-8.4-8.5s3.8-8.5,8.4-8.5s8.4,3.8,8.4,8.5
			C1094.6,551.6,1090.8,555.4,1086.2,555.4z M1086.2,541.5c-3,0-5.4,2.5-5.4,5.5s2.4,5.5,5.4,5.5s5.4-2.5,5.4-5.5
			C1091.6,543.9,1089.2,541.5,1086.2,541.5z"/>
	</g>
	<g>
		<path class="st1" d="M1842.5,735.4h-3V190.2c0-26.7-21.8-48.5-48.5-48.5h-654.8c-26.7,0-48.5,21.8-48.5,48.5v350.4h-3V190.2
			c0-28.4,23.1-51.5,51.5-51.5H1791c28.4,0,51.5,23.1,51.5,51.5V735.4z"/>
	</g>
	<g>
		<rect x="1839.5" y="851.7" class="st1" width="3" height="228.3"/>
	</g>
	<g>
		<path class="st1" d="M958.2,943.6h-3V318l1.5-1.5h257.7c26.7,0,48.5-21.8,48.5-48.5V140.5h3V268c0,28.4-23.1,51.5-51.5,51.5H958.2
			V943.6z"/>
	</g>
	<g>
		<path class="st1" d="M1134.8,198.4c-5.1,0-9.2-4.1-9.2-9.1c0-5.1,4.1-9.1,9.2-9.1s9.2,4.1,9.2,9.1
			C1144,194.3,1139.9,198.4,1134.8,198.4z M1134.8,183.1c-3.4,0-6.2,2.8-6.2,6.1s2.8,6.1,6.2,6.1c3.4,0,6.2-2.8,6.2-6.1
			C1141,185.9,1138.2,183.1,1134.8,183.1z"/>
	</g>
	<g>
		<path class="st1" d="M1134.8,239.5c-27.7,0-50.2-22.5-50.2-50.2s22.5-50.2,50.2-50.2s50.2,22.5,50.2,50.2
			S1162.6,239.5,1134.8,239.5z M1134.8,142c-26.1,0-47.2,21.2-47.2,47.2s21.2,47.2,47.2,47.2s47.2-21.2,47.2-47.2
			S1160.9,142,1134.8,142z"/>
	</g>
	<g>
		<path class="st1" d="M1215.6,278.4c-5.1,0-9.2-4.1-9.2-9.1s4.1-9.1,9.2-9.1s9.2,4.1,9.2,9.1
			C1224.7,274.3,1220.6,278.4,1215.6,278.4z M1215.6,263.1c-3.4,0-6.2,2.8-6.2,6.1c0,3.4,2.8,6.1,6.2,6.1c3.4,0,6.2-2.8,6.2-6.1
			S1219,263.1,1215.6,263.1z"/>
	</g>
	<g>
		
			<rect x="1174.2" y="179.6" transform="matrix(0.7071 -0.7071 0.7071 0.7071 182.5869 898.3528)" class="st1" width="3" height="98.4"/>
	</g>
	<g>
		<path class="st1" d="M956.7,960.4c-5,0-9.2-4.1-9.2-9.2s4.1-9.2,9.2-9.2c5,0,9.2,4.1,9.2,9.2C965.8,956.3,961.7,960.4,956.7,960.4
			z M956.7,945.1c-3.4,0-6.2,2.8-6.2,6.2s2.8,6.2,6.2,6.2s6.2-2.8,6.2-6.2C962.8,947.9,960,945.1,956.7,945.1z"/>
	</g>
	<g>
		<path class="st1" d="M956.7,1001.5c-27.7,0-50.2-22.5-50.2-50.2S929,901,956.7,901s50.2,22.5,50.2,50.2S984.4,1001.5,956.7,1001.5
			z M956.7,904c-26,0-47.2,21.2-47.2,47.2s21.2,47.2,47.2,47.2s47.2-21.2,47.2-47.2S982.7,904,956.7,904z"/>
	</g>
	<g>
		<path class="st1" d="M909.4,1080h-3V952.5c0-28.4,23.1-51.5,51.5-51.5h128.2v3H957.9c-26.7,0-48.5,21.8-48.5,48.5V1080z"/>
	</g>
	<g>
		<rect x="1118.7" y="318" class="st1" width="3" height="222.2"/>
	</g>
	<g>
		<path class="st1" d="M1120.2,555.1c-4.7,0-8.4-3.8-8.4-8.5s3.8-8.5,8.4-8.5s8.4,3.8,8.4,8.5
			C1128.7,551.3,1124.9,555.1,1120.2,555.1z M1120.2,541.2c-3,0-5.4,2.5-5.4,5.5s2.4,5.5,5.4,5.5s5.4-2.5,5.4-5.5
			C1125.7,543.7,1123.2,541.2,1120.2,541.2z"/>
	</g>
	<g>
		<rect x="1152.5" y="318" class="st1" width="3" height="222.2"/>
	</g>
	<g>
		<path class="st1" d="M1154,555.1c-4.7,0-8.4-3.8-8.4-8.5s3.8-8.5,8.4-8.5c4.7,0,8.4,3.8,8.4,8.5S1158.7,555.1,1154,555.1z
			 M1154,541.2c-3,0-5.4,2.5-5.4,5.5s2.4,5.5,5.4,5.5s5.4-2.5,5.4-5.5S1157,541.2,1154,541.2z"/>
	</g>
	<g>
		<rect x="1186.3" y="318" class="st2" width="3" height="222.2"/>
	</g>
	<g>
		<path class="st1" d="M1187.8,555.1c-4.7,0-8.4-3.8-8.4-8.5s3.8-8.5,8.4-8.5c4.7,0,8.4,3.8,8.4,8.5S1192.4,555.1,1187.8,555.1z
			 M1187.8,541.2c-3,0-5.4,2.5-5.4,5.5s2.4,5.5,5.4,5.5s5.4-2.5,5.4-5.5C1193.2,543.7,1190.8,541.2,1187.8,541.2z"/>
	</g>
	<g>
		<path class="st1" d="M1150.9,910.5c-4.7,0-8.4-3.8-8.4-8.5s3.8-8.5,8.4-8.5c4.7,0,8.4,3.8,8.4,8.5S1155.6,910.5,1150.9,910.5z
			 M1150.9,896.6c-3,0-5.4,2.5-5.4,5.5s2.4,5.5,5.4,5.5s5.4-2.5,5.4-5.5C1156.4,899,1153.9,896.6,1150.9,896.6z"/>
	</g>
	<g>
		<rect x="1085.5" y="934.3" class="st1" width="59" height="3"/>
	</g>
	<g>
		<path class="st1" d="M1150.9,944.2c-4.7,0-8.4-3.8-8.4-8.5s3.8-8.5,8.4-8.5c4.7,0,8.4,3.8,8.4,8.5S1155.6,944.2,1150.9,944.2z
			 M1150.9,930.3c-3,0-5.4,2.5-5.4,5.5s2.4,5.5,5.4,5.5s5.4-2.5,5.4-5.5S1153.9,930.3,1150.9,930.3z"/>
	</g>
	<g>
		<rect x="1085.5" y="968.1" class="st1" width="59" height="3"/>
	</g>
	<g>
		<path class="st1" d="M1150.9,978c-4.7,0-8.4-3.8-8.4-8.5s3.8-8.5,8.4-8.5c4.7,0,8.4,3.8,8.4,8.5
			C1159.4,974.2,1155.6,978,1150.9,978z M1150.9,964.1c-3,0-5.4,2.5-5.4,5.5s2.4,5.5,5.4,5.5s5.4-2.5,5.4-5.5
			C1156.4,966.6,1153.9,964.1,1150.9,964.1z"/>
	</g>
	<g>
		<rect y="1001.8" class="st1" width="1144.5" height="3"/>
	</g>
	<g>
		<path class="st1" d="M1150.9,1011.8c-4.7,0-8.4-3.8-8.4-8.5s3.8-8.5,8.4-8.5c4.7,0,8.4,3.8,8.4,8.5S1155.6,1011.8,1150.9,1011.8z
			 M1150.9,997.9c-3,0-5.4,2.5-5.4,5.5s2.4,5.5,5.4,5.5s5.4-2.5,5.4-5.5S1153.9,997.9,1150.9,997.9z"/>
	</g>
	<g>
		<rect x="1086.1" y="900.5" class="st1" width="58.4" height="3"/>
	</g>
	<g>
		<path class="st1" d="M1774.6,475.2c-4.7,0-8.4-3.8-8.4-8.5s3.8-8.5,8.4-8.5c4.7,0,8.4,3.8,8.4,8.5S1779.3,475.2,1774.6,475.2z
			 M1774.6,461.3c-3,0-5.4,2.4-5.4,5.5s2.4,5.5,5.4,5.5s5.4-2.5,5.4-5.5S1777.7,461.3,1774.6,461.3z"/>
	</g>
	<g>
		<rect x="1781.1" y="431.5" class="st1" width="59" height="3"/>
	</g>
	<g>
		<path class="st1" d="M1774.6,441.4c-4.7,0-8.4-3.8-8.4-8.5s3.8-8.5,8.4-8.5c4.7,0,8.4,3.8,8.4,8.5S1779.3,441.4,1774.6,441.4z
			 M1774.6,427.5c-3,0-5.4,2.4-5.4,5.5s2.4,5.5,5.4,5.5s5.4-2.5,5.4-5.5C1780.1,430,1777.7,427.5,1774.6,427.5z"/>
	</g>
	<g>
		<rect x="1781.1" y="397.7" class="st1" width="59" height="3"/>
	</g>
	<g>
		<path class="st1" d="M1774.6,407.6c-4.7,0-8.4-3.8-8.4-8.5s3.8-8.5,8.4-8.5c4.7,0,8.4,3.8,8.4,8.5S1779.3,407.6,1774.6,407.6z
			 M1774.6,393.8c-3,0-5.4,2.5-5.4,5.5s2.4,5.5,5.4,5.5s5.4-2.4,5.4-5.5S1777.7,393.8,1774.6,393.8z"/>
	</g>
	<g>
		<rect x="1781.1" y="363.9" class="st1" width="58.4" height="3"/>
	</g>
	<g>
		<path class="st1" d="M1774.6,373.9c-4.7,0-8.4-3.8-8.4-8.5s3.8-8.5,8.4-8.5c4.7,0,8.4,3.8,8.4,8.5S1779.3,373.9,1774.6,373.9z
			 M1774.6,360c-3,0-5.4,2.5-5.4,5.5s2.4,5.5,5.4,5.5s5.4-2.5,5.4-5.5S1777.7,360,1774.6,360z"/>
	</g>
	<g>
		<rect x="1781.1" y="465.2" class="st1" width="58.4" height="3"/>
	</g>
	<g>
		<path class="st1" d="M1058,420.9H956.7l-1.5-1.5V318l1.5-1.5H1058l1.5,1.5v101.3L1058,420.9z M958.2,417.9h98.3v-98.3h-98.3V417.9
			L958.2,417.9z"/>
	</g>
	<g>
		<rect x="980.9" y="318" class="st1" width="3" height="43.7"/>
	</g>
	<g>
		<rect x="1030.8" y="348.9" class="st1" width="3" height="70.5"/>
	</g>
	<g>
		<rect x="1005.8" y="318" class="st1" width="3" height="70.5"/>
	</g>
	<g>
		<rect x="956.7" y="393.9" class="st1" width="43.7" height="3"/>
	</g>
	<g>
		<rect x="1039.2" y="340.4" class="st1" width="18.8" height="3"/>
	</g>
	<g>
		<rect x="989.3" y="367.2" class="st1" width="68.7" height="3"/>
	</g>
	<g>
		<path class="st1" d="M982.4,377.8c-5,0-9.2-4.1-9.2-9.1s4.1-9.2,9.2-9.2c5,0,9.2,4.1,9.2,9.2S987.4,377.8,982.4,377.8z
			 M982.4,362.5c-3.4,0-6.2,2.8-6.2,6.2c0,3.4,2.8,6.1,6.2,6.1s6.2-2.8,6.2-6.1C988.5,365.3,985.8,362.5,982.4,362.5z"/>
	</g>
	<g>
		<path class="st1" d="M1032.3,351.1c-5.1,0-9.2-4.1-9.2-9.1s4.1-9.2,9.2-9.2s9.2,4.1,9.2,9.2C1041.4,347,1037.3,351.1,1032.3,351.1
			z M1032.3,335.8c-3.4,0-6.2,2.8-6.2,6.2c0,3.4,2.8,6.1,6.2,6.1s6.2-2.8,6.2-6.1C1038.4,338.5,1035.7,335.8,1032.3,335.8z"/>
	</g>
	<g>
		<path class="st1" d="M1007.3,404.6c-5,0-9.2-4.1-9.2-9.1s4.1-9.2,9.2-9.2s9.2,4.1,9.2,9.2C1016.5,400.5,1012.4,404.6,1007.3,404.6
			z M1007.3,389.3c-3.4,0-6.2,2.8-6.2,6.2c0,3.4,2.8,6.1,6.2,6.1s6.2-2.8,6.2-6.1C1013.5,392,1010.7,389.3,1007.3,389.3z"/>
	</g>
	<g>
		<path class="st1" d="M1792.2,860.8c-5.1,0-9.2-4.1-9.2-9.2s4.1-9.2,9.2-9.2s9.2,4.1,9.2,9.2
			C1801.4,856.7,1797.3,860.8,1792.2,860.8z M1792.2,845.5c-3.4,0-6.2,2.8-6.2,6.2s2.8,6.2,6.2,6.2s6.2-2.8,6.2-6.2
			C1798.4,848.2,1795.6,845.5,1792.2,845.5z"/>
	</g>
	<g>
		<path class="st1" d="M1792.2,901.9c-27.7,0-50.2-22.5-50.2-50.2s22.5-50.2,50.2-50.2s50.2,22.5,50.2,50.2
			S1819.9,901.9,1792.2,901.9z M1792.2,804.4c-26.1,0-47.2,21.2-47.2,47.2s21.2,47.2,47.2,47.2s47.2-21.2,47.2-47.2
			S1818.3,804.4,1792.2,804.4z"/>
	</g>
	<g>
		<rect y="138.7" class="st1" width="1184.5" height="3"/>
	</g>
</g>
<g>
	<g>
		
			<linearGradient id="SVGID_00000181779024740907773140000006591626493872768146_" gradientUnits="userSpaceOnUse" x1="1146.6252" y1="712.3565" x2="1581.6073" y2="40.8532" gradientTransform="matrix(1 0 0 1 0 236)">
			<stop  offset="0" style="stop-color:#0F0D0E"/>
			<stop  offset="0.1927" style="stop-color:#100D12"/>
			<stop  offset="0.3659" style="stop-color:#120C1C"/>
			<stop  offset="0.5315" style="stop-color:#170A2F"/>
			<stop  offset="0.6925" style="stop-color:#1D0749"/>
			<stop  offset="0.8486" style="stop-color:#250469"/>
			<stop  offset="1" style="stop-color:#2E0091"/>
		</linearGradient>
		<circle style="fill:url(#SVGID_00000181779024740907773140000006591626493872768146_);" cx="1490.5" cy="417.5" r="214.6"/>
		
			<linearGradient id="SVGID_00000013195010512856891360000013726098321319776443_" gradientUnits="userSpaceOnUse" x1="1252.048" y1="780.6462" x2="1687.0299" y2="109.143" gradientTransform="matrix(1 0 0 1 0 236)">
			<stop  offset="0" style="stop-color:#0F0D0E"/>
			<stop  offset="0.1927" style="stop-color:#100D12"/>
			<stop  offset="0.3659" style="stop-color:#120C1C"/>
			<stop  offset="0.5315" style="stop-color:#170A2F"/>
			<stop  offset="0.6925" style="stop-color:#1D0749"/>
			<stop  offset="0.8486" style="stop-color:#250469"/>
			<stop  offset="1" style="stop-color:#2E0091"/>
		</linearGradient>
		<polygon style="fill:url(#SVGID_00000013195010512856891360000013726098321319776443_);" points="1389.6,796.8 1608.5,796.8 
			1560,548.9 1341,548.9 		"/>
		
			<linearGradient id="SVGID_00000008845696799341988170000015297243862855161006_" gradientUnits="userSpaceOnUse" x1="1439.5916" y1="902.132" x2="1874.5728" y2="230.6302" gradientTransform="matrix(1 0 0 1 0 236)">
			<stop  offset="0" style="stop-color:#0F0D0E"/>
			<stop  offset="0.1927" style="stop-color:#100D12"/>
			<stop  offset="0.3659" style="stop-color:#120C1C"/>
			<stop  offset="0.5315" style="stop-color:#170A2F"/>
			<stop  offset="0.6925" style="stop-color:#1D0749"/>
			<stop  offset="0.8486" style="stop-color:#250469"/>
			<stop  offset="1" style="stop-color:#2E0091"/>
		</linearGradient>
		<path style="fill:url(#SVGID_00000008845696799341988170000015297243862855161006_);" d="M1818.8,1080h-623.9l0,0
			c0-170.6,138.3-309,309-309h6C1680.5,771,1818.8,909.4,1818.8,1080L1818.8,1080z"/>
	</g>
	
		<linearGradient id="SVGID_00000151524336619250200430000000989962411080448427_" gradientUnits="userSpaceOnUse" x1="1235.7794" y1="871.9543" x2="1473.8784" y2="558.2909" gradientTransform="matrix(1 0 0 1 0 236)">
		<stop  offset="0" style="stop-color:#7AFF73"/>
		<stop  offset="0.1422" style="stop-color:#79FB73;stop-opacity:0.8578"/>
		<stop  offset="0.27" style="stop-color:#76F175;stop-opacity:0.73"/>
		<stop  offset="0.3923" style="stop-color:#70DE77;stop-opacity:0.6077"/>
		<stop  offset="0.5112" style="stop-color:#69C47A;stop-opacity:0.4888"/>
		<stop  offset="0.6278" style="stop-color:#5FA37E;stop-opacity:0.3722"/>
		<stop  offset="0.7424" style="stop-color:#527A83;stop-opacity:0.2576"/>
		<stop  offset="0.8556" style="stop-color:#444A88;stop-opacity:0.1444"/>
		<stop  offset="0.9649" style="stop-color:#34138F;stop-opacity:3.510000e-02"/>
		<stop  offset="1" style="stop-color:#2E0091;stop-opacity:0"/>
	</linearGradient>
	<path style="fill:url(#SVGID_00000151524336619250200430000000989962411080448427_);" d="M1434.4,749.4
		c-153.3,31.9-268.5,167.8-268.5,330.6l0,0h268.5V749.4z"/>
	
		<linearGradient id="SVGID_00000170971314944063698530000004872604638816766388_" gradientUnits="userSpaceOnUse" x1="1367.1708" y1="400.1754" x2="1578.2288" y2="24.7028" gradientTransform="matrix(1 0 0 1 0 236)">
		<stop  offset="0" style="stop-color:#7AFF73"/>
		<stop  offset="0.1422" style="stop-color:#79FB73;stop-opacity:0.8578"/>
		<stop  offset="0.27" style="stop-color:#76F175;stop-opacity:0.73"/>
		<stop  offset="0.3923" style="stop-color:#70DE77;stop-opacity:0.6077"/>
		<stop  offset="0.5112" style="stop-color:#69C47A;stop-opacity:0.4888"/>
		<stop  offset="0.6278" style="stop-color:#5FA37E;stop-opacity:0.3722"/>
		<stop  offset="0.7424" style="stop-color:#527A83;stop-opacity:0.2576"/>
		<stop  offset="0.8556" style="stop-color:#444A88;stop-opacity:0.1444"/>
		<stop  offset="0.9649" style="stop-color:#34138F;stop-opacity:3.510000e-02"/>
		<stop  offset="1" style="stop-color:#2E0091;stop-opacity:0"/>
	</linearGradient>
	<path style="fill:url(#SVGID_00000170971314944063698530000004872604638816766388_);" d="M1694.7,305.2
		c-27.4-49.3-72.9-88.2-126-107.2c-31.4-11.4-65.2-15.9-98.5-13.3c-113.8,8.8-205.7,99.2-216.7,212.5L1227,564.6h31.9v162.9h85.3
		c60.7,0,109.8-49.2,109.8-109.8v-3c0-27.6,22.4-50,50-50h170.8C1731.8,494.7,1740.8,384,1694.7,305.2z"/>
	<g>
		
			<linearGradient id="SVGID_00000179612573723898399920000010735648084796084099_" gradientUnits="userSpaceOnUse" x1="1596.2356" y1="695.0892" x2="1618.4656" y2="874.0996" gradientTransform="matrix(1 0 0 1 0 236)">
			<stop  offset="0" style="stop-color:#0F0D0E"/>
			<stop  offset="0.1927" style="stop-color:#100D12"/>
			<stop  offset="0.3659" style="stop-color:#120C1C"/>
			<stop  offset="0.5315" style="stop-color:#170A2F"/>
			<stop  offset="0.6925" style="stop-color:#1D0749"/>
			<stop  offset="0.8486" style="stop-color:#250469"/>
			<stop  offset="1" style="stop-color:#2E0091"/>
		</linearGradient>
		<polygon style="fill:url(#SVGID_00000179612573723898399920000010735648084796084099_);" points="1733,1080 1492.5,1080 
			1478.3,933.8 1718.8,933.8 		"/>
		
			<linearGradient id="SVGID_00000086654248444005040370000007758607524396386963_" gradientUnits="userSpaceOnUse" x1="1607.399" y1="784.4379" x2="1584.33" y2="557.2941" gradientTransform="matrix(1 0 0 1 0 236)">
			<stop  offset="0" style="stop-color:#FF47E3"/>
			<stop  offset="0.1551" style="stop-color:#FB46E2;stop-opacity:0.8443"/>
			<stop  offset="0.2945" style="stop-color:#F142DD;stop-opacity:0.7044"/>
			<stop  offset="0.4279" style="stop-color:#DE3CD6;stop-opacity:0.5704"/>
			<stop  offset="0.5576" style="stop-color:#C433CC;stop-opacity:0.4402"/>
			<stop  offset="0.6846" style="stop-color:#A328BF;stop-opacity:0.3127"/>
			<stop  offset="0.8097" style="stop-color:#7A1AAF;stop-opacity:0.1872"/>
			<stop  offset="0.9308" style="stop-color:#4B0A9C;stop-opacity:6.560000e-02"/>
			<stop  offset="0.9961" style="stop-color:#2E0091;stop-opacity:0"/>
		</linearGradient>
		<circle style="fill:url(#SVGID_00000086654248444005040370000007758607524396386963_);" cx="1598.6" cy="933.8" r="120.2"/>
		
			<linearGradient id="SVGID_00000060028829139190548570000002636719400253837452_" gradientUnits="userSpaceOnUse" x1="1592.3926" y1="647.814" x2="1617.6801" y2="851.4456" gradientTransform="matrix(1 0 0 1 0 236)">
			<stop  offset="0" style="stop-color:#0F0D0E"/>
			<stop  offset="0.1927" style="stop-color:#100D12"/>
			<stop  offset="0.3659" style="stop-color:#120C1C"/>
			<stop  offset="0.5315" style="stop-color:#170A2F"/>
			<stop  offset="0.6925" style="stop-color:#1D0749"/>
			<stop  offset="0.8486" style="stop-color:#250469"/>
			<stop  offset="1" style="stop-color:#2E0091"/>
		</linearGradient>
		<circle style="fill:url(#SVGID_00000060028829139190548570000002636719400253837452_);" cx="1598.6" cy="933.8" r="65.2"/>
		<g>
			<path class="st11" d="M1598.6,1024.4c-50,0-90.6-40.7-90.6-90.6c0-50,40.7-90.6,90.6-90.6s90.6,40.7,90.6,90.6
				S1648.5,1024.4,1598.6,1024.4z M1598.6,846.1c-48.3,0-87.6,39.3-87.6,87.6s39.3,87.6,87.6,87.6c48.3,0,87.6-39.3,87.6-87.6
				S1646.9,846.1,1598.6,846.1z"/>
		</g>
	</g>
	<g>
		
			<linearGradient id="SVGID_00000103983923168998334190000002835652020204171191_" gradientUnits="userSpaceOnUse" x1="1462.9857" y1="22.4473" x2="1516.0994" y2="315.3109" gradientTransform="matrix(1 0 0 1 0 236)">
			<stop  offset="0" style="stop-color:#FF47E3"/>
			<stop  offset="0.1543" style="stop-color:#FB46E2;stop-opacity:0.9221"/>
			<stop  offset="0.2929" style="stop-color:#F142DD;stop-opacity:0.8522"/>
			<stop  offset="0.4256" style="stop-color:#DE3CD6;stop-opacity:0.7852"/>
			<stop  offset="0.5546" style="stop-color:#C433CC;stop-opacity:0.7201"/>
			<stop  offset="0.681" style="stop-color:#A328BF;stop-opacity:0.6563"/>
			<stop  offset="0.8053" style="stop-color:#7A1AAF;stop-opacity:0.5936"/>
			<stop  offset="0.9258" style="stop-color:#4B0A9C;stop-opacity:0.5328"/>
			<stop  offset="0.9908" style="stop-color:#2E0091;stop-opacity:0.5"/>
		</linearGradient>
		<path style="fill:url(#SVGID_00000103983923168998334190000002835652020204171191_);" d="M1490.5,267.5
			c-82.8,0-149.9,67.1-149.9,149.9h149.5h0.5v2.4l28.4,144.9c69.2-13.3,121.6-74.1,121.6-147.2
			C1640.5,334.6,1573.3,267.5,1490.5,267.5z"/>
		<g>
			<path class="st11" d="M1366.1,726.3h-3V417.2c0-70.3,57.2-127.4,127.4-127.4S1618,346.9,1618,417.2c0,61-43.4,113.7-103.3,125.1
				l-0.6-3c58.5-11.2,100.9-62.6,100.9-122.2c0-68.6-55.8-124.4-124.4-124.4s-124.4,55.8-124.4,124.4L1366.1,726.3L1366.1,726.3z"/>
		</g>
	</g>
	<g>
		<g>
			<g>
				<path class="st11" d="M1323.4,502.1h-27.3c-13.8,0-25-11.2-25-25s11.2-25,25-25h27.3c13.8,0,25,11.2,25,25
					S1337.2,502.1,1323.4,502.1z M1296.1,455c-12.2,0-22,9.9-22,22s9.9,22,22,22h27.3c12.2,0,22-9.9,22-22s-9.9-22-22-22H1296.1z"/>
			</g>
		</g>
		<path class="st13" d="M1322.2,488.9h-24.8c-6.6,0-11.9-5.3-11.9-11.9s5.3-11.9,11.9-11.9h24.8c6.6,0,11.9,5.3,11.9,11.9
			S1328.7,488.9,1322.2,488.9z"/>
	</g>
	<g>
		<g>
			<g>
				<path class="st11" d="M1322.9,638.4h-63.8v-3h63.8c12.2,0,22-9.9,22-22s-9.9-22-22-22h-63.8v-3h63.8c13.8,0,25,11.2,25,25
					S1336.7,638.4,1322.9,638.4z"/>
			</g>
		</g>
		<g>
			<path class="st11" d="M1321.6,626.8h-62.5v-3h62.5c5.7,0,10.4-4.7,10.4-10.4s-4.7-10.4-10.4-10.4h-62.5v-3h62.5
				c7.4,0,13.4,6,13.4,13.4S1329,626.8,1321.6,626.8z"/>
		</g>
	</g>
	<g>
		<g>
			<g>
				<path class="st11" d="M1502.9,622.6c-5.1,0-9.2-4.1-9.2-9.2s4.1-9.2,9.2-9.2s9.2,4.1,9.2,9.2
					C1512,618.5,1507.9,622.6,1502.9,622.6z M1502.9,607.2c-3.4,0-6.2,2.8-6.2,6.2s2.8,6.2,6.2,6.2s6.2-2.8,6.2-6.2
					S1506.2,607.2,1502.9,607.2z"/>
			</g>
			<g>
				<path class="st11" d="M1502.9,663.7c-27.7,0-50.2-22.5-50.2-50.2s22.5-50.2,50.2-50.2s50.2,22.5,50.2,50.2
					S1530.6,663.7,1502.9,663.7z M1502.9,566.2c-26.1,0-47.2,21.2-47.2,47.2s21.2,47.2,47.2,47.2s47.2-21.2,47.2-47.2
					S1528.9,566.2,1502.9,566.2z"/>
			</g>
		</g>
	</g>
</g>
<g>
	<g>
		<path class="st11" d="M1823.8,115.4c-9.8,0-17.9-8-17.9-17.9s8-17.9,17.9-17.9s17.9,8,17.9,17.9S1833.7,115.4,1823.8,115.4z
			 M1823.8,82.7c-8.2,0-14.9,6.7-14.9,14.9s6.7,14.9,14.9,14.9s14.9-6.7,14.9-14.9S1832.1,82.7,1823.8,82.7z"/>
	</g>
	<g>
		<g>
			<path class="st11" d="M1823.8,99.5c-3.4,0-6.2-2.8-6.2-6.2s2.8-6.2,6.2-6.2s6.2,2.8,6.2,6.2C1830,96.8,1827.3,99.5,1823.8,99.5z
				 M1823.8,90.2c-1.8,0-3.2,1.4-3.2,3.2s1.4,3.2,3.2,3.2s3.2-1.4,3.2-3.2S1825.6,90.2,1823.8,90.2z"/>
		</g>
		<g>
			<path class="st11" d="M1831.7,107.9H1816l-1.5-1.6c0.4-4.9,4.5-8.7,9.4-8.7s9,3.8,9.3,8.7L1831.7,107.9z M1817.8,104.9h12.1
				c-0.9-2.5-3.3-4.3-6-4.3C1821.1,100.6,1818.7,102.4,1817.8,104.9z"/>
		</g>
	</g>
</g>
<text transform="matrix(0.7617 0 0 1 140.8115 518.3334)" class="st1 st14 st15">The Future of Work is Here,</text>
<text transform="matrix(0.7617 0 0 1 140.8115 619.3129)" class="st1 st14 st15">and It&apos;s Powered by AI </text>
<text transform="matrix(0.6925 0 0 1 325.0049 828.3969)" class="st16 st17">Lorem ipsum</text>
<text transform="matrix(0.6925 0 0 1 143.1875 819.3236)" class="st16 st17">Lorem ipsum</text>
<rect x="152.9" y="672.2" class="st2" width="665.6" height="184"/>
<text transform="matrix(1 0 0 1 152.9443 712.3138)" class="st11 st16 st18">AI is rapidly changing the job market, automating tasks, creating new jobs, </text>
<text transform="matrix(1 0 0 1 152.9443 737.5138)" class="st11 st16 st18">and demanding new skills.  Workers and businesses must adapt to thrive.</text>
</svg>
