<?xml version="1.0" encoding="utf-8"?>
<!-- Generator: Adobe Illustrator 28.0.0, SVG Export Plug-In . SVG Version: 6.00 Build 0)  -->
<svg version="1.1" xmlns="http://www.w3.org/2000/svg" xmlns:xlink="http://www.w3.org/1999/xlink" x="0px" y="0px"
	 viewBox="0 0 500 500" style="enable-background:new 0 0 500 500;" xml:space="preserve">
<g id="BACKGROUND">
	<g>
		<rect style="fill:#D7E3F7;" width="500" height="500"/>
		<rect y="375.41" style="fill:#AEC5E5;" width="500" height="124.59"/>
	</g>
</g>
<g id="OBJECTS">
	<path style="opacity:0.5;fill:#81A6D3;" d="M389.33,415.45H126.47c-4.36,0-7.89-3.53-7.89-7.89v0c0-4.36,3.53-7.89,7.89-7.89
		h262.86c4.36,0,7.89,3.53,7.89,7.89v0C397.22,411.92,393.69,415.45,389.33,415.45z"/>
	<g>
		<g>
			<g>
				<polygon style="fill:#111C5B;" points="242.31,388.35 214.06,388.35 195.15,276.97 194.04,304.1 190.57,388.35 162.76,388.35 
					164.64,238.3 221.82,238.3 				"/>
				<path style="fill:#FFFFFF;" d="M162.76,388.35l-23.27,17.6c-1.37,1.04-0.64,3.23,1.08,3.23h49.37c1.03,0,1.86-0.87,1.79-1.91
					l-1.16-18.92H162.76z"/>
				<path style="fill:#FFFFFF;" d="M241.87,388.35l23.27,17.6c1.37,1.04,0.64,3.23-1.08,3.23h-49.37c-1.03,0-1.86-0.87-1.79-1.91
					l1.16-18.92H241.87z"/>
			</g>
			<g>
				<g>
					<g>
						<polyline style="fill:#FFB6B8;" points="97.99,185.78 105.65,180.33 106.85,181.32 111.81,185.78 106.96,199.57 96.22,196.98 
													"/>
						<path style="fill:#1E348E;" d="M104.16,176.56c0.14-3.82-4.33-7.99-4.33-7.99s0,0,0,0c-0.82-0.88-1.88-1.64-3.15-2.17
							c-3.74-1.56-7.72-0.53-8.91,2.31c-1.18,2.84,0.88,6.4,4.61,7.96c1.45,0.61,2.93,0.82,4.28,0.69l-3.95,15.95
							c-0.34,1.37,0.5,2.76,1.87,3.1l1.98,0.49c1.37,0.34,2.76-0.5,3.1-1.87l4.41-17.81C104.14,177,104.17,176.78,104.16,176.56z
							 M93.38,174.32c-2.02-0.84-3.14-2.77-2.5-4.31c0.64-1.54,2.8-2.1,4.82-1.25c2.02,0.84,3.14,2.77,2.5,4.31
							C97.56,174.6,95.4,175.16,93.38,174.32z"/>
					</g>
					<path style="fill:#FFB6B8;" d="M99.65,188.18c-0.65,4.85-1.52,10.04-2.11,10.01c-0.63-0.03-2.94-0.13-4.81-0.22
						c-1.44-0.06-2.61-1.19-2.74-2.62l-1.11-12.82c-0.13-1.45,0.85-2.73,2.21-3.04c0.21-0.05,0.43-0.08,0.66-0.08h0.83
						c0,0,7.88,0.16,7.99,0.5C100.62,180.06,100.21,183.99,99.65,188.18z"/>
					<path style="fill:#FF819C;" d="M99.65,188.18c-4.52-1.05-7.52-4.36-8.55-8.69c0.21-0.05,0.43-0.08,0.66-0.08h0.83
						c0,0,7.88,0.16,7.99,0.5C100.62,180.06,100.21,183.99,99.65,188.18z"/>
					<path style="fill:#FFB6B8;" d="M105.65,180.33c0,0-10.22-2.43-11.5-1.4s-1.03,3.59,1.07,4.38c2.11,0.78,9.67,2.15,9.67,2.15"/>
				</g>
				<path style="fill:#FFFFFF;" d="M231.02,197.63l-1.19,11.09l-7.19,26.53l-0.83,3.06h-57.18l0.33-33.1l-4.18,5.68l-0.23,0.09
					l-4.68,1.88l-11.52-16.47l11.66-17.6c2.09-3.15,5.36-5.34,9.07-6.07l14.97-2.49l3.35-0.56h14.54l3.57,0.73l10.52,2.15
					C224,174.57,232.31,185.56,231.02,197.63z"/>
				<path style="fill:#111C5B;" d="M201.52,170.38c-0.98,3.23-3.66,8.1-10.95,8.1c-8.16,0-10.07-5.49-10.51-8.27l3.35-0.56h14.54
					L201.52,170.38z"/>
				<polygon style="fill:#8CACDD;" points="222.64,235.24 221.82,238.3 177.8,238.3 206.49,195.22 206.49,204.09 				"/>
				<g>
					<polyline style="fill:#FF819C;" points="164.04,241.68 156.75,246.12 165.35,251.52 					"/>
					<path style="fill:#1E348E;" d="M158.66,242.66c-3.56-1.39-8.96,1.46-8.96,1.46s0,0,0,0c-1.1,0.49-2.17,1.24-3.08,2.26
						c-2.7,3.02-3.03,7.12-0.74,9.17c2.29,2.05,6.34,1.27,9.03-1.75c1.05-1.17,1.73-2.5,2.05-3.82l13.77,8.97
						c1.19,0.77,2.77,0.44,3.54-0.75l1.11-1.71c0.77-1.19,0.44-2.77-0.75-3.54l-15.37-10.01
						C159.08,242.82,158.87,242.73,158.66,242.66z M153.01,252.11c-1.46,1.63-3.65,2.06-4.89,0.95c-1.24-1.11-1.06-3.33,0.4-4.97
						c1.46-1.63,3.65-2.05,4.89-0.95C154.65,248.25,154.47,250.47,153.01,252.11z"/>
					<path style="fill:#FFB6B8;" d="M169.98,238.63c0,0-6.72,3.14-7.33,4.08c-0.4,0.61-3.42,5.64-5.45,9.04
						c-0.99,1.65-0.27,3.78,1.51,4.51l10.12,4.12c1.54,0.63,3.3-0.06,4.01-1.57l3.92-8.33"/>
				</g>
				<path style="fill:#FF8444;" d="M229.73,208.72l-4.06,24.22c-0.66,3.91-3.4,7.16-7.15,8.45l-42.67,14.75l-7.77-20.49l36.4-13.88
					l0.64-5.63l1.36-12.05L229.73,208.72z"/>
				<path style="fill:#FF8444;" d="M160.79,210.87l-12.23,15.05c-2.46,3.03-6.89,3.57-10.01,1.22L102,199.62l8.26-17.85l30.08,20.49
					l3.41-5.13l0.51-0.76L160.79,210.87z"/>
				<polygon style="fill:#8CACDD;" points="164.97,193.92 164.97,205.19 160.79,210.87 160.56,210.97 				"/>
				<polygon style="fill:#E54600;" points="148.11,207.14 140.34,202.27 143.75,197.14 				"/>
				<polygon style="fill:#E54600;" points="212.73,218.71 204.49,221.77 205.13,216.14 				"/>
				<polygon style="fill:#08133F;" points="195.15,276.97 194.04,304.1 179.67,276.97 				"/>
			</g>
			<g>
				<path style="fill:#6D1C5B;" d="M206.85,144.98v4.44c0,0,1.6,4.6-1.34,6.83c-2.95,2.23-6.18,8.75-10.14,6.36l-18.91-19.09
					c-2.29-1.3-3.99-3.44-5-5.63c-1.12-2.42-1.4-4.91-0.71-6.43c1.32-2.89,7.85,2.4,7.85,2.4s-4.55-9.67-1.74-13.22
					c2.81-3.56,7.07,6.03,7.07,6.03s-1.71-6.78,1.27-8.6c2.98-1.82,4.55,7.02,7.36,9.17c2.81,2.15,10.91,3.8,13.55,7.52
					c1.36,1.91,1.52,4.56,1.35,6.68C207.3,143.44,206.85,144.98,206.85,144.98z"/>
				<path style="fill:#510C44;" d="M206.85,149.42c0,0,1.6,4.6-1.34,6.83c-2.95,2.23-6.18,8.75-10.14,6.36l-18.91-19.09
					c-2.29-1.3-3.99-3.44-5-5.63l36,3.56c-0.16,2-0.6,3.54-0.6,3.54V149.42z"/>
				<path style="fill:#FF819C;" d="M201.3,147.88c3.31-0.55,4.75,2.08,4.02,4.43c-0.73,2.36-4.05,3-5.15,1.85"/>
				<g>
					<path style="fill:#FF819C;" d="M197.84,158.97v10.29c0,3.81-3.09,6.9-6.9,6.9h-0.75c-3.68,0-6.69-2.88-6.89-6.51
						c0-0.13-0.01-0.26-0.01-0.38v-10.29H197.84z"/>
					<path style="fill:#DD4E73;" d="M197.84,158.97v1.6c-1.28,5.15-4.77,9.97-14.54,9.07c0-0.13-0.01-0.26-0.01-0.38v-10.29H197.84z
						"/>
					<path style="fill:#FFB6B8;" d="M187.64,165.91L187.64,165.91c-6.37,0-11.53-5.16-11.53-11.53v-12.6h22.06l3.55,10.04
						C201.73,159.6,195.42,165.91,187.64,165.91z"/>
				</g>
				<path style="fill:none;stroke:#DD4E73;stroke-width:0.4637;stroke-linecap:round;stroke-miterlimit:10;" d="M185.2,153.05
					c0,0-1.43,3.2-1.27,3.61c0.17,0.41,2.53,1.07,2.53,1.07"/>
				<rect x="199.17" y="144.98" style="fill:#111C5B;" width="7.68" height="4.43"/>
				<rect x="195.15" y="144.98" style="fill:#08123F;" width="7.68" height="4.43"/>
				<g>
					<path style="fill:#111C5B;" d="M201.31,144.06v10.72c0,0.62-0.47,1.12-1.04,1.12h-9.27c-0.37,0-0.71-0.21-0.9-0.56l-0.33-0.61
						c-0.4-0.74-1.39-0.74-1.79,0l-0.34,0.61c-0.16,0.29-0.42,0.48-0.72,0.54c-0.3-0.06-0.56-0.25-0.72-0.54l-0.34-0.61
						c-0.4-0.74-1.39-0.74-1.79,0l-0.34,0.61c-0.19,0.34-0.53,0.56-0.89,0.56h-5.37c-0.57,0-1.04-0.5-1.04-1.12v-10.72
						c0-0.62,0.47-1.12,1.04-1.12h22.78C200.85,142.94,201.31,143.44,201.31,144.06z"/>
					<path style="fill:#1E348E;" d="M197.42,144.06v10.72c0,0.62-0.47,1.12-1.04,1.12h-9.27c-0.06,0-0.12,0-0.18-0.02
						c-0.3-0.06-0.56-0.25-0.72-0.54l-0.34-0.61c-0.4-0.74-1.39-0.74-1.79,0l-0.34,0.61c-0.19,0.34-0.53,0.56-0.89,0.56h-9.27
						c-0.57,0-1.04-0.5-1.04-1.12v-10.72c0-0.62,0.47-1.12,1.04-1.12h22.78C196.95,142.94,197.42,143.44,197.42,144.06z"/>
					<path style="fill:none;stroke:#111C5B;stroke-width:0.4637;stroke-miterlimit:10;" d="M187.62,154.03l-0.11-0.21
						c-0.51-0.93-1.47-1.51-2.52-1.51s-2.01,0.58-2.52,1.52l-0.11,0.2h-6.6c-0.74,0-1.34-0.6-1.34-1.34v-6.56
						c0-0.74,0.6-1.34,1.34-1.34h18.47c0.74,0,1.34,0.6,1.34,1.34v6.56c0,0.74-0.6,1.34-1.34,1.34H187.62z"/>
					<path style="fill:#1E348E;" d="M199.83,151.12h-0.39c-0.35,0-0.63-0.28-0.63-0.63v-2.48c0-0.35,0.28-0.63,0.63-0.63h0.39
						c0.35,0,0.63,0.28,0.63,0.63v2.48C200.46,150.84,200.18,151.12,199.83,151.12z"/>
					<path style="fill:#4864BC;" d="M200.11,150.68h-0.3c-0.27,0-0.49-0.22-0.49-0.49v-1.9c0-0.27,0.22-0.49,0.49-0.49h0.3
						c0.27,0,0.49,0.22,0.49,0.49v1.9C200.6,150.47,200.38,150.68,200.11,150.68z"/>
				</g>
				<path style="fill:none;stroke:#DD4E73;stroke-width:0.4637;stroke-linecap:round;stroke-miterlimit:10;" d="M187.27,160.51
					c0,0,2.62,0.83,4.49-0.52"/>
			</g>
		</g>
		<g>
			<g>
				<path style="fill:#FFFFFF;" d="M107.05,151.56H61.06c-2.96,0-5.37-2.4-5.37-5.37v-30.16c0-2.96,2.4-5.37,5.37-5.37h45.99
					c2.96,0,5.37,2.4,5.37,5.37v30.16C112.42,149.16,110.02,151.56,107.05,151.56z"/>
				<path style="fill:none;stroke:#FFFFFF;stroke-width:1.391;stroke-miterlimit:10;" d="M133.25,133.94H87.25
					c-2.96,0-5.37-2.4-5.37-5.37V98.42c0-2.96,2.4-5.37,5.37-5.37h45.99c2.96,0,5.37,2.4,5.37,5.37v30.16
					C138.61,131.54,136.21,133.94,133.25,133.94z"/>
				<path style="fill:#FFFFFF;" d="M149.35,169.99h-28.19c-1.82,0-3.29-1.47-3.29-3.29v-18.49c0-1.82,1.47-3.29,3.29-3.29h28.19
					c1.82,0,3.29,1.47,3.29,3.29v18.49C152.64,168.52,151.17,169.99,149.35,169.99z"/>
				<g>
					<path style="fill:#D7E3F7;" d="M100.66,123.7H67.45c-0.63,0-1.14-0.51-1.14-1.14l0,0c0-0.63,0.51-1.14,1.14-1.14h33.21
						c0.63,0,1.14,0.51,1.14,1.14l0,0C101.8,123.19,101.29,123.7,100.66,123.7z"/>
					<path style="fill:#D7E3F7;" d="M100.66,132.25H67.45c-0.63,0-1.14-0.51-1.14-1.14l0,0c0-0.63,0.51-1.14,1.14-1.14h33.21
						c0.63,0,1.14,0.51,1.14,1.14l0,0C101.8,131.74,101.29,132.25,100.66,132.25z"/>
					<path style="fill:#D7E3F7;" d="M84.61,140.81H67.45c-0.63,0-1.14-0.51-1.14-1.14l0,0c0-0.63,0.51-1.14,1.14-1.14h17.16
						c0.63,0,1.14,0.51,1.14,1.14l0,0C85.75,140.3,85.24,140.81,84.61,140.81z"/>
				</g>
			</g>
			
				<ellipse transform="matrix(0.7071 -0.7071 0.7071 0.7071 -94.8966 119.0163)" style="fill:none;stroke:#FFFFFF;stroke-width:1.391;stroke-miterlimit:10;" cx="96.22" cy="174.06" rx="19.89" ry="19.89"/>
			<circle style="fill:none;stroke:#FFFFFF;stroke-width:1.391;stroke-miterlimit:10;" cx="150.77" cy="250.1" r="19.89"/>
			
				<line style="fill:none;stroke:#FFFFFF;stroke-width:1.391;stroke-miterlimit:10;" x1="110.25" y1="159.96" x2="124.54" y2="133.94"/>
			
				<line style="fill:none;stroke:#FFFFFF;stroke-width:1.391;stroke-miterlimit:10;" x1="136.54" y1="236.2" x2="86.36" y2="150.5"/>
		</g>
	</g>
	<g>
		<g>
			<g>
				<polygon style="fill:#421C5B;" points="355.31,388.35 327.5,388.35 316.04,304.16 312.34,276.97 304.01,388.35 275.76,388.35 
					281.2,238.3 338.38,238.3 				"/>
				<polygon style="fill:#34003D;" points="327.21,274.65 316.04,304.16 312.34,276.97 				"/>
				<path style="fill:#FFFFFF;" d="M377.49,409.18h-49.37c-1.03,0-1.85-0.87-1.79-1.91l0.52-8.5h25.96l4.9-8.6l20.87,15.78
					C379.95,406.99,379.21,409.18,377.49,409.18z"/>
				<path style="fill:#FFFFFF;" d="M308.35,409.18h-30.34c-1.78,0-3.18-1.5-3.07-3.27l0.49-8.01c3.87,0,9.16,0.04,9.16,0.04
					l6.36-6.36h14.31l5.91,13.27C312.07,406.88,310.58,409.18,308.35,409.18z"/>
				<path style="fill:#FFB6B8;" d="M305.26,391.58h-14.31l-6.36,6.36c0,0-5.29-0.04-9.16-0.04l0.59-9.55h27.81L305.26,391.58z"/>
				<polygon style="fill:#FFB6B8;" points="357.71,390.17 352.81,398.77 326.85,398.77 327.49,388.35 355.3,388.35 				"/>
			</g>
			<path style="fill:#510C44;" d="M325.68,132.31c-10.36-9.81-28.17-6.94-29.51,12.67l0.86,2.4l-0.86,2.04c0,0-8.28,6.47-8.94,17.05
				c-0.66,10.58-35.13,30.94-12.22,52.49c22.91,21.55,68.27,14.82,66.96-14.98c-1.3-29.8-11.55-45.55-12.21-48.58
				C329.09,152.36,338.68,130.77,325.68,132.31z"/>
			<g>
				<g>
					<g>
						<polyline style="fill:#FFB6B8;" points="405.03,185.78 397.36,180.33 396.16,181.32 391.21,185.78 396.06,199.57 
							406.8,196.98 						"/>
						<path style="fill:#1E348E;" d="M398.93,177.22l4.41,17.81c0.34,1.37,1.73,2.21,3.1,1.87l1.98-0.49
							c1.37-0.34,2.21-1.73,1.87-3.1l-3.95-15.95c1.35,0.13,2.83-0.08,4.28-0.69c3.73-1.56,5.8-5.12,4.61-7.96
							c-1.18-2.84-5.17-3.87-8.91-2.31c-1.26,0.53-2.33,1.29-3.15,2.17c0,0,0,0,0,0s-4.47,4.17-4.33,7.99
							C398.85,176.78,398.87,177,398.93,177.22z M404.81,173.07c-0.64-1.53,0.48-3.46,2.5-4.31c2.02-0.84,4.18-0.29,4.82,1.25
							c0.64,1.54-0.48,3.46-2.5,4.31C407.61,175.16,405.45,174.6,404.81,173.07z"/>
					</g>
					<path style="fill:#FFB6B8;" d="M403.37,188.18c0.65,4.85,1.52,10.04,2.11,10.01c0.63-0.03,2.94-0.13,4.81-0.22
						c1.44-0.06,2.61-1.19,2.74-2.62l1.11-12.82c0.13-1.45-0.85-2.73-2.21-3.04c-0.21-0.05-0.43-0.08-0.66-0.08h-0.83
						c0,0-7.88,0.16-7.99,0.5C402.4,180.06,402.8,183.99,403.37,188.18z"/>
					<path style="fill:#FF819C;" d="M403.37,188.18c4.52-1.05,7.52-4.36,8.55-8.69c-0.21-0.05-0.43-0.08-0.66-0.08h-0.83
						c0,0-7.88,0.16-7.99,0.5C402.4,180.06,402.8,183.99,403.37,188.18z"/>
					<path style="fill:#FFB6B8;" d="M397.36,180.33c0,0,10.22-2.43,11.5-1.4c1.28,1.03,1.03,3.59-1.07,4.38
						c-2.11,0.78-9.67,2.15-9.67,2.15"/>
				</g>
				<path style="fill:#B0CEFF;" d="M272,197.63l1.19,11.09l7.19,26.53l0.83,3.06h57.18l-0.19-19.35l-0.14-13.76l4.18,5.68l0.23,0.09
					l4.68,1.88l11.52-16.47L347,178.77c-2.09-3.15-5.36-5.34-9.07-6.07l-14.97-2.49l-3.35-0.56h-14.54l-3.57,0.73l-10.52,2.15
					C279.02,174.57,270.71,185.56,272,197.63z"/>
				<path style="fill:#FFFFFF;" d="M301.5,170.38c0.98,3.23,3.66,8.1,10.95,8.1c8.16,0,10.07-5.49,10.51-8.27l-3.35-0.56h-14.54
					L301.5,170.38z"/>
				<polygon style="fill:#7C9AFF;" points="280.37,235.24 281.2,238.3 325.21,238.3 296.53,195.22 296.53,204.09 				"/>
				<g>
					<polyline style="fill:#FF819C;" points="338.97,241.68 346.26,246.12 337.67,251.52 					"/>
					<path style="fill:#1E348E;" d="M343.75,242.95l-15.37,10.01c-1.19,0.77-1.52,2.36-0.75,3.54l1.11,1.71
						c0.77,1.19,2.36,1.52,3.54,0.75l13.77-8.97c0.32,1.31,1.01,2.65,2.05,3.82c2.7,3.01,6.74,3.8,9.03,1.75
						c2.29-2.05,1.96-6.15-0.74-9.17c-0.91-1.02-1.98-1.77-3.08-2.26c0,0,0,0,0,0s-5.4-2.85-8.96-1.46
						C344.14,242.73,343.94,242.82,343.75,242.95z M349.6,247.14c1.24-1.11,3.43-0.68,4.89,0.95c1.46,1.63,1.64,3.85,0.4,4.97
						c-1.24,1.11-3.43,0.68-4.89-0.95C348.55,250.47,348.36,248.25,349.6,247.14z"/>
					<path style="fill:#FFB6B8;" d="M333.04,238.63c0,0,6.72,3.14,7.33,4.08c0.4,0.61,3.42,5.64,5.45,9.04
						c0.99,1.65,0.27,3.78-1.51,4.51l-10.12,4.12c-1.54,0.63-3.3-0.06-4.01-1.57l-3.92-8.33"/>
				</g>
				<path style="fill:#FFB6B8;" d="M273.29,208.72l4.06,24.22c0.66,3.91,3.4,7.16,7.15,8.45l42.26,10.13l6.93-12.58l-35.16-17.17
					l-0.64-5.63l-1.36-12.05L273.29,208.72z"/>
				<path style="fill:#FFB6B8;" d="M342.23,210.87l12.23,15.05c2.46,3.03,6.89,3.57,10.01,1.22l32.9-27.89l-5.03-14.5l-29.66,17.52
					l-3.41-5.13l-0.51-0.76L342.23,210.87z"/>
				<polygon style="fill:#7C9AFF;" points="338.05,193.92 338.05,205.19 342.23,210.87 342.46,210.97 				"/>
				<polygon style="fill:#FF819C;" points="354.91,207.14 362.68,202.27 359.27,197.14 				"/>
				<polygon style="fill:#FF819C;" points="290.29,218.71 298.53,221.77 297.89,216.14 				"/>
			</g>
			<g>
				<path style="fill:#FF819C;" d="M301.72,147.88c-3.31-0.55-4.75,2.08-4.02,4.43c0.73,2.36,4.05,3,5.15,1.85"/>
				<g>
					<path style="fill:#FF819C;" d="M305.17,158.97v10.29c0,3.81,3.09,6.9,6.9,6.9h0.75c3.68,0,6.69-2.88,6.89-6.51
						c0-0.13,0.01-0.26,0.01-0.38v-10.29H305.17z"/>
					<path style="fill:#DD4E73;" d="M305.17,158.97v1.6c1.28,5.15,4.77,9.97,14.54,9.07c0-0.13,0.01-0.26,0.01-0.38v-10.29H305.17z"
						/>
					<path style="fill:#FFB6B8;" d="M315.38,165.91L315.38,165.91c6.37,0,11.53-5.16,11.53-11.53v-12.6h-22.06l-3.55,10.04
						C301.29,159.6,307.6,165.91,315.38,165.91z"/>
				</g>
				<path style="fill:none;stroke:#DD4E73;stroke-width:0.4637;stroke-linecap:round;stroke-miterlimit:10;" d="M317.82,153.05
					c0,0,1.43,3.2,1.27,3.61c-0.17,0.41-2.53,1.07-2.53,1.07"/>
				
					<rect x="296.17" y="144.98" transform="matrix(-1 -1.224647e-16 1.224647e-16 -1 600.0189 294.3912)" style="fill:#111C5B;" width="7.68" height="4.43"/>
				
					<rect x="300.18" y="144.98" transform="matrix(-1 -1.224647e-16 1.224647e-16 -1 608.0429 294.3912)" style="fill:#08123F;" width="7.68" height="4.43"/>
				<g>
					<path style="fill:#111C5B;" d="M301.7,144.06v10.72c0,0.62,0.47,1.12,1.04,1.12h9.27c0.37,0,0.71-0.21,0.9-0.56l0.33-0.61
						c0.4-0.74,1.39-0.74,1.79,0l0.34,0.61c0.16,0.29,0.42,0.48,0.72,0.54c0.3-0.06,0.56-0.25,0.72-0.54l0.34-0.61
						c0.4-0.74,1.39-0.74,1.79,0l0.34,0.61c0.19,0.34,0.53,0.56,0.89,0.56h5.37c0.57,0,1.04-0.5,1.04-1.12v-10.72
						c0-0.62-0.47-1.12-1.04-1.12h-22.78C302.17,142.94,301.7,143.44,301.7,144.06z"/>
					<path style="fill:#1E348E;" d="M305.6,144.06v10.72c0,0.62,0.47,1.12,1.04,1.12h9.27c0.06,0,0.12,0,0.18-0.02
						c0.3-0.06,0.56-0.25,0.72-0.54l0.34-0.61c0.4-0.74,1.39-0.74,1.79,0l0.34,0.61c0.19,0.34,0.53,0.56,0.89,0.56h9.27
						c0.57,0,1.04-0.5,1.04-1.12v-10.72c0-0.62-0.47-1.12-1.04-1.12h-22.78C306.06,142.94,305.6,143.44,305.6,144.06z"/>
					<path style="fill:none;stroke:#111C5B;stroke-width:0.4637;stroke-miterlimit:10;" d="M315.39,154.03l0.11-0.21
						c0.51-0.93,1.47-1.51,2.52-1.51s2.01,0.58,2.52,1.52l0.11,0.2h6.6c0.74,0,1.34-0.6,1.34-1.34v-6.56c0-0.74-0.6-1.34-1.34-1.34
						H308.8c-0.74,0-1.34,0.6-1.34,1.34v6.56c0,0.74,0.6,1.34,1.34,1.34H315.39z"/>
					<path style="fill:#1E348E;" d="M303.19,151.12h0.39c0.35,0,0.63-0.28,0.63-0.63v-2.48c0-0.35-0.28-0.63-0.63-0.63h-0.39
						c-0.35,0-0.63,0.28-0.63,0.63v2.48C302.56,150.84,302.84,151.12,303.19,151.12z"/>
					<path style="fill:#4864BC;" d="M302.91,150.68h0.3c0.27,0,0.49-0.22,0.49-0.49v-1.9c0-0.27-0.22-0.49-0.49-0.49h-0.3
						c-0.27,0-0.49,0.22-0.49,0.49v1.9C302.42,150.47,302.64,150.68,302.91,150.68z"/>
				</g>
				<path style="fill:none;stroke:#DD4E73;stroke-width:0.4637;stroke-linecap:round;stroke-miterlimit:10;" d="M315.75,160.51
					c0,0-2.62,0.83-4.49-0.52"/>
			</g>
		</g>
		<g>
			<g>
				<path style="fill:#FFFFFF;" d="M392.79,129.12H346.8c-2.96,0-5.37-2.4-5.37-5.37V93.59c0-2.96,2.4-5.37,5.37-5.37h45.99
					c2.96,0,5.37,2.4,5.37,5.37v30.16C398.16,126.71,395.76,129.12,392.79,129.12z"/>
				<path style="fill:none;stroke:#FFFFFF;stroke-width:1.391;stroke-miterlimit:10;" d="M435.56,142.9h-45.99
					c-2.96,0-5.37-2.4-5.37-5.37v-30.16c0-2.96,2.4-5.37,5.37-5.37h45.99c2.96,0,5.37,2.4,5.37,5.37v30.16
					C440.93,140.49,438.52,142.9,435.56,142.9z"/>
				<path style="fill:#FFFFFF;" d="M458.17,153.01h-28.19c-1.82,0-3.29-1.47-3.29-3.29v-18.49c0-1.82,1.47-3.29,3.29-3.29h28.19
					c1.82,0,3.29,1.47,3.29,3.29v18.49C461.46,151.53,459.99,153.01,458.17,153.01z"/>
				<g>
					<path style="fill:#D7E3F7;" d="M386.4,101.26h-33.21c-0.63,0-1.14-0.51-1.14-1.14l0,0c0-0.63,0.51-1.14,1.14-1.14h33.21
						c0.63,0,1.14,0.51,1.14,1.14l0,0C387.54,100.75,387.03,101.26,386.4,101.26z"/>
					<path style="fill:#D7E3F7;" d="M386.4,109.81h-33.21c-0.63,0-1.14-0.51-1.14-1.14l0,0c0-0.63,0.51-1.14,1.14-1.14h33.21
						c0.63,0,1.14,0.51,1.14,1.14l0,0C387.54,109.3,387.03,109.81,386.4,109.81z"/>
					<path style="fill:#D7E3F7;" d="M370.35,118.36h-17.16c-0.63,0-1.14-0.51-1.14-1.14l0,0c0-0.63,0.51-1.14,1.14-1.14h17.16
						c0.63,0,1.14,0.51,1.14,1.14l0,0C371.49,117.85,370.98,118.36,370.35,118.36z"/>
				</g>
			</g>
			
				<ellipse transform="matrix(0.1592 -0.9872 0.9872 0.1592 46.2073 561.6021)" style="fill:none;stroke:#FFFFFF;stroke-width:1.391;stroke-miterlimit:10;" cx="352.81" cy="253.67" rx="19.89" ry="19.89"/>
			
				<ellipse transform="matrix(0.9258 -0.3781 0.3781 0.9258 -35.6125 166.7243)" style="fill:none;stroke:#FFFFFF;stroke-width:1.391;stroke-miterlimit:10;" cx="406.8" cy="174.06" rx="19.89" ry="19.89"/>
			
				<line style="fill:none;stroke:#FFFFFF;stroke-width:1.391;stroke-miterlimit:10;" x1="367.23" y1="239.98" x2="440.93" y2="153.01"/>
			
				<line style="fill:none;stroke:#FFFFFF;stroke-width:1.391;stroke-miterlimit:10;" x1="402.12" y1="154.72" x2="381.69" y2="127.94"/>
		</g>
	</g>
</g>
</svg>
