<?xml version="1.0" encoding="utf-8"?>
<!-- Generator: Adobe Illustrator 27.9.0, SVG Export Plug-In . SVG Version: 6.00 Build 0)  -->
<svg version="1.1" id="Calque_1" xmlns="http://www.w3.org/2000/svg" xmlns:xlink="http://www.w3.org/1999/xlink" x="0px" y="0px"
	 viewBox="0 0 1463.9 794.6" style="enable-background:new 0 0 1463.9 794.6;" xml:space="preserve">
<style type="text/css">
	.st0{fill:url(#SVGID_1_);}
	.st1{fill:#7AFF73;}
	.st2{fill:url(#SVGID_00000163757703469537795400000013422388242556757648_);}
	.st3{fill:url(#SVGID_00000056386031036498411650000017777224913370973346_);}
	.st4{fill:#FFFFFF;}
	.st5{fill:url(#SVGID_00000090275304772521184800000009324219309382100622_);}
	.st6{fill:url(#SVGID_00000125561939421959713880000004448328099525878957_);}
	.st7{fill:url(#SVGID_00000138534274867850901010000016269125291780547759_);}
	.st8{fill:url(#SVGID_00000030485082080161467580000003224680465391296939_);}
	.st9{font-family:'ArialMT';}
	.st10{font-size:60px;}
</style>
<linearGradient id="SVGID_1_" gradientUnits="userSpaceOnUse" x1="731.65" y1="564.2283" x2="731.65" y2="-262.9145" gradientTransform="matrix(1 0 0 1 0 242.9481)">
	<stop  offset="0" style="stop-color:#0F0D0E"/>
	<stop  offset="0.1578" style="stop-color:#100D12"/>
	<stop  offset="0.325" style="stop-color:#130B1F"/>
	<stop  offset="0.4967" style="stop-color:#180934"/>
	<stop  offset="0.6715" style="stop-color:#1F0652"/>
	<stop  offset="0.8468" style="stop-color:#280378"/>
	<stop  offset="0.9478" style="stop-color:#2E0091"/>
</linearGradient>
<rect x="-0.6" y="0" class="st0" width="1464.5" height="794.6"/>
<g>
	<g>
		<g>
			<g>
				<g>
					<rect x="273.9" y="445" class="st1" width="26" height="2.8"/>
				</g>
				<g>
					<rect x="273.9" y="428.2" class="st1" width="26" height="2.8"/>
				</g>
				<g>
					<rect x="273.9" y="411.3" class="st1" width="26" height="2.8"/>
				</g>
				<g>
					<rect x="273.9" y="394.5" class="st1" width="26" height="2.8"/>
				</g>
				<g>
					<rect x="273.9" y="377.7" class="st1" width="26" height="2.8"/>
				</g>
				<g>
					<rect x="273.9" y="360.9" class="st1" width="26" height="2.8"/>
				</g>
				<g>
					<rect x="273.9" y="344.1" class="st1" width="26" height="2.8"/>
				</g>
				<g>
					<rect x="273.9" y="327.3" class="st1" width="26" height="2.8"/>
				</g>
			</g>
			<g>
				<g>
					<rect x="55.8" y="445" class="st1" width="26" height="2.8"/>
				</g>
				<g>
					<rect x="55.8" y="428.2" class="st1" width="26" height="2.8"/>
				</g>
				<g>
					<rect x="55.8" y="411.3" class="st1" width="26" height="2.8"/>
				</g>
				<g>
					<rect x="55.8" y="394.5" class="st1" width="26" height="2.8"/>
				</g>
				<g>
					<rect x="55.8" y="377.7" class="st1" width="26" height="2.8"/>
				</g>
				<g>
					<rect x="55.8" y="360.9" class="st1" width="26" height="2.8"/>
				</g>
				<g>
					<rect x="55.8" y="344.1" class="st1" width="26" height="2.8"/>
				</g>
				<g>
					<rect x="55.8" y="327.3" class="st1" width="26" height="2.8"/>
				</g>
			</g>
		</g>
		<g>
			<g>
				<g>
					<rect x="117.6" y="483.6" class="st1" width="2.8" height="73.8"/>
				</g>
				<g>
					<rect x="134.4" y="483.6" class="st1" width="2.8" height="26"/>
				</g>
				<g>
					<rect x="151.2" y="483.6" class="st1" width="2.8" height="26"/>
				</g>
				<g>
					<rect x="168" y="483.6" class="st1" width="2.8" height="26"/>
				</g>
				<g>
					<rect x="184.8" y="483.6" class="st1" width="2.8" height="26"/>
				</g>
				<g>
					<rect x="201.7" y="483.6" class="st1" width="2.8" height="26"/>
				</g>
				<g>
					<rect x="218.5" y="483.6" class="st1" width="2.8" height="26"/>
				</g>
				<g>
					<rect x="235.3" y="483.6" class="st1" width="2.8" height="26"/>
				</g>
			</g>
			<g>
				<g>
					<rect x="117.6" y="265.4" class="st1" width="2.8" height="26"/>
				</g>
				<g>
					<rect x="134.4" y="265.4" class="st1" width="2.8" height="26"/>
				</g>
				<g>
					<rect x="151.2" y="265.4" class="st1" width="2.8" height="26"/>
				</g>
				<g>
					<rect x="168" y="265.4" class="st1" width="2.8" height="26"/>
				</g>
				<g>
					<rect x="184.8" y="265.4" class="st1" width="2.8" height="26"/>
				</g>
				<g>
					<rect x="201.7" y="265.4" class="st1" width="2.8" height="26"/>
				</g>
				<g>
					<rect x="218.5" y="265.4" class="st1" width="2.8" height="26"/>
				</g>
				<g>
					<rect x="235.3" y="265.4" class="st1" width="2.8" height="26"/>
				</g>
			</g>
		</g>
	</g>
	
		<linearGradient id="SVGID_00000036951168334544800980000001369376860927282588_" gradientUnits="userSpaceOnUse" x1="1942.9529" y1="31.7814" x2="1942.9529" y2="235.7032" gradientTransform="matrix(-1 0 0 1 2120.7529 242.9481)">
		<stop  offset="0" style="stop-color:#0F0D0E"/>
		<stop  offset="0.1927" style="stop-color:#100D12"/>
		<stop  offset="0.3659" style="stop-color:#120C1C"/>
		<stop  offset="0.5315" style="stop-color:#170A2F"/>
		<stop  offset="0.6925" style="stop-color:#1D0749"/>
		<stop  offset="0.8486" style="stop-color:#250469"/>
		<stop  offset="1" style="stop-color:#2E0091"/>
	</linearGradient>
	<path style="fill:url(#SVGID_00000036951168334544800980000001369376860927282588_);" d="M275,335.9V439
		c0,25.2-20.4,45.6-45.6,45.6H126.2c-25.2,0-45.6-20.4-45.6-45.6V335.9c0-25.2,20.4-45.6,45.6-45.6h103.1
		C254.6,290.3,275,310.7,275,335.9z"/>
	
		<linearGradient id="SVGID_00000168086186350008289220000012011801982521750950_" gradientUnits="userSpaceOnUse" x1="1942.9529" y1="66.7408" x2="1942.9529" y2="222.6156" gradientTransform="matrix(-1 0 0 1 2120.7529 242.9481)">
		<stop  offset="0" style="stop-color:#FF47E3"/>
		<stop  offset="0.1557" style="stop-color:#FB46E2;stop-opacity:0.8443"/>
		<stop  offset="0.2956" style="stop-color:#F142DD;stop-opacity:0.7044"/>
		<stop  offset="0.4296" style="stop-color:#DE3CD6;stop-opacity:0.5704"/>
		<stop  offset="0.5598" style="stop-color:#C433CC;stop-opacity:0.4402"/>
		<stop  offset="0.6873" style="stop-color:#A328BF;stop-opacity:0.3127"/>
		<stop  offset="0.8128" style="stop-color:#7A1AAF;stop-opacity:0.1872"/>
		<stop  offset="0.9344" style="stop-color:#4B0A9C;stop-opacity:6.560000e-02"/>
		<stop  offset="1" style="stop-color:#2E0091;stop-opacity:0"/>
	</linearGradient>
	<path style="fill:url(#SVGID_00000168086186350008289220000012011801982521750950_);" d="M260.4,343.7v87.7
		c0,21.4-17.4,38.8-38.8,38.8H134c-21.4,0-38.8-17.4-38.8-38.8v-87.7c0-21.4,17.4-38.8,38.8-38.8h87.7
		C243.1,304.9,260.4,322.2,260.4,343.7z"/>
	<g>
		<g>
			<path class="st4" d="M178.7,459.3c-17.8,0-31.8-30.2-31.8-68.8c0-32.5,10.1-60.1,24.6-67.1l1.2,2.5
				c-13.4,6.5-23.1,33.7-23.1,64.6c0,36.4,13,66.1,29,66.1s29-29.6,29-66c0-31.4-9.9-58.6-23.4-64.8l1.1-2.5
				c14.8,6.7,25.1,34.4,25.1,67.3C210.5,429.1,196.5,459.3,178.7,459.3z"/>
		</g>
		<g>
			<path class="st4" d="M213,434.5c-15.2,0-36.2-8.5-55.9-23.6c-30.7-23.3-46.3-52.7-35.6-66.9c10.8-14.2,43.3-7,74,16.3
				c25.9,19.6,41.7,44.4,38.5,60.2l-2.7-0.5c2.9-14.6-12.8-38.8-37.5-57.5c-29-22-60.5-29.6-70.1-16.9c-9.7,12.7,6,41,35,63.1
				c25,19,52.6,27.6,65.8,20.5l1.3,2.4C222.3,433.6,218,434.5,213,434.5z"/>
		</g>
		<g>
			<path class="st4" d="M142.6,434.5c-5,0-9.3-0.9-12.8-2.8l1.3-2.4c13.1,7.1,40.8-1.5,65.8-20.5c14.2-10.8,25.6-23.4,32.2-35.5
				c6.4-11.8,7.4-21.6,2.8-27.6c-9.7-12.7-41.1-5.2-70.1,16.9c-24.6,18.7-40.4,42.9-37.5,57.5l-2.7,0.5
				c-3.2-15.8,12.7-40.6,38.5-60.2c30.7-23.3,63.2-30.5,74-16.3c5.3,6.9,4.3,17.8-2.6,30.5C224.7,387,213,400,198.6,411
				C178.8,426,157.8,434.5,142.6,434.5z"/>
		</g>
		<g>
			<path class="st1" d="M178.7,330.5c-4.1,0-7.4-3.3-7.4-7.4s3.3-7.4,7.4-7.4s7.4,3.3,7.4,7.4S182.8,330.5,178.7,330.5z
				 M178.7,318.4c-2.6,0-4.7,2.1-4.7,4.7s2.1,4.7,4.7,4.7c2.6,0,4.7-2.1,4.7-4.7S181.3,318.4,178.7,318.4z"/>
		</g>
		<g>
			<path class="st1" d="M230,433.9c-1.6,0-3.1-0.5-4.5-1.5l0,0c-3.3-2.5-3.9-7.2-1.4-10.4c2.5-3.3,7.2-3.9,10.4-1.4
				c1.6,1.2,2.6,3,2.9,4.9c0.3,2-0.2,3.9-1.4,5.5C234.5,432.9,232.2,433.9,230,433.9z M227.2,430.2c2.1,1.6,5,1.2,6.6-0.9
				c0.8-1,1.1-2.2,0.9-3.5s-0.8-2.3-1.8-3.1s-2.2-1.1-3.5-0.9c-1.2,0.2-2.3,0.8-3.1,1.8C224.7,425.7,225.1,428.6,227.2,430.2
				L227.2,430.2z"/>
		</g>
		<g>
			<path class="st1" d="M125.6,433.9c-2.2,0-4.5-1-5.9-2.9c-1.2-1.6-1.7-3.5-1.4-5.5s1.3-3.7,2.9-4.9c3.3-2.5,7.9-1.9,10.4,1.4
				s1.8,8-1.4,10.4l0,0C128.8,433.4,127.2,433.9,125.6,433.9z M125.6,421.8c-1,0-2,0.3-2.8,1c-1,0.8-1.6,1.9-1.8,3.1
				c-0.2,1.2,0.2,2.5,0.9,3.5c1.6,2.1,4.5,2.5,6.6,0.9s2.5-4.5,0.9-6.6c-0.8-1-1.9-1.6-3.1-1.8C126.1,421.8,125.8,421.8,125.6,421.8
				z"/>
		</g>
	</g>
	
		<linearGradient id="SVGID_00000106111632729463346770000014076412948406908350_" gradientUnits="userSpaceOnUse" x1="2303.4595" y1="-104.6214" x2="2309.9192" y2="-52.6026" gradientTransform="matrix(1 0 0 -1 -2127.2424 295.6259)">
		<stop  offset="0" style="stop-color:#0F0D0E"/>
		<stop  offset="0.1927" style="stop-color:#100D12"/>
		<stop  offset="0.3659" style="stop-color:#120C1C"/>
		<stop  offset="0.5315" style="stop-color:#170A2F"/>
		<stop  offset="0.6925" style="stop-color:#1D0749"/>
		<stop  offset="0.8486" style="stop-color:#250469"/>
		<stop  offset="1" style="stop-color:#2E0091"/>
	</linearGradient>
	<circle style="fill:url(#SVGID_00000106111632729463346770000014076412948406908350_);" cx="177.8" cy="387.5" r="16.6"/>
</g>
<g>
	<g>
		<g>
			<g>
				<g>
					<rect x="1165.3" y="442.7" class="st1" width="26" height="2.8"/>
				</g>
				<g>
					<rect x="1165.3" y="425.8" class="st1" width="26" height="2.8"/>
				</g>
				<g>
					<rect x="1165.3" y="409" class="st1" width="26" height="2.8"/>
				</g>
				<g>
					<rect x="1165.3" y="392.2" class="st1" width="26" height="2.8"/>
				</g>
				<g>
					<rect x="1165.3" y="375.4" class="st1" width="26" height="2.8"/>
				</g>
				<g>
					<rect x="1165.3" y="358.6" class="st1" width="26" height="2.8"/>
				</g>
				<g>
					<rect x="1165.3" y="341.7" class="st1" width="26" height="2.8"/>
				</g>
				<g>
					<rect x="1165.3" y="324.9" class="st1" width="26" height="2.8"/>
				</g>
			</g>
			<g>
				<g>
					<rect x="1383.4" y="442.7" class="st1" width="26" height="2.8"/>
				</g>
				<g>
					<rect x="1383.4" y="425.8" class="st1" width="26" height="2.8"/>
				</g>
				<g>
					<rect x="1383.4" y="409" class="st1" width="26" height="2.8"/>
				</g>
				<g>
					<rect x="1383.4" y="392.2" class="st1" width="26" height="2.8"/>
				</g>
				<g>
					<rect x="1383.4" y="375.4" class="st1" width="26" height="2.8"/>
				</g>
				<g>
					<rect x="1383.4" y="358.6" class="st1" width="26" height="2.8"/>
				</g>
				<g>
					<rect x="1383.4" y="341.7" class="st1" width="26" height="2.8"/>
				</g>
				<g>
					<rect x="1383.4" y="324.9" class="st1" width="26" height="2.8"/>
				</g>
			</g>
		</g>
		<g>
			<g>
				<g>
					<rect x="1344.8" y="481.2" class="st1" width="2.8" height="76.1"/>
				</g>
				<g>
					<rect x="1328" y="481.2" class="st1" width="2.8" height="26"/>
				</g>
				<g>
					<rect x="1311.2" y="481.2" class="st1" width="2.8" height="26"/>
				</g>
				<g>
					<rect x="1294.4" y="481.2" class="st1" width="2.8" height="26"/>
				</g>
				<g>
					<rect x="1277.6" y="481.2" class="st1" width="2.8" height="26"/>
				</g>
				<g>
					<rect x="1260.7" y="481.2" class="st1" width="2.8" height="26"/>
				</g>
				<g>
					<rect x="1243.9" y="481.2" class="st1" width="2.8" height="26"/>
				</g>
				<g>
					<rect x="1227.1" y="481.2" class="st1" width="2.8" height="26"/>
				</g>
			</g>
			<g>
				<g>
					<rect x="1344.8" y="263.1" class="st1" width="2.8" height="26"/>
				</g>
				<g>
					<rect x="1328" y="263.1" class="st1" width="2.8" height="26"/>
				</g>
				<g>
					<rect x="1311.2" y="263.1" class="st1" width="2.8" height="26"/>
				</g>
				<g>
					<rect x="1294.4" y="263.1" class="st1" width="2.8" height="26"/>
				</g>
				<g>
					<rect x="1277.6" y="263.1" class="st1" width="2.8" height="26"/>
				</g>
				<g>
					<rect x="1260.7" y="263.1" class="st1" width="2.8" height="26"/>
				</g>
				<g>
					<rect x="1243.9" y="263.1" class="st1" width="2.8" height="26"/>
				</g>
				<g>
					<rect x="1227.1" y="263.1" class="st1" width="2.8" height="26"/>
				</g>
			</g>
		</g>
	</g>
	
		<linearGradient id="SVGID_00000110441796085166556640000012827702847711526835_" gradientUnits="userSpaceOnUse" x1="1287.3499" y1="29.4554" x2="1287.3499" y2="233.3774" gradientTransform="matrix(1 0 0 1 0 242.9481)">
		<stop  offset="0" style="stop-color:#0F0D0E"/>
		<stop  offset="0.1927" style="stop-color:#100D12"/>
		<stop  offset="0.3659" style="stop-color:#120C1C"/>
		<stop  offset="0.5315" style="stop-color:#170A2F"/>
		<stop  offset="0.6925" style="stop-color:#1D0749"/>
		<stop  offset="0.8486" style="stop-color:#250469"/>
		<stop  offset="1" style="stop-color:#2E0091"/>
	</linearGradient>
	<path style="fill:url(#SVGID_00000110441796085166556640000012827702847711526835_);" d="M1190.2,333.6v103.1
		c0,25.2,20.4,45.6,45.6,45.6h103.1c25.2,0,45.6-20.4,45.6-45.6V333.6c0-25.2-20.4-45.6-45.6-45.6h-103.1
		C1210.6,288,1190.2,308.4,1190.2,333.6z"/>
	
		<linearGradient id="SVGID_00000078024802541452137450000009477619697033494193_" gradientUnits="userSpaceOnUse" x1="1287.35" y1="64.4148" x2="1287.35" y2="220.2897" gradientTransform="matrix(1 0 0 1 0 242.9481)">
		<stop  offset="0" style="stop-color:#FF47E3"/>
		<stop  offset="0.1557" style="stop-color:#FB46E2;stop-opacity:0.8443"/>
		<stop  offset="0.2956" style="stop-color:#F142DD;stop-opacity:0.7044"/>
		<stop  offset="0.4296" style="stop-color:#DE3CD6;stop-opacity:0.5704"/>
		<stop  offset="0.5598" style="stop-color:#C433CC;stop-opacity:0.4402"/>
		<stop  offset="0.6873" style="stop-color:#A328BF;stop-opacity:0.3127"/>
		<stop  offset="0.8128" style="stop-color:#7A1AAF;stop-opacity:0.1872"/>
		<stop  offset="0.9344" style="stop-color:#4B0A9C;stop-opacity:6.560000e-02"/>
		<stop  offset="1" style="stop-color:#2E0091;stop-opacity:0"/>
	</linearGradient>
	<path style="fill:url(#SVGID_00000078024802541452137450000009477619697033494193_);" d="M1204.7,341.3V429
		c0,21.4,17.4,38.8,38.8,38.8h87.7c21.4,0,38.8-17.4,38.8-38.8v-87.7c0-21.4-17.4-38.8-38.8-38.8h-87.7
		C1222.1,302.6,1204.7,319.9,1204.7,341.3z"/>
	<g>
		<g>
			<path class="st4" d="M1286.4,457c-17.8,0-31.8-30.2-31.8-68.8c0-32.9,10.3-60.6,25.1-67.3l1.1,2.5c-13.6,6.2-23.4,33.4-23.4,64.8
				c0,36.4,13,66,29,66s29-29.6,29-66c0-31-9.7-58.1-23.1-64.6l1.2-2.5c14.5,7,24.6,34.6,24.6,67.1
				C1318.2,426.8,1304.2,457,1286.4,457z"/>
		</g>
		<g>
			<path class="st4" d="M1252.1,432.2c-5,0-9.3-0.9-12.8-2.8l1.3-2.4c13.1,7.1,40.8-1.5,65.8-20.5c29-22,44.7-50.3,35-63
				s-41.1-5.2-70.1,16.9c-24.7,18.7-40.4,42.9-37.5,57.5l-2.7,0.5c-3.2-15.8,12.7-40.6,38.5-60.2c30.7-23.3,63.2-30.5,74-16.3
				s-4.8,43.6-35.6,66.9C1288.3,423.6,1267.4,432.2,1252.1,432.2z"/>
		</g>
		<g>
			<path class="st4" d="M1322.6,432.2c-15.2,0-36.2-8.5-55.9-23.6c-30.7-23.3-46.3-52.7-35.6-66.9c5.3-6.9,15.9-8.9,30.1-5.7
				c13.8,3.2,29.4,11,43.9,22c25.8,19.6,41.7,44.4,38.5,60.2l-2.7-0.5c2.9-14.6-12.8-38.8-37.5-57.5c-14.2-10.8-29.4-18.4-42.8-21.5
				c-13.1-3-22.8-1.4-27.3,4.6c-9.7,12.7,6,41,35,63.1c25,19,52.7,27.6,65.8,20.5l1.3,2.4C1331.9,431.3,1327.5,432.2,1322.6,432.2z"
				/>
		</g>
		<g>
			<path class="st1" d="M1286.4,328.2c-4.1,0-7.4-3.3-7.4-7.4s3.3-7.4,7.4-7.4s7.4,3.3,7.4,7.4
				C1293.9,324.9,1290.5,328.2,1286.4,328.2z M1286.4,316.1c-2.6,0-4.7,2.1-4.7,4.7s2.1,4.7,4.7,4.7s4.7-2.1,4.7-4.7
				S1289,316.1,1286.4,316.1z"/>
		</g>
		<g>
			<path class="st1" d="M1235.2,431.6c-0.3,0-0.7,0-1-0.1c-2-0.3-3.7-1.3-4.9-2.9c-2.5-3.3-1.8-8,1.4-10.4c1.6-1.2,3.5-1.7,5.5-1.5
				s3.7,1.3,4.9,2.9s1.7,3.5,1.4,5.5s-1.3,3.7-2.9,4.9C1238.4,431,1236.8,431.6,1235.2,431.6z M1235.2,419.4c-1,0-2,0.3-2.8,1
				c-1,0.8-1.6,1.9-1.8,3.1c-0.2,1.2,0.2,2.5,0.9,3.5c0.8,1,1.9,1.6,3.1,1.8c1.2,0.2,2.5-0.2,3.5-0.9c2.1-1.6,2.5-4.5,0.9-6.6
				c-0.8-1-1.9-1.6-3.1-1.8C1235.6,419.4,1235.4,419.4,1235.2,419.4z"/>
		</g>
		<g>
			<path class="st1" d="M1339.5,431.6c-1.6,0-3.2-0.5-4.5-1.5l0,0c-1.6-1.2-2.6-3-2.9-4.9s0.2-3.9,1.4-5.5c2.5-3.3,7.2-3.9,10.4-1.4
				c1.6,1.2,2.6,3,2.9,4.9s-0.2,3.9-1.4,5.5C1344,430.5,1341.8,431.6,1339.5,431.6z M1336.7,427.9c2.1,1.6,5,1.2,6.6-0.9
				c0.8-1,1.1-2.2,0.9-3.5c-0.2-1.2-0.8-2.3-1.8-3.1s-2.2-1.1-3.5-0.9c-1.2,0.2-2.3,0.8-3.1,1.8s-1.1,2.2-0.9,3.5
				C1335.1,426,1335.7,427.1,1336.7,427.9L1336.7,427.9z"/>
		</g>
	</g>
	
		<linearGradient id="SVGID_00000108291775013522907690000003140657375502481825_" gradientUnits="userSpaceOnUse" x1="2959.1145" y1="-102.3041" x2="2965.5742" y2="-50.2854" gradientTransform="matrix(-1 0 0 -1 4247.9951 295.6259)">
		<stop  offset="0" style="stop-color:#0F0D0E"/>
		<stop  offset="0.1927" style="stop-color:#100D12"/>
		<stop  offset="0.3659" style="stop-color:#120C1C"/>
		<stop  offset="0.5315" style="stop-color:#170A2F"/>
		<stop  offset="0.6925" style="stop-color:#1D0749"/>
		<stop  offset="0.8486" style="stop-color:#250469"/>
		<stop  offset="1" style="stop-color:#2E0091"/>
	</linearGradient>
	<circle style="fill:url(#SVGID_00000108291775013522907690000003140657375502481825_);" cx="1287.3" cy="385.2" r="16.7"/>
</g>
<g>
	<g>
		<path class="st1" d="M1153,249.9c-3.6,0-6.5-2.9-6.5-6.5s2.9-6.5,6.5-6.5s6.5,2.9,6.5,6.5C1159.5,246.9,1156.6,249.9,1153,249.9z
			 M1153,239.6c-2.1,0-3.7,1.7-3.7,3.7c0,2.1,1.7,3.7,3.7,3.7s3.7-1.7,3.7-3.7S1155.1,239.6,1153,239.6z"/>
	</g>
	<g>
		<path class="st1" d="M1153,277.3c-18.7,0-33.9-15.2-33.9-33.9s15.2-33.9,33.9-33.9s33.9,15.2,33.9,33.9S1171.7,277.3,1153,277.3z
			 M1153,212.2c-17.2,0-31.2,14-31.2,31.2s14,31.2,31.2,31.2s31.2-14,31.2-31.2S1170.2,212.2,1153,212.2z"/>
	</g>
	<g>
		<path class="st1" d="M1345.8,568.9c-3.6,0-6.5-2.9-6.5-6.5s2.9-6.5,6.5-6.5s6.5,2.9,6.5,6.5C1352.2,566,1349.3,568.9,1345.8,568.9
			z M1345.8,558.7c-2.1,0-3.7,1.7-3.7,3.7s1.7,3.7,3.7,3.7s3.7-1.7,3.7-3.7S1347.8,558.7,1345.8,558.7z"/>
	</g>
	<g>
		<path class="st1" d="M1271.4,217.3c-3.6,0-6.5-2.9-6.5-6.5s2.9-6.5,6.5-6.5s6.5,2.9,6.5,6.5
			C1277.8,214.4,1274.9,217.3,1271.4,217.3z M1271.4,207.1c-2.1,0-3.7,1.7-3.7,3.7c0,2.1,1.7,3.7,3.7,3.7s3.7-1.7,3.7-3.7
			S1273.4,207.1,1271.4,207.1z"/>
	</g>
	<g>
		<rect x="1153.8" y="209.5" class="st1" width="112.4" height="2.8"/>
	</g>
	<g>
		<path class="st1" d="M1249.5,598H1154c-19.2,0-34.8-15.6-34.8-34.8l-0.1-409.6h2.8l0.1,409.6c0,17.6,14.4,32,32,32h95.5V598z"/>
	</g>
	<g>
		<path class="st1" d="M1405.7,598H430.5v-2.8h975.2c20.8,0,37.7-16.9,37.7-37.7V153.7h2.8v403.9C1446.1,579.9,1428,598,1405.7,598z
			 M231.6,598H57.8c-22.3,0-40.4-18.1-40.4-40.4V153.7h2.8v403.9c0,20.8,16.9,37.7,37.7,37.7h173.7L231.6,598L231.6,598z"/>
	</g>
	<g>
		<path class="st1" d="M1406.4,298.1c-3.8,0-6.8-3.1-6.8-6.8s3.1-6.8,6.8-6.8c3.8,0,6.8,3.1,6.8,6.8
			C1413.2,295,1410.1,298.1,1406.4,298.1z M1406.4,287.2c-2.2,0-4.1,1.8-4.1,4.1c0,2.2,1.8,4.1,4.1,4.1c2.2,0,4.1-1.8,4.1-4.1
			C1410.4,289,1408.6,287.2,1406.4,287.2z"/>
	</g>
	<g>
		<rect x="1411.4" y="263.5" class="st1" width="34" height="2.8"/>
	</g>
	<g>
		<path class="st1" d="M1406.4,271.7c-3.8,0-6.8-3-6.8-6.8s3.1-6.8,6.8-6.8c3.8,0,6.8,3,6.8,6.8
			C1413.2,268.6,1410.1,271.7,1406.4,271.7z M1406.4,260.8c-2.2,0-4.1,1.8-4.1,4s1.8,4.1,4.1,4.1c2.2,0,4.1-1.8,4.1-4.1
			C1410.4,262.6,1408.6,260.8,1406.4,260.8z"/>
	</g>
	<g>
		<rect x="1411.4" y="289.9" class="st1" width="33.5" height="2.8"/>
	</g>
	<g>
		<path class="st1" d="M1407.1,243.8c-3.8,0-6.8-3.1-6.8-6.8c0-3.8,3.1-6.8,6.8-6.8s6.8,3.1,6.8,6.8
			C1413.9,240.8,1410.8,243.8,1407.1,243.8z M1407.1,233c-2.2,0-4.1,1.8-4.1,4.1c0,2.2,1.8,4.1,4.1,4.1c2.2,0,4.1-1.8,4.1-4.1
			C1411.1,234.8,1409.3,233,1407.1,233z"/>
	</g>
	<g>
		<rect x="1306.2" y="209.3" class="st1" width="139.9" height="2.8"/>
	</g>
	<g>
		<path class="st1" d="M1301.2,217.4c-3.8,0-6.8-3.1-6.8-6.8s3.1-6.8,6.8-6.8s6.8,3.1,6.8,6.8C1308,214.4,1304.9,217.4,1301.2,217.4
			z M1301.2,206.6c-2.2,0-4.1,1.8-4.1,4.1s1.8,4.1,4.1,4.1c2.2,0,4.1-1.8,4.1-4.1C1305.2,208.4,1303.4,206.6,1301.2,206.6z"/>
	</g>
	<g>
		<rect x="1412.1" y="235.7" class="st1" width="33.5" height="2.8"/>
	</g>
	<g>
		<path class="st1" d="M311.5,249.9c-3.6,0-6.5-2.9-6.5-6.5s2.9-6.5,6.5-6.5s6.5,2.9,6.5,6.5C317.9,246.9,315,249.9,311.5,249.9z
			 M311.5,239.6c-2.1,0-3.7,1.7-3.7,3.7c0,2.1,1.7,3.7,3.7,3.7c2.1,0,3.7-1.7,3.7-3.7S313.5,239.6,311.5,239.6z"/>
	</g>
	<g>
		<path class="st1" d="M311.5,277.3c-18.7,0-33.9-15.2-33.9-33.9s15.2-33.9,33.9-33.9s33.9,15.2,33.9,33.9S330.2,277.3,311.5,277.3z
			 M311.5,212.2c-17.2,0-31.2,14-31.2,31.2s14,31.2,31.2,31.2s31.2-14,31.2-31.2C342.6,226.2,328.6,212.2,311.5,212.2z"/>
	</g>
	<g>
		<path class="st1" d="M53.7,568.9c-3.6,0-6.5-2.9-6.5-6.5s2.9-6.5,6.5-6.5s6.5,2.9,6.5,6.5S57.3,568.9,53.7,568.9z M53.7,558.7
			c-2.1,0-3.7,1.7-3.7,3.7s1.7,3.7,3.7,3.7c2.1,0,3.7-1.7,3.7-3.7S55.8,558.7,53.7,558.7z"/>
	</g>
	<g>
		<path class="st1" d="M53.7,596.3c-18.7,0-33.9-15.2-33.9-33.9s15.2-33.9,33.9-33.9s33.9,15.2,33.9,33.9
			C87.6,581.1,72.4,596.3,53.7,596.3z M53.7,531.3c-17.2,0-31.2,14-31.2,31.2s14,31.2,31.2,31.2s31.2-14,31.2-31.2
			S70.9,531.3,53.7,531.3z"/>
	</g>
	<g>
		<path class="st1" d="M118.7,568.9c-3.6,0-6.5-2.9-6.5-6.5s2.9-6.5,6.5-6.5s6.5,2.9,6.5,6.5S122.3,568.9,118.7,568.9z M118.7,558.7
			c-2.1,0-3.7,1.7-3.7,3.7s1.7,3.7,3.7,3.7c2.1,0,3.7-1.7,3.7-3.7C122.4,560.4,120.7,558.7,118.7,558.7z"/>
	</g>
	<g>
		<path class="st1" d="M236.7,603.1c-3.6,0-6.5-2.9-6.5-6.5s2.9-6.5,6.5-6.5s6.5,2.9,6.5,6.5S240.3,603.1,236.7,603.1z M236.7,592.9
			c-2.1,0-3.7,1.7-3.7,3.7s1.7,3.7,3.7,3.7c2.1,0,3.7-1.7,3.7-3.7S238.7,592.9,236.7,592.9z"/>
	</g>
	<g>
		<path class="st1" d="M425.4,603.1c-3.6,0-6.5-2.9-6.5-6.5s2.9-6.5,6.5-6.5s6.5,2.9,6.5,6.5S429,603.1,425.4,603.1z M425.4,592.9
			c-2.1,0-3.7,1.7-3.7,3.7s1.7,3.7,3.7,3.7c2.1,0,3.7-1.7,3.7-3.7S427.5,592.9,425.4,592.9z"/>
	</g>
	<g>
		<path class="st1" d="M87.2,217.3c-3.6,0-6.5-2.9-6.5-6.5s2.9-6.5,6.5-6.5s6.5,2.9,6.5,6.5C93.7,214.4,90.8,217.3,87.2,217.3z
			 M87.2,207.1c-2.1,0-3.7,1.7-3.7,3.7c0,2.1,1.7,3.7,3.7,3.7c2.1,0,3.7-1.7,3.7-3.7C90.9,208.8,89.2,207.1,87.2,207.1z"/>
	</g>
	<g>
		<path class="st1" d="M345.2,653.7h-2.8l0.1-409.4c0-8.6-3.3-16.6-9.4-22.6c-6-6.1-14.1-9.4-22.6-9.4H92.3v-2.7h218.3
			c9.3,0,18,3.6,24.6,10.2c6.6,6.6,10.2,15.3,10.2,24.6L345.2,653.7z"/>
	</g>
	<g>
		<path class="st1" d="M58.1,298.1c-3.8,0-6.8-3.1-6.8-6.8s3.1-6.8,6.8-6.8c3.8,0,6.8,3.1,6.8,6.8S61.8,298.1,58.1,298.1z
			 M58.1,287.2c-2.2,0-4.1,1.8-4.1,4.1c0,2.2,1.8,4.1,4.1,4.1s4.1-1.8,4.1-4.1C62.1,289,60.3,287.2,58.1,287.2z"/>
	</g>
	<g>
		<rect x="19.1" y="263.5" class="st1" width="34" height="2.8"/>
	</g>
	<g>
		<path class="st1" d="M58.1,271.7c-3.8,0-6.8-3-6.8-6.8s3.1-6.8,6.8-6.8c3.8,0,6.8,3,6.8,6.8C64.9,268.6,61.8,271.7,58.1,271.7z
			 M58.1,260.8c-2.2,0-4.1,1.8-4.1,4s1.8,4.1,4.1,4.1s4.1-1.8,4.1-4.1C62.1,262.6,60.3,260.8,58.1,260.8z"/>
	</g>
	<g>
		<rect x="19.5" y="289.9" class="st1" width="33.5" height="2.8"/>
	</g>
	<g>
		<path class="st1" d="M57.4,243.8c-3.8,0-6.8-3.1-6.8-6.8c0-3.8,3.1-6.8,6.8-6.8c3.8,0,6.8,3.1,6.8,6.8S61.1,243.8,57.4,243.8z
			 M57.4,233c-2.2,0-4.1,1.8-4.1,4.1c0,2.2,1.8,4.1,4.1,4.1s4.1-1.8,4.1-4.1C61.4,234.8,59.6,233,57.4,233z"/>
	</g>
	<g>
		<rect x="18.4" y="209.3" class="st1" width="34" height="2.8"/>
	</g>
	<g>
		<path class="st1" d="M57.4,217.4c-3.8,0-6.8-3.1-6.8-6.8s3.1-6.8,6.8-6.8c3.8,0,6.8,3.1,6.8,6.8C64.2,214.4,61.1,217.4,57.4,217.4
			z M57.4,206.6c-2.2,0-4.1,1.8-4.1,4.1s1.8,4.1,4.1,4.1s4.1-1.8,4.1-4.1C61.4,208.4,59.6,206.6,57.4,206.6z"/>
	</g>
	<g>
		<rect x="18.8" y="235.7" class="st1" width="33.5" height="2.8"/>
	</g>
	<g>
		<path class="st1" d="M1409.4,568.9c-3.6,0-6.5-2.9-6.5-6.5s2.9-6.5,6.5-6.5s6.5,2.9,6.5,6.5S1413,568.9,1409.4,568.9z
			 M1409.4,558.7c-2.1,0-3.7,1.7-3.7,3.7s1.7,3.7,3.7,3.7s3.7-1.7,3.7-3.7S1411.5,558.7,1409.4,558.7z"/>
	</g>
	<g>
		<path class="st1" d="M1409.4,596.3c-18.7,0-33.9-15.2-33.9-33.9s15.2-33.9,33.9-33.9s33.9,15.2,33.9,33.9
			S1428.1,596.3,1409.4,596.3z M1409.4,531.3c-17.2,0-31.2,14-31.2,31.2s14,31.2,31.2,31.2s31.2-14,31.2-31.2
			S1426.6,531.3,1409.4,531.3z"/>
	</g>
</g>
<g id="TEXTS">
	<g>
		<text transform="matrix(1.1 0 0 1 373.5635 397.2792)" class="st1 st9 st10">To take control of our life</text>
	</g>
</g>
</svg>
